<?xml version="1.0" encoding="UTF-8"?>
<svg xmlns="http://www.w3.org/2000/svg" xmlns:xlink="http://www.w3.org/1999/xlink" width="800pt" height="800pt" viewBox="0 0 800 800" version="1.1">
<g id="surface238">
<rect x="0" y="0" width="800" height="800" style="fill:rgb(100%,100%,100%);fill-opacity:1;stroke:none;"/>
<path style="fill:none;stroke-width:0.005;stroke-linecap:butt;stroke-linejoin:miter;stroke:rgb(80%,80%,80%);stroke-opacity:1;stroke-miterlimit:10;" d="M -10 -10 L -10 10 " transform="matrix(53333.333333,0,0,-53333.333333,400,400)"/>
<path style="fill:none;stroke-width:0.005;stroke-linecap:butt;stroke-linejoin:miter;stroke:rgb(80%,80%,80%);stroke-opacity:1;stroke-miterlimit:10;" d="M -9 -10 L -9 10 " transform="matrix(53333.333333,0,0,-53333.333333,400,400)"/>
<path style="fill:none;stroke-width:0.005;stroke-linecap:butt;stroke-linejoin:miter;stroke:rgb(80%,80%,80%);stroke-opacity:1;stroke-miterlimit:10;" d="M -8 -10 L -8 10 " transform="matrix(53333.333333,0,0,-53333.333333,400,400)"/>
<path style="fill:none;stroke-width:0.005;stroke-linecap:butt;stroke-linejoin:miter;stroke:rgb(80%,80%,80%);stroke-opacity:1;stroke-miterlimit:10;" d="M -7 -10 L -7 10 " transform="matrix(53333.333333,0,0,-53333.333333,400,400)"/>
<path style="fill:none;stroke-width:0.005;stroke-linecap:butt;stroke-linejoin:miter;stroke:rgb(80%,80%,80%);stroke-opacity:1;stroke-miterlimit:10;" d="M -6 -10 L -6 10 " transform="matrix(53333.333333,0,0,-53333.333333,400,400)"/>
<path style="fill:none;stroke-width:0.005;stroke-linecap:butt;stroke-linejoin:miter;stroke:rgb(80%,80%,80%);stroke-opacity:1;stroke-miterlimit:10;" d="M -5 -10 L -5 10 " transform="matrix(53333.333333,0,0,-53333.333333,400,400)"/>
<path style="fill:none;stroke-width:0.005;stroke-linecap:butt;stroke-linejoin:miter;stroke:rgb(80%,80%,80%);stroke-opacity:1;stroke-miterlimit:10;" d="M -4 -10 L -4 10 " transform="matrix(53333.333333,0,0,-53333.333333,400,400)"/>
<path style="fill:none;stroke-width:0.005;stroke-linecap:butt;stroke-linejoin:miter;stroke:rgb(80%,80%,80%);stroke-opacity:1;stroke-miterlimit:10;" d="M -3 -10 L -3 10 " transform="matrix(53333.333333,0,0,-53333.333333,400,400)"/>
<path style="fill:none;stroke-width:0.005;stroke-linecap:butt;stroke-linejoin:miter;stroke:rgb(80%,80%,80%);stroke-opacity:1;stroke-miterlimit:10;" d="M -2 -10 L -2 10 " transform="matrix(53333.333333,0,0,-53333.333333,400,400)"/>
<path style="fill:none;stroke-width:0.005;stroke-linecap:butt;stroke-linejoin:miter;stroke:rgb(80%,80%,80%);stroke-opacity:1;stroke-miterlimit:10;" d="M -1 -10 L -1 10 " transform="matrix(53333.333333,0,0,-53333.333333,400,400)"/>
<path style="fill:none;stroke-width:0.005;stroke-linecap:butt;stroke-linejoin:miter;stroke:rgb(80%,80%,80%);stroke-opacity:1;stroke-miterlimit:10;" d="M 0 -10 L 0 10 " transform="matrix(53333.333333,0,0,-53333.333333,400,400)"/>
<path style="fill:none;stroke-width:0.005;stroke-linecap:butt;stroke-linejoin:miter;stroke:rgb(80%,80%,80%);stroke-opacity:1;stroke-miterlimit:10;" d="M 1 -10 L 1 10 " transform="matrix(53333.333333,0,0,-53333.333333,400,400)"/>
<path style="fill:none;stroke-width:0.005;stroke-linecap:butt;stroke-linejoin:miter;stroke:rgb(80%,80%,80%);stroke-opacity:1;stroke-miterlimit:10;" d="M 2 -10 L 2 10 " transform="matrix(53333.333333,0,0,-53333.333333,400,400)"/>
<path style="fill:none;stroke-width:0.005;stroke-linecap:butt;stroke-linejoin:miter;stroke:rgb(80%,80%,80%);stroke-opacity:1;stroke-miterlimit:10;" d="M 3 -10 L 3 10 " transform="matrix(53333.333333,0,0,-53333.333333,400,400)"/>
<path style="fill:none;stroke-width:0.005;stroke-linecap:butt;stroke-linejoin:miter;stroke:rgb(80%,80%,80%);stroke-opacity:1;stroke-miterlimit:10;" d="M 4 -10 L 4 10 " transform="matrix(53333.333333,0,0,-53333.333333,400,400)"/>
<path style="fill:none;stroke-width:0.005;stroke-linecap:butt;stroke-linejoin:miter;stroke:rgb(80%,80%,80%);stroke-opacity:1;stroke-miterlimit:10;" d="M 5 -10 L 5 10 " transform="matrix(53333.333333,0,0,-53333.333333,400,400)"/>
<path style="fill:none;stroke-width:0.005;stroke-linecap:butt;stroke-linejoin:miter;stroke:rgb(80%,80%,80%);stroke-opacity:1;stroke-miterlimit:10;" d="M 6 -10 L 6 10 " transform="matrix(53333.333333,0,0,-53333.333333,400,400)"/>
<path style="fill:none;stroke-width:0.005;stroke-linecap:butt;stroke-linejoin:miter;stroke:rgb(80%,80%,80%);stroke-opacity:1;stroke-miterlimit:10;" d="M 7 -10 L 7 10 " transform="matrix(53333.333333,0,0,-53333.333333,400,400)"/>
<path style="fill:none;stroke-width:0.005;stroke-linecap:butt;stroke-linejoin:miter;stroke:rgb(80%,80%,80%);stroke-opacity:1;stroke-miterlimit:10;" d="M 8 -10 L 8 10 " transform="matrix(53333.333333,0,0,-53333.333333,400,400)"/>
<path style="fill:none;stroke-width:0.005;stroke-linecap:butt;stroke-linejoin:miter;stroke:rgb(80%,80%,80%);stroke-opacity:1;stroke-miterlimit:10;" d="M 9 -10 L 9 10 " transform="matrix(53333.333333,0,0,-53333.333333,400,400)"/>
<path style="fill:none;stroke-width:0.005;stroke-linecap:butt;stroke-linejoin:miter;stroke:rgb(80%,80%,80%);stroke-opacity:1;stroke-miterlimit:10;" d="M 10 -10 L 10 10 " transform="matrix(53333.333333,0,0,-53333.333333,400,400)"/>
<path style="fill:none;stroke-width:0.005;stroke-linecap:butt;stroke-linejoin:miter;stroke:rgb(80%,80%,80%);stroke-opacity:1;stroke-miterlimit:10;" d="M -10 -10 L 10 -10 " transform="matrix(53333.333333,0,0,-53333.333333,400,400)"/>
<path style="fill:none;stroke-width:0.005;stroke-linecap:butt;stroke-linejoin:miter;stroke:rgb(80%,80%,80%);stroke-opacity:1;stroke-miterlimit:10;" d="M -10 -9 L 10 -9 " transform="matrix(53333.333333,0,0,-53333.333333,400,400)"/>
<path style="fill:none;stroke-width:0.005;stroke-linecap:butt;stroke-linejoin:miter;stroke:rgb(80%,80%,80%);stroke-opacity:1;stroke-miterlimit:10;" d="M -10 -8 L 10 -8 " transform="matrix(53333.333333,0,0,-53333.333333,400,400)"/>
<path style="fill:none;stroke-width:0.005;stroke-linecap:butt;stroke-linejoin:miter;stroke:rgb(80%,80%,80%);stroke-opacity:1;stroke-miterlimit:10;" d="M -10 -7 L 10 -7 " transform="matrix(53333.333333,0,0,-53333.333333,400,400)"/>
<path style="fill:none;stroke-width:0.005;stroke-linecap:butt;stroke-linejoin:miter;stroke:rgb(80%,80%,80%);stroke-opacity:1;stroke-miterlimit:10;" d="M -10 -6 L 10 -6 " transform="matrix(53333.333333,0,0,-53333.333333,400,400)"/>
<path style="fill:none;stroke-width:0.005;stroke-linecap:butt;stroke-linejoin:miter;stroke:rgb(80%,80%,80%);stroke-opacity:1;stroke-miterlimit:10;" d="M -10 -5 L 10 -5 " transform="matrix(53333.333333,0,0,-53333.333333,400,400)"/>
<path style="fill:none;stroke-width:0.005;stroke-linecap:butt;stroke-linejoin:miter;stroke:rgb(80%,80%,80%);stroke-opacity:1;stroke-miterlimit:10;" d="M -10 -4 L 10 -4 " transform="matrix(53333.333333,0,0,-53333.333333,400,400)"/>
<path style="fill:none;stroke-width:0.005;stroke-linecap:butt;stroke-linejoin:miter;stroke:rgb(80%,80%,80%);stroke-opacity:1;stroke-miterlimit:10;" d="M -10 -3 L 10 -3 " transform="matrix(53333.333333,0,0,-53333.333333,400,400)"/>
<path style="fill:none;stroke-width:0.005;stroke-linecap:butt;stroke-linejoin:miter;stroke:rgb(80%,80%,80%);stroke-opacity:1;stroke-miterlimit:10;" d="M -10 -2 L 10 -2 " transform="matrix(53333.333333,0,0,-53333.333333,400,400)"/>
<path style="fill:none;stroke-width:0.005;stroke-linecap:butt;stroke-linejoin:miter;stroke:rgb(80%,80%,80%);stroke-opacity:1;stroke-miterlimit:10;" d="M -10 -1 L 10 -1 " transform="matrix(53333.333333,0,0,-53333.333333,400,400)"/>
<path style="fill:none;stroke-width:0.005;stroke-linecap:butt;stroke-linejoin:miter;stroke:rgb(80%,80%,80%);stroke-opacity:1;stroke-miterlimit:10;" d="M -10 0 L 10 0 " transform="matrix(53333.333333,0,0,-53333.333333,400,400)"/>
<path style="fill:none;stroke-width:0.005;stroke-linecap:butt;stroke-linejoin:miter;stroke:rgb(80%,80%,80%);stroke-opacity:1;stroke-miterlimit:10;" d="M -10 1 L 10 1 " transform="matrix(53333.333333,0,0,-53333.333333,400,400)"/>
<path style="fill:none;stroke-width:0.005;stroke-linecap:butt;stroke-linejoin:miter;stroke:rgb(80%,80%,80%);stroke-opacity:1;stroke-miterlimit:10;" d="M -10 2 L 10 2 " transform="matrix(53333.333333,0,0,-53333.333333,400,400)"/>
<path style="fill:none;stroke-width:0.005;stroke-linecap:butt;stroke-linejoin:miter;stroke:rgb(80%,80%,80%);stroke-opacity:1;stroke-miterlimit:10;" d="M -10 3 L 10 3 " transform="matrix(53333.333333,0,0,-53333.333333,400,400)"/>
<path style="fill:none;stroke-width:0.005;stroke-linecap:butt;stroke-linejoin:miter;stroke:rgb(80%,80%,80%);stroke-opacity:1;stroke-miterlimit:10;" d="M -10 4 L 10 4 " transform="matrix(53333.333333,0,0,-53333.333333,400,400)"/>
<path style="fill:none;stroke-width:0.005;stroke-linecap:butt;stroke-linejoin:miter;stroke:rgb(80%,80%,80%);stroke-opacity:1;stroke-miterlimit:10;" d="M -10 5 L 10 5 " transform="matrix(53333.333333,0,0,-53333.333333,400,400)"/>
<path style="fill:none;stroke-width:0.005;stroke-linecap:butt;stroke-linejoin:miter;stroke:rgb(80%,80%,80%);stroke-opacity:1;stroke-miterlimit:10;" d="M -10 6 L 10 6 " transform="matrix(53333.333333,0,0,-53333.333333,400,400)"/>
<path style="fill:none;stroke-width:0.005;stroke-linecap:butt;stroke-linejoin:miter;stroke:rgb(80%,80%,80%);stroke-opacity:1;stroke-miterlimit:10;" d="M -10 7 L 10 7 " transform="matrix(53333.333333,0,0,-53333.333333,400,400)"/>
<path style="fill:none;stroke-width:0.005;stroke-linecap:butt;stroke-linejoin:miter;stroke:rgb(80%,80%,80%);stroke-opacity:1;stroke-miterlimit:10;" d="M -10 8 L 10 8 " transform="matrix(53333.333333,0,0,-53333.333333,400,400)"/>
<path style="fill:none;stroke-width:0.005;stroke-linecap:butt;stroke-linejoin:miter;stroke:rgb(80%,80%,80%);stroke-opacity:1;stroke-miterlimit:10;" d="M -10 9 L 10 9 " transform="matrix(53333.333333,0,0,-53333.333333,400,400)"/>
<path style="fill:none;stroke-width:0.005;stroke-linecap:butt;stroke-linejoin:miter;stroke:rgb(80%,80%,80%);stroke-opacity:1;stroke-miterlimit:10;" d="M -10 10 L 10 10 " transform="matrix(53333.333333,0,0,-53333.333333,400,400)"/>
<path style=" stroke:none;fill-rule:nonzero;fill:rgb(100%,70%,70%);fill-opacity:1;" d="M 666.667969 400 C 666.667969 252.722656 547.277344 133.332031 400 133.332031 C 252.722656 133.332031 133.332031 252.722656 133.332031 400 C 133.332031 547.277344 252.722656 666.667969 400 666.667969 C 547.277344 666.667969 666.667969 547.277344 666.667969 400 "/>
<path style=" stroke:none;fill-rule:nonzero;fill:rgb(50%,50%,50%);fill-opacity:1;" d="M 400 122.667969 C 352.871094 122.667969 314.667969 179.972656 314.667969 250.667969 C 314.667969 321.359375 352.871094 378.667969 400 378.667969 C 447.128906 378.667969 485.332031 321.359375 485.332031 250.667969 C 485.332031 179.972656 447.128906 122.667969 400 122.667969 "/>
<path style=" stroke:none;fill-rule:nonzero;fill:rgb(50%,50%,50%);fill-opacity:1;" d="M 400 677.332031 C 447.128906 677.332031 485.332031 620.027344 485.332031 549.332031 C 485.332031 478.640625 447.128906 421.332031 400 421.332031 C 352.871094 421.332031 314.667969 478.640625 314.667969 549.332031 C 314.667969 620.027344 352.871094 677.332031 400 677.332031 "/>
<path style="fill-rule:nonzero;fill:rgb(100%,100%,100%);fill-opacity:1;stroke-width:0.005;stroke-linecap:butt;stroke-linejoin:miter;stroke:rgb(0%,0%,0%);stroke-opacity:1;stroke-miterlimit:10;" d="M 1 0 C 1 0.552307 0.552277 1 0 1 C -0.552277 1 -1 0.552307 -1 0 C -1 -0.552307 -0.552277 -1 0 -1 C 0.552277 -1 1 -0.552307 1 0 " transform="matrix(128,0,0,-64,400,400)"/>
<path style="fill-rule:nonzero;fill:rgb(100%,100%,100%);fill-opacity:1;stroke-width:0.005;stroke-linecap:butt;stroke-linejoin:miter;stroke:rgb(0%,0%,0%);stroke-opacity:1;stroke-miterlimit:10;" d="M 2.166687 0 C 2.166687 0.368179 1.868179 0.666687 1.5 0.666687 C 1.131821 0.666687 0.833313 0.368179 0.833313 0 C 0.833313 -0.368179 1.131821 -0.666687 1.5 -0.666687 C 1.868179 -0.666687 2.166687 -0.368179 2.166687 0 " transform="matrix(85.333333,0,0,-85.333333,400,400)"/>
</g>
</svg>
