<?xml version="1.0" encoding="UTF-8"?>
<svg xmlns="http://www.w3.org/2000/svg" xmlns:xlink="http://www.w3.org/1999/xlink" width="800pt" height="800pt" viewBox="0 0 800 800" version="1.1">
<g id="surface211">
<rect x="0" y="0" width="800" height="800" style="fill:rgb(100%,100%,100%);fill-opacity:1;stroke:none;"/>
<path style="fill:none;stroke-width:0.005;stroke-linecap:butt;stroke-linejoin:miter;stroke:rgb(80%,80%,80%);stroke-opacity:1;stroke-miterlimit:10;" d="M -9.999999 -9.999999 L -9.999999 9.999999 " transform="matrix(0.000000000000081643,-1333.333333,-1333.333333,-0.000000000000081643,400,400)"/>
<path style="fill:none;stroke-width:0.005;stroke-linecap:butt;stroke-linejoin:miter;stroke:rgb(80%,80%,80%);stroke-opacity:1;stroke-miterlimit:10;" d="M -9 -9.999999 L -9 9.999999 " transform="matrix(0.000000000000081643,-1333.333333,-1333.333333,-0.000000000000081643,400,400)"/>
<path style="fill:none;stroke-width:0.005;stroke-linecap:butt;stroke-linejoin:miter;stroke:rgb(80%,80%,80%);stroke-opacity:1;stroke-miterlimit:10;" d="M -8.000001 -9.999999 L -8.000001 9.999999 " transform="matrix(0.000000000000081643,-1333.333333,-1333.333333,-0.000000000000081643,400,400)"/>
<path style="fill:none;stroke-width:0.005;stroke-linecap:butt;stroke-linejoin:miter;stroke:rgb(80%,80%,80%);stroke-opacity:1;stroke-miterlimit:10;" d="M -6.999999 -9.999999 L -6.999999 9.999999 " transform="matrix(0.000000000000081643,-1333.333333,-1333.333333,-0.000000000000081643,400,400)"/>
<path style="fill:none;stroke-width:0.005;stroke-linecap:butt;stroke-linejoin:miter;stroke:rgb(80%,80%,80%);stroke-opacity:1;stroke-miterlimit:10;" d="M -6 -9.999999 L -6 9.999999 " transform="matrix(0.000000000000081643,-1333.333333,-1333.333333,-0.000000000000081643,400,400)"/>
<path style="fill:none;stroke-width:0.005;stroke-linecap:butt;stroke-linejoin:miter;stroke:rgb(80%,80%,80%);stroke-opacity:1;stroke-miterlimit:10;" d="M -5.000001 -9.999999 L -5.000001 9.999999 " transform="matrix(0.000000000000081643,-1333.333333,-1333.333333,-0.000000000000081643,400,400)"/>
<path style="fill:none;stroke-width:0.005;stroke-linecap:butt;stroke-linejoin:miter;stroke:rgb(80%,80%,80%);stroke-opacity:1;stroke-miterlimit:10;" d="M -3.999999 -9.999999 L -3.999999 9.999999 " transform="matrix(0.000000000000081643,-1333.333333,-1333.333333,-0.000000000000081643,400,400)"/>
<path style="fill:none;stroke-width:0.005;stroke-linecap:butt;stroke-linejoin:miter;stroke:rgb(80%,80%,80%);stroke-opacity:1;stroke-miterlimit:10;" d="M -3 -9.999999 L -3 9.999999 " transform="matrix(0.000000000000081643,-1333.333333,-1333.333333,-0.000000000000081643,400,400)"/>
<path style="fill:none;stroke-width:0.005;stroke-linecap:butt;stroke-linejoin:miter;stroke:rgb(80%,80%,80%);stroke-opacity:1;stroke-miterlimit:10;" d="M -2.000001 -9.999999 L -2.000001 9.999999 " transform="matrix(0.000000000000081643,-1333.333333,-1333.333333,-0.000000000000081643,400,400)"/>
<path style="fill:none;stroke-width:0.005;stroke-linecap:butt;stroke-linejoin:miter;stroke:rgb(80%,80%,80%);stroke-opacity:1;stroke-miterlimit:10;" d="M -0.999999 -9.999999 L -0.999999 9.999999 " transform="matrix(0.000000000000081643,-1333.333333,-1333.333333,-0.000000000000081643,400,400)"/>
<path style="fill:none;stroke-width:0.005;stroke-linecap:butt;stroke-linejoin:miter;stroke:rgb(80%,80%,80%);stroke-opacity:1;stroke-miterlimit:10;" d="M 0.000000000000000611 -9.999999 L -0.000000000000000611 9.999999 " transform="matrix(0.000000000000081643,-1333.333333,-1333.333333,-0.000000000000081643,400,400)"/>
<path style="fill:none;stroke-width:0.005;stroke-linecap:butt;stroke-linejoin:miter;stroke:rgb(80%,80%,80%);stroke-opacity:1;stroke-miterlimit:10;" d="M 0.999999 -9.999999 L 0.999999 9.999999 " transform="matrix(0.000000000000081643,-1333.333333,-1333.333333,-0.000000000000081643,400,400)"/>
<path style="fill:none;stroke-width:0.005;stroke-linecap:butt;stroke-linejoin:miter;stroke:rgb(80%,80%,80%);stroke-opacity:1;stroke-miterlimit:10;" d="M 2.000001 -9.999999 L 2.000001 9.999999 " transform="matrix(0.000000000000081643,-1333.333333,-1333.333333,-0.000000000000081643,400,400)"/>
<path style="fill:none;stroke-width:0.005;stroke-linecap:butt;stroke-linejoin:miter;stroke:rgb(80%,80%,80%);stroke-opacity:1;stroke-miterlimit:10;" d="M 3 -9.999999 L 3 9.999999 " transform="matrix(0.000000000000081643,-1333.333333,-1333.333333,-0.000000000000081643,400,400)"/>
<path style="fill:none;stroke-width:0.005;stroke-linecap:butt;stroke-linejoin:miter;stroke:rgb(80%,80%,80%);stroke-opacity:1;stroke-miterlimit:10;" d="M 3.999999 -9.999999 L 3.999999 9.999999 " transform="matrix(0.000000000000081643,-1333.333333,-1333.333333,-0.000000000000081643,400,400)"/>
<path style="fill:none;stroke-width:0.005;stroke-linecap:butt;stroke-linejoin:miter;stroke:rgb(80%,80%,80%);stroke-opacity:1;stroke-miterlimit:10;" d="M 5.000001 -9.999999 L 5.000001 9.999999 " transform="matrix(0.000000000000081643,-1333.333333,-1333.333333,-0.000000000000081643,400,400)"/>
<path style="fill:none;stroke-width:0.005;stroke-linecap:butt;stroke-linejoin:miter;stroke:rgb(80%,80%,80%);stroke-opacity:1;stroke-miterlimit:10;" d="M 6 -9.999999 L 6 9.999999 " transform="matrix(0.000000000000081643,-1333.333333,-1333.333333,-0.000000000000081643,400,400)"/>
<path style="fill:none;stroke-width:0.005;stroke-linecap:butt;stroke-linejoin:miter;stroke:rgb(80%,80%,80%);stroke-opacity:1;stroke-miterlimit:10;" d="M 6.999999 -9.999999 L 6.999999 9.999999 " transform="matrix(0.000000000000081643,-1333.333333,-1333.333333,-0.000000000000081643,400,400)"/>
<path style="fill:none;stroke-width:0.005;stroke-linecap:butt;stroke-linejoin:miter;stroke:rgb(80%,80%,80%);stroke-opacity:1;stroke-miterlimit:10;" d="M 8.000001 -9.999999 L 8.000001 9.999999 " transform="matrix(0.000000000000081643,-1333.333333,-1333.333333,-0.000000000000081643,400,400)"/>
<path style="fill:none;stroke-width:0.005;stroke-linecap:butt;stroke-linejoin:miter;stroke:rgb(80%,80%,80%);stroke-opacity:1;stroke-miterlimit:10;" d="M 9 -9.999999 L 9 9.999999 " transform="matrix(0.000000000000081643,-1333.333333,-1333.333333,-0.000000000000081643,400,400)"/>
<path style="fill:none;stroke-width:0.005;stroke-linecap:butt;stroke-linejoin:miter;stroke:rgb(80%,80%,80%);stroke-opacity:1;stroke-miterlimit:10;" d="M 9.999999 -9.999999 L 9.999999 9.999999 " transform="matrix(0.000000000000081643,-1333.333333,-1333.333333,-0.000000000000081643,400,400)"/>
<path style="fill:none;stroke-width:0.005;stroke-linecap:butt;stroke-linejoin:miter;stroke:rgb(80%,80%,80%);stroke-opacity:1;stroke-miterlimit:10;" d="M -9.999999 -9.999999 L 9.999999 -9.999999 " transform="matrix(0.000000000000081643,-1333.333333,-1333.333333,-0.000000000000081643,400,400)"/>
<path style="fill:none;stroke-width:0.005;stroke-linecap:butt;stroke-linejoin:miter;stroke:rgb(80%,80%,80%);stroke-opacity:1;stroke-miterlimit:10;" d="M -9.999999 -9 L 9.999999 -9 " transform="matrix(0.000000000000081643,-1333.333333,-1333.333333,-0.000000000000081643,400,400)"/>
<path style="fill:none;stroke-width:0.005;stroke-linecap:butt;stroke-linejoin:miter;stroke:rgb(80%,80%,80%);stroke-opacity:1;stroke-miterlimit:10;" d="M -9.999999 -8.000001 L 9.999999 -8.000001 " transform="matrix(0.000000000000081643,-1333.333333,-1333.333333,-0.000000000000081643,400,400)"/>
<path style="fill:none;stroke-width:0.005;stroke-linecap:butt;stroke-linejoin:miter;stroke:rgb(80%,80%,80%);stroke-opacity:1;stroke-miterlimit:10;" d="M -9.999999 -6.999999 L 9.999999 -6.999999 " transform="matrix(0.000000000000081643,-1333.333333,-1333.333333,-0.000000000000081643,400,400)"/>
<path style="fill:none;stroke-width:0.005;stroke-linecap:butt;stroke-linejoin:miter;stroke:rgb(80%,80%,80%);stroke-opacity:1;stroke-miterlimit:10;" d="M -9.999999 -6 L 9.999999 -6 " transform="matrix(0.000000000000081643,-1333.333333,-1333.333333,-0.000000000000081643,400,400)"/>
<path style="fill:none;stroke-width:0.005;stroke-linecap:butt;stroke-linejoin:miter;stroke:rgb(80%,80%,80%);stroke-opacity:1;stroke-miterlimit:10;" d="M -9.999999 -5.000001 L 9.999999 -5.000001 " transform="matrix(0.000000000000081643,-1333.333333,-1333.333333,-0.000000000000081643,400,400)"/>
<path style="fill:none;stroke-width:0.005;stroke-linecap:butt;stroke-linejoin:miter;stroke:rgb(80%,80%,80%);stroke-opacity:1;stroke-miterlimit:10;" d="M -9.999999 -3.999999 L 9.999999 -3.999999 " transform="matrix(0.000000000000081643,-1333.333333,-1333.333333,-0.000000000000081643,400,400)"/>
<path style="fill:none;stroke-width:0.005;stroke-linecap:butt;stroke-linejoin:miter;stroke:rgb(80%,80%,80%);stroke-opacity:1;stroke-miterlimit:10;" d="M -9.999999 -3 L 9.999999 -3 " transform="matrix(0.000000000000081643,-1333.333333,-1333.333333,-0.000000000000081643,400,400)"/>
<path style="fill:none;stroke-width:0.005;stroke-linecap:butt;stroke-linejoin:miter;stroke:rgb(80%,80%,80%);stroke-opacity:1;stroke-miterlimit:10;" d="M -9.999999 -2.000001 L 9.999999 -2.000001 " transform="matrix(0.000000000000081643,-1333.333333,-1333.333333,-0.000000000000081643,400,400)"/>
<path style="fill:none;stroke-width:0.005;stroke-linecap:butt;stroke-linejoin:miter;stroke:rgb(80%,80%,80%);stroke-opacity:1;stroke-miterlimit:10;" d="M -9.999999 -0.999999 L 9.999999 -0.999999 " transform="matrix(0.000000000000081643,-1333.333333,-1333.333333,-0.000000000000081643,400,400)"/>
<path style="fill:none;stroke-width:0.005;stroke-linecap:butt;stroke-linejoin:miter;stroke:rgb(80%,80%,80%);stroke-opacity:1;stroke-miterlimit:10;" d="M -9.999999 -0.000000000000000611 L 9.999999 0.000000000000000611 " transform="matrix(0.000000000000081643,-1333.333333,-1333.333333,-0.000000000000081643,400,400)"/>
<path style="fill:none;stroke-width:0.005;stroke-linecap:butt;stroke-linejoin:miter;stroke:rgb(80%,80%,80%);stroke-opacity:1;stroke-miterlimit:10;" d="M -9.999999 0.999999 L 9.999999 0.999999 " transform="matrix(0.000000000000081643,-1333.333333,-1333.333333,-0.000000000000081643,400,400)"/>
<path style="fill:none;stroke-width:0.005;stroke-linecap:butt;stroke-linejoin:miter;stroke:rgb(80%,80%,80%);stroke-opacity:1;stroke-miterlimit:10;" d="M -9.999999 2.000001 L 9.999999 2.000001 " transform="matrix(0.000000000000081643,-1333.333333,-1333.333333,-0.000000000000081643,400,400)"/>
<path style="fill:none;stroke-width:0.005;stroke-linecap:butt;stroke-linejoin:miter;stroke:rgb(80%,80%,80%);stroke-opacity:1;stroke-miterlimit:10;" d="M -9.999999 3 L 9.999999 3 " transform="matrix(0.000000000000081643,-1333.333333,-1333.333333,-0.000000000000081643,400,400)"/>
<path style="fill:none;stroke-width:0.005;stroke-linecap:butt;stroke-linejoin:miter;stroke:rgb(80%,80%,80%);stroke-opacity:1;stroke-miterlimit:10;" d="M -9.999999 3.999999 L 9.999999 3.999999 " transform="matrix(0.000000000000081643,-1333.333333,-1333.333333,-0.000000000000081643,400,400)"/>
<path style="fill:none;stroke-width:0.005;stroke-linecap:butt;stroke-linejoin:miter;stroke:rgb(80%,80%,80%);stroke-opacity:1;stroke-miterlimit:10;" d="M -9.999999 5.000001 L 9.999999 5.000001 " transform="matrix(0.000000000000081643,-1333.333333,-1333.333333,-0.000000000000081643,400,400)"/>
<path style="fill:none;stroke-width:0.005;stroke-linecap:butt;stroke-linejoin:miter;stroke:rgb(80%,80%,80%);stroke-opacity:1;stroke-miterlimit:10;" d="M -9.999999 6 L 9.999999 6 " transform="matrix(0.000000000000081643,-1333.333333,-1333.333333,-0.000000000000081643,400,400)"/>
<path style="fill:none;stroke-width:0.005;stroke-linecap:butt;stroke-linejoin:miter;stroke:rgb(80%,80%,80%);stroke-opacity:1;stroke-miterlimit:10;" d="M -9.999999 6.999999 L 9.999999 6.999999 " transform="matrix(0.000000000000081643,-1333.333333,-1333.333333,-0.000000000000081643,400,400)"/>
<path style="fill:none;stroke-width:0.005;stroke-linecap:butt;stroke-linejoin:miter;stroke:rgb(80%,80%,80%);stroke-opacity:1;stroke-miterlimit:10;" d="M -9.999999 8.000001 L 9.999999 8.000001 " transform="matrix(0.000000000000081643,-1333.333333,-1333.333333,-0.000000000000081643,400,400)"/>
<path style="fill:none;stroke-width:0.005;stroke-linecap:butt;stroke-linejoin:miter;stroke:rgb(80%,80%,80%);stroke-opacity:1;stroke-miterlimit:10;" d="M -9.999999 9 L 9.999999 9 " transform="matrix(0.000000000000081643,-1333.333333,-1333.333333,-0.000000000000081643,400,400)"/>
<path style="fill:none;stroke-width:0.005;stroke-linecap:butt;stroke-linejoin:miter;stroke:rgb(80%,80%,80%);stroke-opacity:1;stroke-miterlimit:10;" d="M -9.999999 9.999999 L 9.999999 9.999999 " transform="matrix(0.000000000000081643,-1333.333333,-1333.333333,-0.000000000000081643,400,400)"/>
<path style=" stroke:none;fill-rule:nonzero;fill:rgb(100%,70%,70%);fill-opacity:1;" d="M 400 133.332031 C 252.722656 133.332031 133.332031 252.722656 133.332031 400 C 133.332031 547.277344 252.722656 666.667969 400 666.667969 C 547.277344 666.667969 666.667969 547.277344 666.667969 400 C 666.667969 252.722656 547.277344 133.332031 400 133.332031 "/>
<path style=" stroke:none;fill-rule:nonzero;fill:rgb(100%,70%,70%);fill-opacity:1;" d="M 400 133.332031 C 252.722656 133.332031 133.332031 252.722656 133.332031 400 C 133.332031 547.277344 252.722656 666.667969 400 666.667969 C 547.277344 666.667969 666.667969 547.277344 666.667969 400 C 666.667969 252.722656 547.277344 133.332031 400 133.332031 "/>
<path style="fill-rule:nonzero;fill:rgb(20%,20%,20%);fill-opacity:1;stroke-width:0.04;stroke-linecap:butt;stroke-linejoin:miter;stroke:rgb(0%,0%,0%);stroke-opacity:1;stroke-miterlimit:10;" d="M -0.441665 -0.124995 L 0.441665 -0.124995 C 0.525 -0.124995 0.525 -0.124995 0.525 -0.0416602 L 0.525 0.0416602 C 0.525 0.124995 0.525 0.124995 0.441665 0.124995 L -0.441665 0.124995 C -0.525 0.124995 -0.525 0.124995 -0.525 0.0416602 L -0.525 -0.0416602 C -0.525 -0.124995 -0.525 -0.124995 -0.441665 -0.124995 " transform="matrix(0.000000000000016329,-266.666667,-266.666667,-0.000000000000016329,500,400)"/>
<path style="fill-rule:nonzero;fill:rgb(20%,20%,20%);fill-opacity:1;stroke-width:0.04;stroke-linecap:butt;stroke-linejoin:miter;stroke:rgb(0%,0%,0%);stroke-opacity:1;stroke-miterlimit:10;" d="M -0.441665 -0.124995 L 0.441665 -0.124995 C 0.525 -0.124995 0.525 -0.124995 0.525 -0.0416602 L 0.525 0.0416602 C 0.525 0.124995 0.525 0.124995 0.441665 0.124995 L -0.441665 0.124995 C -0.525 0.124995 -0.525 0.124995 -0.525 0.0416602 L -0.525 -0.0416602 C -0.525 -0.124995 -0.525 -0.124995 -0.441665 -0.124995 " transform="matrix(0.000000000000016329,-266.666667,-266.666667,-0.000000000000016329,300,400)"/>
<path style="fill-rule:nonzero;fill:rgb(80%,80%,80%);fill-opacity:1;stroke-width:0.01;stroke-linecap:butt;stroke-linejoin:miter;stroke:rgb(0%,0%,0%);stroke-opacity:1;stroke-miterlimit:10;" d="M -0.75 -0.375 L 0.75 -0.375 L 0.75 0.375 L -0.75 0.375 Z M -0.75 -0.375 " transform="matrix(0.000000000000016329,-266.666667,-266.666667,-0.000000000000016329,400,400)"/>
<path style="fill-rule:nonzero;fill:rgb(100%,100%,100%);fill-opacity:1;stroke-width:0.05;stroke-linecap:butt;stroke-linejoin:miter;stroke:rgb(0%,0%,0%);stroke-opacity:1;stroke-miterlimit:10;" d="M 0.999976 0 C 0.999976 0.552319 0.552319 0.999976 0.000000000000000888 0.999976 C -0.552319 0.999976 -0.999976 0.552319 -0.999976 0 C -0.999976 -0.552319 -0.552319 -0.999976 0.000000000000000888 -0.999976 C 0.552319 -0.999976 0.999976 -0.552319 0.999976 0 " transform="matrix(0.000000000000003266,-53.333333,-53.333333,-0.000000000000003266,400,200)"/>
<path style=" stroke:none;fill-rule:nonzero;fill:rgb(60%,30%,0%);fill-opacity:1;" d="M 400 146.667969 C 385.273438 146.667969 373.332031 158.605469 373.332031 173.332031 C 373.332031 188.0625 385.273438 200 400 200 C 414.726562 200 426.667969 188.0625 426.667969 173.332031 C 426.667969 158.605469 414.726562 146.667969 400 146.667969 "/>
<path style=" stroke:none;fill-rule:nonzero;fill:rgb(0%,0%,0%);fill-opacity:1;" d="M 400 156.265625 C 393.519531 156.265625 388.265625 161.519531 388.265625 168 C 388.265625 174.480469 393.519531 179.734375 400 179.734375 C 406.480469 179.734375 411.734375 174.480469 411.734375 168 C 411.734375 161.519531 406.480469 156.265625 400 156.265625 "/>
<path style="fill-rule:nonzero;fill:rgb(100%,100%,100%);fill-opacity:1;stroke-width:0.05;stroke-linecap:butt;stroke-linejoin:miter;stroke:rgb(0%,0%,0%);stroke-opacity:1;stroke-miterlimit:10;" d="M 0.999976 0.0000244141 C 0.999976 0.552271 0.552319 1 -0.000000000000000888 1 C -0.552319 1 -0.999976 0.552271 -0.999976 0.0000244141 C -0.999976 -0.552295 -0.552319 -1.000024 -0.000000000000000888 -1.000024 C 0.552319 -1.000024 0.999976 -0.552295 0.999976 0.0000244141 " transform="matrix(-53.333333,-0.000000000000006531,-0.000000000000006531,53.333333,300,466.666667)"/>
<path style=" stroke:none;fill-rule:nonzero;fill:rgb(60%,30%,0%);fill-opacity:1;" d="M 246.667969 466.667969 C 246.667969 481.394531 258.605469 493.332031 273.332031 493.332031 C 288.0625 493.332031 300 481.394531 300 466.667969 C 300 451.9375 288.0625 440 273.332031 440 C 258.605469 440 246.667969 451.9375 246.667969 466.667969 "/>
<path style=" stroke:none;fill-rule:nonzero;fill:rgb(0%,0%,0%);fill-opacity:1;" d="M 256.265625 466.667969 C 256.265625 473.148438 261.519531 478.398438 268 478.398438 C 274.480469 478.398438 279.734375 473.148438 279.734375 466.667969 C 279.734375 460.1875 274.480469 454.933594 268 454.933594 C 261.519531 454.933594 256.265625 460.1875 256.265625 466.667969 "/>
<path style="fill-rule:nonzero;fill:rgb(100%,100%,100%);fill-opacity:1;stroke-width:0.05;stroke-linecap:butt;stroke-linejoin:miter;stroke:rgb(0%,0%,0%);stroke-opacity:1;stroke-miterlimit:10;" d="M 0.999976 -0.0000244141 C 0.999976 0.552295 0.552319 1.000024 0 1.000024 C -0.552319 1.000024 -0.999976 0.552295 -0.999976 -0.0000244141 C -0.999976 -0.552271 -0.552319 -1 0 -1 C 0.552319 -1 0.999976 -0.552271 0.999976 -0.0000244141 " transform="matrix(53.333333,0,0,-53.333333,500,466.666667)"/>
<path style=" stroke:none;fill-rule:nonzero;fill:rgb(60%,30%,0%);fill-opacity:1;" d="M 553.332031 466.667969 C 553.332031 451.9375 541.394531 440 526.667969 440 C 511.9375 440 500 451.9375 500 466.667969 C 500 481.394531 511.9375 493.332031 526.667969 493.332031 C 541.394531 493.332031 553.332031 481.394531 553.332031 466.667969 "/>
<path style=" stroke:none;fill-rule:nonzero;fill:rgb(0%,0%,0%);fill-opacity:1;" d="M 543.734375 466.667969 C 543.734375 460.1875 538.480469 454.933594 532 454.933594 C 525.519531 454.933594 520.265625 460.1875 520.265625 466.667969 C 520.265625 473.148438 525.519531 478.398438 532 478.398438 C 538.480469 478.398438 543.734375 473.148438 543.734375 466.667969 "/>
<path style="fill-rule:nonzero;fill:rgb(100%,100%,100%);fill-opacity:1;stroke-width:0.05;stroke-linecap:butt;stroke-linejoin:miter;stroke:rgb(0%,0%,0%);stroke-opacity:1;stroke-miterlimit:10;" d="M 0.999976 0 C 0.999976 0.552319 0.552319 0.999976 0 0.999976 C -0.552319 0.999976 -0.999976 0.552319 -0.999976 0 C -0.999976 -0.552319 -0.552319 -0.999976 0 -0.999976 C 0.552319 -0.999976 0.999976 -0.552319 0.999976 0 " transform="matrix(0.000000000000003266,53.333333,53.333333,-0.000000000000003266,400,600)"/>
<path style=" stroke:none;fill-rule:nonzero;fill:rgb(60%,30%,0%);fill-opacity:1;" d="M 400 653.332031 C 414.726562 653.332031 426.667969 641.394531 426.667969 626.667969 C 426.667969 611.9375 414.726562 600 400 600 C 385.273438 600 373.332031 611.9375 373.332031 626.667969 C 373.332031 641.394531 385.273438 653.332031 400 653.332031 "/>
<path style=" stroke:none;fill-rule:nonzero;fill:rgb(0%,0%,0%);fill-opacity:1;" d="M 400 643.734375 C 406.480469 643.734375 411.734375 638.480469 411.734375 632 C 411.734375 625.519531 406.480469 620.265625 400 620.265625 C 393.519531 620.265625 388.265625 625.519531 388.265625 632 C 388.265625 638.480469 393.519531 643.734375 400 643.734375 "/>
</g>
</svg>
