<?xml version="1.0" encoding="UTF-8"?>
<svg xmlns="http://www.w3.org/2000/svg" xmlns:xlink="http://www.w3.org/1999/xlink" width="800pt" height="800pt" viewBox="0 0 800 800" version="1.1">
<g id="surface106">
<rect x="0" y="0" width="800" height="800" style="fill:rgb(100%,100%,100%);fill-opacity:1;stroke:none;"/>
<path style="fill:none;stroke-width:0.005;stroke-linecap:butt;stroke-linejoin:miter;stroke:rgb(80%,80%,80%);stroke-opacity:1;stroke-miterlimit:10;" d="M -9.999998 -9.999998 L -9.999998 9.999998 " transform="matrix(533.333333,0,0,-533.333333,400,400)"/>
<path style="fill:none;stroke-width:0.005;stroke-linecap:butt;stroke-linejoin:miter;stroke:rgb(80%,80%,80%);stroke-opacity:1;stroke-miterlimit:10;" d="M -9 -9.999998 L -9 9.999998 " transform="matrix(533.333333,0,0,-533.333333,400,400)"/>
<path style="fill:none;stroke-width:0.005;stroke-linecap:butt;stroke-linejoin:miter;stroke:rgb(80%,80%,80%);stroke-opacity:1;stroke-miterlimit:10;" d="M -8.000002 -9.999998 L -8.000002 9.999998 " transform="matrix(533.333333,0,0,-533.333333,400,400)"/>
<path style="fill:none;stroke-width:0.005;stroke-linecap:butt;stroke-linejoin:miter;stroke:rgb(80%,80%,80%);stroke-opacity:1;stroke-miterlimit:10;" d="M -6.999998 -9.999998 L -6.999998 9.999998 " transform="matrix(533.333333,0,0,-533.333333,400,400)"/>
<path style="fill:none;stroke-width:0.005;stroke-linecap:butt;stroke-linejoin:miter;stroke:rgb(80%,80%,80%);stroke-opacity:1;stroke-miterlimit:10;" d="M -6 -9.999998 L -6 9.999998 " transform="matrix(533.333333,0,0,-533.333333,400,400)"/>
<path style="fill:none;stroke-width:0.005;stroke-linecap:butt;stroke-linejoin:miter;stroke:rgb(80%,80%,80%);stroke-opacity:1;stroke-miterlimit:10;" d="M -5.000002 -9.999998 L -5.000002 9.999998 " transform="matrix(533.333333,0,0,-533.333333,400,400)"/>
<path style="fill:none;stroke-width:0.005;stroke-linecap:butt;stroke-linejoin:miter;stroke:rgb(80%,80%,80%);stroke-opacity:1;stroke-miterlimit:10;" d="M -3.999998 -9.999998 L -3.999998 9.999998 " transform="matrix(533.333333,0,0,-533.333333,400,400)"/>
<path style="fill:none;stroke-width:0.005;stroke-linecap:butt;stroke-linejoin:miter;stroke:rgb(80%,80%,80%);stroke-opacity:1;stroke-miterlimit:10;" d="M -3 -9.999998 L -3 9.999998 " transform="matrix(533.333333,0,0,-533.333333,400,400)"/>
<path style="fill:none;stroke-width:0.005;stroke-linecap:butt;stroke-linejoin:miter;stroke:rgb(80%,80%,80%);stroke-opacity:1;stroke-miterlimit:10;" d="M -2.000002 -9.999998 L -2.000002 9.999998 " transform="matrix(533.333333,0,0,-533.333333,400,400)"/>
<path style="fill:none;stroke-width:0.005;stroke-linecap:butt;stroke-linejoin:miter;stroke:rgb(80%,80%,80%);stroke-opacity:1;stroke-miterlimit:10;" d="M -0.999998 -9.999998 L -0.999998 9.999998 " transform="matrix(533.333333,0,0,-533.333333,400,400)"/>
<path style="fill:none;stroke-width:0.005;stroke-linecap:butt;stroke-linejoin:miter;stroke:rgb(80%,80%,80%);stroke-opacity:1;stroke-miterlimit:10;" d="M 0 -9.999998 L 0 9.999998 " transform="matrix(533.333333,0,0,-533.333333,400,400)"/>
<path style="fill:none;stroke-width:0.005;stroke-linecap:butt;stroke-linejoin:miter;stroke:rgb(80%,80%,80%);stroke-opacity:1;stroke-miterlimit:10;" d="M 0.999998 -9.999998 L 0.999998 9.999998 " transform="matrix(533.333333,0,0,-533.333333,400,400)"/>
<path style="fill:none;stroke-width:0.005;stroke-linecap:butt;stroke-linejoin:miter;stroke:rgb(80%,80%,80%);stroke-opacity:1;stroke-miterlimit:10;" d="M 2.000002 -9.999998 L 2.000002 9.999998 " transform="matrix(533.333333,0,0,-533.333333,400,400)"/>
<path style="fill:none;stroke-width:0.005;stroke-linecap:butt;stroke-linejoin:miter;stroke:rgb(80%,80%,80%);stroke-opacity:1;stroke-miterlimit:10;" d="M 3 -9.999998 L 3 9.999998 " transform="matrix(533.333333,0,0,-533.333333,400,400)"/>
<path style="fill:none;stroke-width:0.005;stroke-linecap:butt;stroke-linejoin:miter;stroke:rgb(80%,80%,80%);stroke-opacity:1;stroke-miterlimit:10;" d="M 3.999998 -9.999998 L 3.999998 9.999998 " transform="matrix(533.333333,0,0,-533.333333,400,400)"/>
<path style="fill:none;stroke-width:0.005;stroke-linecap:butt;stroke-linejoin:miter;stroke:rgb(80%,80%,80%);stroke-opacity:1;stroke-miterlimit:10;" d="M 5.000002 -9.999998 L 5.000002 9.999998 " transform="matrix(533.333333,0,0,-533.333333,400,400)"/>
<path style="fill:none;stroke-width:0.005;stroke-linecap:butt;stroke-linejoin:miter;stroke:rgb(80%,80%,80%);stroke-opacity:1;stroke-miterlimit:10;" d="M 6 -9.999998 L 6 9.999998 " transform="matrix(533.333333,0,0,-533.333333,400,400)"/>
<path style="fill:none;stroke-width:0.005;stroke-linecap:butt;stroke-linejoin:miter;stroke:rgb(80%,80%,80%);stroke-opacity:1;stroke-miterlimit:10;" d="M 6.999998 -9.999998 L 6.999998 9.999998 " transform="matrix(533.333333,0,0,-533.333333,400,400)"/>
<path style="fill:none;stroke-width:0.005;stroke-linecap:butt;stroke-linejoin:miter;stroke:rgb(80%,80%,80%);stroke-opacity:1;stroke-miterlimit:10;" d="M 8.000002 -9.999998 L 8.000002 9.999998 " transform="matrix(533.333333,0,0,-533.333333,400,400)"/>
<path style="fill:none;stroke-width:0.005;stroke-linecap:butt;stroke-linejoin:miter;stroke:rgb(80%,80%,80%);stroke-opacity:1;stroke-miterlimit:10;" d="M 9 -9.999998 L 9 9.999998 " transform="matrix(533.333333,0,0,-533.333333,400,400)"/>
<path style="fill:none;stroke-width:0.005;stroke-linecap:butt;stroke-linejoin:miter;stroke:rgb(80%,80%,80%);stroke-opacity:1;stroke-miterlimit:10;" d="M 9.999998 -9.999998 L 9.999998 9.999998 " transform="matrix(533.333333,0,0,-533.333333,400,400)"/>
<path style="fill:none;stroke-width:0.005;stroke-linecap:butt;stroke-linejoin:miter;stroke:rgb(80%,80%,80%);stroke-opacity:1;stroke-miterlimit:10;" d="M -9.999998 -9.999998 L 9.999998 -9.999998 " transform="matrix(533.333333,0,0,-533.333333,400,400)"/>
<path style="fill:none;stroke-width:0.005;stroke-linecap:butt;stroke-linejoin:miter;stroke:rgb(80%,80%,80%);stroke-opacity:1;stroke-miterlimit:10;" d="M -9.999998 -9 L 9.999998 -9 " transform="matrix(533.333333,0,0,-533.333333,400,400)"/>
<path style="fill:none;stroke-width:0.005;stroke-linecap:butt;stroke-linejoin:miter;stroke:rgb(80%,80%,80%);stroke-opacity:1;stroke-miterlimit:10;" d="M -9.999998 -8.000002 L 9.999998 -8.000002 " transform="matrix(533.333333,0,0,-533.333333,400,400)"/>
<path style="fill:none;stroke-width:0.005;stroke-linecap:butt;stroke-linejoin:miter;stroke:rgb(80%,80%,80%);stroke-opacity:1;stroke-miterlimit:10;" d="M -9.999998 -6.999998 L 9.999998 -6.999998 " transform="matrix(533.333333,0,0,-533.333333,400,400)"/>
<path style="fill:none;stroke-width:0.005;stroke-linecap:butt;stroke-linejoin:miter;stroke:rgb(80%,80%,80%);stroke-opacity:1;stroke-miterlimit:10;" d="M -9.999998 -6 L 9.999998 -6 " transform="matrix(533.333333,0,0,-533.333333,400,400)"/>
<path style="fill:none;stroke-width:0.005;stroke-linecap:butt;stroke-linejoin:miter;stroke:rgb(80%,80%,80%);stroke-opacity:1;stroke-miterlimit:10;" d="M -9.999998 -5.000002 L 9.999998 -5.000002 " transform="matrix(533.333333,0,0,-533.333333,400,400)"/>
<path style="fill:none;stroke-width:0.005;stroke-linecap:butt;stroke-linejoin:miter;stroke:rgb(80%,80%,80%);stroke-opacity:1;stroke-miterlimit:10;" d="M -9.999998 -3.999998 L 9.999998 -3.999998 " transform="matrix(533.333333,0,0,-533.333333,400,400)"/>
<path style="fill:none;stroke-width:0.005;stroke-linecap:butt;stroke-linejoin:miter;stroke:rgb(80%,80%,80%);stroke-opacity:1;stroke-miterlimit:10;" d="M -9.999998 -3 L 9.999998 -3 " transform="matrix(533.333333,0,0,-533.333333,400,400)"/>
<path style="fill:none;stroke-width:0.005;stroke-linecap:butt;stroke-linejoin:miter;stroke:rgb(80%,80%,80%);stroke-opacity:1;stroke-miterlimit:10;" d="M -9.999998 -2.000002 L 9.999998 -2.000002 " transform="matrix(533.333333,0,0,-533.333333,400,400)"/>
<path style="fill:none;stroke-width:0.005;stroke-linecap:butt;stroke-linejoin:miter;stroke:rgb(80%,80%,80%);stroke-opacity:1;stroke-miterlimit:10;" d="M -9.999998 -0.999998 L 9.999998 -0.999998 " transform="matrix(533.333333,0,0,-533.333333,400,400)"/>
<path style="fill:none;stroke-width:0.005;stroke-linecap:butt;stroke-linejoin:miter;stroke:rgb(80%,80%,80%);stroke-opacity:1;stroke-miterlimit:10;" d="M -9.999998 0 L 9.999998 0 " transform="matrix(533.333333,0,0,-533.333333,400,400)"/>
<path style="fill:none;stroke-width:0.005;stroke-linecap:butt;stroke-linejoin:miter;stroke:rgb(80%,80%,80%);stroke-opacity:1;stroke-miterlimit:10;" d="M -9.999998 0.999998 L 9.999998 0.999998 " transform="matrix(533.333333,0,0,-533.333333,400,400)"/>
<path style="fill:none;stroke-width:0.005;stroke-linecap:butt;stroke-linejoin:miter;stroke:rgb(80%,80%,80%);stroke-opacity:1;stroke-miterlimit:10;" d="M -9.999998 2.000002 L 9.999998 2.000002 " transform="matrix(533.333333,0,0,-533.333333,400,400)"/>
<path style="fill:none;stroke-width:0.005;stroke-linecap:butt;stroke-linejoin:miter;stroke:rgb(80%,80%,80%);stroke-opacity:1;stroke-miterlimit:10;" d="M -9.999998 3 L 9.999998 3 " transform="matrix(533.333333,0,0,-533.333333,400,400)"/>
<path style="fill:none;stroke-width:0.005;stroke-linecap:butt;stroke-linejoin:miter;stroke:rgb(80%,80%,80%);stroke-opacity:1;stroke-miterlimit:10;" d="M -9.999998 3.999998 L 9.999998 3.999998 " transform="matrix(533.333333,0,0,-533.333333,400,400)"/>
<path style="fill:none;stroke-width:0.005;stroke-linecap:butt;stroke-linejoin:miter;stroke:rgb(80%,80%,80%);stroke-opacity:1;stroke-miterlimit:10;" d="M -9.999998 5.000002 L 9.999998 5.000002 " transform="matrix(533.333333,0,0,-533.333333,400,400)"/>
<path style="fill:none;stroke-width:0.005;stroke-linecap:butt;stroke-linejoin:miter;stroke:rgb(80%,80%,80%);stroke-opacity:1;stroke-miterlimit:10;" d="M -9.999998 6 L 9.999998 6 " transform="matrix(533.333333,0,0,-533.333333,400,400)"/>
<path style="fill:none;stroke-width:0.005;stroke-linecap:butt;stroke-linejoin:miter;stroke:rgb(80%,80%,80%);stroke-opacity:1;stroke-miterlimit:10;" d="M -9.999998 6.999998 L 9.999998 6.999998 " transform="matrix(533.333333,0,0,-533.333333,400,400)"/>
<path style="fill:none;stroke-width:0.005;stroke-linecap:butt;stroke-linejoin:miter;stroke:rgb(80%,80%,80%);stroke-opacity:1;stroke-miterlimit:10;" d="M -9.999998 8.000002 L 9.999998 8.000002 " transform="matrix(533.333333,0,0,-533.333333,400,400)"/>
<path style="fill:none;stroke-width:0.005;stroke-linecap:butt;stroke-linejoin:miter;stroke:rgb(80%,80%,80%);stroke-opacity:1;stroke-miterlimit:10;" d="M -9.999998 9 L 9.999998 9 " transform="matrix(533.333333,0,0,-533.333333,400,400)"/>
<path style="fill:none;stroke-width:0.005;stroke-linecap:butt;stroke-linejoin:miter;stroke:rgb(80%,80%,80%);stroke-opacity:1;stroke-miterlimit:10;" d="M -9.999998 9.999998 L 9.999998 9.999998 " transform="matrix(533.333333,0,0,-533.333333,400,400)"/>
<path style=" stroke:none;fill-rule:nonzero;fill:rgb(100%,70%,70%);fill-opacity:1;" d="M 666.667969 400 C 666.667969 252.722656 547.277344 133.332031 400 133.332031 C 252.722656 133.332031 133.332031 252.722656 133.332031 400 C 133.332031 547.277344 252.722656 666.667969 400 666.667969 C 547.277344 666.667969 666.667969 547.277344 666.667969 400 "/>
<path style="fill-rule:nonzero;fill:rgb(30%,30%,100%);fill-opacity:1;stroke-width:0.01;stroke-linecap:butt;stroke-linejoin:miter;stroke:rgb(0%,0%,0%);stroke-opacity:1;stroke-miterlimit:10;" d="M 0.149995 -0.000000000000000222 C 0.149995 0.0828369 0.0828467 0.15 -0.00000488281 0.15 C -0.0828418 0.15 -0.150005 0.0828369 -0.150005 -0.000000000000000222 C -0.150005 -0.0828369 -0.0828418 -0.15 -0.00000488281 -0.15 C 0.0828467 -0.15 0.149995 -0.0828369 0.149995 -0.000000000000000222 " transform="matrix(266.666667,0,0,-266.666667,613.333333,400)"/>
<path style="fill-rule:nonzero;fill:rgb(30%,30%,100%);fill-opacity:1;stroke-width:0.01;stroke-linecap:butt;stroke-linejoin:miter;stroke:rgb(0%,0%,0%);stroke-opacity:1;stroke-miterlimit:10;" d="M 0.150007 0.00000154934 C 0.149998 0.0828374 0.0828361 0.149996 0.00000761898 0.15 C -0.0828409 0.149998 -0.149999 0.0828359 -0.150003 0.00000740674 C -0.150001 -0.0828411 -0.0828394 -0.15 0.00000908579 -0.149998 C 0.0828376 -0.150002 0.149996 -0.0828396 0.150007 0.00000154934 " transform="matrix(-133.333333,-230.940108,-230.940108,133.333333,293.333333,215.247914)"/>
<path style="fill-rule:nonzero;fill:rgb(30%,30%,100%);fill-opacity:1;stroke-width:0.01;stroke-linecap:butt;stroke-linejoin:miter;stroke:rgb(0%,0%,0%);stroke-opacity:1;stroke-miterlimit:10;" d="M 0.150007 -0.00000154934 C 0.149996 0.0828396 0.0828376 0.150002 0.00000908579 0.149998 C -0.0828394 0.15 -0.150001 0.0828411 -0.150003 -0.00000740674 C -0.149999 -0.0828359 -0.0828409 -0.149998 0.00000761898 -0.15 C 0.0828361 -0.149996 0.149998 -0.0828374 0.150007 -0.00000154934 " transform="matrix(-133.333333,230.940108,230.940108,133.333333,293.333333,584.752086)"/>
<path style="fill-rule:nonzero;fill:rgb(80%,80%,80%);fill-opacity:1;stroke-width:0.01;stroke-linecap:butt;stroke-linejoin:miter;stroke:rgb(0%,0%,0%);stroke-opacity:1;stroke-miterlimit:10;" d="M 1.000007 0 C 1.000007 0.552288 0.552288 1.000007 0 1.000007 C -0.552288 1.000007 -1.000007 0.552288 -1.000007 0 C -1.000007 -0.552288 -0.552288 -1.000007 0 -1.000007 C 0.552288 -1.000007 1.000007 -0.552288 1.000007 0 " transform="matrix(186.666667,0,0,-186.666667,400,400)"/>
<path style="fill:none;stroke-width:0.01;stroke-linecap:butt;stroke-linejoin:miter;stroke:rgb(0%,0%,0%);stroke-opacity:1;stroke-miterlimit:10;" d="M 0.199993 0 L 1.000007 0 " transform="matrix(186.666667,0,0,-186.666667,400,400)"/>
<path style=" stroke:none;fill-rule:nonzero;fill:rgb(100%,100%,100%);fill-opacity:1;" d="M 544 282.667969 C 544 267.9375 532.0625 256 517.332031 256 C 502.605469 256 490.667969 267.9375 490.667969 282.667969 C 490.667969 297.394531 502.605469 309.332031 517.332031 309.332031 C 532.0625 309.332031 544 297.394531 544 282.667969 "/>
<path style=" stroke:none;fill-rule:nonzero;fill:rgb(100%,100%,100%);fill-opacity:1;" d="M 544 302.222656 C 544 287.496094 532.0625 275.554688 517.332031 275.554688 C 502.605469 275.554688 490.667969 287.496094 490.667969 302.222656 C 490.667969 316.949219 502.605469 328.890625 517.332031 328.890625 C 532.0625 328.890625 544 316.949219 544 302.222656 "/>
<path style=" stroke:none;fill-rule:nonzero;fill:rgb(100%,100%,100%);fill-opacity:1;" d="M 544 321.777344 C 544 307.050781 532.0625 295.109375 517.332031 295.109375 C 502.605469 295.109375 490.667969 307.050781 490.667969 321.777344 C 490.667969 336.503906 502.605469 348.445312 517.332031 348.445312 C 532.0625 348.445312 544 336.503906 544 321.777344 "/>
<path style=" stroke:none;fill-rule:nonzero;fill:rgb(100%,100%,100%);fill-opacity:1;" d="M 544 341.332031 C 544 326.605469 532.0625 314.667969 517.332031 314.667969 C 502.605469 314.667969 490.667969 326.605469 490.667969 341.332031 C 490.667969 356.0625 502.605469 368 517.332031 368 C 532.0625 368 544 356.0625 544 341.332031 "/>
<path style=" stroke:none;fill-rule:nonzero;fill:rgb(100%,100%,100%);fill-opacity:1;" d="M 544 360.890625 C 544 346.160156 532.0625 334.222656 517.332031 334.222656 C 502.605469 334.222656 490.667969 346.160156 490.667969 360.890625 C 490.667969 375.617188 502.605469 387.554688 517.332031 387.554688 C 532.0625 387.554688 544 375.617188 544 360.890625 "/>
<path style=" stroke:none;fill-rule:nonzero;fill:rgb(100%,100%,100%);fill-opacity:1;" d="M 544 380.445312 C 544 365.71875 532.0625 353.777344 517.332031 353.777344 C 502.605469 353.777344 490.667969 365.71875 490.667969 380.445312 C 490.667969 395.171875 502.605469 407.109375 517.332031 407.109375 C 532.0625 407.109375 544 395.171875 544 380.445312 "/>
<path style=" stroke:none;fill-rule:nonzero;fill:rgb(100%,100%,100%);fill-opacity:1;" d="M 544 400 C 544 385.273438 532.0625 373.332031 517.332031 373.332031 C 502.605469 373.332031 490.667969 385.273438 490.667969 400 C 490.667969 414.726562 502.605469 426.667969 517.332031 426.667969 C 532.0625 426.667969 544 414.726562 544 400 "/>
<path style=" stroke:none;fill-rule:nonzero;fill:rgb(100%,100%,100%);fill-opacity:1;" d="M 544 419.554688 C 544 404.828125 532.0625 392.890625 517.332031 392.890625 C 502.605469 392.890625 490.667969 404.828125 490.667969 419.554688 C 490.667969 434.28125 502.605469 446.222656 517.332031 446.222656 C 532.0625 446.222656 544 434.28125 544 419.554688 "/>
<path style=" stroke:none;fill-rule:nonzero;fill:rgb(100%,100%,100%);fill-opacity:1;" d="M 544 439.109375 C 544 424.382812 532.0625 412.445312 517.332031 412.445312 C 502.605469 412.445312 490.667969 424.382812 490.667969 439.109375 C 490.667969 453.839844 502.605469 465.777344 517.332031 465.777344 C 532.0625 465.777344 544 453.839844 544 439.109375 "/>
<path style=" stroke:none;fill-rule:nonzero;fill:rgb(100%,100%,100%);fill-opacity:1;" d="M 544 458.667969 C 544 443.9375 532.0625 432 517.332031 432 C 502.605469 432 490.667969 443.9375 490.667969 458.667969 C 490.667969 473.394531 502.605469 485.332031 517.332031 485.332031 C 532.0625 485.332031 544 473.394531 544 458.667969 "/>
<path style=" stroke:none;fill-rule:nonzero;fill:rgb(100%,100%,100%);fill-opacity:1;" d="M 544 478.222656 C 544 463.496094 532.0625 451.554688 517.332031 451.554688 C 502.605469 451.554688 490.667969 463.496094 490.667969 478.222656 C 490.667969 492.949219 502.605469 504.890625 517.332031 504.890625 C 532.0625 504.890625 544 492.949219 544 478.222656 "/>
<path style=" stroke:none;fill-rule:nonzero;fill:rgb(100%,100%,100%);fill-opacity:1;" d="M 544 497.777344 C 544 483.050781 532.0625 471.109375 517.332031 471.109375 C 502.605469 471.109375 490.667969 483.050781 490.667969 497.777344 C 490.667969 512.503906 502.605469 524.445312 517.332031 524.445312 C 532.0625 524.445312 544 512.503906 544 497.777344 "/>
<path style=" stroke:none;fill-rule:nonzero;fill:rgb(100%,100%,100%);fill-opacity:1;" d="M 524.445312 282.667969 C 524.445312 267.9375 512.503906 256 497.777344 256 C 483.050781 256 471.109375 267.9375 471.109375 282.667969 C 471.109375 297.394531 483.050781 309.332031 497.777344 309.332031 C 512.503906 309.332031 524.445312 297.394531 524.445312 282.667969 "/>
<path style=" stroke:none;fill-rule:nonzero;fill:rgb(100%,100%,100%);fill-opacity:1;" d="M 524.445312 302.222656 C 524.445312 287.496094 512.503906 275.554688 497.777344 275.554688 C 483.050781 275.554688 471.109375 287.496094 471.109375 302.222656 C 471.109375 316.949219 483.050781 328.890625 497.777344 328.890625 C 512.503906 328.890625 524.445312 316.949219 524.445312 302.222656 "/>
<path style=" stroke:none;fill-rule:nonzero;fill:rgb(100%,100%,100%);fill-opacity:1;" d="M 524.445312 321.777344 C 524.445312 307.050781 512.503906 295.109375 497.777344 295.109375 C 483.050781 295.109375 471.109375 307.050781 471.109375 321.777344 C 471.109375 336.503906 483.050781 348.445312 497.777344 348.445312 C 512.503906 348.445312 524.445312 336.503906 524.445312 321.777344 "/>
<path style=" stroke:none;fill-rule:nonzero;fill:rgb(100%,100%,100%);fill-opacity:1;" d="M 524.445312 341.332031 C 524.445312 326.605469 512.503906 314.667969 497.777344 314.667969 C 483.050781 314.667969 471.109375 326.605469 471.109375 341.332031 C 471.109375 356.0625 483.050781 368 497.777344 368 C 512.503906 368 524.445312 356.0625 524.445312 341.332031 "/>
<path style=" stroke:none;fill-rule:nonzero;fill:rgb(100%,100%,100%);fill-opacity:1;" d="M 524.445312 360.890625 C 524.445312 346.160156 512.503906 334.222656 497.777344 334.222656 C 483.050781 334.222656 471.109375 346.160156 471.109375 360.890625 C 471.109375 375.617188 483.050781 387.554688 497.777344 387.554688 C 512.503906 387.554688 524.445312 375.617188 524.445312 360.890625 "/>
<path style=" stroke:none;fill-rule:nonzero;fill:rgb(100%,100%,100%);fill-opacity:1;" d="M 524.445312 380.445312 C 524.445312 365.71875 512.503906 353.777344 497.777344 353.777344 C 483.050781 353.777344 471.109375 365.71875 471.109375 380.445312 C 471.109375 395.171875 483.050781 407.109375 497.777344 407.109375 C 512.503906 407.109375 524.445312 395.171875 524.445312 380.445312 "/>
<path style=" stroke:none;fill-rule:nonzero;fill:rgb(100%,100%,100%);fill-opacity:1;" d="M 524.445312 400 C 524.445312 385.273438 512.503906 373.332031 497.777344 373.332031 C 483.050781 373.332031 471.109375 385.273438 471.109375 400 C 471.109375 414.726562 483.050781 426.667969 497.777344 426.667969 C 512.503906 426.667969 524.445312 414.726562 524.445312 400 "/>
<path style=" stroke:none;fill-rule:nonzero;fill:rgb(100%,100%,100%);fill-opacity:1;" d="M 524.445312 419.554688 C 524.445312 404.828125 512.503906 392.890625 497.777344 392.890625 C 483.050781 392.890625 471.109375 404.828125 471.109375 419.554688 C 471.109375 434.28125 483.050781 446.222656 497.777344 446.222656 C 512.503906 446.222656 524.445312 434.28125 524.445312 419.554688 "/>
<path style=" stroke:none;fill-rule:nonzero;fill:rgb(100%,100%,100%);fill-opacity:1;" d="M 524.445312 439.109375 C 524.445312 424.382812 512.503906 412.445312 497.777344 412.445312 C 483.050781 412.445312 471.109375 424.382812 471.109375 439.109375 C 471.109375 453.839844 483.050781 465.777344 497.777344 465.777344 C 512.503906 465.777344 524.445312 453.839844 524.445312 439.109375 "/>
<path style=" stroke:none;fill-rule:nonzero;fill:rgb(100%,100%,100%);fill-opacity:1;" d="M 524.445312 458.667969 C 524.445312 443.9375 512.503906 432 497.777344 432 C 483.050781 432 471.109375 443.9375 471.109375 458.667969 C 471.109375 473.394531 483.050781 485.332031 497.777344 485.332031 C 512.503906 485.332031 524.445312 473.394531 524.445312 458.667969 "/>
<path style=" stroke:none;fill-rule:nonzero;fill:rgb(100%,100%,100%);fill-opacity:1;" d="M 524.445312 478.222656 C 524.445312 463.496094 512.503906 451.554688 497.777344 451.554688 C 483.050781 451.554688 471.109375 463.496094 471.109375 478.222656 C 471.109375 492.949219 483.050781 504.890625 497.777344 504.890625 C 512.503906 504.890625 524.445312 492.949219 524.445312 478.222656 "/>
<path style=" stroke:none;fill-rule:nonzero;fill:rgb(100%,100%,100%);fill-opacity:1;" d="M 524.445312 497.777344 C 524.445312 483.050781 512.503906 471.109375 497.777344 471.109375 C 483.050781 471.109375 471.109375 483.050781 471.109375 497.777344 C 471.109375 512.503906 483.050781 524.445312 497.777344 524.445312 C 512.503906 524.445312 524.445312 512.503906 524.445312 497.777344 "/>
<path style=" stroke:none;fill-rule:nonzero;fill:rgb(100%,100%,100%);fill-opacity:1;" d="M 504.890625 282.667969 C 504.890625 267.9375 492.949219 256 478.222656 256 C 463.496094 256 451.554688 267.9375 451.554688 282.667969 C 451.554688 297.394531 463.496094 309.332031 478.222656 309.332031 C 492.949219 309.332031 504.890625 297.394531 504.890625 282.667969 "/>
<path style=" stroke:none;fill-rule:nonzero;fill:rgb(100%,100%,100%);fill-opacity:1;" d="M 504.890625 302.222656 C 504.890625 287.496094 492.949219 275.554688 478.222656 275.554688 C 463.496094 275.554688 451.554688 287.496094 451.554688 302.222656 C 451.554688 316.949219 463.496094 328.890625 478.222656 328.890625 C 492.949219 328.890625 504.890625 316.949219 504.890625 302.222656 "/>
<path style=" stroke:none;fill-rule:nonzero;fill:rgb(100%,100%,100%);fill-opacity:1;" d="M 504.890625 321.777344 C 504.890625 307.050781 492.949219 295.109375 478.222656 295.109375 C 463.496094 295.109375 451.554688 307.050781 451.554688 321.777344 C 451.554688 336.503906 463.496094 348.445312 478.222656 348.445312 C 492.949219 348.445312 504.890625 336.503906 504.890625 321.777344 "/>
<path style=" stroke:none;fill-rule:nonzero;fill:rgb(100%,100%,100%);fill-opacity:1;" d="M 504.890625 341.332031 C 504.890625 326.605469 492.949219 314.667969 478.222656 314.667969 C 463.496094 314.667969 451.554688 326.605469 451.554688 341.332031 C 451.554688 356.0625 463.496094 368 478.222656 368 C 492.949219 368 504.890625 356.0625 504.890625 341.332031 "/>
<path style=" stroke:none;fill-rule:nonzero;fill:rgb(100%,100%,100%);fill-opacity:1;" d="M 504.890625 360.890625 C 504.890625 346.160156 492.949219 334.222656 478.222656 334.222656 C 463.496094 334.222656 451.554688 346.160156 451.554688 360.890625 C 451.554688 375.617188 463.496094 387.554688 478.222656 387.554688 C 492.949219 387.554688 504.890625 375.617188 504.890625 360.890625 "/>
<path style=" stroke:none;fill-rule:nonzero;fill:rgb(100%,100%,100%);fill-opacity:1;" d="M 504.890625 380.445312 C 504.890625 365.71875 492.949219 353.777344 478.222656 353.777344 C 463.496094 353.777344 451.554688 365.71875 451.554688 380.445312 C 451.554688 395.171875 463.496094 407.109375 478.222656 407.109375 C 492.949219 407.109375 504.890625 395.171875 504.890625 380.445312 "/>
<path style=" stroke:none;fill-rule:nonzero;fill:rgb(100%,100%,100%);fill-opacity:1;" d="M 504.890625 400 C 504.890625 385.273438 492.949219 373.332031 478.222656 373.332031 C 463.496094 373.332031 451.554688 385.273438 451.554688 400 C 451.554688 414.726562 463.496094 426.667969 478.222656 426.667969 C 492.949219 426.667969 504.890625 414.726562 504.890625 400 "/>
<path style=" stroke:none;fill-rule:nonzero;fill:rgb(100%,100%,100%);fill-opacity:1;" d="M 504.890625 419.554688 C 504.890625 404.828125 492.949219 392.890625 478.222656 392.890625 C 463.496094 392.890625 451.554688 404.828125 451.554688 419.554688 C 451.554688 434.28125 463.496094 446.222656 478.222656 446.222656 C 492.949219 446.222656 504.890625 434.28125 504.890625 419.554688 "/>
<path style=" stroke:none;fill-rule:nonzero;fill:rgb(100%,100%,100%);fill-opacity:1;" d="M 504.890625 439.109375 C 504.890625 424.382812 492.949219 412.445312 478.222656 412.445312 C 463.496094 412.445312 451.554688 424.382812 451.554688 439.109375 C 451.554688 453.839844 463.496094 465.777344 478.222656 465.777344 C 492.949219 465.777344 504.890625 453.839844 504.890625 439.109375 "/>
<path style=" stroke:none;fill-rule:nonzero;fill:rgb(100%,100%,100%);fill-opacity:1;" d="M 504.890625 458.667969 C 504.890625 443.9375 492.949219 432 478.222656 432 C 463.496094 432 451.554688 443.9375 451.554688 458.667969 C 451.554688 473.394531 463.496094 485.332031 478.222656 485.332031 C 492.949219 485.332031 504.890625 473.394531 504.890625 458.667969 "/>
<path style=" stroke:none;fill-rule:nonzero;fill:rgb(100%,100%,100%);fill-opacity:1;" d="M 504.890625 478.222656 C 504.890625 463.496094 492.949219 451.554688 478.222656 451.554688 C 463.496094 451.554688 451.554688 463.496094 451.554688 478.222656 C 451.554688 492.949219 463.496094 504.890625 478.222656 504.890625 C 492.949219 504.890625 504.890625 492.949219 504.890625 478.222656 "/>
<path style=" stroke:none;fill-rule:nonzero;fill:rgb(100%,100%,100%);fill-opacity:1;" d="M 504.890625 497.777344 C 504.890625 483.050781 492.949219 471.109375 478.222656 471.109375 C 463.496094 471.109375 451.554688 483.050781 451.554688 497.777344 C 451.554688 512.503906 463.496094 524.445312 478.222656 524.445312 C 492.949219 524.445312 504.890625 512.503906 504.890625 497.777344 "/>
<path style=" stroke:none;fill-rule:nonzero;fill:rgb(100%,100%,100%);fill-opacity:1;" d="M 485.332031 282.667969 C 485.332031 267.9375 473.394531 256 458.667969 256 C 443.9375 256 432 267.9375 432 282.667969 C 432 297.394531 443.9375 309.332031 458.667969 309.332031 C 473.394531 309.332031 485.332031 297.394531 485.332031 282.667969 "/>
<path style=" stroke:none;fill-rule:nonzero;fill:rgb(100%,100%,100%);fill-opacity:1;" d="M 485.332031 302.222656 C 485.332031 287.496094 473.394531 275.554688 458.667969 275.554688 C 443.9375 275.554688 432 287.496094 432 302.222656 C 432 316.949219 443.9375 328.890625 458.667969 328.890625 C 473.394531 328.890625 485.332031 316.949219 485.332031 302.222656 "/>
<path style=" stroke:none;fill-rule:nonzero;fill:rgb(100%,100%,100%);fill-opacity:1;" d="M 485.332031 321.777344 C 485.332031 307.050781 473.394531 295.109375 458.667969 295.109375 C 443.9375 295.109375 432 307.050781 432 321.777344 C 432 336.503906 443.9375 348.445312 458.667969 348.445312 C 473.394531 348.445312 485.332031 336.503906 485.332031 321.777344 "/>
<path style=" stroke:none;fill-rule:nonzero;fill:rgb(100%,100%,100%);fill-opacity:1;" d="M 485.332031 341.332031 C 485.332031 326.605469 473.394531 314.667969 458.667969 314.667969 C 443.9375 314.667969 432 326.605469 432 341.332031 C 432 356.0625 443.9375 368 458.667969 368 C 473.394531 368 485.332031 356.0625 485.332031 341.332031 "/>
<path style=" stroke:none;fill-rule:nonzero;fill:rgb(100%,100%,100%);fill-opacity:1;" d="M 485.332031 360.890625 C 485.332031 346.160156 473.394531 334.222656 458.667969 334.222656 C 443.9375 334.222656 432 346.160156 432 360.890625 C 432 375.617188 443.9375 387.554688 458.667969 387.554688 C 473.394531 387.554688 485.332031 375.617188 485.332031 360.890625 "/>
<path style=" stroke:none;fill-rule:nonzero;fill:rgb(100%,100%,100%);fill-opacity:1;" d="M 485.332031 380.445312 C 485.332031 365.71875 473.394531 353.777344 458.667969 353.777344 C 443.9375 353.777344 432 365.71875 432 380.445312 C 432 395.171875 443.9375 407.109375 458.667969 407.109375 C 473.394531 407.109375 485.332031 395.171875 485.332031 380.445312 "/>
<path style=" stroke:none;fill-rule:nonzero;fill:rgb(100%,100%,100%);fill-opacity:1;" d="M 485.332031 400 C 485.332031 385.273438 473.394531 373.332031 458.667969 373.332031 C 443.9375 373.332031 432 385.273438 432 400 C 432 414.726562 443.9375 426.667969 458.667969 426.667969 C 473.394531 426.667969 485.332031 414.726562 485.332031 400 "/>
<path style=" stroke:none;fill-rule:nonzero;fill:rgb(100%,100%,100%);fill-opacity:1;" d="M 485.332031 419.554688 C 485.332031 404.828125 473.394531 392.890625 458.667969 392.890625 C 443.9375 392.890625 432 404.828125 432 419.554688 C 432 434.28125 443.9375 446.222656 458.667969 446.222656 C 473.394531 446.222656 485.332031 434.28125 485.332031 419.554688 "/>
<path style=" stroke:none;fill-rule:nonzero;fill:rgb(100%,100%,100%);fill-opacity:1;" d="M 485.332031 439.109375 C 485.332031 424.382812 473.394531 412.445312 458.667969 412.445312 C 443.9375 412.445312 432 424.382812 432 439.109375 C 432 453.839844 443.9375 465.777344 458.667969 465.777344 C 473.394531 465.777344 485.332031 453.839844 485.332031 439.109375 "/>
<path style=" stroke:none;fill-rule:nonzero;fill:rgb(100%,100%,100%);fill-opacity:1;" d="M 485.332031 458.667969 C 485.332031 443.9375 473.394531 432 458.667969 432 C 443.9375 432 432 443.9375 432 458.667969 C 432 473.394531 443.9375 485.332031 458.667969 485.332031 C 473.394531 485.332031 485.332031 473.394531 485.332031 458.667969 "/>
<path style=" stroke:none;fill-rule:nonzero;fill:rgb(100%,100%,100%);fill-opacity:1;" d="M 485.332031 478.222656 C 485.332031 463.496094 473.394531 451.554688 458.667969 451.554688 C 443.9375 451.554688 432 463.496094 432 478.222656 C 432 492.949219 443.9375 504.890625 458.667969 504.890625 C 473.394531 504.890625 485.332031 492.949219 485.332031 478.222656 "/>
<path style=" stroke:none;fill-rule:nonzero;fill:rgb(100%,100%,100%);fill-opacity:1;" d="M 485.332031 497.777344 C 485.332031 483.050781 473.394531 471.109375 458.667969 471.109375 C 443.9375 471.109375 432 483.050781 432 497.777344 C 432 512.503906 443.9375 524.445312 458.667969 524.445312 C 473.394531 524.445312 485.332031 512.503906 485.332031 497.777344 "/>
<path style=" stroke:none;fill-rule:nonzero;fill:rgb(100%,100%,100%);fill-opacity:1;" d="M 465.777344 282.667969 C 465.777344 267.9375 453.839844 256 439.109375 256 C 424.382812 256 412.445312 267.9375 412.445312 282.667969 C 412.445312 297.394531 424.382812 309.332031 439.109375 309.332031 C 453.839844 309.332031 465.777344 297.394531 465.777344 282.667969 "/>
<path style=" stroke:none;fill-rule:nonzero;fill:rgb(100%,100%,100%);fill-opacity:1;" d="M 465.777344 302.222656 C 465.777344 287.496094 453.839844 275.554688 439.109375 275.554688 C 424.382812 275.554688 412.445312 287.496094 412.445312 302.222656 C 412.445312 316.949219 424.382812 328.890625 439.109375 328.890625 C 453.839844 328.890625 465.777344 316.949219 465.777344 302.222656 "/>
<path style=" stroke:none;fill-rule:nonzero;fill:rgb(100%,100%,100%);fill-opacity:1;" d="M 465.777344 321.777344 C 465.777344 307.050781 453.839844 295.109375 439.109375 295.109375 C 424.382812 295.109375 412.445312 307.050781 412.445312 321.777344 C 412.445312 336.503906 424.382812 348.445312 439.109375 348.445312 C 453.839844 348.445312 465.777344 336.503906 465.777344 321.777344 "/>
<path style=" stroke:none;fill-rule:nonzero;fill:rgb(100%,100%,100%);fill-opacity:1;" d="M 465.777344 341.332031 C 465.777344 326.605469 453.839844 314.667969 439.109375 314.667969 C 424.382812 314.667969 412.445312 326.605469 412.445312 341.332031 C 412.445312 356.0625 424.382812 368 439.109375 368 C 453.839844 368 465.777344 356.0625 465.777344 341.332031 "/>
<path style=" stroke:none;fill-rule:nonzero;fill:rgb(100%,100%,100%);fill-opacity:1;" d="M 465.777344 360.890625 C 465.777344 346.160156 453.839844 334.222656 439.109375 334.222656 C 424.382812 334.222656 412.445312 346.160156 412.445312 360.890625 C 412.445312 375.617188 424.382812 387.554688 439.109375 387.554688 C 453.839844 387.554688 465.777344 375.617188 465.777344 360.890625 "/>
<path style=" stroke:none;fill-rule:nonzero;fill:rgb(100%,100%,100%);fill-opacity:1;" d="M 465.777344 380.445312 C 465.777344 365.71875 453.839844 353.777344 439.109375 353.777344 C 424.382812 353.777344 412.445312 365.71875 412.445312 380.445312 C 412.445312 395.171875 424.382812 407.109375 439.109375 407.109375 C 453.839844 407.109375 465.777344 395.171875 465.777344 380.445312 "/>
<path style=" stroke:none;fill-rule:nonzero;fill:rgb(100%,100%,100%);fill-opacity:1;" d="M 465.777344 400 C 465.777344 385.273438 453.839844 373.332031 439.109375 373.332031 C 424.382812 373.332031 412.445312 385.273438 412.445312 400 C 412.445312 414.726562 424.382812 426.667969 439.109375 426.667969 C 453.839844 426.667969 465.777344 414.726562 465.777344 400 "/>
<path style=" stroke:none;fill-rule:nonzero;fill:rgb(100%,100%,100%);fill-opacity:1;" d="M 465.777344 419.554688 C 465.777344 404.828125 453.839844 392.890625 439.109375 392.890625 C 424.382812 392.890625 412.445312 404.828125 412.445312 419.554688 C 412.445312 434.28125 424.382812 446.222656 439.109375 446.222656 C 453.839844 446.222656 465.777344 434.28125 465.777344 419.554688 "/>
<path style=" stroke:none;fill-rule:nonzero;fill:rgb(100%,100%,100%);fill-opacity:1;" d="M 465.777344 439.109375 C 465.777344 424.382812 453.839844 412.445312 439.109375 412.445312 C 424.382812 412.445312 412.445312 424.382812 412.445312 439.109375 C 412.445312 453.839844 424.382812 465.777344 439.109375 465.777344 C 453.839844 465.777344 465.777344 453.839844 465.777344 439.109375 "/>
<path style=" stroke:none;fill-rule:nonzero;fill:rgb(100%,100%,100%);fill-opacity:1;" d="M 465.777344 458.667969 C 465.777344 443.9375 453.839844 432 439.109375 432 C 424.382812 432 412.445312 443.9375 412.445312 458.667969 C 412.445312 473.394531 424.382812 485.332031 439.109375 485.332031 C 453.839844 485.332031 465.777344 473.394531 465.777344 458.667969 "/>
<path style=" stroke:none;fill-rule:nonzero;fill:rgb(100%,100%,100%);fill-opacity:1;" d="M 465.777344 478.222656 C 465.777344 463.496094 453.839844 451.554688 439.109375 451.554688 C 424.382812 451.554688 412.445312 463.496094 412.445312 478.222656 C 412.445312 492.949219 424.382812 504.890625 439.109375 504.890625 C 453.839844 504.890625 465.777344 492.949219 465.777344 478.222656 "/>
<path style=" stroke:none;fill-rule:nonzero;fill:rgb(100%,100%,100%);fill-opacity:1;" d="M 465.777344 497.777344 C 465.777344 483.050781 453.839844 471.109375 439.109375 471.109375 C 424.382812 471.109375 412.445312 483.050781 412.445312 497.777344 C 412.445312 512.503906 424.382812 524.445312 439.109375 524.445312 C 453.839844 524.445312 465.777344 512.503906 465.777344 497.777344 "/>
<path style=" stroke:none;fill-rule:nonzero;fill:rgb(100%,100%,100%);fill-opacity:1;" d="M 446.222656 282.667969 C 446.222656 267.9375 434.28125 256 419.554688 256 C 404.828125 256 392.890625 267.9375 392.890625 282.667969 C 392.890625 297.394531 404.828125 309.332031 419.554688 309.332031 C 434.28125 309.332031 446.222656 297.394531 446.222656 282.667969 "/>
<path style=" stroke:none;fill-rule:nonzero;fill:rgb(100%,100%,100%);fill-opacity:1;" d="M 446.222656 302.222656 C 446.222656 287.496094 434.28125 275.554688 419.554688 275.554688 C 404.828125 275.554688 392.890625 287.496094 392.890625 302.222656 C 392.890625 316.949219 404.828125 328.890625 419.554688 328.890625 C 434.28125 328.890625 446.222656 316.949219 446.222656 302.222656 "/>
<path style=" stroke:none;fill-rule:nonzero;fill:rgb(100%,100%,100%);fill-opacity:1;" d="M 446.222656 321.777344 C 446.222656 307.050781 434.28125 295.109375 419.554688 295.109375 C 404.828125 295.109375 392.890625 307.050781 392.890625 321.777344 C 392.890625 336.503906 404.828125 348.445312 419.554688 348.445312 C 434.28125 348.445312 446.222656 336.503906 446.222656 321.777344 "/>
<path style=" stroke:none;fill-rule:nonzero;fill:rgb(100%,100%,100%);fill-opacity:1;" d="M 446.222656 341.332031 C 446.222656 326.605469 434.28125 314.667969 419.554688 314.667969 C 404.828125 314.667969 392.890625 326.605469 392.890625 341.332031 C 392.890625 356.0625 404.828125 368 419.554688 368 C 434.28125 368 446.222656 356.0625 446.222656 341.332031 "/>
<path style=" stroke:none;fill-rule:nonzero;fill:rgb(100%,100%,100%);fill-opacity:1;" d="M 446.222656 360.890625 C 446.222656 346.160156 434.28125 334.222656 419.554688 334.222656 C 404.828125 334.222656 392.890625 346.160156 392.890625 360.890625 C 392.890625 375.617188 404.828125 387.554688 419.554688 387.554688 C 434.28125 387.554688 446.222656 375.617188 446.222656 360.890625 "/>
<path style=" stroke:none;fill-rule:nonzero;fill:rgb(100%,100%,100%);fill-opacity:1;" d="M 446.222656 380.445312 C 446.222656 365.71875 434.28125 353.777344 419.554688 353.777344 C 404.828125 353.777344 392.890625 365.71875 392.890625 380.445312 C 392.890625 395.171875 404.828125 407.109375 419.554688 407.109375 C 434.28125 407.109375 446.222656 395.171875 446.222656 380.445312 "/>
<path style=" stroke:none;fill-rule:nonzero;fill:rgb(100%,100%,100%);fill-opacity:1;" d="M 446.222656 400 C 446.222656 385.273438 434.28125 373.332031 419.554688 373.332031 C 404.828125 373.332031 392.890625 385.273438 392.890625 400 C 392.890625 414.726562 404.828125 426.667969 419.554688 426.667969 C 434.28125 426.667969 446.222656 414.726562 446.222656 400 "/>
<path style=" stroke:none;fill-rule:nonzero;fill:rgb(100%,100%,100%);fill-opacity:1;" d="M 446.222656 419.554688 C 446.222656 404.828125 434.28125 392.890625 419.554688 392.890625 C 404.828125 392.890625 392.890625 404.828125 392.890625 419.554688 C 392.890625 434.28125 404.828125 446.222656 419.554688 446.222656 C 434.28125 446.222656 446.222656 434.28125 446.222656 419.554688 "/>
<path style=" stroke:none;fill-rule:nonzero;fill:rgb(100%,100%,100%);fill-opacity:1;" d="M 446.222656 439.109375 C 446.222656 424.382812 434.28125 412.445312 419.554688 412.445312 C 404.828125 412.445312 392.890625 424.382812 392.890625 439.109375 C 392.890625 453.839844 404.828125 465.777344 419.554688 465.777344 C 434.28125 465.777344 446.222656 453.839844 446.222656 439.109375 "/>
<path style=" stroke:none;fill-rule:nonzero;fill:rgb(100%,100%,100%);fill-opacity:1;" d="M 446.222656 458.667969 C 446.222656 443.9375 434.28125 432 419.554688 432 C 404.828125 432 392.890625 443.9375 392.890625 458.667969 C 392.890625 473.394531 404.828125 485.332031 419.554688 485.332031 C 434.28125 485.332031 446.222656 473.394531 446.222656 458.667969 "/>
<path style=" stroke:none;fill-rule:nonzero;fill:rgb(100%,100%,100%);fill-opacity:1;" d="M 446.222656 478.222656 C 446.222656 463.496094 434.28125 451.554688 419.554688 451.554688 C 404.828125 451.554688 392.890625 463.496094 392.890625 478.222656 C 392.890625 492.949219 404.828125 504.890625 419.554688 504.890625 C 434.28125 504.890625 446.222656 492.949219 446.222656 478.222656 "/>
<path style=" stroke:none;fill-rule:nonzero;fill:rgb(100%,100%,100%);fill-opacity:1;" d="M 446.222656 497.777344 C 446.222656 483.050781 434.28125 471.109375 419.554688 471.109375 C 404.828125 471.109375 392.890625 483.050781 392.890625 497.777344 C 392.890625 512.503906 404.828125 524.445312 419.554688 524.445312 C 434.28125 524.445312 446.222656 512.503906 446.222656 497.777344 "/>
<path style=" stroke:none;fill-rule:nonzero;fill:rgb(100%,100%,100%);fill-opacity:1;" d="M 426.667969 282.667969 C 426.667969 267.9375 414.726562 256 400 256 C 385.273438 256 373.332031 267.9375 373.332031 282.667969 C 373.332031 297.394531 385.273438 309.332031 400 309.332031 C 414.726562 309.332031 426.667969 297.394531 426.667969 282.667969 "/>
<path style=" stroke:none;fill-rule:nonzero;fill:rgb(100%,100%,100%);fill-opacity:1;" d="M 426.667969 302.222656 C 426.667969 287.496094 414.726562 275.554688 400 275.554688 C 385.273438 275.554688 373.332031 287.496094 373.332031 302.222656 C 373.332031 316.949219 385.273438 328.890625 400 328.890625 C 414.726562 328.890625 426.667969 316.949219 426.667969 302.222656 "/>
<path style=" stroke:none;fill-rule:nonzero;fill:rgb(100%,100%,100%);fill-opacity:1;" d="M 426.667969 321.777344 C 426.667969 307.050781 414.726562 295.109375 400 295.109375 C 385.273438 295.109375 373.332031 307.050781 373.332031 321.777344 C 373.332031 336.503906 385.273438 348.445312 400 348.445312 C 414.726562 348.445312 426.667969 336.503906 426.667969 321.777344 "/>
<path style=" stroke:none;fill-rule:nonzero;fill:rgb(100%,100%,100%);fill-opacity:1;" d="M 426.667969 341.332031 C 426.667969 326.605469 414.726562 314.667969 400 314.667969 C 385.273438 314.667969 373.332031 326.605469 373.332031 341.332031 C 373.332031 356.0625 385.273438 368 400 368 C 414.726562 368 426.667969 356.0625 426.667969 341.332031 "/>
<path style=" stroke:none;fill-rule:nonzero;fill:rgb(100%,100%,100%);fill-opacity:1;" d="M 426.667969 360.890625 C 426.667969 346.160156 414.726562 334.222656 400 334.222656 C 385.273438 334.222656 373.332031 346.160156 373.332031 360.890625 C 373.332031 375.617188 385.273438 387.554688 400 387.554688 C 414.726562 387.554688 426.667969 375.617188 426.667969 360.890625 "/>
<path style=" stroke:none;fill-rule:nonzero;fill:rgb(100%,100%,100%);fill-opacity:1;" d="M 426.667969 380.445312 C 426.667969 365.71875 414.726562 353.777344 400 353.777344 C 385.273438 353.777344 373.332031 365.71875 373.332031 380.445312 C 373.332031 395.171875 385.273438 407.109375 400 407.109375 C 414.726562 407.109375 426.667969 395.171875 426.667969 380.445312 "/>
<path style=" stroke:none;fill-rule:nonzero;fill:rgb(100%,100%,100%);fill-opacity:1;" d="M 426.667969 400 C 426.667969 385.273438 414.726562 373.332031 400 373.332031 C 385.273438 373.332031 373.332031 385.273438 373.332031 400 C 373.332031 414.726562 385.273438 426.667969 400 426.667969 C 414.726562 426.667969 426.667969 414.726562 426.667969 400 "/>
<path style=" stroke:none;fill-rule:nonzero;fill:rgb(100%,100%,100%);fill-opacity:1;" d="M 426.667969 419.554688 C 426.667969 404.828125 414.726562 392.890625 400 392.890625 C 385.273438 392.890625 373.332031 404.828125 373.332031 419.554688 C 373.332031 434.28125 385.273438 446.222656 400 446.222656 C 414.726562 446.222656 426.667969 434.28125 426.667969 419.554688 "/>
<path style=" stroke:none;fill-rule:nonzero;fill:rgb(100%,100%,100%);fill-opacity:1;" d="M 426.667969 439.109375 C 426.667969 424.382812 414.726562 412.445312 400 412.445312 C 385.273438 412.445312 373.332031 424.382812 373.332031 439.109375 C 373.332031 453.839844 385.273438 465.777344 400 465.777344 C 414.726562 465.777344 426.667969 453.839844 426.667969 439.109375 "/>
<path style=" stroke:none;fill-rule:nonzero;fill:rgb(100%,100%,100%);fill-opacity:1;" d="M 426.667969 458.667969 C 426.667969 443.9375 414.726562 432 400 432 C 385.273438 432 373.332031 443.9375 373.332031 458.667969 C 373.332031 473.394531 385.273438 485.332031 400 485.332031 C 414.726562 485.332031 426.667969 473.394531 426.667969 458.667969 "/>
<path style=" stroke:none;fill-rule:nonzero;fill:rgb(100%,100%,100%);fill-opacity:1;" d="M 426.667969 478.222656 C 426.667969 463.496094 414.726562 451.554688 400 451.554688 C 385.273438 451.554688 373.332031 463.496094 373.332031 478.222656 C 373.332031 492.949219 385.273438 504.890625 400 504.890625 C 414.726562 504.890625 426.667969 492.949219 426.667969 478.222656 "/>
<path style=" stroke:none;fill-rule:nonzero;fill:rgb(100%,100%,100%);fill-opacity:1;" d="M 426.667969 497.777344 C 426.667969 483.050781 414.726562 471.109375 400 471.109375 C 385.273438 471.109375 373.332031 483.050781 373.332031 497.777344 C 373.332031 512.503906 385.273438 524.445312 400 524.445312 C 414.726562 524.445312 426.667969 512.503906 426.667969 497.777344 "/>
<path style=" stroke:none;fill-rule:nonzero;fill:rgb(100%,100%,100%);fill-opacity:1;" d="M 407.109375 282.667969 C 407.109375 267.9375 395.171875 256 380.445312 256 C 365.71875 256 353.777344 267.9375 353.777344 282.667969 C 353.777344 297.394531 365.71875 309.332031 380.445312 309.332031 C 395.171875 309.332031 407.109375 297.394531 407.109375 282.667969 "/>
<path style=" stroke:none;fill-rule:nonzero;fill:rgb(100%,100%,100%);fill-opacity:1;" d="M 407.109375 302.222656 C 407.109375 287.496094 395.171875 275.554688 380.445312 275.554688 C 365.71875 275.554688 353.777344 287.496094 353.777344 302.222656 C 353.777344 316.949219 365.71875 328.890625 380.445312 328.890625 C 395.171875 328.890625 407.109375 316.949219 407.109375 302.222656 "/>
<path style=" stroke:none;fill-rule:nonzero;fill:rgb(100%,100%,100%);fill-opacity:1;" d="M 407.109375 321.777344 C 407.109375 307.050781 395.171875 295.109375 380.445312 295.109375 C 365.71875 295.109375 353.777344 307.050781 353.777344 321.777344 C 353.777344 336.503906 365.71875 348.445312 380.445312 348.445312 C 395.171875 348.445312 407.109375 336.503906 407.109375 321.777344 "/>
<path style=" stroke:none;fill-rule:nonzero;fill:rgb(100%,100%,100%);fill-opacity:1;" d="M 407.109375 341.332031 C 407.109375 326.605469 395.171875 314.667969 380.445312 314.667969 C 365.71875 314.667969 353.777344 326.605469 353.777344 341.332031 C 353.777344 356.0625 365.71875 368 380.445312 368 C 395.171875 368 407.109375 356.0625 407.109375 341.332031 "/>
<path style=" stroke:none;fill-rule:nonzero;fill:rgb(100%,100%,100%);fill-opacity:1;" d="M 407.109375 360.890625 C 407.109375 346.160156 395.171875 334.222656 380.445312 334.222656 C 365.71875 334.222656 353.777344 346.160156 353.777344 360.890625 C 353.777344 375.617188 365.71875 387.554688 380.445312 387.554688 C 395.171875 387.554688 407.109375 375.617188 407.109375 360.890625 "/>
<path style=" stroke:none;fill-rule:nonzero;fill:rgb(100%,100%,100%);fill-opacity:1;" d="M 407.109375 380.445312 C 407.109375 365.71875 395.171875 353.777344 380.445312 353.777344 C 365.71875 353.777344 353.777344 365.71875 353.777344 380.445312 C 353.777344 395.171875 365.71875 407.109375 380.445312 407.109375 C 395.171875 407.109375 407.109375 395.171875 407.109375 380.445312 "/>
<path style=" stroke:none;fill-rule:nonzero;fill:rgb(100%,100%,100%);fill-opacity:1;" d="M 407.109375 400 C 407.109375 385.273438 395.171875 373.332031 380.445312 373.332031 C 365.71875 373.332031 353.777344 385.273438 353.777344 400 C 353.777344 414.726562 365.71875 426.667969 380.445312 426.667969 C 395.171875 426.667969 407.109375 414.726562 407.109375 400 "/>
<path style=" stroke:none;fill-rule:nonzero;fill:rgb(100%,100%,100%);fill-opacity:1;" d="M 407.109375 419.554688 C 407.109375 404.828125 395.171875 392.890625 380.445312 392.890625 C 365.71875 392.890625 353.777344 404.828125 353.777344 419.554688 C 353.777344 434.28125 365.71875 446.222656 380.445312 446.222656 C 395.171875 446.222656 407.109375 434.28125 407.109375 419.554688 "/>
<path style=" stroke:none;fill-rule:nonzero;fill:rgb(100%,100%,100%);fill-opacity:1;" d="M 407.109375 439.109375 C 407.109375 424.382812 395.171875 412.445312 380.445312 412.445312 C 365.71875 412.445312 353.777344 424.382812 353.777344 439.109375 C 353.777344 453.839844 365.71875 465.777344 380.445312 465.777344 C 395.171875 465.777344 407.109375 453.839844 407.109375 439.109375 "/>
<path style=" stroke:none;fill-rule:nonzero;fill:rgb(100%,100%,100%);fill-opacity:1;" d="M 407.109375 458.667969 C 407.109375 443.9375 395.171875 432 380.445312 432 C 365.71875 432 353.777344 443.9375 353.777344 458.667969 C 353.777344 473.394531 365.71875 485.332031 380.445312 485.332031 C 395.171875 485.332031 407.109375 473.394531 407.109375 458.667969 "/>
<path style=" stroke:none;fill-rule:nonzero;fill:rgb(100%,100%,100%);fill-opacity:1;" d="M 407.109375 478.222656 C 407.109375 463.496094 395.171875 451.554688 380.445312 451.554688 C 365.71875 451.554688 353.777344 463.496094 353.777344 478.222656 C 353.777344 492.949219 365.71875 504.890625 380.445312 504.890625 C 395.171875 504.890625 407.109375 492.949219 407.109375 478.222656 "/>
<path style=" stroke:none;fill-rule:nonzero;fill:rgb(100%,100%,100%);fill-opacity:1;" d="M 407.109375 497.777344 C 407.109375 483.050781 395.171875 471.109375 380.445312 471.109375 C 365.71875 471.109375 353.777344 483.050781 353.777344 497.777344 C 353.777344 512.503906 365.71875 524.445312 380.445312 524.445312 C 395.171875 524.445312 407.109375 512.503906 407.109375 497.777344 "/>
<path style=" stroke:none;fill-rule:nonzero;fill:rgb(100%,100%,100%);fill-opacity:1;" d="M 387.554688 282.667969 C 387.554688 267.9375 375.617188 256 360.890625 256 C 346.160156 256 334.222656 267.9375 334.222656 282.667969 C 334.222656 297.394531 346.160156 309.332031 360.890625 309.332031 C 375.617188 309.332031 387.554688 297.394531 387.554688 282.667969 "/>
<path style=" stroke:none;fill-rule:nonzero;fill:rgb(100%,100%,100%);fill-opacity:1;" d="M 387.554688 302.222656 C 387.554688 287.496094 375.617188 275.554688 360.890625 275.554688 C 346.160156 275.554688 334.222656 287.496094 334.222656 302.222656 C 334.222656 316.949219 346.160156 328.890625 360.890625 328.890625 C 375.617188 328.890625 387.554688 316.949219 387.554688 302.222656 "/>
<path style=" stroke:none;fill-rule:nonzero;fill:rgb(100%,100%,100%);fill-opacity:1;" d="M 387.554688 321.777344 C 387.554688 307.050781 375.617188 295.109375 360.890625 295.109375 C 346.160156 295.109375 334.222656 307.050781 334.222656 321.777344 C 334.222656 336.503906 346.160156 348.445312 360.890625 348.445312 C 375.617188 348.445312 387.554688 336.503906 387.554688 321.777344 "/>
<path style=" stroke:none;fill-rule:nonzero;fill:rgb(100%,100%,100%);fill-opacity:1;" d="M 387.554688 341.332031 C 387.554688 326.605469 375.617188 314.667969 360.890625 314.667969 C 346.160156 314.667969 334.222656 326.605469 334.222656 341.332031 C 334.222656 356.0625 346.160156 368 360.890625 368 C 375.617188 368 387.554688 356.0625 387.554688 341.332031 "/>
<path style=" stroke:none;fill-rule:nonzero;fill:rgb(100%,100%,100%);fill-opacity:1;" d="M 387.554688 360.890625 C 387.554688 346.160156 375.617188 334.222656 360.890625 334.222656 C 346.160156 334.222656 334.222656 346.160156 334.222656 360.890625 C 334.222656 375.617188 346.160156 387.554688 360.890625 387.554688 C 375.617188 387.554688 387.554688 375.617188 387.554688 360.890625 "/>
<path style=" stroke:none;fill-rule:nonzero;fill:rgb(100%,100%,100%);fill-opacity:1;" d="M 387.554688 380.445312 C 387.554688 365.71875 375.617188 353.777344 360.890625 353.777344 C 346.160156 353.777344 334.222656 365.71875 334.222656 380.445312 C 334.222656 395.171875 346.160156 407.109375 360.890625 407.109375 C 375.617188 407.109375 387.554688 395.171875 387.554688 380.445312 "/>
<path style=" stroke:none;fill-rule:nonzero;fill:rgb(100%,100%,100%);fill-opacity:1;" d="M 387.554688 400 C 387.554688 385.273438 375.617188 373.332031 360.890625 373.332031 C 346.160156 373.332031 334.222656 385.273438 334.222656 400 C 334.222656 414.726562 346.160156 426.667969 360.890625 426.667969 C 375.617188 426.667969 387.554688 414.726562 387.554688 400 "/>
<path style=" stroke:none;fill-rule:nonzero;fill:rgb(100%,100%,100%);fill-opacity:1;" d="M 387.554688 419.554688 C 387.554688 404.828125 375.617188 392.890625 360.890625 392.890625 C 346.160156 392.890625 334.222656 404.828125 334.222656 419.554688 C 334.222656 434.28125 346.160156 446.222656 360.890625 446.222656 C 375.617188 446.222656 387.554688 434.28125 387.554688 419.554688 "/>
<path style=" stroke:none;fill-rule:nonzero;fill:rgb(100%,100%,100%);fill-opacity:1;" d="M 387.554688 439.109375 C 387.554688 424.382812 375.617188 412.445312 360.890625 412.445312 C 346.160156 412.445312 334.222656 424.382812 334.222656 439.109375 C 334.222656 453.839844 346.160156 465.777344 360.890625 465.777344 C 375.617188 465.777344 387.554688 453.839844 387.554688 439.109375 "/>
<path style=" stroke:none;fill-rule:nonzero;fill:rgb(100%,100%,100%);fill-opacity:1;" d="M 387.554688 458.667969 C 387.554688 443.9375 375.617188 432 360.890625 432 C 346.160156 432 334.222656 443.9375 334.222656 458.667969 C 334.222656 473.394531 346.160156 485.332031 360.890625 485.332031 C 375.617188 485.332031 387.554688 473.394531 387.554688 458.667969 "/>
<path style=" stroke:none;fill-rule:nonzero;fill:rgb(100%,100%,100%);fill-opacity:1;" d="M 387.554688 478.222656 C 387.554688 463.496094 375.617188 451.554688 360.890625 451.554688 C 346.160156 451.554688 334.222656 463.496094 334.222656 478.222656 C 334.222656 492.949219 346.160156 504.890625 360.890625 504.890625 C 375.617188 504.890625 387.554688 492.949219 387.554688 478.222656 "/>
<path style=" stroke:none;fill-rule:nonzero;fill:rgb(100%,100%,100%);fill-opacity:1;" d="M 387.554688 497.777344 C 387.554688 483.050781 375.617188 471.109375 360.890625 471.109375 C 346.160156 471.109375 334.222656 483.050781 334.222656 497.777344 C 334.222656 512.503906 346.160156 524.445312 360.890625 524.445312 C 375.617188 524.445312 387.554688 512.503906 387.554688 497.777344 "/>
<path style=" stroke:none;fill-rule:nonzero;fill:rgb(100%,100%,100%);fill-opacity:1;" d="M 368 282.667969 C 368 267.9375 356.0625 256 341.332031 256 C 326.605469 256 314.667969 267.9375 314.667969 282.667969 C 314.667969 297.394531 326.605469 309.332031 341.332031 309.332031 C 356.0625 309.332031 368 297.394531 368 282.667969 "/>
<path style=" stroke:none;fill-rule:nonzero;fill:rgb(100%,100%,100%);fill-opacity:1;" d="M 368 302.222656 C 368 287.496094 356.0625 275.554688 341.332031 275.554688 C 326.605469 275.554688 314.667969 287.496094 314.667969 302.222656 C 314.667969 316.949219 326.605469 328.890625 341.332031 328.890625 C 356.0625 328.890625 368 316.949219 368 302.222656 "/>
<path style=" stroke:none;fill-rule:nonzero;fill:rgb(100%,100%,100%);fill-opacity:1;" d="M 368 321.777344 C 368 307.050781 356.0625 295.109375 341.332031 295.109375 C 326.605469 295.109375 314.667969 307.050781 314.667969 321.777344 C 314.667969 336.503906 326.605469 348.445312 341.332031 348.445312 C 356.0625 348.445312 368 336.503906 368 321.777344 "/>
<path style=" stroke:none;fill-rule:nonzero;fill:rgb(100%,100%,100%);fill-opacity:1;" d="M 368 341.332031 C 368 326.605469 356.0625 314.667969 341.332031 314.667969 C 326.605469 314.667969 314.667969 326.605469 314.667969 341.332031 C 314.667969 356.0625 326.605469 368 341.332031 368 C 356.0625 368 368 356.0625 368 341.332031 "/>
<path style=" stroke:none;fill-rule:nonzero;fill:rgb(100%,100%,100%);fill-opacity:1;" d="M 368 360.890625 C 368 346.160156 356.0625 334.222656 341.332031 334.222656 C 326.605469 334.222656 314.667969 346.160156 314.667969 360.890625 C 314.667969 375.617188 326.605469 387.554688 341.332031 387.554688 C 356.0625 387.554688 368 375.617188 368 360.890625 "/>
<path style=" stroke:none;fill-rule:nonzero;fill:rgb(100%,100%,100%);fill-opacity:1;" d="M 368 380.445312 C 368 365.71875 356.0625 353.777344 341.332031 353.777344 C 326.605469 353.777344 314.667969 365.71875 314.667969 380.445312 C 314.667969 395.171875 326.605469 407.109375 341.332031 407.109375 C 356.0625 407.109375 368 395.171875 368 380.445312 "/>
<path style=" stroke:none;fill-rule:nonzero;fill:rgb(100%,100%,100%);fill-opacity:1;" d="M 368 400 C 368 385.273438 356.0625 373.332031 341.332031 373.332031 C 326.605469 373.332031 314.667969 385.273438 314.667969 400 C 314.667969 414.726562 326.605469 426.667969 341.332031 426.667969 C 356.0625 426.667969 368 414.726562 368 400 "/>
<path style=" stroke:none;fill-rule:nonzero;fill:rgb(100%,100%,100%);fill-opacity:1;" d="M 368 419.554688 C 368 404.828125 356.0625 392.890625 341.332031 392.890625 C 326.605469 392.890625 314.667969 404.828125 314.667969 419.554688 C 314.667969 434.28125 326.605469 446.222656 341.332031 446.222656 C 356.0625 446.222656 368 434.28125 368 419.554688 "/>
<path style=" stroke:none;fill-rule:nonzero;fill:rgb(100%,100%,100%);fill-opacity:1;" d="M 368 439.109375 C 368 424.382812 356.0625 412.445312 341.332031 412.445312 C 326.605469 412.445312 314.667969 424.382812 314.667969 439.109375 C 314.667969 453.839844 326.605469 465.777344 341.332031 465.777344 C 356.0625 465.777344 368 453.839844 368 439.109375 "/>
<path style=" stroke:none;fill-rule:nonzero;fill:rgb(100%,100%,100%);fill-opacity:1;" d="M 368 458.667969 C 368 443.9375 356.0625 432 341.332031 432 C 326.605469 432 314.667969 443.9375 314.667969 458.667969 C 314.667969 473.394531 326.605469 485.332031 341.332031 485.332031 C 356.0625 485.332031 368 473.394531 368 458.667969 "/>
<path style=" stroke:none;fill-rule:nonzero;fill:rgb(100%,100%,100%);fill-opacity:1;" d="M 368 478.222656 C 368 463.496094 356.0625 451.554688 341.332031 451.554688 C 326.605469 451.554688 314.667969 463.496094 314.667969 478.222656 C 314.667969 492.949219 326.605469 504.890625 341.332031 504.890625 C 356.0625 504.890625 368 492.949219 368 478.222656 "/>
<path style=" stroke:none;fill-rule:nonzero;fill:rgb(100%,100%,100%);fill-opacity:1;" d="M 368 497.777344 C 368 483.050781 356.0625 471.109375 341.332031 471.109375 C 326.605469 471.109375 314.667969 483.050781 314.667969 497.777344 C 314.667969 512.503906 326.605469 524.445312 341.332031 524.445312 C 356.0625 524.445312 368 512.503906 368 497.777344 "/>
<path style=" stroke:none;fill-rule:nonzero;fill:rgb(100%,100%,100%);fill-opacity:1;" d="M 348.445312 282.667969 C 348.445312 267.9375 336.503906 256 321.777344 256 C 307.050781 256 295.109375 267.9375 295.109375 282.667969 C 295.109375 297.394531 307.050781 309.332031 321.777344 309.332031 C 336.503906 309.332031 348.445312 297.394531 348.445312 282.667969 "/>
<path style=" stroke:none;fill-rule:nonzero;fill:rgb(100%,100%,100%);fill-opacity:1;" d="M 348.445312 302.222656 C 348.445312 287.496094 336.503906 275.554688 321.777344 275.554688 C 307.050781 275.554688 295.109375 287.496094 295.109375 302.222656 C 295.109375 316.949219 307.050781 328.890625 321.777344 328.890625 C 336.503906 328.890625 348.445312 316.949219 348.445312 302.222656 "/>
<path style=" stroke:none;fill-rule:nonzero;fill:rgb(100%,100%,100%);fill-opacity:1;" d="M 348.445312 321.777344 C 348.445312 307.050781 336.503906 295.109375 321.777344 295.109375 C 307.050781 295.109375 295.109375 307.050781 295.109375 321.777344 C 295.109375 336.503906 307.050781 348.445312 321.777344 348.445312 C 336.503906 348.445312 348.445312 336.503906 348.445312 321.777344 "/>
<path style=" stroke:none;fill-rule:nonzero;fill:rgb(100%,100%,100%);fill-opacity:1;" d="M 348.445312 341.332031 C 348.445312 326.605469 336.503906 314.667969 321.777344 314.667969 C 307.050781 314.667969 295.109375 326.605469 295.109375 341.332031 C 295.109375 356.0625 307.050781 368 321.777344 368 C 336.503906 368 348.445312 356.0625 348.445312 341.332031 "/>
<path style=" stroke:none;fill-rule:nonzero;fill:rgb(100%,100%,100%);fill-opacity:1;" d="M 348.445312 360.890625 C 348.445312 346.160156 336.503906 334.222656 321.777344 334.222656 C 307.050781 334.222656 295.109375 346.160156 295.109375 360.890625 C 295.109375 375.617188 307.050781 387.554688 321.777344 387.554688 C 336.503906 387.554688 348.445312 375.617188 348.445312 360.890625 "/>
<path style=" stroke:none;fill-rule:nonzero;fill:rgb(100%,100%,100%);fill-opacity:1;" d="M 348.445312 380.445312 C 348.445312 365.71875 336.503906 353.777344 321.777344 353.777344 C 307.050781 353.777344 295.109375 365.71875 295.109375 380.445312 C 295.109375 395.171875 307.050781 407.109375 321.777344 407.109375 C 336.503906 407.109375 348.445312 395.171875 348.445312 380.445312 "/>
<path style=" stroke:none;fill-rule:nonzero;fill:rgb(100%,100%,100%);fill-opacity:1;" d="M 348.445312 400 C 348.445312 385.273438 336.503906 373.332031 321.777344 373.332031 C 307.050781 373.332031 295.109375 385.273438 295.109375 400 C 295.109375 414.726562 307.050781 426.667969 321.777344 426.667969 C 336.503906 426.667969 348.445312 414.726562 348.445312 400 "/>
<path style=" stroke:none;fill-rule:nonzero;fill:rgb(100%,100%,100%);fill-opacity:1;" d="M 348.445312 419.554688 C 348.445312 404.828125 336.503906 392.890625 321.777344 392.890625 C 307.050781 392.890625 295.109375 404.828125 295.109375 419.554688 C 295.109375 434.28125 307.050781 446.222656 321.777344 446.222656 C 336.503906 446.222656 348.445312 434.28125 348.445312 419.554688 "/>
<path style=" stroke:none;fill-rule:nonzero;fill:rgb(100%,100%,100%);fill-opacity:1;" d="M 348.445312 439.109375 C 348.445312 424.382812 336.503906 412.445312 321.777344 412.445312 C 307.050781 412.445312 295.109375 424.382812 295.109375 439.109375 C 295.109375 453.839844 307.050781 465.777344 321.777344 465.777344 C 336.503906 465.777344 348.445312 453.839844 348.445312 439.109375 "/>
<path style=" stroke:none;fill-rule:nonzero;fill:rgb(100%,100%,100%);fill-opacity:1;" d="M 348.445312 458.667969 C 348.445312 443.9375 336.503906 432 321.777344 432 C 307.050781 432 295.109375 443.9375 295.109375 458.667969 C 295.109375 473.394531 307.050781 485.332031 321.777344 485.332031 C 336.503906 485.332031 348.445312 473.394531 348.445312 458.667969 "/>
<path style=" stroke:none;fill-rule:nonzero;fill:rgb(100%,100%,100%);fill-opacity:1;" d="M 348.445312 478.222656 C 348.445312 463.496094 336.503906 451.554688 321.777344 451.554688 C 307.050781 451.554688 295.109375 463.496094 295.109375 478.222656 C 295.109375 492.949219 307.050781 504.890625 321.777344 504.890625 C 336.503906 504.890625 348.445312 492.949219 348.445312 478.222656 "/>
<path style=" stroke:none;fill-rule:nonzero;fill:rgb(100%,100%,100%);fill-opacity:1;" d="M 348.445312 497.777344 C 348.445312 483.050781 336.503906 471.109375 321.777344 471.109375 C 307.050781 471.109375 295.109375 483.050781 295.109375 497.777344 C 295.109375 512.503906 307.050781 524.445312 321.777344 524.445312 C 336.503906 524.445312 348.445312 512.503906 348.445312 497.777344 "/>
<path style=" stroke:none;fill-rule:nonzero;fill:rgb(100%,100%,100%);fill-opacity:1;" d="M 328.890625 282.667969 C 328.890625 267.9375 316.949219 256 302.222656 256 C 287.496094 256 275.554688 267.9375 275.554688 282.667969 C 275.554688 297.394531 287.496094 309.332031 302.222656 309.332031 C 316.949219 309.332031 328.890625 297.394531 328.890625 282.667969 "/>
<path style=" stroke:none;fill-rule:nonzero;fill:rgb(100%,100%,100%);fill-opacity:1;" d="M 328.890625 302.222656 C 328.890625 287.496094 316.949219 275.554688 302.222656 275.554688 C 287.496094 275.554688 275.554688 287.496094 275.554688 302.222656 C 275.554688 316.949219 287.496094 328.890625 302.222656 328.890625 C 316.949219 328.890625 328.890625 316.949219 328.890625 302.222656 "/>
<path style=" stroke:none;fill-rule:nonzero;fill:rgb(100%,100%,100%);fill-opacity:1;" d="M 328.890625 321.777344 C 328.890625 307.050781 316.949219 295.109375 302.222656 295.109375 C 287.496094 295.109375 275.554688 307.050781 275.554688 321.777344 C 275.554688 336.503906 287.496094 348.445312 302.222656 348.445312 C 316.949219 348.445312 328.890625 336.503906 328.890625 321.777344 "/>
<path style=" stroke:none;fill-rule:nonzero;fill:rgb(100%,100%,100%);fill-opacity:1;" d="M 328.890625 341.332031 C 328.890625 326.605469 316.949219 314.667969 302.222656 314.667969 C 287.496094 314.667969 275.554688 326.605469 275.554688 341.332031 C 275.554688 356.0625 287.496094 368 302.222656 368 C 316.949219 368 328.890625 356.0625 328.890625 341.332031 "/>
<path style=" stroke:none;fill-rule:nonzero;fill:rgb(100%,100%,100%);fill-opacity:1;" d="M 328.890625 360.890625 C 328.890625 346.160156 316.949219 334.222656 302.222656 334.222656 C 287.496094 334.222656 275.554688 346.160156 275.554688 360.890625 C 275.554688 375.617188 287.496094 387.554688 302.222656 387.554688 C 316.949219 387.554688 328.890625 375.617188 328.890625 360.890625 "/>
<path style=" stroke:none;fill-rule:nonzero;fill:rgb(100%,100%,100%);fill-opacity:1;" d="M 328.890625 380.445312 C 328.890625 365.71875 316.949219 353.777344 302.222656 353.777344 C 287.496094 353.777344 275.554688 365.71875 275.554688 380.445312 C 275.554688 395.171875 287.496094 407.109375 302.222656 407.109375 C 316.949219 407.109375 328.890625 395.171875 328.890625 380.445312 "/>
<path style=" stroke:none;fill-rule:nonzero;fill:rgb(100%,100%,100%);fill-opacity:1;" d="M 328.890625 400 C 328.890625 385.273438 316.949219 373.332031 302.222656 373.332031 C 287.496094 373.332031 275.554688 385.273438 275.554688 400 C 275.554688 414.726562 287.496094 426.667969 302.222656 426.667969 C 316.949219 426.667969 328.890625 414.726562 328.890625 400 "/>
<path style=" stroke:none;fill-rule:nonzero;fill:rgb(100%,100%,100%);fill-opacity:1;" d="M 328.890625 419.554688 C 328.890625 404.828125 316.949219 392.890625 302.222656 392.890625 C 287.496094 392.890625 275.554688 404.828125 275.554688 419.554688 C 275.554688 434.28125 287.496094 446.222656 302.222656 446.222656 C 316.949219 446.222656 328.890625 434.28125 328.890625 419.554688 "/>
<path style=" stroke:none;fill-rule:nonzero;fill:rgb(100%,100%,100%);fill-opacity:1;" d="M 328.890625 439.109375 C 328.890625 424.382812 316.949219 412.445312 302.222656 412.445312 C 287.496094 412.445312 275.554688 424.382812 275.554688 439.109375 C 275.554688 453.839844 287.496094 465.777344 302.222656 465.777344 C 316.949219 465.777344 328.890625 453.839844 328.890625 439.109375 "/>
<path style=" stroke:none;fill-rule:nonzero;fill:rgb(100%,100%,100%);fill-opacity:1;" d="M 328.890625 458.667969 C 328.890625 443.9375 316.949219 432 302.222656 432 C 287.496094 432 275.554688 443.9375 275.554688 458.667969 C 275.554688 473.394531 287.496094 485.332031 302.222656 485.332031 C 316.949219 485.332031 328.890625 473.394531 328.890625 458.667969 "/>
<path style=" stroke:none;fill-rule:nonzero;fill:rgb(100%,100%,100%);fill-opacity:1;" d="M 328.890625 478.222656 C 328.890625 463.496094 316.949219 451.554688 302.222656 451.554688 C 287.496094 451.554688 275.554688 463.496094 275.554688 478.222656 C 275.554688 492.949219 287.496094 504.890625 302.222656 504.890625 C 316.949219 504.890625 328.890625 492.949219 328.890625 478.222656 "/>
<path style=" stroke:none;fill-rule:nonzero;fill:rgb(100%,100%,100%);fill-opacity:1;" d="M 328.890625 497.777344 C 328.890625 483.050781 316.949219 471.109375 302.222656 471.109375 C 287.496094 471.109375 275.554688 483.050781 275.554688 497.777344 C 275.554688 512.503906 287.496094 524.445312 302.222656 524.445312 C 316.949219 524.445312 328.890625 512.503906 328.890625 497.777344 "/>
</g>
</svg>
