<?xml version="1.0" encoding="UTF-8"?>
<svg xmlns="http://www.w3.org/2000/svg" xmlns:xlink="http://www.w3.org/1999/xlink" width="800pt" height="800pt" viewBox="0 0 800 800" version="1.1">
<g id="surface216">
<rect x="0" y="0" width="800" height="800" style="fill:rgb(100%,100%,100%);fill-opacity:1;stroke:none;"/>
<path style="fill:none;stroke-width:0.005;stroke-linecap:butt;stroke-linejoin:miter;stroke:rgb(80%,80%,80%);stroke-opacity:1;stroke-miterlimit:10;" d="M -9.999999 -9.999999 L -9.999999 9.999999 " transform="matrix(1333.333333,0,0,-1333.333333,400,400)"/>
<path style="fill:none;stroke-width:0.005;stroke-linecap:butt;stroke-linejoin:miter;stroke:rgb(80%,80%,80%);stroke-opacity:1;stroke-miterlimit:10;" d="M -9 -9.999999 L -9 9.999999 " transform="matrix(1333.333333,0,0,-1333.333333,400,400)"/>
<path style="fill:none;stroke-width:0.005;stroke-linecap:butt;stroke-linejoin:miter;stroke:rgb(80%,80%,80%);stroke-opacity:1;stroke-miterlimit:10;" d="M -8.000001 -9.999999 L -8.000001 9.999999 " transform="matrix(1333.333333,0,0,-1333.333333,400,400)"/>
<path style="fill:none;stroke-width:0.005;stroke-linecap:butt;stroke-linejoin:miter;stroke:rgb(80%,80%,80%);stroke-opacity:1;stroke-miterlimit:10;" d="M -6.999999 -9.999999 L -6.999999 9.999999 " transform="matrix(1333.333333,0,0,-1333.333333,400,400)"/>
<path style="fill:none;stroke-width:0.005;stroke-linecap:butt;stroke-linejoin:miter;stroke:rgb(80%,80%,80%);stroke-opacity:1;stroke-miterlimit:10;" d="M -6 -9.999999 L -6 9.999999 " transform="matrix(1333.333333,0,0,-1333.333333,400,400)"/>
<path style="fill:none;stroke-width:0.005;stroke-linecap:butt;stroke-linejoin:miter;stroke:rgb(80%,80%,80%);stroke-opacity:1;stroke-miterlimit:10;" d="M -5.000001 -9.999999 L -5.000001 9.999999 " transform="matrix(1333.333333,0,0,-1333.333333,400,400)"/>
<path style="fill:none;stroke-width:0.005;stroke-linecap:butt;stroke-linejoin:miter;stroke:rgb(80%,80%,80%);stroke-opacity:1;stroke-miterlimit:10;" d="M -3.999999 -9.999999 L -3.999999 9.999999 " transform="matrix(1333.333333,0,0,-1333.333333,400,400)"/>
<path style="fill:none;stroke-width:0.005;stroke-linecap:butt;stroke-linejoin:miter;stroke:rgb(80%,80%,80%);stroke-opacity:1;stroke-miterlimit:10;" d="M -3 -9.999999 L -3 9.999999 " transform="matrix(1333.333333,0,0,-1333.333333,400,400)"/>
<path style="fill:none;stroke-width:0.005;stroke-linecap:butt;stroke-linejoin:miter;stroke:rgb(80%,80%,80%);stroke-opacity:1;stroke-miterlimit:10;" d="M -2.000001 -9.999999 L -2.000001 9.999999 " transform="matrix(1333.333333,0,0,-1333.333333,400,400)"/>
<path style="fill:none;stroke-width:0.005;stroke-linecap:butt;stroke-linejoin:miter;stroke:rgb(80%,80%,80%);stroke-opacity:1;stroke-miterlimit:10;" d="M -0.999999 -9.999999 L -0.999999 9.999999 " transform="matrix(1333.333333,0,0,-1333.333333,400,400)"/>
<path style="fill:none;stroke-width:0.005;stroke-linecap:butt;stroke-linejoin:miter;stroke:rgb(80%,80%,80%);stroke-opacity:1;stroke-miterlimit:10;" d="M 0 -9.999999 L 0 9.999999 " transform="matrix(1333.333333,0,0,-1333.333333,400,400)"/>
<path style="fill:none;stroke-width:0.005;stroke-linecap:butt;stroke-linejoin:miter;stroke:rgb(80%,80%,80%);stroke-opacity:1;stroke-miterlimit:10;" d="M 0.999999 -9.999999 L 0.999999 9.999999 " transform="matrix(1333.333333,0,0,-1333.333333,400,400)"/>
<path style="fill:none;stroke-width:0.005;stroke-linecap:butt;stroke-linejoin:miter;stroke:rgb(80%,80%,80%);stroke-opacity:1;stroke-miterlimit:10;" d="M 2.000001 -9.999999 L 2.000001 9.999999 " transform="matrix(1333.333333,0,0,-1333.333333,400,400)"/>
<path style="fill:none;stroke-width:0.005;stroke-linecap:butt;stroke-linejoin:miter;stroke:rgb(80%,80%,80%);stroke-opacity:1;stroke-miterlimit:10;" d="M 3 -9.999999 L 3 9.999999 " transform="matrix(1333.333333,0,0,-1333.333333,400,400)"/>
<path style="fill:none;stroke-width:0.005;stroke-linecap:butt;stroke-linejoin:miter;stroke:rgb(80%,80%,80%);stroke-opacity:1;stroke-miterlimit:10;" d="M 3.999999 -9.999999 L 3.999999 9.999999 " transform="matrix(1333.333333,0,0,-1333.333333,400,400)"/>
<path style="fill:none;stroke-width:0.005;stroke-linecap:butt;stroke-linejoin:miter;stroke:rgb(80%,80%,80%);stroke-opacity:1;stroke-miterlimit:10;" d="M 5.000001 -9.999999 L 5.000001 9.999999 " transform="matrix(1333.333333,0,0,-1333.333333,400,400)"/>
<path style="fill:none;stroke-width:0.005;stroke-linecap:butt;stroke-linejoin:miter;stroke:rgb(80%,80%,80%);stroke-opacity:1;stroke-miterlimit:10;" d="M 6 -9.999999 L 6 9.999999 " transform="matrix(1333.333333,0,0,-1333.333333,400,400)"/>
<path style="fill:none;stroke-width:0.005;stroke-linecap:butt;stroke-linejoin:miter;stroke:rgb(80%,80%,80%);stroke-opacity:1;stroke-miterlimit:10;" d="M 6.999999 -9.999999 L 6.999999 9.999999 " transform="matrix(1333.333333,0,0,-1333.333333,400,400)"/>
<path style="fill:none;stroke-width:0.005;stroke-linecap:butt;stroke-linejoin:miter;stroke:rgb(80%,80%,80%);stroke-opacity:1;stroke-miterlimit:10;" d="M 8.000001 -9.999999 L 8.000001 9.999999 " transform="matrix(1333.333333,0,0,-1333.333333,400,400)"/>
<path style="fill:none;stroke-width:0.005;stroke-linecap:butt;stroke-linejoin:miter;stroke:rgb(80%,80%,80%);stroke-opacity:1;stroke-miterlimit:10;" d="M 9 -9.999999 L 9 9.999999 " transform="matrix(1333.333333,0,0,-1333.333333,400,400)"/>
<path style="fill:none;stroke-width:0.005;stroke-linecap:butt;stroke-linejoin:miter;stroke:rgb(80%,80%,80%);stroke-opacity:1;stroke-miterlimit:10;" d="M 9.999999 -9.999999 L 9.999999 9.999999 " transform="matrix(1333.333333,0,0,-1333.333333,400,400)"/>
<path style="fill:none;stroke-width:0.005;stroke-linecap:butt;stroke-linejoin:miter;stroke:rgb(80%,80%,80%);stroke-opacity:1;stroke-miterlimit:10;" d="M -9.999999 -9.999999 L 9.999999 -9.999999 " transform="matrix(1333.333333,0,0,-1333.333333,400,400)"/>
<path style="fill:none;stroke-width:0.005;stroke-linecap:butt;stroke-linejoin:miter;stroke:rgb(80%,80%,80%);stroke-opacity:1;stroke-miterlimit:10;" d="M -9.999999 -9 L 9.999999 -9 " transform="matrix(1333.333333,0,0,-1333.333333,400,400)"/>
<path style="fill:none;stroke-width:0.005;stroke-linecap:butt;stroke-linejoin:miter;stroke:rgb(80%,80%,80%);stroke-opacity:1;stroke-miterlimit:10;" d="M -9.999999 -8.000001 L 9.999999 -8.000001 " transform="matrix(1333.333333,0,0,-1333.333333,400,400)"/>
<path style="fill:none;stroke-width:0.005;stroke-linecap:butt;stroke-linejoin:miter;stroke:rgb(80%,80%,80%);stroke-opacity:1;stroke-miterlimit:10;" d="M -9.999999 -6.999999 L 9.999999 -6.999999 " transform="matrix(1333.333333,0,0,-1333.333333,400,400)"/>
<path style="fill:none;stroke-width:0.005;stroke-linecap:butt;stroke-linejoin:miter;stroke:rgb(80%,80%,80%);stroke-opacity:1;stroke-miterlimit:10;" d="M -9.999999 -6 L 9.999999 -6 " transform="matrix(1333.333333,0,0,-1333.333333,400,400)"/>
<path style="fill:none;stroke-width:0.005;stroke-linecap:butt;stroke-linejoin:miter;stroke:rgb(80%,80%,80%);stroke-opacity:1;stroke-miterlimit:10;" d="M -9.999999 -5.000001 L 9.999999 -5.000001 " transform="matrix(1333.333333,0,0,-1333.333333,400,400)"/>
<path style="fill:none;stroke-width:0.005;stroke-linecap:butt;stroke-linejoin:miter;stroke:rgb(80%,80%,80%);stroke-opacity:1;stroke-miterlimit:10;" d="M -9.999999 -3.999999 L 9.999999 -3.999999 " transform="matrix(1333.333333,0,0,-1333.333333,400,400)"/>
<path style="fill:none;stroke-width:0.005;stroke-linecap:butt;stroke-linejoin:miter;stroke:rgb(80%,80%,80%);stroke-opacity:1;stroke-miterlimit:10;" d="M -9.999999 -3 L 9.999999 -3 " transform="matrix(1333.333333,0,0,-1333.333333,400,400)"/>
<path style="fill:none;stroke-width:0.005;stroke-linecap:butt;stroke-linejoin:miter;stroke:rgb(80%,80%,80%);stroke-opacity:1;stroke-miterlimit:10;" d="M -9.999999 -2.000001 L 9.999999 -2.000001 " transform="matrix(1333.333333,0,0,-1333.333333,400,400)"/>
<path style="fill:none;stroke-width:0.005;stroke-linecap:butt;stroke-linejoin:miter;stroke:rgb(80%,80%,80%);stroke-opacity:1;stroke-miterlimit:10;" d="M -9.999999 -0.999999 L 9.999999 -0.999999 " transform="matrix(1333.333333,0,0,-1333.333333,400,400)"/>
<path style="fill:none;stroke-width:0.005;stroke-linecap:butt;stroke-linejoin:miter;stroke:rgb(80%,80%,80%);stroke-opacity:1;stroke-miterlimit:10;" d="M -9.999999 0 L 9.999999 0 " transform="matrix(1333.333333,0,0,-1333.333333,400,400)"/>
<path style="fill:none;stroke-width:0.005;stroke-linecap:butt;stroke-linejoin:miter;stroke:rgb(80%,80%,80%);stroke-opacity:1;stroke-miterlimit:10;" d="M -9.999999 0.999999 L 9.999999 0.999999 " transform="matrix(1333.333333,0,0,-1333.333333,400,400)"/>
<path style="fill:none;stroke-width:0.005;stroke-linecap:butt;stroke-linejoin:miter;stroke:rgb(80%,80%,80%);stroke-opacity:1;stroke-miterlimit:10;" d="M -9.999999 2.000001 L 9.999999 2.000001 " transform="matrix(1333.333333,0,0,-1333.333333,400,400)"/>
<path style="fill:none;stroke-width:0.005;stroke-linecap:butt;stroke-linejoin:miter;stroke:rgb(80%,80%,80%);stroke-opacity:1;stroke-miterlimit:10;" d="M -9.999999 3 L 9.999999 3 " transform="matrix(1333.333333,0,0,-1333.333333,400,400)"/>
<path style="fill:none;stroke-width:0.005;stroke-linecap:butt;stroke-linejoin:miter;stroke:rgb(80%,80%,80%);stroke-opacity:1;stroke-miterlimit:10;" d="M -9.999999 3.999999 L 9.999999 3.999999 " transform="matrix(1333.333333,0,0,-1333.333333,400,400)"/>
<path style="fill:none;stroke-width:0.005;stroke-linecap:butt;stroke-linejoin:miter;stroke:rgb(80%,80%,80%);stroke-opacity:1;stroke-miterlimit:10;" d="M -9.999999 5.000001 L 9.999999 5.000001 " transform="matrix(1333.333333,0,0,-1333.333333,400,400)"/>
<path style="fill:none;stroke-width:0.005;stroke-linecap:butt;stroke-linejoin:miter;stroke:rgb(80%,80%,80%);stroke-opacity:1;stroke-miterlimit:10;" d="M -9.999999 6 L 9.999999 6 " transform="matrix(1333.333333,0,0,-1333.333333,400,400)"/>
<path style="fill:none;stroke-width:0.005;stroke-linecap:butt;stroke-linejoin:miter;stroke:rgb(80%,80%,80%);stroke-opacity:1;stroke-miterlimit:10;" d="M -9.999999 6.999999 L 9.999999 6.999999 " transform="matrix(1333.333333,0,0,-1333.333333,400,400)"/>
<path style="fill:none;stroke-width:0.005;stroke-linecap:butt;stroke-linejoin:miter;stroke:rgb(80%,80%,80%);stroke-opacity:1;stroke-miterlimit:10;" d="M -9.999999 8.000001 L 9.999999 8.000001 " transform="matrix(1333.333333,0,0,-1333.333333,400,400)"/>
<path style="fill:none;stroke-width:0.005;stroke-linecap:butt;stroke-linejoin:miter;stroke:rgb(80%,80%,80%);stroke-opacity:1;stroke-miterlimit:10;" d="M -9.999999 9 L 9.999999 9 " transform="matrix(1333.333333,0,0,-1333.333333,400,400)"/>
<path style="fill:none;stroke-width:0.005;stroke-linecap:butt;stroke-linejoin:miter;stroke:rgb(80%,80%,80%);stroke-opacity:1;stroke-miterlimit:10;" d="M -9.999999 9.999999 L 9.999999 9.999999 " transform="matrix(1333.333333,0,0,-1333.333333,400,400)"/>
<path style=" stroke:none;fill-rule:nonzero;fill:rgb(100%,70%,70%);fill-opacity:1;" d="M 666.667969 400 C 666.667969 252.722656 547.277344 133.332031 400 133.332031 C 252.722656 133.332031 133.332031 252.722656 133.332031 400 C 133.332031 547.277344 252.722656 666.667969 400 666.667969 C 547.277344 666.667969 666.667969 547.277344 666.667969 400 "/>
<path style="fill-rule:nonzero;fill:rgb(20%,20%,20%);fill-opacity:1;stroke-width:0.04;stroke-linecap:butt;stroke-linejoin:miter;stroke:rgb(0%,0%,0%);stroke-opacity:1;stroke-miterlimit:10;" d="M -0.441665 -0.124995 L 0.441665 -0.124995 C 0.525 -0.124995 0.525 -0.124995 0.525 -0.0416602 L 0.525 0.0416602 C 0.525 0.124995 0.525 0.124995 0.441665 0.124995 L -0.441665 0.124995 C -0.525 0.124995 -0.525 0.124995 -0.525 0.0416602 L -0.525 -0.0416602 C -0.525 -0.124995 -0.525 -0.124995 -0.441665 -0.124995 " transform="matrix(266.666667,0,0,-266.666667,400,500)"/>
<path style="fill-rule:nonzero;fill:rgb(20%,20%,20%);fill-opacity:1;stroke-width:0.04;stroke-linecap:butt;stroke-linejoin:miter;stroke:rgb(0%,0%,0%);stroke-opacity:1;stroke-miterlimit:10;" d="M -0.441665 -0.124995 L 0.441665 -0.124995 C 0.525 -0.124995 0.525 -0.124995 0.525 -0.0416602 L 0.525 0.0416602 C 0.525 0.124995 0.525 0.124995 0.441665 0.124995 L -0.441665 0.124995 C -0.525 0.124995 -0.525 0.124995 -0.525 0.0416602 L -0.525 -0.0416602 C -0.525 -0.124995 -0.525 -0.124995 -0.441665 -0.124995 " transform="matrix(266.666667,0,0,-266.666667,400,300)"/>
<path style="fill-rule:nonzero;fill:rgb(80%,80%,80%);fill-opacity:1;stroke-width:0.01;stroke-linecap:butt;stroke-linejoin:miter;stroke:rgb(0%,0%,0%);stroke-opacity:1;stroke-miterlimit:10;" d="M -0.75 -0.375 L 0.75 -0.375 L 0.75 0.375 L -0.75 0.375 Z M -0.75 -0.375 " transform="matrix(266.666667,0,0,-266.666667,400,400)"/>
<path style="fill-rule:nonzero;fill:rgb(100%,100%,0%);fill-opacity:1;stroke-width:0.005;stroke-linecap:butt;stroke-linejoin:miter;stroke:rgb(0%,0%,0%);stroke-opacity:1;stroke-miterlimit:10;" d="M -0.5 -0.5 L 0.5 -0.5 L 0.5 0.5 L -0.5 0.5 Z M -0.5 -0.5 " transform="matrix(120,0,0,-120,440,400)"/>
<path style=" stroke:none;fill-rule:nonzero;fill:rgb(0%,0%,0%);fill-opacity:1;" d="M 460 437.5 L 500 437.5 L 500 362.5 L 460 362.5 Z M 460 437.5 "/>
<path style="fill-rule:nonzero;fill:rgb(100%,100%,100%);fill-opacity:1;stroke-width:0.05;stroke-linecap:butt;stroke-linejoin:miter;stroke:rgb(0%,0%,0%);stroke-opacity:1;stroke-miterlimit:10;" d="M 0.999976 0 C 0.999976 0.552319 0.552319 0.999976 0 0.999976 C -0.552319 0.999976 -0.999976 0.552319 -0.999976 0 C -0.999976 -0.552319 -0.552319 -0.999976 0 -0.999976 C 0.552319 -0.999976 0.999976 -0.552319 0.999976 0 " transform="matrix(53.333333,0,0,-53.333333,600,400)"/>
<path style=" stroke:none;fill-rule:nonzero;fill:rgb(40%,20%,0%);fill-opacity:1;" d="M 653.332031 400 C 653.332031 385.273438 641.394531 373.332031 626.667969 373.332031 C 611.9375 373.332031 600 385.273438 600 400 C 600 414.726562 611.9375 426.667969 626.667969 426.667969 C 641.394531 426.667969 653.332031 414.726562 653.332031 400 "/>
<path style=" stroke:none;fill-rule:nonzero;fill:rgb(0%,0%,0%);fill-opacity:1;" d="M 645.332031 400 C 645.332031 392.636719 639.363281 386.667969 632 386.667969 C 624.636719 386.667969 618.667969 392.636719 618.667969 400 C 618.667969 407.363281 624.636719 413.332031 632 413.332031 C 639.363281 413.332031 645.332031 407.363281 645.332031 400 "/>
<path style="fill-rule:nonzero;fill:rgb(100%,100%,100%);fill-opacity:1;stroke-width:0.05;stroke-linecap:butt;stroke-linejoin:miter;stroke:rgb(0%,0%,0%);stroke-opacity:1;stroke-miterlimit:10;" d="M 0.999976 0.0000244141 C 0.999976 0.552271 0.552319 1 -0.000000000000000888 1 C -0.552319 1 -0.999976 0.552271 -0.999976 0.0000244141 C -0.999976 -0.552295 -0.552319 -1.000024 -0.000000000000000888 -1.000024 C 0.552319 -1.000024 0.999976 -0.552295 0.999976 0.0000244141 " transform="matrix(0.000000000000003266,-53.333333,-53.333333,-0.000000000000003266,333.333333,300)"/>
<path style=" stroke:none;fill-rule:nonzero;fill:rgb(40%,20%,0%);fill-opacity:1;" d="M 333.332031 246.667969 C 318.605469 246.667969 306.667969 258.605469 306.667969 273.332031 C 306.667969 288.0625 318.605469 300 333.332031 300 C 348.0625 300 360 288.0625 360 273.332031 C 360 258.605469 348.0625 246.667969 333.332031 246.667969 "/>
<path style=" stroke:none;fill-rule:nonzero;fill:rgb(0%,0%,0%);fill-opacity:1;" d="M 333.332031 254.667969 C 325.96875 254.667969 320 260.636719 320 268 C 320 275.363281 325.96875 281.332031 333.332031 281.332031 C 340.695312 281.332031 346.667969 275.363281 346.667969 268 C 346.667969 260.636719 340.695312 254.667969 333.332031 254.667969 "/>
<path style="fill-rule:nonzero;fill:rgb(100%,100%,100%);fill-opacity:1;stroke-width:0.05;stroke-linecap:butt;stroke-linejoin:miter;stroke:rgb(0%,0%,0%);stroke-opacity:1;stroke-miterlimit:10;" d="M 0.999976 -0.0000244141 C 0.999976 0.552295 0.552319 1.000024 0 1.000024 C -0.552319 1.000024 -0.999976 0.552295 -0.999976 -0.0000244141 C -0.999976 -0.552271 -0.552319 -1 0 -1 C 0.552319 -1 0.999976 -0.552271 0.999976 -0.0000244141 " transform="matrix(0.000000000000003266,53.333333,53.333333,-0.000000000000003266,333.333333,500)"/>
<path style=" stroke:none;fill-rule:nonzero;fill:rgb(40%,20%,0%);fill-opacity:1;" d="M 333.332031 553.332031 C 348.0625 553.332031 360 541.394531 360 526.667969 C 360 511.9375 348.0625 500 333.332031 500 C 318.605469 500 306.667969 511.9375 306.667969 526.667969 C 306.667969 541.394531 318.605469 553.332031 333.332031 553.332031 "/>
<path style=" stroke:none;fill-rule:nonzero;fill:rgb(0%,0%,0%);fill-opacity:1;" d="M 333.332031 545.332031 C 340.695312 545.332031 346.667969 539.363281 346.667969 532 C 346.667969 524.636719 340.695312 518.667969 333.332031 518.667969 C 325.96875 518.667969 320 524.636719 320 532 C 320 539.363281 325.96875 545.332031 333.332031 545.332031 "/>
<path style="fill-rule:nonzero;fill:rgb(100%,100%,100%);fill-opacity:1;stroke-width:0.05;stroke-linecap:butt;stroke-linejoin:miter;stroke:rgb(0%,0%,0%);stroke-opacity:1;stroke-miterlimit:10;" d="M 0.999976 0 C 0.999976 0.552319 0.552319 0.999976 0.000000000000000888 0.999976 C -0.552319 0.999976 -0.999976 0.552319 -0.999976 0.000000000000000888 C -0.999976 -0.552319 -0.552319 -0.999976 0.000000000000000888 -0.999976 C 0.552319 -0.999976 0.999976 -0.552319 0.999976 0 " transform="matrix(-53.333333,0.000000000000006531,0.000000000000006531,53.333333,200,400)"/>
<path style=" stroke:none;fill-rule:nonzero;fill:rgb(40%,20%,0%);fill-opacity:1;" d="M 146.667969 400 C 146.667969 414.726562 158.605469 426.667969 173.332031 426.667969 C 188.0625 426.667969 200 414.726562 200 400 C 200 385.273438 188.0625 373.332031 173.332031 373.332031 C 158.605469 373.332031 146.667969 385.273438 146.667969 400 "/>
<path style=" stroke:none;fill-rule:nonzero;fill:rgb(0%,0%,0%);fill-opacity:1;" d="M 154.667969 400 C 154.667969 407.363281 160.636719 413.332031 168 413.332031 C 175.363281 413.332031 181.332031 407.363281 181.332031 400 C 181.332031 392.636719 175.363281 386.667969 168 386.667969 C 160.636719 386.667969 154.667969 392.636719 154.667969 400 "/>
</g>
</svg>
