<?xml version="1.0" encoding="UTF-8"?>
<svg xmlns="http://www.w3.org/2000/svg" xmlns:xlink="http://www.w3.org/1999/xlink" width="800pt" height="800pt" viewBox="0 0 800 800" version="1.1">
<g id="surface90">
<rect x="0" y="0" width="800" height="800" style="fill:rgb(100%,100%,100%);fill-opacity:1;stroke:none;"/>
<path style="fill:none;stroke-width:0.005;stroke-linecap:butt;stroke-linejoin:miter;stroke:rgb(80%,80%,80%);stroke-opacity:1;stroke-miterlimit:10;" d="M -9.999998 -9.999998 L -9.999998 9.999998 " transform="matrix(0.000000000000032657,-533.333333,-533.333333,-0.000000000000032657,400,400)"/>
<path style="fill:none;stroke-width:0.005;stroke-linecap:butt;stroke-linejoin:miter;stroke:rgb(80%,80%,80%);stroke-opacity:1;stroke-miterlimit:10;" d="M -9 -9.999998 L -9 9.999998 " transform="matrix(0.000000000000032657,-533.333333,-533.333333,-0.000000000000032657,400,400)"/>
<path style="fill:none;stroke-width:0.005;stroke-linecap:butt;stroke-linejoin:miter;stroke:rgb(80%,80%,80%);stroke-opacity:1;stroke-miterlimit:10;" d="M -8.000002 -9.999998 L -8.000002 9.999998 " transform="matrix(0.000000000000032657,-533.333333,-533.333333,-0.000000000000032657,400,400)"/>
<path style="fill:none;stroke-width:0.005;stroke-linecap:butt;stroke-linejoin:miter;stroke:rgb(80%,80%,80%);stroke-opacity:1;stroke-miterlimit:10;" d="M -6.999998 -9.999998 L -6.999998 9.999998 " transform="matrix(0.000000000000032657,-533.333333,-533.333333,-0.000000000000032657,400,400)"/>
<path style="fill:none;stroke-width:0.005;stroke-linecap:butt;stroke-linejoin:miter;stroke:rgb(80%,80%,80%);stroke-opacity:1;stroke-miterlimit:10;" d="M -6 -9.999998 L -6 9.999998 " transform="matrix(0.000000000000032657,-533.333333,-533.333333,-0.000000000000032657,400,400)"/>
<path style="fill:none;stroke-width:0.005;stroke-linecap:butt;stroke-linejoin:miter;stroke:rgb(80%,80%,80%);stroke-opacity:1;stroke-miterlimit:10;" d="M -5.000002 -9.999998 L -5.000002 9.999998 " transform="matrix(0.000000000000032657,-533.333333,-533.333333,-0.000000000000032657,400,400)"/>
<path style="fill:none;stroke-width:0.005;stroke-linecap:butt;stroke-linejoin:miter;stroke:rgb(80%,80%,80%);stroke-opacity:1;stroke-miterlimit:10;" d="M -3.999998 -9.999998 L -3.999998 9.999998 " transform="matrix(0.000000000000032657,-533.333333,-533.333333,-0.000000000000032657,400,400)"/>
<path style="fill:none;stroke-width:0.005;stroke-linecap:butt;stroke-linejoin:miter;stroke:rgb(80%,80%,80%);stroke-opacity:1;stroke-miterlimit:10;" d="M -3 -9.999998 L -3 9.999998 " transform="matrix(0.000000000000032657,-533.333333,-533.333333,-0.000000000000032657,400,400)"/>
<path style="fill:none;stroke-width:0.005;stroke-linecap:butt;stroke-linejoin:miter;stroke:rgb(80%,80%,80%);stroke-opacity:1;stroke-miterlimit:10;" d="M -2.000002 -9.999998 L -2.000002 9.999998 " transform="matrix(0.000000000000032657,-533.333333,-533.333333,-0.000000000000032657,400,400)"/>
<path style="fill:none;stroke-width:0.005;stroke-linecap:butt;stroke-linejoin:miter;stroke:rgb(80%,80%,80%);stroke-opacity:1;stroke-miterlimit:10;" d="M -0.999998 -9.999998 L -0.999998 9.999998 " transform="matrix(0.000000000000032657,-533.333333,-533.333333,-0.000000000000032657,400,400)"/>
<path style="fill:none;stroke-width:0.005;stroke-linecap:butt;stroke-linejoin:miter;stroke:rgb(80%,80%,80%);stroke-opacity:1;stroke-miterlimit:10;" d="M 0.000000000000000666 -9.999998 L -0.000000000000000555 9.999998 " transform="matrix(0.000000000000032657,-533.333333,-533.333333,-0.000000000000032657,400,400)"/>
<path style="fill:none;stroke-width:0.005;stroke-linecap:butt;stroke-linejoin:miter;stroke:rgb(80%,80%,80%);stroke-opacity:1;stroke-miterlimit:10;" d="M 0.999998 -9.999998 L 0.999998 9.999998 " transform="matrix(0.000000000000032657,-533.333333,-533.333333,-0.000000000000032657,400,400)"/>
<path style="fill:none;stroke-width:0.005;stroke-linecap:butt;stroke-linejoin:miter;stroke:rgb(80%,80%,80%);stroke-opacity:1;stroke-miterlimit:10;" d="M 2.000002 -9.999998 L 2.000002 9.999998 " transform="matrix(0.000000000000032657,-533.333333,-533.333333,-0.000000000000032657,400,400)"/>
<path style="fill:none;stroke-width:0.005;stroke-linecap:butt;stroke-linejoin:miter;stroke:rgb(80%,80%,80%);stroke-opacity:1;stroke-miterlimit:10;" d="M 3 -9.999998 L 3 9.999998 " transform="matrix(0.000000000000032657,-533.333333,-533.333333,-0.000000000000032657,400,400)"/>
<path style="fill:none;stroke-width:0.005;stroke-linecap:butt;stroke-linejoin:miter;stroke:rgb(80%,80%,80%);stroke-opacity:1;stroke-miterlimit:10;" d="M 3.999998 -9.999998 L 3.999998 9.999998 " transform="matrix(0.000000000000032657,-533.333333,-533.333333,-0.000000000000032657,400,400)"/>
<path style="fill:none;stroke-width:0.005;stroke-linecap:butt;stroke-linejoin:miter;stroke:rgb(80%,80%,80%);stroke-opacity:1;stroke-miterlimit:10;" d="M 5.000002 -9.999998 L 5.000002 9.999998 " transform="matrix(0.000000000000032657,-533.333333,-533.333333,-0.000000000000032657,400,400)"/>
<path style="fill:none;stroke-width:0.005;stroke-linecap:butt;stroke-linejoin:miter;stroke:rgb(80%,80%,80%);stroke-opacity:1;stroke-miterlimit:10;" d="M 6 -9.999998 L 6 9.999998 " transform="matrix(0.000000000000032657,-533.333333,-533.333333,-0.000000000000032657,400,400)"/>
<path style="fill:none;stroke-width:0.005;stroke-linecap:butt;stroke-linejoin:miter;stroke:rgb(80%,80%,80%);stroke-opacity:1;stroke-miterlimit:10;" d="M 6.999998 -9.999998 L 6.999998 9.999998 " transform="matrix(0.000000000000032657,-533.333333,-533.333333,-0.000000000000032657,400,400)"/>
<path style="fill:none;stroke-width:0.005;stroke-linecap:butt;stroke-linejoin:miter;stroke:rgb(80%,80%,80%);stroke-opacity:1;stroke-miterlimit:10;" d="M 8.000002 -9.999998 L 8.000002 9.999998 " transform="matrix(0.000000000000032657,-533.333333,-533.333333,-0.000000000000032657,400,400)"/>
<path style="fill:none;stroke-width:0.005;stroke-linecap:butt;stroke-linejoin:miter;stroke:rgb(80%,80%,80%);stroke-opacity:1;stroke-miterlimit:10;" d="M 9 -9.999998 L 9 9.999998 " transform="matrix(0.000000000000032657,-533.333333,-533.333333,-0.000000000000032657,400,400)"/>
<path style="fill:none;stroke-width:0.005;stroke-linecap:butt;stroke-linejoin:miter;stroke:rgb(80%,80%,80%);stroke-opacity:1;stroke-miterlimit:10;" d="M 9.999998 -9.999998 L 9.999998 9.999998 " transform="matrix(0.000000000000032657,-533.333333,-533.333333,-0.000000000000032657,400,400)"/>
<path style="fill:none;stroke-width:0.005;stroke-linecap:butt;stroke-linejoin:miter;stroke:rgb(80%,80%,80%);stroke-opacity:1;stroke-miterlimit:10;" d="M -9.999998 -9.999998 L 9.999998 -9.999998 " transform="matrix(0.000000000000032657,-533.333333,-533.333333,-0.000000000000032657,400,400)"/>
<path style="fill:none;stroke-width:0.005;stroke-linecap:butt;stroke-linejoin:miter;stroke:rgb(80%,80%,80%);stroke-opacity:1;stroke-miterlimit:10;" d="M -9.999998 -9 L 9.999998 -9 " transform="matrix(0.000000000000032657,-533.333333,-533.333333,-0.000000000000032657,400,400)"/>
<path style="fill:none;stroke-width:0.005;stroke-linecap:butt;stroke-linejoin:miter;stroke:rgb(80%,80%,80%);stroke-opacity:1;stroke-miterlimit:10;" d="M -9.999998 -8.000002 L 9.999998 -8.000002 " transform="matrix(0.000000000000032657,-533.333333,-533.333333,-0.000000000000032657,400,400)"/>
<path style="fill:none;stroke-width:0.005;stroke-linecap:butt;stroke-linejoin:miter;stroke:rgb(80%,80%,80%);stroke-opacity:1;stroke-miterlimit:10;" d="M -9.999998 -6.999998 L 9.999998 -6.999998 " transform="matrix(0.000000000000032657,-533.333333,-533.333333,-0.000000000000032657,400,400)"/>
<path style="fill:none;stroke-width:0.005;stroke-linecap:butt;stroke-linejoin:miter;stroke:rgb(80%,80%,80%);stroke-opacity:1;stroke-miterlimit:10;" d="M -9.999998 -6 L 9.999998 -6 " transform="matrix(0.000000000000032657,-533.333333,-533.333333,-0.000000000000032657,400,400)"/>
<path style="fill:none;stroke-width:0.005;stroke-linecap:butt;stroke-linejoin:miter;stroke:rgb(80%,80%,80%);stroke-opacity:1;stroke-miterlimit:10;" d="M -9.999998 -5.000002 L 9.999998 -5.000002 " transform="matrix(0.000000000000032657,-533.333333,-533.333333,-0.000000000000032657,400,400)"/>
<path style="fill:none;stroke-width:0.005;stroke-linecap:butt;stroke-linejoin:miter;stroke:rgb(80%,80%,80%);stroke-opacity:1;stroke-miterlimit:10;" d="M -9.999998 -3.999998 L 9.999998 -3.999998 " transform="matrix(0.000000000000032657,-533.333333,-533.333333,-0.000000000000032657,400,400)"/>
<path style="fill:none;stroke-width:0.005;stroke-linecap:butt;stroke-linejoin:miter;stroke:rgb(80%,80%,80%);stroke-opacity:1;stroke-miterlimit:10;" d="M -9.999998 -3 L 9.999998 -3 " transform="matrix(0.000000000000032657,-533.333333,-533.333333,-0.000000000000032657,400,400)"/>
<path style="fill:none;stroke-width:0.005;stroke-linecap:butt;stroke-linejoin:miter;stroke:rgb(80%,80%,80%);stroke-opacity:1;stroke-miterlimit:10;" d="M -9.999998 -2.000002 L 9.999998 -2.000002 " transform="matrix(0.000000000000032657,-533.333333,-533.333333,-0.000000000000032657,400,400)"/>
<path style="fill:none;stroke-width:0.005;stroke-linecap:butt;stroke-linejoin:miter;stroke:rgb(80%,80%,80%);stroke-opacity:1;stroke-miterlimit:10;" d="M -9.999998 -0.999998 L 9.999998 -0.999998 " transform="matrix(0.000000000000032657,-533.333333,-533.333333,-0.000000000000032657,400,400)"/>
<path style="fill:none;stroke-width:0.005;stroke-linecap:butt;stroke-linejoin:miter;stroke:rgb(80%,80%,80%);stroke-opacity:1;stroke-miterlimit:10;" d="M -9.999998 -0.000000000000000666 L 9.999998 0.000000000000000555 " transform="matrix(0.000000000000032657,-533.333333,-533.333333,-0.000000000000032657,400,400)"/>
<path style="fill:none;stroke-width:0.005;stroke-linecap:butt;stroke-linejoin:miter;stroke:rgb(80%,80%,80%);stroke-opacity:1;stroke-miterlimit:10;" d="M -9.999998 0.999998 L 9.999998 0.999998 " transform="matrix(0.000000000000032657,-533.333333,-533.333333,-0.000000000000032657,400,400)"/>
<path style="fill:none;stroke-width:0.005;stroke-linecap:butt;stroke-linejoin:miter;stroke:rgb(80%,80%,80%);stroke-opacity:1;stroke-miterlimit:10;" d="M -9.999998 2.000002 L 9.999998 2.000002 " transform="matrix(0.000000000000032657,-533.333333,-533.333333,-0.000000000000032657,400,400)"/>
<path style="fill:none;stroke-width:0.005;stroke-linecap:butt;stroke-linejoin:miter;stroke:rgb(80%,80%,80%);stroke-opacity:1;stroke-miterlimit:10;" d="M -9.999998 3 L 9.999998 3 " transform="matrix(0.000000000000032657,-533.333333,-533.333333,-0.000000000000032657,400,400)"/>
<path style="fill:none;stroke-width:0.005;stroke-linecap:butt;stroke-linejoin:miter;stroke:rgb(80%,80%,80%);stroke-opacity:1;stroke-miterlimit:10;" d="M -9.999998 3.999998 L 9.999998 3.999998 " transform="matrix(0.000000000000032657,-533.333333,-533.333333,-0.000000000000032657,400,400)"/>
<path style="fill:none;stroke-width:0.005;stroke-linecap:butt;stroke-linejoin:miter;stroke:rgb(80%,80%,80%);stroke-opacity:1;stroke-miterlimit:10;" d="M -9.999998 5.000002 L 9.999998 5.000002 " transform="matrix(0.000000000000032657,-533.333333,-533.333333,-0.000000000000032657,400,400)"/>
<path style="fill:none;stroke-width:0.005;stroke-linecap:butt;stroke-linejoin:miter;stroke:rgb(80%,80%,80%);stroke-opacity:1;stroke-miterlimit:10;" d="M -9.999998 6 L 9.999998 6 " transform="matrix(0.000000000000032657,-533.333333,-533.333333,-0.000000000000032657,400,400)"/>
<path style="fill:none;stroke-width:0.005;stroke-linecap:butt;stroke-linejoin:miter;stroke:rgb(80%,80%,80%);stroke-opacity:1;stroke-miterlimit:10;" d="M -9.999998 6.999998 L 9.999998 6.999998 " transform="matrix(0.000000000000032657,-533.333333,-533.333333,-0.000000000000032657,400,400)"/>
<path style="fill:none;stroke-width:0.005;stroke-linecap:butt;stroke-linejoin:miter;stroke:rgb(80%,80%,80%);stroke-opacity:1;stroke-miterlimit:10;" d="M -9.999998 8.000002 L 9.999998 8.000002 " transform="matrix(0.000000000000032657,-533.333333,-533.333333,-0.000000000000032657,400,400)"/>
<path style="fill:none;stroke-width:0.005;stroke-linecap:butt;stroke-linejoin:miter;stroke:rgb(80%,80%,80%);stroke-opacity:1;stroke-miterlimit:10;" d="M -9.999998 9 L 9.999998 9 " transform="matrix(0.000000000000032657,-533.333333,-533.333333,-0.000000000000032657,400,400)"/>
<path style="fill:none;stroke-width:0.005;stroke-linecap:butt;stroke-linejoin:miter;stroke:rgb(80%,80%,80%);stroke-opacity:1;stroke-miterlimit:10;" d="M -9.999998 9.999998 L 9.999998 9.999998 " transform="matrix(0.000000000000032657,-533.333333,-533.333333,-0.000000000000032657,400,400)"/>
<path style=" stroke:none;fill-rule:nonzero;fill:rgb(100%,70%,70%);fill-opacity:1;" d="M 400 133.332031 C 252.722656 133.332031 133.332031 252.722656 133.332031 400 C 133.332031 547.277344 252.722656 666.667969 400 666.667969 C 547.277344 666.667969 666.667969 547.277344 666.667969 400 C 666.667969 252.722656 547.277344 133.332031 400 133.332031 "/>
<path style=" stroke:none;fill-rule:nonzero;fill:rgb(100%,70%,70%);fill-opacity:1;" d="M 400 133.332031 C 252.722656 133.332031 133.332031 252.722656 133.332031 400 C 133.332031 547.277344 252.722656 666.667969 400 666.667969 C 547.277344 666.667969 666.667969 547.277344 666.667969 400 C 666.667969 252.722656 547.277344 133.332031 400 133.332031 "/>
<path style="fill-rule:nonzero;fill:rgb(30%,30%,100%);fill-opacity:1;stroke-width:0.01;stroke-linecap:butt;stroke-linejoin:miter;stroke:rgb(0%,0%,0%);stroke-opacity:1;stroke-miterlimit:10;" d="M 0.149995 0 C 0.149995 0.0828369 0.0828467 0.15 -0.00000488281 0.15 C -0.0828418 0.15 -0.150005 0.0828369 -0.150005 0 C -0.150005 -0.0828369 -0.0828418 -0.15 -0.00000488281 -0.15 C 0.0828467 -0.15 0.149995 -0.0828369 0.149995 0 " transform="matrix(0.000000000000016329,-266.666667,-266.666667,-0.000000000000016329,400,186.666667)"/>
<path style="fill-rule:nonzero;fill:rgb(30%,30%,100%);fill-opacity:1;stroke-width:0.01;stroke-linecap:butt;stroke-linejoin:miter;stroke:rgb(0%,0%,0%);stroke-opacity:1;stroke-miterlimit:10;" d="M 0.150007 0.00000154934 C 0.149998 0.0828374 0.0828361 0.149996 0.00000761898 0.15 C -0.0828409 0.149998 -0.149999 0.0828359 -0.150003 0.00000740674 C -0.150001 -0.0828411 -0.0828394 -0.15 0.00000908579 -0.149998 C 0.0828376 -0.150002 0.149996 -0.0828396 0.150007 0.00000154934 " transform="matrix(-230.940108,133.333333,133.333333,230.940108,215.247914,506.666667)"/>
<path style="fill-rule:nonzero;fill:rgb(30%,30%,100%);fill-opacity:1;stroke-width:0.01;stroke-linecap:butt;stroke-linejoin:miter;stroke:rgb(0%,0%,0%);stroke-opacity:1;stroke-miterlimit:10;" d="M 0.150007 -0.00000154934 C 0.149996 0.0828396 0.0828376 0.150002 0.00000908579 0.149998 C -0.0828394 0.15 -0.150001 0.0828411 -0.150003 -0.00000740674 C -0.149999 -0.0828359 -0.0828409 -0.149998 0.00000761898 -0.15 C 0.0828361 -0.149996 0.149998 -0.0828374 0.150007 -0.00000154934 " transform="matrix(230.940108,133.333333,133.333333,-230.940108,584.752086,506.666667)"/>
<path style="fill-rule:nonzero;fill:rgb(80%,80%,80%);fill-opacity:1;stroke-width:0.01;stroke-linecap:butt;stroke-linejoin:miter;stroke:rgb(0%,0%,0%);stroke-opacity:1;stroke-miterlimit:10;" d="M 1.000007 0 C 1.000007 0.552288 0.552288 1.000007 0 1.000007 C -0.552288 1.000007 -1.000007 0.552288 -1.000007 0 C -1.000007 -0.552288 -0.552288 -1.000007 0 -1.000007 C 0.552288 -1.000007 1.000007 -0.552288 1.000007 0 " transform="matrix(0.00000000000001143,-186.666667,-186.666667,-0.00000000000001143,400,400)"/>
<path style="fill:none;stroke-width:0.01;stroke-linecap:butt;stroke-linejoin:miter;stroke:rgb(0%,0%,0%);stroke-opacity:1;stroke-miterlimit:10;" d="M 0.199993 0 L 1.000007 0 " transform="matrix(0.00000000000001143,-186.666667,-186.666667,-0.00000000000001143,400,400)"/>
<path style="fill-rule:nonzero;fill:rgb(100%,100%,100%);fill-opacity:1;stroke-width:0.05;stroke-linecap:butt;stroke-linejoin:miter;stroke:rgb(0%,0%,0%);stroke-opacity:1;stroke-miterlimit:10;" d="M 0.999976 0.0000244141 C 0.999976 0.552271 0.552319 1 0 1 C -0.552319 1 -0.999976 0.552271 -0.999976 0.0000244141 C -0.999976 -0.552295 -0.552319 -1.000024 0 -1.000024 C 0.552319 -1.000024 0.999976 -0.552295 0.999976 0.0000244141 " transform="matrix(0.000000000000003266,-53.333333,-53.333333,-0.000000000000003266,293.333333,400)"/>
<path style=" stroke:none;fill-rule:nonzero;fill:rgb(60%,30%,0%);fill-opacity:1;" d="M 293.332031 346.667969 C 278.605469 346.667969 266.667969 358.605469 266.667969 373.332031 C 266.667969 388.0625 278.605469 400 293.332031 400 C 308.0625 400 320 388.0625 320 373.332031 C 320 358.605469 308.0625 346.667969 293.332031 346.667969 "/>
<path style=" stroke:none;fill-rule:nonzero;fill:rgb(0%,0%,0%);fill-opacity:1;" d="M 293.332031 356.265625 C 286.851562 356.265625 281.601562 361.519531 281.601562 368 C 281.601562 374.480469 286.851562 379.734375 293.332031 379.734375 C 299.8125 379.734375 305.066406 374.480469 305.066406 368 C 305.066406 361.519531 299.8125 356.265625 293.332031 356.265625 "/>
<path style="fill-rule:nonzero;fill:rgb(100%,100%,100%);fill-opacity:1;stroke-width:0.05;stroke-linecap:butt;stroke-linejoin:miter;stroke:rgb(0%,0%,0%);stroke-opacity:1;stroke-miterlimit:10;" d="M 0.999976 -0.0000244141 C 0.999976 0.552295 0.552319 1.000024 0.000000000000000888 1.000024 C -0.552319 1.000024 -0.999976 0.552295 -0.999976 -0.0000244141 C -0.999976 -0.552271 -0.552319 -1 0.000000000000000888 -1 C 0.552319 -1 0.999976 -0.552271 0.999976 -0.0000244141 " transform="matrix(0.000000000000003266,-53.333333,-53.333333,-0.000000000000003266,506.666667,400)"/>
<path style=" stroke:none;fill-rule:nonzero;fill:rgb(60%,30%,0%);fill-opacity:1;" d="M 506.667969 346.667969 C 491.9375 346.667969 480 358.605469 480 373.332031 C 480 388.0625 491.9375 400 506.667969 400 C 521.394531 400 533.332031 388.0625 533.332031 373.332031 C 533.332031 358.605469 521.394531 346.667969 506.667969 346.667969 "/>
<path style=" stroke:none;fill-rule:nonzero;fill:rgb(0%,0%,0%);fill-opacity:1;" d="M 506.667969 356.265625 C 500.1875 356.265625 494.933594 361.519531 494.933594 368 C 494.933594 374.480469 500.1875 379.734375 506.667969 379.734375 C 513.148438 379.734375 518.398438 374.480469 518.398438 368 C 518.398438 361.519531 513.148438 356.265625 506.667969 356.265625 "/>
</g>
</svg>
