<?xml version="1.0" encoding="UTF-8"?>
<svg xmlns="http://www.w3.org/2000/svg" xmlns:xlink="http://www.w3.org/1999/xlink" width="800pt" height="800pt" viewBox="0 0 800 800" version="1.1">
<g id="surface205">
<rect x="0" y="0" width="800" height="800" style="fill:rgb(100%,100%,100%);fill-opacity:1;stroke:none;"/>
<path style="fill:none;stroke-width:0.005;stroke-linecap:butt;stroke-linejoin:miter;stroke:rgb(80%,80%,80%);stroke-opacity:1;stroke-miterlimit:10;" d="M -9.999999 -9.999999 L -9.999999 9.999999 " transform="matrix(1333.333333,0,0,-1333.333333,400,400)"/>
<path style="fill:none;stroke-width:0.005;stroke-linecap:butt;stroke-linejoin:miter;stroke:rgb(80%,80%,80%);stroke-opacity:1;stroke-miterlimit:10;" d="M -9 -9.999999 L -9 9.999999 " transform="matrix(1333.333333,0,0,-1333.333333,400,400)"/>
<path style="fill:none;stroke-width:0.005;stroke-linecap:butt;stroke-linejoin:miter;stroke:rgb(80%,80%,80%);stroke-opacity:1;stroke-miterlimit:10;" d="M -8.000001 -9.999999 L -8.000001 9.999999 " transform="matrix(1333.333333,0,0,-1333.333333,400,400)"/>
<path style="fill:none;stroke-width:0.005;stroke-linecap:butt;stroke-linejoin:miter;stroke:rgb(80%,80%,80%);stroke-opacity:1;stroke-miterlimit:10;" d="M -6.999999 -9.999999 L -6.999999 9.999999 " transform="matrix(1333.333333,0,0,-1333.333333,400,400)"/>
<path style="fill:none;stroke-width:0.005;stroke-linecap:butt;stroke-linejoin:miter;stroke:rgb(80%,80%,80%);stroke-opacity:1;stroke-miterlimit:10;" d="M -6 -9.999999 L -6 9.999999 " transform="matrix(1333.333333,0,0,-1333.333333,400,400)"/>
<path style="fill:none;stroke-width:0.005;stroke-linecap:butt;stroke-linejoin:miter;stroke:rgb(80%,80%,80%);stroke-opacity:1;stroke-miterlimit:10;" d="M -5.000001 -9.999999 L -5.000001 9.999999 " transform="matrix(1333.333333,0,0,-1333.333333,400,400)"/>
<path style="fill:none;stroke-width:0.005;stroke-linecap:butt;stroke-linejoin:miter;stroke:rgb(80%,80%,80%);stroke-opacity:1;stroke-miterlimit:10;" d="M -3.999999 -9.999999 L -3.999999 9.999999 " transform="matrix(1333.333333,0,0,-1333.333333,400,400)"/>
<path style="fill:none;stroke-width:0.005;stroke-linecap:butt;stroke-linejoin:miter;stroke:rgb(80%,80%,80%);stroke-opacity:1;stroke-miterlimit:10;" d="M -3 -9.999999 L -3 9.999999 " transform="matrix(1333.333333,0,0,-1333.333333,400,400)"/>
<path style="fill:none;stroke-width:0.005;stroke-linecap:butt;stroke-linejoin:miter;stroke:rgb(80%,80%,80%);stroke-opacity:1;stroke-miterlimit:10;" d="M -2.000001 -9.999999 L -2.000001 9.999999 " transform="matrix(1333.333333,0,0,-1333.333333,400,400)"/>
<path style="fill:none;stroke-width:0.005;stroke-linecap:butt;stroke-linejoin:miter;stroke:rgb(80%,80%,80%);stroke-opacity:1;stroke-miterlimit:10;" d="M -0.999999 -9.999999 L -0.999999 9.999999 " transform="matrix(1333.333333,0,0,-1333.333333,400,400)"/>
<path style="fill:none;stroke-width:0.005;stroke-linecap:butt;stroke-linejoin:miter;stroke:rgb(80%,80%,80%);stroke-opacity:1;stroke-miterlimit:10;" d="M 0 -9.999999 L 0 9.999999 " transform="matrix(1333.333333,0,0,-1333.333333,400,400)"/>
<path style="fill:none;stroke-width:0.005;stroke-linecap:butt;stroke-linejoin:miter;stroke:rgb(80%,80%,80%);stroke-opacity:1;stroke-miterlimit:10;" d="M 0.999999 -9.999999 L 0.999999 9.999999 " transform="matrix(1333.333333,0,0,-1333.333333,400,400)"/>
<path style="fill:none;stroke-width:0.005;stroke-linecap:butt;stroke-linejoin:miter;stroke:rgb(80%,80%,80%);stroke-opacity:1;stroke-miterlimit:10;" d="M 2.000001 -9.999999 L 2.000001 9.999999 " transform="matrix(1333.333333,0,0,-1333.333333,400,400)"/>
<path style="fill:none;stroke-width:0.005;stroke-linecap:butt;stroke-linejoin:miter;stroke:rgb(80%,80%,80%);stroke-opacity:1;stroke-miterlimit:10;" d="M 3 -9.999999 L 3 9.999999 " transform="matrix(1333.333333,0,0,-1333.333333,400,400)"/>
<path style="fill:none;stroke-width:0.005;stroke-linecap:butt;stroke-linejoin:miter;stroke:rgb(80%,80%,80%);stroke-opacity:1;stroke-miterlimit:10;" d="M 3.999999 -9.999999 L 3.999999 9.999999 " transform="matrix(1333.333333,0,0,-1333.333333,400,400)"/>
<path style="fill:none;stroke-width:0.005;stroke-linecap:butt;stroke-linejoin:miter;stroke:rgb(80%,80%,80%);stroke-opacity:1;stroke-miterlimit:10;" d="M 5.000001 -9.999999 L 5.000001 9.999999 " transform="matrix(1333.333333,0,0,-1333.333333,400,400)"/>
<path style="fill:none;stroke-width:0.005;stroke-linecap:butt;stroke-linejoin:miter;stroke:rgb(80%,80%,80%);stroke-opacity:1;stroke-miterlimit:10;" d="M 6 -9.999999 L 6 9.999999 " transform="matrix(1333.333333,0,0,-1333.333333,400,400)"/>
<path style="fill:none;stroke-width:0.005;stroke-linecap:butt;stroke-linejoin:miter;stroke:rgb(80%,80%,80%);stroke-opacity:1;stroke-miterlimit:10;" d="M 6.999999 -9.999999 L 6.999999 9.999999 " transform="matrix(1333.333333,0,0,-1333.333333,400,400)"/>
<path style="fill:none;stroke-width:0.005;stroke-linecap:butt;stroke-linejoin:miter;stroke:rgb(80%,80%,80%);stroke-opacity:1;stroke-miterlimit:10;" d="M 8.000001 -9.999999 L 8.000001 9.999999 " transform="matrix(1333.333333,0,0,-1333.333333,400,400)"/>
<path style="fill:none;stroke-width:0.005;stroke-linecap:butt;stroke-linejoin:miter;stroke:rgb(80%,80%,80%);stroke-opacity:1;stroke-miterlimit:10;" d="M 9 -9.999999 L 9 9.999999 " transform="matrix(1333.333333,0,0,-1333.333333,400,400)"/>
<path style="fill:none;stroke-width:0.005;stroke-linecap:butt;stroke-linejoin:miter;stroke:rgb(80%,80%,80%);stroke-opacity:1;stroke-miterlimit:10;" d="M 9.999999 -9.999999 L 9.999999 9.999999 " transform="matrix(1333.333333,0,0,-1333.333333,400,400)"/>
<path style="fill:none;stroke-width:0.005;stroke-linecap:butt;stroke-linejoin:miter;stroke:rgb(80%,80%,80%);stroke-opacity:1;stroke-miterlimit:10;" d="M -9.999999 -9.999999 L 9.999999 -9.999999 " transform="matrix(1333.333333,0,0,-1333.333333,400,400)"/>
<path style="fill:none;stroke-width:0.005;stroke-linecap:butt;stroke-linejoin:miter;stroke:rgb(80%,80%,80%);stroke-opacity:1;stroke-miterlimit:10;" d="M -9.999999 -9 L 9.999999 -9 " transform="matrix(1333.333333,0,0,-1333.333333,400,400)"/>
<path style="fill:none;stroke-width:0.005;stroke-linecap:butt;stroke-linejoin:miter;stroke:rgb(80%,80%,80%);stroke-opacity:1;stroke-miterlimit:10;" d="M -9.999999 -8.000001 L 9.999999 -8.000001 " transform="matrix(1333.333333,0,0,-1333.333333,400,400)"/>
<path style="fill:none;stroke-width:0.005;stroke-linecap:butt;stroke-linejoin:miter;stroke:rgb(80%,80%,80%);stroke-opacity:1;stroke-miterlimit:10;" d="M -9.999999 -6.999999 L 9.999999 -6.999999 " transform="matrix(1333.333333,0,0,-1333.333333,400,400)"/>
<path style="fill:none;stroke-width:0.005;stroke-linecap:butt;stroke-linejoin:miter;stroke:rgb(80%,80%,80%);stroke-opacity:1;stroke-miterlimit:10;" d="M -9.999999 -6 L 9.999999 -6 " transform="matrix(1333.333333,0,0,-1333.333333,400,400)"/>
<path style="fill:none;stroke-width:0.005;stroke-linecap:butt;stroke-linejoin:miter;stroke:rgb(80%,80%,80%);stroke-opacity:1;stroke-miterlimit:10;" d="M -9.999999 -5.000001 L 9.999999 -5.000001 " transform="matrix(1333.333333,0,0,-1333.333333,400,400)"/>
<path style="fill:none;stroke-width:0.005;stroke-linecap:butt;stroke-linejoin:miter;stroke:rgb(80%,80%,80%);stroke-opacity:1;stroke-miterlimit:10;" d="M -9.999999 -3.999999 L 9.999999 -3.999999 " transform="matrix(1333.333333,0,0,-1333.333333,400,400)"/>
<path style="fill:none;stroke-width:0.005;stroke-linecap:butt;stroke-linejoin:miter;stroke:rgb(80%,80%,80%);stroke-opacity:1;stroke-miterlimit:10;" d="M -9.999999 -3 L 9.999999 -3 " transform="matrix(1333.333333,0,0,-1333.333333,400,400)"/>
<path style="fill:none;stroke-width:0.005;stroke-linecap:butt;stroke-linejoin:miter;stroke:rgb(80%,80%,80%);stroke-opacity:1;stroke-miterlimit:10;" d="M -9.999999 -2.000001 L 9.999999 -2.000001 " transform="matrix(1333.333333,0,0,-1333.333333,400,400)"/>
<path style="fill:none;stroke-width:0.005;stroke-linecap:butt;stroke-linejoin:miter;stroke:rgb(80%,80%,80%);stroke-opacity:1;stroke-miterlimit:10;" d="M -9.999999 -0.999999 L 9.999999 -0.999999 " transform="matrix(1333.333333,0,0,-1333.333333,400,400)"/>
<path style="fill:none;stroke-width:0.005;stroke-linecap:butt;stroke-linejoin:miter;stroke:rgb(80%,80%,80%);stroke-opacity:1;stroke-miterlimit:10;" d="M -9.999999 0 L 9.999999 0 " transform="matrix(1333.333333,0,0,-1333.333333,400,400)"/>
<path style="fill:none;stroke-width:0.005;stroke-linecap:butt;stroke-linejoin:miter;stroke:rgb(80%,80%,80%);stroke-opacity:1;stroke-miterlimit:10;" d="M -9.999999 0.999999 L 9.999999 0.999999 " transform="matrix(1333.333333,0,0,-1333.333333,400,400)"/>
<path style="fill:none;stroke-width:0.005;stroke-linecap:butt;stroke-linejoin:miter;stroke:rgb(80%,80%,80%);stroke-opacity:1;stroke-miterlimit:10;" d="M -9.999999 2.000001 L 9.999999 2.000001 " transform="matrix(1333.333333,0,0,-1333.333333,400,400)"/>
<path style="fill:none;stroke-width:0.005;stroke-linecap:butt;stroke-linejoin:miter;stroke:rgb(80%,80%,80%);stroke-opacity:1;stroke-miterlimit:10;" d="M -9.999999 3 L 9.999999 3 " transform="matrix(1333.333333,0,0,-1333.333333,400,400)"/>
<path style="fill:none;stroke-width:0.005;stroke-linecap:butt;stroke-linejoin:miter;stroke:rgb(80%,80%,80%);stroke-opacity:1;stroke-miterlimit:10;" d="M -9.999999 3.999999 L 9.999999 3.999999 " transform="matrix(1333.333333,0,0,-1333.333333,400,400)"/>
<path style="fill:none;stroke-width:0.005;stroke-linecap:butt;stroke-linejoin:miter;stroke:rgb(80%,80%,80%);stroke-opacity:1;stroke-miterlimit:10;" d="M -9.999999 5.000001 L 9.999999 5.000001 " transform="matrix(1333.333333,0,0,-1333.333333,400,400)"/>
<path style="fill:none;stroke-width:0.005;stroke-linecap:butt;stroke-linejoin:miter;stroke:rgb(80%,80%,80%);stroke-opacity:1;stroke-miterlimit:10;" d="M -9.999999 6 L 9.999999 6 " transform="matrix(1333.333333,0,0,-1333.333333,400,400)"/>
<path style="fill:none;stroke-width:0.005;stroke-linecap:butt;stroke-linejoin:miter;stroke:rgb(80%,80%,80%);stroke-opacity:1;stroke-miterlimit:10;" d="M -9.999999 6.999999 L 9.999999 6.999999 " transform="matrix(1333.333333,0,0,-1333.333333,400,400)"/>
<path style="fill:none;stroke-width:0.005;stroke-linecap:butt;stroke-linejoin:miter;stroke:rgb(80%,80%,80%);stroke-opacity:1;stroke-miterlimit:10;" d="M -9.999999 8.000001 L 9.999999 8.000001 " transform="matrix(1333.333333,0,0,-1333.333333,400,400)"/>
<path style="fill:none;stroke-width:0.005;stroke-linecap:butt;stroke-linejoin:miter;stroke:rgb(80%,80%,80%);stroke-opacity:1;stroke-miterlimit:10;" d="M -9.999999 9 L 9.999999 9 " transform="matrix(1333.333333,0,0,-1333.333333,400,400)"/>
<path style="fill:none;stroke-width:0.005;stroke-linecap:butt;stroke-linejoin:miter;stroke:rgb(80%,80%,80%);stroke-opacity:1;stroke-miterlimit:10;" d="M -9.999999 9.999999 L 9.999999 9.999999 " transform="matrix(1333.333333,0,0,-1333.333333,400,400)"/>
<path style=" stroke:none;fill-rule:nonzero;fill:rgb(100%,70%,70%);fill-opacity:1;" d="M 666.667969 400 C 666.667969 252.722656 547.277344 133.332031 400 133.332031 C 252.722656 133.332031 133.332031 252.722656 133.332031 400 C 133.332031 547.277344 252.722656 666.667969 400 666.667969 C 547.277344 666.667969 666.667969 547.277344 666.667969 400 "/>
<path style="fill-rule:nonzero;fill:rgb(20%,20%,20%);fill-opacity:1;stroke-width:0.04;stroke-linecap:butt;stroke-linejoin:miter;stroke:rgb(0%,0%,0%);stroke-opacity:1;stroke-miterlimit:10;" d="M -0.441665 -0.124995 L 0.441665 -0.124995 C 0.525 -0.124995 0.525 -0.124995 0.525 -0.0416602 L 0.525 0.0416602 C 0.525 0.124995 0.525 0.124995 0.441665 0.124995 L -0.441665 0.124995 C -0.525 0.124995 -0.525 0.124995 -0.525 0.0416602 L -0.525 -0.0416602 C -0.525 -0.124995 -0.525 -0.124995 -0.441665 -0.124995 " transform="matrix(266.666667,0,0,-266.666667,400,500)"/>
<path style="fill-rule:nonzero;fill:rgb(20%,20%,20%);fill-opacity:1;stroke-width:0.04;stroke-linecap:butt;stroke-linejoin:miter;stroke:rgb(0%,0%,0%);stroke-opacity:1;stroke-miterlimit:10;" d="M -0.441665 -0.124995 L 0.441665 -0.124995 C 0.525 -0.124995 0.525 -0.124995 0.525 -0.0416602 L 0.525 0.0416602 C 0.525 0.124995 0.525 0.124995 0.441665 0.124995 L -0.441665 0.124995 C -0.525 0.124995 -0.525 0.124995 -0.525 0.0416602 L -0.525 -0.0416602 C -0.525 -0.124995 -0.525 -0.124995 -0.441665 -0.124995 " transform="matrix(266.666667,0,0,-266.666667,400,300)"/>
<path style="fill-rule:nonzero;fill:rgb(80%,80%,80%);fill-opacity:1;stroke-width:0.01;stroke-linecap:butt;stroke-linejoin:miter;stroke:rgb(0%,0%,0%);stroke-opacity:1;stroke-miterlimit:10;" d="M -0.75 -0.375 L 0.75 -0.375 L 0.75 0.375 L -0.75 0.375 Z M -0.75 -0.375 " transform="matrix(266.666667,0,0,-266.666667,400,400)"/>
<path style="fill-rule:nonzero;fill:rgb(100%,100%,0%);fill-opacity:1;stroke-width:0.005;stroke-linecap:butt;stroke-linejoin:miter;stroke:rgb(0%,0%,0%);stroke-opacity:1;stroke-miterlimit:10;" d="M -0.5 -0.5 L 0.5 -0.5 L 0.5 0.5 L -0.5 0.5 Z M -0.5 -0.5 " transform="matrix(120,0,0,-120,440,400)"/>
<path style=" stroke:none;fill-rule:nonzero;fill:rgb(0%,0%,0%);fill-opacity:1;" d="M 460 437.5 L 500 437.5 L 500 362.5 L 460 362.5 Z M 460 437.5 "/>
</g>
</svg>
