<?xml version="1.0" encoding="UTF-8"?>
<svg xmlns="http://www.w3.org/2000/svg" xmlns:xlink="http://www.w3.org/1999/xlink" width="800pt" height="800pt" viewBox="0 0 800 800" version="1.1">
<g id="surface29">
<rect x="0" y="0" width="800" height="800" style="fill:rgb(100%,100%,100%);fill-opacity:1;stroke:none;"/>
<path style="fill:none;stroke-width:0.005;stroke-linecap:butt;stroke-linejoin:miter;stroke:rgb(80%,80%,80%);stroke-opacity:1;stroke-miterlimit:10;" d="M -9.999998 -9.999998 L -9.999998 9.999998 " transform="matrix(533.333333,0,0,-533.333333,400,400)"/>
<path style="fill:none;stroke-width:0.005;stroke-linecap:butt;stroke-linejoin:miter;stroke:rgb(80%,80%,80%);stroke-opacity:1;stroke-miterlimit:10;" d="M -9 -9.999998 L -9 9.999998 " transform="matrix(533.333333,0,0,-533.333333,400,400)"/>
<path style="fill:none;stroke-width:0.005;stroke-linecap:butt;stroke-linejoin:miter;stroke:rgb(80%,80%,80%);stroke-opacity:1;stroke-miterlimit:10;" d="M -8.000002 -9.999998 L -8.000002 9.999998 " transform="matrix(533.333333,0,0,-533.333333,400,400)"/>
<path style="fill:none;stroke-width:0.005;stroke-linecap:butt;stroke-linejoin:miter;stroke:rgb(80%,80%,80%);stroke-opacity:1;stroke-miterlimit:10;" d="M -6.999998 -9.999998 L -6.999998 9.999998 " transform="matrix(533.333333,0,0,-533.333333,400,400)"/>
<path style="fill:none;stroke-width:0.005;stroke-linecap:butt;stroke-linejoin:miter;stroke:rgb(80%,80%,80%);stroke-opacity:1;stroke-miterlimit:10;" d="M -6 -9.999998 L -6 9.999998 " transform="matrix(533.333333,0,0,-533.333333,400,400)"/>
<path style="fill:none;stroke-width:0.005;stroke-linecap:butt;stroke-linejoin:miter;stroke:rgb(80%,80%,80%);stroke-opacity:1;stroke-miterlimit:10;" d="M -5.000002 -9.999998 L -5.000002 9.999998 " transform="matrix(533.333333,0,0,-533.333333,400,400)"/>
<path style="fill:none;stroke-width:0.005;stroke-linecap:butt;stroke-linejoin:miter;stroke:rgb(80%,80%,80%);stroke-opacity:1;stroke-miterlimit:10;" d="M -3.999998 -9.999998 L -3.999998 9.999998 " transform="matrix(533.333333,0,0,-533.333333,400,400)"/>
<path style="fill:none;stroke-width:0.005;stroke-linecap:butt;stroke-linejoin:miter;stroke:rgb(80%,80%,80%);stroke-opacity:1;stroke-miterlimit:10;" d="M -3 -9.999998 L -3 9.999998 " transform="matrix(533.333333,0,0,-533.333333,400,400)"/>
<path style="fill:none;stroke-width:0.005;stroke-linecap:butt;stroke-linejoin:miter;stroke:rgb(80%,80%,80%);stroke-opacity:1;stroke-miterlimit:10;" d="M -2.000002 -9.999998 L -2.000002 9.999998 " transform="matrix(533.333333,0,0,-533.333333,400,400)"/>
<path style="fill:none;stroke-width:0.005;stroke-linecap:butt;stroke-linejoin:miter;stroke:rgb(80%,80%,80%);stroke-opacity:1;stroke-miterlimit:10;" d="M -0.999998 -9.999998 L -0.999998 9.999998 " transform="matrix(533.333333,0,0,-533.333333,400,400)"/>
<path style="fill:none;stroke-width:0.005;stroke-linecap:butt;stroke-linejoin:miter;stroke:rgb(80%,80%,80%);stroke-opacity:1;stroke-miterlimit:10;" d="M 0 -9.999998 L 0 9.999998 " transform="matrix(533.333333,0,0,-533.333333,400,400)"/>
<path style="fill:none;stroke-width:0.005;stroke-linecap:butt;stroke-linejoin:miter;stroke:rgb(80%,80%,80%);stroke-opacity:1;stroke-miterlimit:10;" d="M 0.999998 -9.999998 L 0.999998 9.999998 " transform="matrix(533.333333,0,0,-533.333333,400,400)"/>
<path style="fill:none;stroke-width:0.005;stroke-linecap:butt;stroke-linejoin:miter;stroke:rgb(80%,80%,80%);stroke-opacity:1;stroke-miterlimit:10;" d="M 2.000002 -9.999998 L 2.000002 9.999998 " transform="matrix(533.333333,0,0,-533.333333,400,400)"/>
<path style="fill:none;stroke-width:0.005;stroke-linecap:butt;stroke-linejoin:miter;stroke:rgb(80%,80%,80%);stroke-opacity:1;stroke-miterlimit:10;" d="M 3 -9.999998 L 3 9.999998 " transform="matrix(533.333333,0,0,-533.333333,400,400)"/>
<path style="fill:none;stroke-width:0.005;stroke-linecap:butt;stroke-linejoin:miter;stroke:rgb(80%,80%,80%);stroke-opacity:1;stroke-miterlimit:10;" d="M 3.999998 -9.999998 L 3.999998 9.999998 " transform="matrix(533.333333,0,0,-533.333333,400,400)"/>
<path style="fill:none;stroke-width:0.005;stroke-linecap:butt;stroke-linejoin:miter;stroke:rgb(80%,80%,80%);stroke-opacity:1;stroke-miterlimit:10;" d="M 5.000002 -9.999998 L 5.000002 9.999998 " transform="matrix(533.333333,0,0,-533.333333,400,400)"/>
<path style="fill:none;stroke-width:0.005;stroke-linecap:butt;stroke-linejoin:miter;stroke:rgb(80%,80%,80%);stroke-opacity:1;stroke-miterlimit:10;" d="M 6 -9.999998 L 6 9.999998 " transform="matrix(533.333333,0,0,-533.333333,400,400)"/>
<path style="fill:none;stroke-width:0.005;stroke-linecap:butt;stroke-linejoin:miter;stroke:rgb(80%,80%,80%);stroke-opacity:1;stroke-miterlimit:10;" d="M 6.999998 -9.999998 L 6.999998 9.999998 " transform="matrix(533.333333,0,0,-533.333333,400,400)"/>
<path style="fill:none;stroke-width:0.005;stroke-linecap:butt;stroke-linejoin:miter;stroke:rgb(80%,80%,80%);stroke-opacity:1;stroke-miterlimit:10;" d="M 8.000002 -9.999998 L 8.000002 9.999998 " transform="matrix(533.333333,0,0,-533.333333,400,400)"/>
<path style="fill:none;stroke-width:0.005;stroke-linecap:butt;stroke-linejoin:miter;stroke:rgb(80%,80%,80%);stroke-opacity:1;stroke-miterlimit:10;" d="M 9 -9.999998 L 9 9.999998 " transform="matrix(533.333333,0,0,-533.333333,400,400)"/>
<path style="fill:none;stroke-width:0.005;stroke-linecap:butt;stroke-linejoin:miter;stroke:rgb(80%,80%,80%);stroke-opacity:1;stroke-miterlimit:10;" d="M 9.999998 -9.999998 L 9.999998 9.999998 " transform="matrix(533.333333,0,0,-533.333333,400,400)"/>
<path style="fill:none;stroke-width:0.005;stroke-linecap:butt;stroke-linejoin:miter;stroke:rgb(80%,80%,80%);stroke-opacity:1;stroke-miterlimit:10;" d="M -9.999998 -9.999998 L 9.999998 -9.999998 " transform="matrix(533.333333,0,0,-533.333333,400,400)"/>
<path style="fill:none;stroke-width:0.005;stroke-linecap:butt;stroke-linejoin:miter;stroke:rgb(80%,80%,80%);stroke-opacity:1;stroke-miterlimit:10;" d="M -9.999998 -9 L 9.999998 -9 " transform="matrix(533.333333,0,0,-533.333333,400,400)"/>
<path style="fill:none;stroke-width:0.005;stroke-linecap:butt;stroke-linejoin:miter;stroke:rgb(80%,80%,80%);stroke-opacity:1;stroke-miterlimit:10;" d="M -9.999998 -8.000002 L 9.999998 -8.000002 " transform="matrix(533.333333,0,0,-533.333333,400,400)"/>
<path style="fill:none;stroke-width:0.005;stroke-linecap:butt;stroke-linejoin:miter;stroke:rgb(80%,80%,80%);stroke-opacity:1;stroke-miterlimit:10;" d="M -9.999998 -6.999998 L 9.999998 -6.999998 " transform="matrix(533.333333,0,0,-533.333333,400,400)"/>
<path style="fill:none;stroke-width:0.005;stroke-linecap:butt;stroke-linejoin:miter;stroke:rgb(80%,80%,80%);stroke-opacity:1;stroke-miterlimit:10;" d="M -9.999998 -6 L 9.999998 -6 " transform="matrix(533.333333,0,0,-533.333333,400,400)"/>
<path style="fill:none;stroke-width:0.005;stroke-linecap:butt;stroke-linejoin:miter;stroke:rgb(80%,80%,80%);stroke-opacity:1;stroke-miterlimit:10;" d="M -9.999998 -5.000002 L 9.999998 -5.000002 " transform="matrix(533.333333,0,0,-533.333333,400,400)"/>
<path style="fill:none;stroke-width:0.005;stroke-linecap:butt;stroke-linejoin:miter;stroke:rgb(80%,80%,80%);stroke-opacity:1;stroke-miterlimit:10;" d="M -9.999998 -3.999998 L 9.999998 -3.999998 " transform="matrix(533.333333,0,0,-533.333333,400,400)"/>
<path style="fill:none;stroke-width:0.005;stroke-linecap:butt;stroke-linejoin:miter;stroke:rgb(80%,80%,80%);stroke-opacity:1;stroke-miterlimit:10;" d="M -9.999998 -3 L 9.999998 -3 " transform="matrix(533.333333,0,0,-533.333333,400,400)"/>
<path style="fill:none;stroke-width:0.005;stroke-linecap:butt;stroke-linejoin:miter;stroke:rgb(80%,80%,80%);stroke-opacity:1;stroke-miterlimit:10;" d="M -9.999998 -2.000002 L 9.999998 -2.000002 " transform="matrix(533.333333,0,0,-533.333333,400,400)"/>
<path style="fill:none;stroke-width:0.005;stroke-linecap:butt;stroke-linejoin:miter;stroke:rgb(80%,80%,80%);stroke-opacity:1;stroke-miterlimit:10;" d="M -9.999998 -0.999998 L 9.999998 -0.999998 " transform="matrix(533.333333,0,0,-533.333333,400,400)"/>
<path style="fill:none;stroke-width:0.005;stroke-linecap:butt;stroke-linejoin:miter;stroke:rgb(80%,80%,80%);stroke-opacity:1;stroke-miterlimit:10;" d="M -9.999998 0 L 9.999998 0 " transform="matrix(533.333333,0,0,-533.333333,400,400)"/>
<path style="fill:none;stroke-width:0.005;stroke-linecap:butt;stroke-linejoin:miter;stroke:rgb(80%,80%,80%);stroke-opacity:1;stroke-miterlimit:10;" d="M -9.999998 0.999998 L 9.999998 0.999998 " transform="matrix(533.333333,0,0,-533.333333,400,400)"/>
<path style="fill:none;stroke-width:0.005;stroke-linecap:butt;stroke-linejoin:miter;stroke:rgb(80%,80%,80%);stroke-opacity:1;stroke-miterlimit:10;" d="M -9.999998 2.000002 L 9.999998 2.000002 " transform="matrix(533.333333,0,0,-533.333333,400,400)"/>
<path style="fill:none;stroke-width:0.005;stroke-linecap:butt;stroke-linejoin:miter;stroke:rgb(80%,80%,80%);stroke-opacity:1;stroke-miterlimit:10;" d="M -9.999998 3 L 9.999998 3 " transform="matrix(533.333333,0,0,-533.333333,400,400)"/>
<path style="fill:none;stroke-width:0.005;stroke-linecap:butt;stroke-linejoin:miter;stroke:rgb(80%,80%,80%);stroke-opacity:1;stroke-miterlimit:10;" d="M -9.999998 3.999998 L 9.999998 3.999998 " transform="matrix(533.333333,0,0,-533.333333,400,400)"/>
<path style="fill:none;stroke-width:0.005;stroke-linecap:butt;stroke-linejoin:miter;stroke:rgb(80%,80%,80%);stroke-opacity:1;stroke-miterlimit:10;" d="M -9.999998 5.000002 L 9.999998 5.000002 " transform="matrix(533.333333,0,0,-533.333333,400,400)"/>
<path style="fill:none;stroke-width:0.005;stroke-linecap:butt;stroke-linejoin:miter;stroke:rgb(80%,80%,80%);stroke-opacity:1;stroke-miterlimit:10;" d="M -9.999998 6 L 9.999998 6 " transform="matrix(533.333333,0,0,-533.333333,400,400)"/>
<path style="fill:none;stroke-width:0.005;stroke-linecap:butt;stroke-linejoin:miter;stroke:rgb(80%,80%,80%);stroke-opacity:1;stroke-miterlimit:10;" d="M -9.999998 6.999998 L 9.999998 6.999998 " transform="matrix(533.333333,0,0,-533.333333,400,400)"/>
<path style="fill:none;stroke-width:0.005;stroke-linecap:butt;stroke-linejoin:miter;stroke:rgb(80%,80%,80%);stroke-opacity:1;stroke-miterlimit:10;" d="M -9.999998 8.000002 L 9.999998 8.000002 " transform="matrix(533.333333,0,0,-533.333333,400,400)"/>
<path style="fill:none;stroke-width:0.005;stroke-linecap:butt;stroke-linejoin:miter;stroke:rgb(80%,80%,80%);stroke-opacity:1;stroke-miterlimit:10;" d="M -9.999998 9 L 9.999998 9 " transform="matrix(533.333333,0,0,-533.333333,400,400)"/>
<path style="fill:none;stroke-width:0.005;stroke-linecap:butt;stroke-linejoin:miter;stroke:rgb(80%,80%,80%);stroke-opacity:1;stroke-miterlimit:10;" d="M -9.999998 9.999998 L 9.999998 9.999998 " transform="matrix(533.333333,0,0,-533.333333,400,400)"/>
<path style=" stroke:none;fill-rule:nonzero;fill:rgb(100%,70%,70%);fill-opacity:1;" d="M 666.667969 400 C 666.667969 252.722656 547.277344 133.332031 400 133.332031 C 252.722656 133.332031 133.332031 252.722656 133.332031 400 C 133.332031 547.277344 252.722656 666.667969 400 666.667969 C 547.277344 666.667969 666.667969 547.277344 666.667969 400 "/>
<path style="fill-rule:nonzero;fill:rgb(20%,20%,20%);fill-opacity:1;stroke-width:0.04;stroke-linecap:butt;stroke-linejoin:miter;stroke:rgb(0%,0%,0%);stroke-opacity:1;stroke-miterlimit:10;" d="M -0.149995 -0.0750049 L 0.150005 -0.0750049 C 0.2 -0.0750049 0.2 -0.0750049 0.2 -0.0249951 L 0.2 0.025 C 0.2 0.0749951 0.2 0.0749951 0.150005 0.0749951 L -0.149995 0.0749951 C -0.200005 0.0749951 -0.200005 0.0749951 -0.200005 0.025 L -0.200005 -0.0249951 C -0.200005 -0.0750049 -0.200005 -0.0750049 -0.149995 -0.0750049 " transform="matrix(266.666667,0,0,-266.666667,586.666667,266.666667)"/>
<path style="fill-rule:nonzero;fill:rgb(20%,20%,20%);fill-opacity:1;stroke-width:0.04;stroke-linecap:butt;stroke-linejoin:miter;stroke:rgb(0%,0%,0%);stroke-opacity:1;stroke-miterlimit:10;" d="M -0.149995 -0.0749951 L 0.150005 -0.0749951 C 0.2 -0.0749951 0.2 -0.0749951 0.2 -0.025 L 0.2 0.0249951 C 0.2 0.0750049 0.2 0.0750049 0.150005 0.0750049 L -0.149995 0.0750049 C -0.200005 0.0750049 -0.200005 0.0750049 -0.200005 0.0249951 L -0.200005 -0.025 C -0.200005 -0.0749951 -0.200005 -0.0749951 -0.149995 -0.0749951 " transform="matrix(266.666667,0,0,-266.666667,586.666667,533.333333)"/>
<path style="fill:none;stroke-width:0.05;stroke-linecap:butt;stroke-linejoin:miter;stroke:rgb(0%,0%,0%);stroke-opacity:1;stroke-miterlimit:10;" d="M 0 0.520005 L 0 -0.520005 " transform="matrix(266.666667,0,0,-266.666667,400,400)"/>
<path style="fill-rule:nonzero;fill:rgb(80%,80%,80%);fill-opacity:1;stroke-width:0.01;stroke-linecap:butt;stroke-linejoin:miter;stroke:rgb(0%,0%,0%);stroke-opacity:1;stroke-miterlimit:10;" d="M -0.199995 -0.400005 L 0.9 -0.400005 C 1.000005 -0.400005 1.000005 -0.400005 1.000005 -0.3 L 1.000005 0.3 C 1.000005 0.400005 1.000005 0.400005 0.9 0.400005 L -0.199995 0.400005 C -0.3 0.400005 -0.3 0.400005 -0.3 0.3 L -0.3 -0.3 C -0.3 -0.400005 -0.3 -0.400005 -0.199995 -0.400005 " transform="matrix(266.666667,0,0,-266.666667,400,400)"/>
<path style="fill-rule:nonzero;fill:rgb(20%,20%,20%);fill-opacity:1;stroke-width:0.04;stroke-linecap:butt;stroke-linejoin:miter;stroke:rgb(0%,0%,0%);stroke-opacity:1;stroke-miterlimit:10;" d="M -0.15 -0.0750049 L 0.15 -0.0750049 C 0.199995 -0.0750049 0.199995 -0.0750049 0.199995 -0.0249951 L 0.199995 0.025 C 0.199995 0.0749951 0.199995 0.0749951 0.15 0.0749951 L -0.15 0.0749951 C -0.199995 0.0749951 -0.199995 0.0749951 -0.199995 0.025 L -0.199995 -0.0249951 C -0.199995 -0.0750049 -0.199995 -0.0750049 -0.15 -0.0750049 " transform="matrix(266.666667,0,0,-266.666667,400,538.666667)"/>
<path style="fill-rule:nonzero;fill:rgb(20%,20%,20%);fill-opacity:1;stroke-width:0.04;stroke-linecap:butt;stroke-linejoin:miter;stroke:rgb(0%,0%,0%);stroke-opacity:1;stroke-miterlimit:10;" d="M -0.15 -0.0749951 L 0.15 -0.0749951 C 0.199995 -0.0749951 0.199995 -0.0749951 0.199995 -0.025 L 0.199995 0.0249951 C 0.199995 0.0750049 0.199995 0.0750049 0.15 0.0750049 L -0.15 0.0750049 C -0.199995 0.0750049 -0.199995 0.0750049 -0.199995 0.0249951 L -0.199995 -0.025 C -0.199995 -0.0749951 -0.199995 -0.0749951 -0.15 -0.0749951 " transform="matrix(266.666667,0,0,-266.666667,400,261.333333)"/>
<path style="fill-rule:nonzero;fill:rgb(100%,100%,100%);fill-opacity:1;stroke-width:0.05;stroke-linecap:butt;stroke-linejoin:miter;stroke:rgb(0%,0%,0%);stroke-opacity:1;stroke-miterlimit:10;" d="M 0.999976 0 C 0.999976 0.552319 0.552319 0.999976 0 0.999976 C -0.552319 0.999976 -0.999976 0.552319 -0.999976 0 C -0.999976 -0.552319 -0.552319 -0.999976 0 -0.999976 C 0.552319 -0.999976 0.999976 -0.552319 0.999976 0 " transform="matrix(53.333333,0,0,-53.333333,400,400)"/>
<path style=" stroke:none;fill-rule:nonzero;fill:rgb(40%,20%,0%);fill-opacity:1;" d="M 453.332031 400 C 453.332031 385.273438 441.394531 373.332031 426.667969 373.332031 C 411.9375 373.332031 400 385.273438 400 400 C 400 414.726562 411.9375 426.667969 426.667969 426.667969 C 441.394531 426.667969 453.332031 414.726562 453.332031 400 "/>
<path style=" stroke:none;fill-rule:nonzero;fill:rgb(0%,0%,0%);fill-opacity:1;" d="M 445.332031 400 C 445.332031 392.636719 439.363281 386.667969 432 386.667969 C 424.636719 386.667969 418.667969 392.636719 418.667969 400 C 418.667969 407.363281 424.636719 413.332031 432 413.332031 C 439.363281 413.332031 445.332031 407.363281 445.332031 400 "/>
</g>
</svg>
