<?xml version="1.0" encoding="UTF-8"?>
<svg xmlns="http://www.w3.org/2000/svg" xmlns:xlink="http://www.w3.org/1999/xlink" width="800pt" height="800pt" viewBox="0 0 800 800" version="1.1">
<g id="surface244">
<rect x="0" y="0" width="800" height="800" style="fill:rgb(100%,100%,100%);fill-opacity:1;stroke:none;"/>
<path style="fill:none;stroke-width:0.005;stroke-linecap:butt;stroke-linejoin:miter;stroke:rgb(80%,80%,80%);stroke-opacity:1;stroke-miterlimit:10;" d="M -9.999999 -9.999999 L -9.999999 9.999999 " transform="matrix(0.000000000000081643,-1333.333333,-1333.333333,-0.000000000000081643,400,400)"/>
<path style="fill:none;stroke-width:0.005;stroke-linecap:butt;stroke-linejoin:miter;stroke:rgb(80%,80%,80%);stroke-opacity:1;stroke-miterlimit:10;" d="M -9 -9.999999 L -9 9.999999 " transform="matrix(0.000000000000081643,-1333.333333,-1333.333333,-0.000000000000081643,400,400)"/>
<path style="fill:none;stroke-width:0.005;stroke-linecap:butt;stroke-linejoin:miter;stroke:rgb(80%,80%,80%);stroke-opacity:1;stroke-miterlimit:10;" d="M -8.000001 -9.999999 L -8.000001 9.999999 " transform="matrix(0.000000000000081643,-1333.333333,-1333.333333,-0.000000000000081643,400,400)"/>
<path style="fill:none;stroke-width:0.005;stroke-linecap:butt;stroke-linejoin:miter;stroke:rgb(80%,80%,80%);stroke-opacity:1;stroke-miterlimit:10;" d="M -6.999999 -9.999999 L -6.999999 9.999999 " transform="matrix(0.000000000000081643,-1333.333333,-1333.333333,-0.000000000000081643,400,400)"/>
<path style="fill:none;stroke-width:0.005;stroke-linecap:butt;stroke-linejoin:miter;stroke:rgb(80%,80%,80%);stroke-opacity:1;stroke-miterlimit:10;" d="M -6 -9.999999 L -6 9.999999 " transform="matrix(0.000000000000081643,-1333.333333,-1333.333333,-0.000000000000081643,400,400)"/>
<path style="fill:none;stroke-width:0.005;stroke-linecap:butt;stroke-linejoin:miter;stroke:rgb(80%,80%,80%);stroke-opacity:1;stroke-miterlimit:10;" d="M -5.000001 -9.999999 L -5.000001 9.999999 " transform="matrix(0.000000000000081643,-1333.333333,-1333.333333,-0.000000000000081643,400,400)"/>
<path style="fill:none;stroke-width:0.005;stroke-linecap:butt;stroke-linejoin:miter;stroke:rgb(80%,80%,80%);stroke-opacity:1;stroke-miterlimit:10;" d="M -3.999999 -9.999999 L -3.999999 9.999999 " transform="matrix(0.000000000000081643,-1333.333333,-1333.333333,-0.000000000000081643,400,400)"/>
<path style="fill:none;stroke-width:0.005;stroke-linecap:butt;stroke-linejoin:miter;stroke:rgb(80%,80%,80%);stroke-opacity:1;stroke-miterlimit:10;" d="M -3 -9.999999 L -3 9.999999 " transform="matrix(0.000000000000081643,-1333.333333,-1333.333333,-0.000000000000081643,400,400)"/>
<path style="fill:none;stroke-width:0.005;stroke-linecap:butt;stroke-linejoin:miter;stroke:rgb(80%,80%,80%);stroke-opacity:1;stroke-miterlimit:10;" d="M -2.000001 -9.999999 L -2.000001 9.999999 " transform="matrix(0.000000000000081643,-1333.333333,-1333.333333,-0.000000000000081643,400,400)"/>
<path style="fill:none;stroke-width:0.005;stroke-linecap:butt;stroke-linejoin:miter;stroke:rgb(80%,80%,80%);stroke-opacity:1;stroke-miterlimit:10;" d="M -0.999999 -9.999999 L -0.999999 9.999999 " transform="matrix(0.000000000000081643,-1333.333333,-1333.333333,-0.000000000000081643,400,400)"/>
<path style="fill:none;stroke-width:0.005;stroke-linecap:butt;stroke-linejoin:miter;stroke:rgb(80%,80%,80%);stroke-opacity:1;stroke-miterlimit:10;" d="M 0.000000000000000611 -9.999999 L -0.000000000000000611 9.999999 " transform="matrix(0.000000000000081643,-1333.333333,-1333.333333,-0.000000000000081643,400,400)"/>
<path style="fill:none;stroke-width:0.005;stroke-linecap:butt;stroke-linejoin:miter;stroke:rgb(80%,80%,80%);stroke-opacity:1;stroke-miterlimit:10;" d="M 0.999999 -9.999999 L 0.999999 9.999999 " transform="matrix(0.000000000000081643,-1333.333333,-1333.333333,-0.000000000000081643,400,400)"/>
<path style="fill:none;stroke-width:0.005;stroke-linecap:butt;stroke-linejoin:miter;stroke:rgb(80%,80%,80%);stroke-opacity:1;stroke-miterlimit:10;" d="M 2.000001 -9.999999 L 2.000001 9.999999 " transform="matrix(0.000000000000081643,-1333.333333,-1333.333333,-0.000000000000081643,400,400)"/>
<path style="fill:none;stroke-width:0.005;stroke-linecap:butt;stroke-linejoin:miter;stroke:rgb(80%,80%,80%);stroke-opacity:1;stroke-miterlimit:10;" d="M 3 -9.999999 L 3 9.999999 " transform="matrix(0.000000000000081643,-1333.333333,-1333.333333,-0.000000000000081643,400,400)"/>
<path style="fill:none;stroke-width:0.005;stroke-linecap:butt;stroke-linejoin:miter;stroke:rgb(80%,80%,80%);stroke-opacity:1;stroke-miterlimit:10;" d="M 3.999999 -9.999999 L 3.999999 9.999999 " transform="matrix(0.000000000000081643,-1333.333333,-1333.333333,-0.000000000000081643,400,400)"/>
<path style="fill:none;stroke-width:0.005;stroke-linecap:butt;stroke-linejoin:miter;stroke:rgb(80%,80%,80%);stroke-opacity:1;stroke-miterlimit:10;" d="M 5.000001 -9.999999 L 5.000001 9.999999 " transform="matrix(0.000000000000081643,-1333.333333,-1333.333333,-0.000000000000081643,400,400)"/>
<path style="fill:none;stroke-width:0.005;stroke-linecap:butt;stroke-linejoin:miter;stroke:rgb(80%,80%,80%);stroke-opacity:1;stroke-miterlimit:10;" d="M 6 -9.999999 L 6 9.999999 " transform="matrix(0.000000000000081643,-1333.333333,-1333.333333,-0.000000000000081643,400,400)"/>
<path style="fill:none;stroke-width:0.005;stroke-linecap:butt;stroke-linejoin:miter;stroke:rgb(80%,80%,80%);stroke-opacity:1;stroke-miterlimit:10;" d="M 6.999999 -9.999999 L 6.999999 9.999999 " transform="matrix(0.000000000000081643,-1333.333333,-1333.333333,-0.000000000000081643,400,400)"/>
<path style="fill:none;stroke-width:0.005;stroke-linecap:butt;stroke-linejoin:miter;stroke:rgb(80%,80%,80%);stroke-opacity:1;stroke-miterlimit:10;" d="M 8.000001 -9.999999 L 8.000001 9.999999 " transform="matrix(0.000000000000081643,-1333.333333,-1333.333333,-0.000000000000081643,400,400)"/>
<path style="fill:none;stroke-width:0.005;stroke-linecap:butt;stroke-linejoin:miter;stroke:rgb(80%,80%,80%);stroke-opacity:1;stroke-miterlimit:10;" d="M 9 -9.999999 L 9 9.999999 " transform="matrix(0.000000000000081643,-1333.333333,-1333.333333,-0.000000000000081643,400,400)"/>
<path style="fill:none;stroke-width:0.005;stroke-linecap:butt;stroke-linejoin:miter;stroke:rgb(80%,80%,80%);stroke-opacity:1;stroke-miterlimit:10;" d="M 9.999999 -9.999999 L 9.999999 9.999999 " transform="matrix(0.000000000000081643,-1333.333333,-1333.333333,-0.000000000000081643,400,400)"/>
<path style="fill:none;stroke-width:0.005;stroke-linecap:butt;stroke-linejoin:miter;stroke:rgb(80%,80%,80%);stroke-opacity:1;stroke-miterlimit:10;" d="M -9.999999 -9.999999 L 9.999999 -9.999999 " transform="matrix(0.000000000000081643,-1333.333333,-1333.333333,-0.000000000000081643,400,400)"/>
<path style="fill:none;stroke-width:0.005;stroke-linecap:butt;stroke-linejoin:miter;stroke:rgb(80%,80%,80%);stroke-opacity:1;stroke-miterlimit:10;" d="M -9.999999 -9 L 9.999999 -9 " transform="matrix(0.000000000000081643,-1333.333333,-1333.333333,-0.000000000000081643,400,400)"/>
<path style="fill:none;stroke-width:0.005;stroke-linecap:butt;stroke-linejoin:miter;stroke:rgb(80%,80%,80%);stroke-opacity:1;stroke-miterlimit:10;" d="M -9.999999 -8.000001 L 9.999999 -8.000001 " transform="matrix(0.000000000000081643,-1333.333333,-1333.333333,-0.000000000000081643,400,400)"/>
<path style="fill:none;stroke-width:0.005;stroke-linecap:butt;stroke-linejoin:miter;stroke:rgb(80%,80%,80%);stroke-opacity:1;stroke-miterlimit:10;" d="M -9.999999 -6.999999 L 9.999999 -6.999999 " transform="matrix(0.000000000000081643,-1333.333333,-1333.333333,-0.000000000000081643,400,400)"/>
<path style="fill:none;stroke-width:0.005;stroke-linecap:butt;stroke-linejoin:miter;stroke:rgb(80%,80%,80%);stroke-opacity:1;stroke-miterlimit:10;" d="M -9.999999 -6 L 9.999999 -6 " transform="matrix(0.000000000000081643,-1333.333333,-1333.333333,-0.000000000000081643,400,400)"/>
<path style="fill:none;stroke-width:0.005;stroke-linecap:butt;stroke-linejoin:miter;stroke:rgb(80%,80%,80%);stroke-opacity:1;stroke-miterlimit:10;" d="M -9.999999 -5.000001 L 9.999999 -5.000001 " transform="matrix(0.000000000000081643,-1333.333333,-1333.333333,-0.000000000000081643,400,400)"/>
<path style="fill:none;stroke-width:0.005;stroke-linecap:butt;stroke-linejoin:miter;stroke:rgb(80%,80%,80%);stroke-opacity:1;stroke-miterlimit:10;" d="M -9.999999 -3.999999 L 9.999999 -3.999999 " transform="matrix(0.000000000000081643,-1333.333333,-1333.333333,-0.000000000000081643,400,400)"/>
<path style="fill:none;stroke-width:0.005;stroke-linecap:butt;stroke-linejoin:miter;stroke:rgb(80%,80%,80%);stroke-opacity:1;stroke-miterlimit:10;" d="M -9.999999 -3 L 9.999999 -3 " transform="matrix(0.000000000000081643,-1333.333333,-1333.333333,-0.000000000000081643,400,400)"/>
<path style="fill:none;stroke-width:0.005;stroke-linecap:butt;stroke-linejoin:miter;stroke:rgb(80%,80%,80%);stroke-opacity:1;stroke-miterlimit:10;" d="M -9.999999 -2.000001 L 9.999999 -2.000001 " transform="matrix(0.000000000000081643,-1333.333333,-1333.333333,-0.000000000000081643,400,400)"/>
<path style="fill:none;stroke-width:0.005;stroke-linecap:butt;stroke-linejoin:miter;stroke:rgb(80%,80%,80%);stroke-opacity:1;stroke-miterlimit:10;" d="M -9.999999 -0.999999 L 9.999999 -0.999999 " transform="matrix(0.000000000000081643,-1333.333333,-1333.333333,-0.000000000000081643,400,400)"/>
<path style="fill:none;stroke-width:0.005;stroke-linecap:butt;stroke-linejoin:miter;stroke:rgb(80%,80%,80%);stroke-opacity:1;stroke-miterlimit:10;" d="M -9.999999 -0.000000000000000611 L 9.999999 0.000000000000000611 " transform="matrix(0.000000000000081643,-1333.333333,-1333.333333,-0.000000000000081643,400,400)"/>
<path style="fill:none;stroke-width:0.005;stroke-linecap:butt;stroke-linejoin:miter;stroke:rgb(80%,80%,80%);stroke-opacity:1;stroke-miterlimit:10;" d="M -9.999999 0.999999 L 9.999999 0.999999 " transform="matrix(0.000000000000081643,-1333.333333,-1333.333333,-0.000000000000081643,400,400)"/>
<path style="fill:none;stroke-width:0.005;stroke-linecap:butt;stroke-linejoin:miter;stroke:rgb(80%,80%,80%);stroke-opacity:1;stroke-miterlimit:10;" d="M -9.999999 2.000001 L 9.999999 2.000001 " transform="matrix(0.000000000000081643,-1333.333333,-1333.333333,-0.000000000000081643,400,400)"/>
<path style="fill:none;stroke-width:0.005;stroke-linecap:butt;stroke-linejoin:miter;stroke:rgb(80%,80%,80%);stroke-opacity:1;stroke-miterlimit:10;" d="M -9.999999 3 L 9.999999 3 " transform="matrix(0.000000000000081643,-1333.333333,-1333.333333,-0.000000000000081643,400,400)"/>
<path style="fill:none;stroke-width:0.005;stroke-linecap:butt;stroke-linejoin:miter;stroke:rgb(80%,80%,80%);stroke-opacity:1;stroke-miterlimit:10;" d="M -9.999999 3.999999 L 9.999999 3.999999 " transform="matrix(0.000000000000081643,-1333.333333,-1333.333333,-0.000000000000081643,400,400)"/>
<path style="fill:none;stroke-width:0.005;stroke-linecap:butt;stroke-linejoin:miter;stroke:rgb(80%,80%,80%);stroke-opacity:1;stroke-miterlimit:10;" d="M -9.999999 5.000001 L 9.999999 5.000001 " transform="matrix(0.000000000000081643,-1333.333333,-1333.333333,-0.000000000000081643,400,400)"/>
<path style="fill:none;stroke-width:0.005;stroke-linecap:butt;stroke-linejoin:miter;stroke:rgb(80%,80%,80%);stroke-opacity:1;stroke-miterlimit:10;" d="M -9.999999 6 L 9.999999 6 " transform="matrix(0.000000000000081643,-1333.333333,-1333.333333,-0.000000000000081643,400,400)"/>
<path style="fill:none;stroke-width:0.005;stroke-linecap:butt;stroke-linejoin:miter;stroke:rgb(80%,80%,80%);stroke-opacity:1;stroke-miterlimit:10;" d="M -9.999999 6.999999 L 9.999999 6.999999 " transform="matrix(0.000000000000081643,-1333.333333,-1333.333333,-0.000000000000081643,400,400)"/>
<path style="fill:none;stroke-width:0.005;stroke-linecap:butt;stroke-linejoin:miter;stroke:rgb(80%,80%,80%);stroke-opacity:1;stroke-miterlimit:10;" d="M -9.999999 8.000001 L 9.999999 8.000001 " transform="matrix(0.000000000000081643,-1333.333333,-1333.333333,-0.000000000000081643,400,400)"/>
<path style="fill:none;stroke-width:0.005;stroke-linecap:butt;stroke-linejoin:miter;stroke:rgb(80%,80%,80%);stroke-opacity:1;stroke-miterlimit:10;" d="M -9.999999 9 L 9.999999 9 " transform="matrix(0.000000000000081643,-1333.333333,-1333.333333,-0.000000000000081643,400,400)"/>
<path style="fill:none;stroke-width:0.005;stroke-linecap:butt;stroke-linejoin:miter;stroke:rgb(80%,80%,80%);stroke-opacity:1;stroke-miterlimit:10;" d="M -9.999999 9.999999 L 9.999999 9.999999 " transform="matrix(0.000000000000081643,-1333.333333,-1333.333333,-0.000000000000081643,400,400)"/>
<path style=" stroke:none;fill-rule:nonzero;fill:rgb(100%,70%,70%);fill-opacity:1;" d="M 400 133.332031 C 252.722656 133.332031 133.332031 252.722656 133.332031 400 C 133.332031 547.277344 252.722656 666.667969 400 666.667969 C 547.277344 666.667969 666.667969 547.277344 666.667969 400 C 666.667969 252.722656 547.277344 133.332031 400 133.332031 "/>
<path style=" stroke:none;fill-rule:nonzero;fill:rgb(100%,70%,70%);fill-opacity:1;" d="M 400 133.332031 C 252.722656 133.332031 133.332031 252.722656 133.332031 400 C 133.332031 547.277344 252.722656 666.667969 400 666.667969 C 547.277344 666.667969 666.667969 547.277344 666.667969 400 C 666.667969 252.722656 547.277344 133.332031 400 133.332031 "/>
<path style="fill-rule:nonzero;fill:rgb(80%,80%,80%);fill-opacity:1;stroke-width:0.01;stroke-linecap:butt;stroke-linejoin:miter;stroke:rgb(0%,0%,0%);stroke-opacity:1;stroke-miterlimit:10;" d="M 1.000005 0 C 1.000005 0.55229 0.55229 1.000005 0 1.000005 C -0.55229 1.000005 -1.000005 0.55229 -1.000005 -0.000000000000000222 C -1.000005 -0.55229 -0.55229 -1.000005 0.000000000000000222 -1.000005 C 0.55229 -1.000005 1.000005 -0.55229 1.000005 0 " transform="matrix(0.000000000000016329,-266.666667,-266.666667,-0.000000000000016329,400,400)"/>
<path style="fill:none;stroke-width:0.01;stroke-linecap:butt;stroke-linejoin:miter;stroke:rgb(0%,0%,0%);stroke-opacity:1;stroke-miterlimit:10;" d="M 0.199995 0 L 1.000005 0 " transform="matrix(0.000000000000016329,-266.666667,-266.666667,-0.000000000000016329,400,400)"/>
<path style="fill-rule:nonzero;fill:rgb(100%,100%,100%);fill-opacity:1;stroke-width:0.05;stroke-linecap:butt;stroke-linejoin:miter;stroke:rgb(0%,0%,0%);stroke-opacity:1;stroke-miterlimit:10;" d="M 0.999976 0 C 0.999976 0.552319 0.552319 0.999976 0 0.999976 C -0.552319 0.999976 -0.999976 0.552319 -0.999976 -0.000000000000000888 C -0.999976 -0.552319 -0.552319 -0.999976 0.000000000000000888 -0.999976 C 0.552319 -0.999976 0.999976 -0.552319 0.999976 0 " transform="matrix(0.000000000000003266,-53.333333,-53.333333,-0.000000000000003266,400,400)"/>
<path style=" stroke:none;fill-rule:nonzero;fill:rgb(60%,30%,0%);fill-opacity:1;" d="M 400 346.667969 C 385.273438 346.667969 373.332031 358.605469 373.332031 373.332031 C 373.332031 388.0625 385.273438 400 400 400 C 414.726562 400 426.667969 388.0625 426.667969 373.332031 C 426.667969 358.605469 414.726562 346.667969 400 346.667969 "/>
<path style=" stroke:none;fill-rule:nonzero;fill:rgb(0%,0%,0%);fill-opacity:1;" d="M 400 356.265625 C 393.519531 356.265625 388.265625 361.519531 388.265625 368 C 388.265625 374.480469 393.519531 379.734375 400 379.734375 C 406.480469 379.734375 411.734375 374.480469 411.734375 368 C 411.734375 361.519531 406.480469 356.265625 400 356.265625 "/>
</g>
</svg>
