<?xml version="1.0" encoding="UTF-8"?>
<svg xmlns="http://www.w3.org/2000/svg" xmlns:xlink="http://www.w3.org/1999/xlink" width="800pt" height="800pt" viewBox="0 0 800 800" version="1.1">
<g id="surface117">
<rect x="0" y="0" width="800" height="800" style="fill:rgb(100%,100%,100%);fill-opacity:1;stroke:none;"/>
<path style="fill:none;stroke-width:0.005;stroke-linecap:butt;stroke-linejoin:miter;stroke:rgb(80%,80%,80%);stroke-opacity:1;stroke-miterlimit:10;" d="M -9.999998 -9.999998 L -9.999998 9.999998 " transform="matrix(533.333333,0,0,-533.333333,400,400)"/>
<path style="fill:none;stroke-width:0.005;stroke-linecap:butt;stroke-linejoin:miter;stroke:rgb(80%,80%,80%);stroke-opacity:1;stroke-miterlimit:10;" d="M -9 -9.999998 L -9 9.999998 " transform="matrix(533.333333,0,0,-533.333333,400,400)"/>
<path style="fill:none;stroke-width:0.005;stroke-linecap:butt;stroke-linejoin:miter;stroke:rgb(80%,80%,80%);stroke-opacity:1;stroke-miterlimit:10;" d="M -8.000002 -9.999998 L -8.000002 9.999998 " transform="matrix(533.333333,0,0,-533.333333,400,400)"/>
<path style="fill:none;stroke-width:0.005;stroke-linecap:butt;stroke-linejoin:miter;stroke:rgb(80%,80%,80%);stroke-opacity:1;stroke-miterlimit:10;" d="M -6.999998 -9.999998 L -6.999998 9.999998 " transform="matrix(533.333333,0,0,-533.333333,400,400)"/>
<path style="fill:none;stroke-width:0.005;stroke-linecap:butt;stroke-linejoin:miter;stroke:rgb(80%,80%,80%);stroke-opacity:1;stroke-miterlimit:10;" d="M -6 -9.999998 L -6 9.999998 " transform="matrix(533.333333,0,0,-533.333333,400,400)"/>
<path style="fill:none;stroke-width:0.005;stroke-linecap:butt;stroke-linejoin:miter;stroke:rgb(80%,80%,80%);stroke-opacity:1;stroke-miterlimit:10;" d="M -5.000002 -9.999998 L -5.000002 9.999998 " transform="matrix(533.333333,0,0,-533.333333,400,400)"/>
<path style="fill:none;stroke-width:0.005;stroke-linecap:butt;stroke-linejoin:miter;stroke:rgb(80%,80%,80%);stroke-opacity:1;stroke-miterlimit:10;" d="M -3.999998 -9.999998 L -3.999998 9.999998 " transform="matrix(533.333333,0,0,-533.333333,400,400)"/>
<path style="fill:none;stroke-width:0.005;stroke-linecap:butt;stroke-linejoin:miter;stroke:rgb(80%,80%,80%);stroke-opacity:1;stroke-miterlimit:10;" d="M -3 -9.999998 L -3 9.999998 " transform="matrix(533.333333,0,0,-533.333333,400,400)"/>
<path style="fill:none;stroke-width:0.005;stroke-linecap:butt;stroke-linejoin:miter;stroke:rgb(80%,80%,80%);stroke-opacity:1;stroke-miterlimit:10;" d="M -2.000002 -9.999998 L -2.000002 9.999998 " transform="matrix(533.333333,0,0,-533.333333,400,400)"/>
<path style="fill:none;stroke-width:0.005;stroke-linecap:butt;stroke-linejoin:miter;stroke:rgb(80%,80%,80%);stroke-opacity:1;stroke-miterlimit:10;" d="M -0.999998 -9.999998 L -0.999998 9.999998 " transform="matrix(533.333333,0,0,-533.333333,400,400)"/>
<path style="fill:none;stroke-width:0.005;stroke-linecap:butt;stroke-linejoin:miter;stroke:rgb(80%,80%,80%);stroke-opacity:1;stroke-miterlimit:10;" d="M 0 -9.999998 L 0 9.999998 " transform="matrix(533.333333,0,0,-533.333333,400,400)"/>
<path style="fill:none;stroke-width:0.005;stroke-linecap:butt;stroke-linejoin:miter;stroke:rgb(80%,80%,80%);stroke-opacity:1;stroke-miterlimit:10;" d="M 0.999998 -9.999998 L 0.999998 9.999998 " transform="matrix(533.333333,0,0,-533.333333,400,400)"/>
<path style="fill:none;stroke-width:0.005;stroke-linecap:butt;stroke-linejoin:miter;stroke:rgb(80%,80%,80%);stroke-opacity:1;stroke-miterlimit:10;" d="M 2.000002 -9.999998 L 2.000002 9.999998 " transform="matrix(533.333333,0,0,-533.333333,400,400)"/>
<path style="fill:none;stroke-width:0.005;stroke-linecap:butt;stroke-linejoin:miter;stroke:rgb(80%,80%,80%);stroke-opacity:1;stroke-miterlimit:10;" d="M 3 -9.999998 L 3 9.999998 " transform="matrix(533.333333,0,0,-533.333333,400,400)"/>
<path style="fill:none;stroke-width:0.005;stroke-linecap:butt;stroke-linejoin:miter;stroke:rgb(80%,80%,80%);stroke-opacity:1;stroke-miterlimit:10;" d="M 3.999998 -9.999998 L 3.999998 9.999998 " transform="matrix(533.333333,0,0,-533.333333,400,400)"/>
<path style="fill:none;stroke-width:0.005;stroke-linecap:butt;stroke-linejoin:miter;stroke:rgb(80%,80%,80%);stroke-opacity:1;stroke-miterlimit:10;" d="M 5.000002 -9.999998 L 5.000002 9.999998 " transform="matrix(533.333333,0,0,-533.333333,400,400)"/>
<path style="fill:none;stroke-width:0.005;stroke-linecap:butt;stroke-linejoin:miter;stroke:rgb(80%,80%,80%);stroke-opacity:1;stroke-miterlimit:10;" d="M 6 -9.999998 L 6 9.999998 " transform="matrix(533.333333,0,0,-533.333333,400,400)"/>
<path style="fill:none;stroke-width:0.005;stroke-linecap:butt;stroke-linejoin:miter;stroke:rgb(80%,80%,80%);stroke-opacity:1;stroke-miterlimit:10;" d="M 6.999998 -9.999998 L 6.999998 9.999998 " transform="matrix(533.333333,0,0,-533.333333,400,400)"/>
<path style="fill:none;stroke-width:0.005;stroke-linecap:butt;stroke-linejoin:miter;stroke:rgb(80%,80%,80%);stroke-opacity:1;stroke-miterlimit:10;" d="M 8.000002 -9.999998 L 8.000002 9.999998 " transform="matrix(533.333333,0,0,-533.333333,400,400)"/>
<path style="fill:none;stroke-width:0.005;stroke-linecap:butt;stroke-linejoin:miter;stroke:rgb(80%,80%,80%);stroke-opacity:1;stroke-miterlimit:10;" d="M 9 -9.999998 L 9 9.999998 " transform="matrix(533.333333,0,0,-533.333333,400,400)"/>
<path style="fill:none;stroke-width:0.005;stroke-linecap:butt;stroke-linejoin:miter;stroke:rgb(80%,80%,80%);stroke-opacity:1;stroke-miterlimit:10;" d="M 9.999998 -9.999998 L 9.999998 9.999998 " transform="matrix(533.333333,0,0,-533.333333,400,400)"/>
<path style="fill:none;stroke-width:0.005;stroke-linecap:butt;stroke-linejoin:miter;stroke:rgb(80%,80%,80%);stroke-opacity:1;stroke-miterlimit:10;" d="M -9.999998 -9.999998 L 9.999998 -9.999998 " transform="matrix(533.333333,0,0,-533.333333,400,400)"/>
<path style="fill:none;stroke-width:0.005;stroke-linecap:butt;stroke-linejoin:miter;stroke:rgb(80%,80%,80%);stroke-opacity:1;stroke-miterlimit:10;" d="M -9.999998 -9 L 9.999998 -9 " transform="matrix(533.333333,0,0,-533.333333,400,400)"/>
<path style="fill:none;stroke-width:0.005;stroke-linecap:butt;stroke-linejoin:miter;stroke:rgb(80%,80%,80%);stroke-opacity:1;stroke-miterlimit:10;" d="M -9.999998 -8.000002 L 9.999998 -8.000002 " transform="matrix(533.333333,0,0,-533.333333,400,400)"/>
<path style="fill:none;stroke-width:0.005;stroke-linecap:butt;stroke-linejoin:miter;stroke:rgb(80%,80%,80%);stroke-opacity:1;stroke-miterlimit:10;" d="M -9.999998 -6.999998 L 9.999998 -6.999998 " transform="matrix(533.333333,0,0,-533.333333,400,400)"/>
<path style="fill:none;stroke-width:0.005;stroke-linecap:butt;stroke-linejoin:miter;stroke:rgb(80%,80%,80%);stroke-opacity:1;stroke-miterlimit:10;" d="M -9.999998 -6 L 9.999998 -6 " transform="matrix(533.333333,0,0,-533.333333,400,400)"/>
<path style="fill:none;stroke-width:0.005;stroke-linecap:butt;stroke-linejoin:miter;stroke:rgb(80%,80%,80%);stroke-opacity:1;stroke-miterlimit:10;" d="M -9.999998 -5.000002 L 9.999998 -5.000002 " transform="matrix(533.333333,0,0,-533.333333,400,400)"/>
<path style="fill:none;stroke-width:0.005;stroke-linecap:butt;stroke-linejoin:miter;stroke:rgb(80%,80%,80%);stroke-opacity:1;stroke-miterlimit:10;" d="M -9.999998 -3.999998 L 9.999998 -3.999998 " transform="matrix(533.333333,0,0,-533.333333,400,400)"/>
<path style="fill:none;stroke-width:0.005;stroke-linecap:butt;stroke-linejoin:miter;stroke:rgb(80%,80%,80%);stroke-opacity:1;stroke-miterlimit:10;" d="M -9.999998 -3 L 9.999998 -3 " transform="matrix(533.333333,0,0,-533.333333,400,400)"/>
<path style="fill:none;stroke-width:0.005;stroke-linecap:butt;stroke-linejoin:miter;stroke:rgb(80%,80%,80%);stroke-opacity:1;stroke-miterlimit:10;" d="M -9.999998 -2.000002 L 9.999998 -2.000002 " transform="matrix(533.333333,0,0,-533.333333,400,400)"/>
<path style="fill:none;stroke-width:0.005;stroke-linecap:butt;stroke-linejoin:miter;stroke:rgb(80%,80%,80%);stroke-opacity:1;stroke-miterlimit:10;" d="M -9.999998 -0.999998 L 9.999998 -0.999998 " transform="matrix(533.333333,0,0,-533.333333,400,400)"/>
<path style="fill:none;stroke-width:0.005;stroke-linecap:butt;stroke-linejoin:miter;stroke:rgb(80%,80%,80%);stroke-opacity:1;stroke-miterlimit:10;" d="M -9.999998 0 L 9.999998 0 " transform="matrix(533.333333,0,0,-533.333333,400,400)"/>
<path style="fill:none;stroke-width:0.005;stroke-linecap:butt;stroke-linejoin:miter;stroke:rgb(80%,80%,80%);stroke-opacity:1;stroke-miterlimit:10;" d="M -9.999998 0.999998 L 9.999998 0.999998 " transform="matrix(533.333333,0,0,-533.333333,400,400)"/>
<path style="fill:none;stroke-width:0.005;stroke-linecap:butt;stroke-linejoin:miter;stroke:rgb(80%,80%,80%);stroke-opacity:1;stroke-miterlimit:10;" d="M -9.999998 2.000002 L 9.999998 2.000002 " transform="matrix(533.333333,0,0,-533.333333,400,400)"/>
<path style="fill:none;stroke-width:0.005;stroke-linecap:butt;stroke-linejoin:miter;stroke:rgb(80%,80%,80%);stroke-opacity:1;stroke-miterlimit:10;" d="M -9.999998 3 L 9.999998 3 " transform="matrix(533.333333,0,0,-533.333333,400,400)"/>
<path style="fill:none;stroke-width:0.005;stroke-linecap:butt;stroke-linejoin:miter;stroke:rgb(80%,80%,80%);stroke-opacity:1;stroke-miterlimit:10;" d="M -9.999998 3.999998 L 9.999998 3.999998 " transform="matrix(533.333333,0,0,-533.333333,400,400)"/>
<path style="fill:none;stroke-width:0.005;stroke-linecap:butt;stroke-linejoin:miter;stroke:rgb(80%,80%,80%);stroke-opacity:1;stroke-miterlimit:10;" d="M -9.999998 5.000002 L 9.999998 5.000002 " transform="matrix(533.333333,0,0,-533.333333,400,400)"/>
<path style="fill:none;stroke-width:0.005;stroke-linecap:butt;stroke-linejoin:miter;stroke:rgb(80%,80%,80%);stroke-opacity:1;stroke-miterlimit:10;" d="M -9.999998 6 L 9.999998 6 " transform="matrix(533.333333,0,0,-533.333333,400,400)"/>
<path style="fill:none;stroke-width:0.005;stroke-linecap:butt;stroke-linejoin:miter;stroke:rgb(80%,80%,80%);stroke-opacity:1;stroke-miterlimit:10;" d="M -9.999998 6.999998 L 9.999998 6.999998 " transform="matrix(533.333333,0,0,-533.333333,400,400)"/>
<path style="fill:none;stroke-width:0.005;stroke-linecap:butt;stroke-linejoin:miter;stroke:rgb(80%,80%,80%);stroke-opacity:1;stroke-miterlimit:10;" d="M -9.999998 8.000002 L 9.999998 8.000002 " transform="matrix(533.333333,0,0,-533.333333,400,400)"/>
<path style="fill:none;stroke-width:0.005;stroke-linecap:butt;stroke-linejoin:miter;stroke:rgb(80%,80%,80%);stroke-opacity:1;stroke-miterlimit:10;" d="M -9.999998 9 L 9.999998 9 " transform="matrix(533.333333,0,0,-533.333333,400,400)"/>
<path style="fill:none;stroke-width:0.005;stroke-linecap:butt;stroke-linejoin:miter;stroke:rgb(80%,80%,80%);stroke-opacity:1;stroke-miterlimit:10;" d="M -9.999998 9.999998 L 9.999998 9.999998 " transform="matrix(533.333333,0,0,-533.333333,400,400)"/>
<path style=" stroke:none;fill-rule:nonzero;fill:rgb(100%,70%,70%);fill-opacity:1;" d="M 666.667969 400 C 666.667969 252.722656 547.277344 133.332031 400 133.332031 C 252.722656 133.332031 133.332031 252.722656 133.332031 400 C 133.332031 547.277344 252.722656 666.667969 400 666.667969 C 547.277344 666.667969 666.667969 547.277344 666.667969 400 "/>
<path style="fill-rule:nonzero;fill:rgb(30%,30%,100%);fill-opacity:1;stroke-width:0.01;stroke-linecap:butt;stroke-linejoin:miter;stroke:rgb(0%,0%,0%);stroke-opacity:1;stroke-miterlimit:10;" d="M 0.149995 -0.000000000000000222 C 0.149995 0.0828369 0.0828467 0.15 -0.00000488281 0.15 C -0.0828418 0.15 -0.150005 0.0828369 -0.150005 -0.000000000000000222 C -0.150005 -0.0828369 -0.0828418 -0.15 -0.00000488281 -0.15 C 0.0828467 -0.15 0.149995 -0.0828369 0.149995 -0.000000000000000222 " transform="matrix(266.666667,0,0,-266.666667,613.333333,400)"/>
<path style="fill-rule:nonzero;fill:rgb(30%,30%,100%);fill-opacity:1;stroke-width:0.01;stroke-linecap:butt;stroke-linejoin:miter;stroke:rgb(0%,0%,0%);stroke-opacity:1;stroke-miterlimit:10;" d="M 0.150007 0.00000154934 C 0.149998 0.0828374 0.0828361 0.149996 0.00000761898 0.15 C -0.0828409 0.149998 -0.149999 0.0828359 -0.150003 0.00000740674 C -0.150001 -0.0828411 -0.0828394 -0.15 0.00000908579 -0.149998 C 0.0828376 -0.150002 0.149996 -0.0828396 0.150007 0.00000154934 " transform="matrix(-133.333333,-230.940108,-230.940108,133.333333,293.333333,215.247914)"/>
<path style="fill-rule:nonzero;fill:rgb(30%,30%,100%);fill-opacity:1;stroke-width:0.01;stroke-linecap:butt;stroke-linejoin:miter;stroke:rgb(0%,0%,0%);stroke-opacity:1;stroke-miterlimit:10;" d="M 0.150007 -0.00000154934 C 0.149996 0.0828396 0.0828376 0.150002 0.00000908579 0.149998 C -0.0828394 0.15 -0.150001 0.0828411 -0.150003 -0.00000740674 C -0.149999 -0.0828359 -0.0828409 -0.149998 0.00000761898 -0.15 C 0.0828361 -0.149996 0.149998 -0.0828374 0.150007 -0.00000154934 " transform="matrix(-133.333333,230.940108,230.940108,133.333333,293.333333,584.752086)"/>
<path style="fill-rule:nonzero;fill:rgb(80%,80%,80%);fill-opacity:1;stroke-width:0.01;stroke-linecap:butt;stroke-linejoin:miter;stroke:rgb(0%,0%,0%);stroke-opacity:1;stroke-miterlimit:10;" d="M 1.000007 0 C 1.000007 0.552288 0.552288 1.000007 0 1.000007 C -0.552288 1.000007 -1.000007 0.552288 -1.000007 0 C -1.000007 -0.552288 -0.552288 -1.000007 0 -1.000007 C 0.552288 -1.000007 1.000007 -0.552288 1.000007 0 " transform="matrix(186.666667,0,0,-186.666667,400,400)"/>
<path style="fill:none;stroke-width:0.01;stroke-linecap:butt;stroke-linejoin:miter;stroke:rgb(0%,0%,0%);stroke-opacity:1;stroke-miterlimit:10;" d="M 0.199993 0 L 1.000007 0 " transform="matrix(186.666667,0,0,-186.666667,400,400)"/>
<path style=" stroke:none;fill-rule:nonzero;fill:rgb(100%,100%,100%);fill-opacity:1;" d="M 298.179688 390.191406 C 298.179688 375.464844 286.238281 363.527344 271.511719 363.527344 C 256.785156 363.527344 244.84375 375.464844 244.84375 390.191406 C 244.84375 404.917969 256.785156 416.859375 271.511719 416.859375 C 286.238281 416.859375 298.179688 404.917969 298.179688 390.191406 "/>
<path style=" stroke:none;fill-rule:nonzero;fill:rgb(100%,100%,100%);fill-opacity:1;" d="M 375.40625 443.167969 C 375.40625 428.4375 363.46875 416.5 348.738281 416.5 C 334.011719 416.5 322.074219 428.4375 322.074219 443.167969 C 322.074219 457.894531 334.011719 469.832031 348.738281 469.832031 C 363.46875 469.832031 375.40625 457.894531 375.40625 443.167969 "/>
<path style=" stroke:none;fill-rule:nonzero;fill:rgb(100%,100%,100%);fill-opacity:1;" d="M 395.605469 417.0625 C 395.605469 402.335938 383.664062 390.394531 368.9375 390.394531 C 354.210938 390.394531 342.269531 402.335938 342.269531 417.0625 C 342.269531 431.789062 354.210938 443.730469 368.9375 443.730469 C 383.664062 443.730469 395.605469 431.789062 395.605469 417.0625 "/>
<path style=" stroke:none;fill-rule:nonzero;fill:rgb(100%,100%,100%);fill-opacity:1;" d="M 444.148438 476.308594 C 444.148438 461.582031 432.210938 449.640625 417.484375 449.640625 C 402.753906 449.640625 390.816406 461.582031 390.816406 476.308594 C 390.816406 491.035156 402.753906 502.976562 417.484375 502.976562 C 432.210938 502.976562 444.148438 491.035156 444.148438 476.308594 "/>
<path style=" stroke:none;fill-rule:nonzero;fill:rgb(100%,100%,100%);fill-opacity:1;" d="M 396.964844 396.546875 C 396.964844 381.820312 385.023438 369.882812 370.296875 369.882812 C 355.570312 369.882812 343.628906 381.820312 343.628906 396.546875 C 343.628906 411.273438 355.570312 423.214844 370.296875 423.214844 C 385.023438 423.214844 396.964844 411.273438 396.964844 396.546875 "/>
<path style=" stroke:none;fill-rule:nonzero;fill:rgb(100%,100%,100%);fill-opacity:1;" d="M 536.308594 404.136719 C 536.308594 389.410156 524.371094 377.472656 509.644531 377.472656 C 494.914062 377.472656 482.976562 389.410156 482.976562 404.136719 C 482.976562 418.867188 494.914062 430.804688 509.644531 430.804688 C 524.371094 430.804688 536.308594 418.867188 536.308594 404.136719 "/>
<path style=" stroke:none;fill-rule:nonzero;fill:rgb(100%,100%,100%);fill-opacity:1;" d="M 544.832031 425.308594 C 544.832031 410.578125 532.890625 398.640625 518.164062 398.640625 C 503.4375 398.640625 491.5 410.578125 491.5 425.308594 C 491.5 440.035156 503.4375 451.972656 518.164062 451.972656 C 532.890625 451.972656 544.832031 440.035156 544.832031 425.308594 "/>
<path style=" stroke:none;fill-rule:nonzero;fill:rgb(100%,100%,100%);fill-opacity:1;" d="M 406.007812 433.074219 C 406.007812 418.347656 394.070312 406.40625 379.34375 406.40625 C 364.617188 406.40625 352.675781 418.347656 352.675781 433.074219 C 352.675781 447.800781 364.617188 459.742188 379.34375 459.742188 C 394.070312 459.742188 406.007812 447.800781 406.007812 433.074219 "/>
<path style=" stroke:none;fill-rule:nonzero;fill:rgb(100%,100%,100%);fill-opacity:1;" d="M 385.5625 337.054688 C 385.5625 322.328125 373.625 310.386719 358.894531 310.386719 C 344.167969 310.386719 332.230469 322.328125 332.230469 337.054688 C 332.230469 351.78125 344.167969 363.71875 358.894531 363.71875 C 373.625 363.71875 385.5625 351.78125 385.5625 337.054688 "/>
<path style=" stroke:none;fill-rule:nonzero;fill:rgb(100%,100%,100%);fill-opacity:1;" d="M 424.78125 440.589844 C 424.78125 425.863281 412.84375 413.921875 398.117188 413.921875 C 383.386719 413.921875 371.449219 425.863281 371.449219 440.589844 C 371.449219 455.316406 383.386719 467.257812 398.117188 467.257812 C 412.84375 467.257812 424.78125 455.316406 424.78125 440.589844 "/>
<path style=" stroke:none;fill-rule:nonzero;fill:rgb(100%,100%,100%);fill-opacity:1;" d="M 543.203125 363.582031 C 543.203125 348.855469 531.261719 336.917969 516.535156 336.917969 C 501.808594 336.917969 489.867188 348.855469 489.867188 363.582031 C 489.867188 378.308594 501.808594 390.25 516.535156 390.25 C 531.261719 390.25 543.203125 378.308594 543.203125 363.582031 "/>
<path style=" stroke:none;fill-rule:nonzero;fill:rgb(100%,100%,100%);fill-opacity:1;" d="M 360.976562 439.820312 C 360.976562 425.089844 349.035156 413.152344 334.308594 413.152344 C 319.582031 413.152344 307.640625 425.089844 307.640625 439.820312 C 307.640625 454.546875 319.582031 466.484375 334.308594 466.484375 C 349.035156 466.484375 360.976562 454.546875 360.976562 439.820312 "/>
<path style=" stroke:none;fill-rule:nonzero;fill:rgb(100%,100%,100%);fill-opacity:1;" d="M 399.085938 468.460938 C 399.085938 453.734375 387.148438 441.796875 372.417969 441.796875 C 357.691406 441.796875 345.753906 453.734375 345.753906 468.460938 C 345.753906 483.191406 357.691406 495.128906 372.417969 495.128906 C 387.148438 495.128906 399.085938 483.191406 399.085938 468.460938 "/>
<path style=" stroke:none;fill-rule:nonzero;fill:rgb(100%,100%,100%);fill-opacity:1;" d="M 326.546875 390.761719 C 326.546875 376.035156 314.609375 364.097656 299.882812 364.097656 C 285.152344 364.097656 273.214844 376.035156 273.214844 390.761719 C 273.214844 405.492188 285.152344 417.429688 299.882812 417.429688 C 314.609375 417.429688 326.546875 405.492188 326.546875 390.761719 "/>
<path style=" stroke:none;fill-rule:nonzero;fill:rgb(100%,100%,100%);fill-opacity:1;" d="M 352.027344 442.316406 C 352.027344 427.589844 340.085938 415.648438 325.359375 415.648438 C 310.632812 415.648438 298.695312 427.589844 298.695312 442.316406 C 298.695312 457.042969 310.632812 468.984375 325.359375 468.984375 C 340.085938 468.984375 352.027344 457.042969 352.027344 442.316406 "/>
<path style=" stroke:none;fill-rule:nonzero;fill:rgb(100%,100%,100%);fill-opacity:1;" d="M 506.898438 491.714844 C 506.898438 476.984375 494.957031 465.046875 480.230469 465.046875 C 465.503906 465.046875 453.5625 476.984375 453.5625 491.714844 C 453.5625 506.441406 465.503906 518.378906 480.230469 518.378906 C 494.957031 518.378906 506.898438 506.441406 506.898438 491.714844 "/>
<path style=" stroke:none;fill-rule:nonzero;fill:rgb(100%,100%,100%);fill-opacity:1;" d="M 461.15625 496.042969 C 461.15625 481.316406 449.214844 469.378906 434.488281 469.378906 C 419.761719 469.378906 407.820312 481.316406 407.820312 496.042969 C 407.820312 510.769531 419.761719 522.710938 434.488281 522.710938 C 449.214844 522.710938 461.15625 510.769531 461.15625 496.042969 "/>
<path style=" stroke:none;fill-rule:nonzero;fill:rgb(100%,100%,100%);fill-opacity:1;" d="M 427.328125 276.09375 C 427.328125 261.367188 415.386719 249.425781 400.660156 249.425781 C 385.933594 249.425781 373.996094 261.367188 373.996094 276.09375 C 373.996094 290.820312 385.933594 302.761719 400.660156 302.761719 C 415.386719 302.761719 427.328125 290.820312 427.328125 276.09375 "/>
<path style=" stroke:none;fill-rule:nonzero;fill:rgb(100%,100%,100%);fill-opacity:1;" d="M 388.609375 466.617188 C 388.609375 451.890625 376.667969 439.953125 361.941406 439.953125 C 347.214844 439.953125 335.273438 451.890625 335.273438 466.617188 C 335.273438 481.347656 347.214844 493.285156 361.941406 493.285156 C 376.667969 493.285156 388.609375 481.347656 388.609375 466.617188 "/>
<path style=" stroke:none;fill-rule:nonzero;fill:rgb(100%,100%,100%);fill-opacity:1;" d="M 539.460938 369.316406 C 539.460938 354.589844 527.519531 342.648438 512.792969 342.648438 C 498.066406 342.648438 486.128906 354.589844 486.128906 369.316406 C 486.128906 384.042969 498.066406 395.984375 512.792969 395.984375 C 527.519531 395.984375 539.460938 384.042969 539.460938 369.316406 "/>
<path style=" stroke:none;fill-rule:nonzero;fill:rgb(100%,100%,100%);fill-opacity:1;" d="M 458.058594 392.421875 C 458.058594 377.695312 446.117188 365.753906 431.390625 365.753906 C 416.664062 365.753906 404.722656 377.695312 404.722656 392.421875 C 404.722656 407.148438 416.664062 419.089844 431.390625 419.089844 C 446.117188 419.089844 458.058594 407.148438 458.058594 392.421875 "/>
<path style=" stroke:none;fill-rule:nonzero;fill:rgb(100%,100%,100%);fill-opacity:1;" d="M 421.457031 312.304688 C 421.457031 297.578125 409.515625 285.636719 394.789062 285.636719 C 380.0625 285.636719 368.125 297.578125 368.125 312.304688 C 368.125 327.03125 380.0625 338.96875 394.789062 338.96875 C 409.515625 338.96875 421.457031 327.03125 421.457031 312.304688 "/>
<path style=" stroke:none;fill-rule:nonzero;fill:rgb(100%,100%,100%);fill-opacity:1;" d="M 407.460938 286.195312 C 407.460938 271.46875 395.519531 259.53125 380.792969 259.53125 C 366.066406 259.53125 354.125 271.46875 354.125 286.195312 C 354.125 300.925781 366.066406 312.863281 380.792969 312.863281 C 395.519531 312.863281 407.460938 300.925781 407.460938 286.195312 "/>
<path style=" stroke:none;fill-rule:nonzero;fill:rgb(100%,100%,100%);fill-opacity:1;" d="M 529.140625 408.554688 C 529.140625 393.824219 517.199219 381.886719 502.472656 381.886719 C 487.746094 381.886719 475.804688 393.824219 475.804688 408.554688 C 475.804688 423.28125 487.746094 435.21875 502.472656 435.21875 C 517.199219 435.21875 529.140625 423.28125 529.140625 408.554688 "/>
<path style=" stroke:none;fill-rule:nonzero;fill:rgb(100%,100%,100%);fill-opacity:1;" d="M 478.058594 467.390625 C 478.058594 452.660156 466.121094 440.722656 451.390625 440.722656 C 436.664062 440.722656 424.726562 452.660156 424.726562 467.390625 C 424.726562 482.117188 436.664062 494.054688 451.390625 494.054688 C 466.121094 494.054688 478.058594 482.117188 478.058594 467.390625 "/>
<path style=" stroke:none;fill-rule:nonzero;fill:rgb(100%,100%,100%);fill-opacity:1;" d="M 446.898438 450.640625 C 446.898438 435.914062 434.960938 423.976562 420.234375 423.976562 C 405.503906 423.976562 393.566406 435.914062 393.566406 450.640625 C 393.566406 465.371094 405.503906 477.308594 420.234375 477.308594 C 434.960938 477.308594 446.898438 465.371094 446.898438 450.640625 "/>
<path style=" stroke:none;fill-rule:nonzero;fill:rgb(100%,100%,100%);fill-opacity:1;" d="M 433.578125 361.304688 C 433.578125 346.578125 421.640625 334.640625 406.914062 334.640625 C 392.183594 334.640625 380.246094 346.578125 380.246094 361.304688 C 380.246094 376.035156 392.183594 387.972656 406.914062 387.972656 C 421.640625 387.972656 433.578125 376.035156 433.578125 361.304688 "/>
<path style=" stroke:none;fill-rule:nonzero;fill:rgb(100%,100%,100%);fill-opacity:1;" d="M 360.828125 495.53125 C 360.828125 480.804688 348.886719 468.863281 334.160156 468.863281 C 319.433594 468.863281 307.492188 480.804688 307.492188 495.53125 C 307.492188 510.257812 319.433594 522.199219 334.160156 522.199219 C 348.886719 522.199219 360.828125 510.257812 360.828125 495.53125 "/>
<path style=" stroke:none;fill-rule:nonzero;fill:rgb(100%,100%,100%);fill-opacity:1;" d="M 445.125 490.4375 C 445.125 475.710938 433.183594 463.773438 418.457031 463.773438 C 403.730469 463.773438 391.789062 475.710938 391.789062 490.4375 C 391.789062 505.167969 403.730469 517.105469 418.457031 517.105469 C 433.183594 517.105469 445.125 505.167969 445.125 490.4375 "/>
<path style=" stroke:none;fill-rule:nonzero;fill:rgb(100%,100%,100%);fill-opacity:1;" d="M 413.882812 293.671875 C 413.882812 278.941406 401.945312 267.003906 387.21875 267.003906 C 372.488281 267.003906 360.550781 278.941406 360.550781 293.671875 C 360.550781 308.398438 372.488281 320.335938 387.21875 320.335938 C 401.945312 320.335938 413.882812 308.398438 413.882812 293.671875 "/>
<path style=" stroke:none;fill-rule:nonzero;fill:rgb(100%,100%,100%);fill-opacity:1;" d="M 470.277344 443.855469 C 470.277344 429.128906 458.339844 417.191406 443.613281 417.191406 C 428.886719 417.191406 416.945312 429.128906 416.945312 443.855469 C 416.945312 458.585938 428.886719 470.523438 443.613281 470.523438 C 458.339844 470.523438 470.277344 458.585938 470.277344 443.855469 "/>
<path style=" stroke:none;fill-rule:nonzero;fill:rgb(100%,100%,100%);fill-opacity:1;" d="M 471.578125 497.554688 C 471.578125 482.828125 459.640625 470.890625 444.914062 470.890625 C 430.1875 470.890625 418.246094 482.828125 418.246094 497.554688 C 418.246094 512.285156 430.1875 524.222656 444.914062 524.222656 C 459.640625 524.222656 471.578125 512.285156 471.578125 497.554688 "/>
<path style=" stroke:none;fill-rule:nonzero;fill:rgb(100%,100%,100%);fill-opacity:1;" d="M 529.007812 462.679688 C 529.007812 447.953125 517.070312 436.011719 502.34375 436.011719 C 487.613281 436.011719 475.675781 447.953125 475.675781 462.679688 C 475.675781 477.40625 487.613281 489.347656 502.34375 489.347656 C 517.070312 489.347656 529.007812 477.40625 529.007812 462.679688 "/>
<path style=" stroke:none;fill-rule:nonzero;fill:rgb(100%,100%,100%);fill-opacity:1;" d="M 391.042969 348.324219 C 391.042969 333.59375 379.105469 321.65625 364.375 321.65625 C 349.648438 321.65625 337.710938 333.59375 337.710938 348.324219 C 337.710938 363.050781 349.648438 374.988281 364.375 374.988281 C 379.105469 374.988281 391.042969 363.050781 391.042969 348.324219 "/>
<path style=" stroke:none;fill-rule:nonzero;fill:rgb(100%,100%,100%);fill-opacity:1;" d="M 401.28125 434.394531 C 401.28125 419.667969 389.339844 407.726562 374.613281 407.726562 C 359.886719 407.726562 347.945312 419.667969 347.945312 434.394531 C 347.945312 449.121094 359.886719 461.0625 374.613281 461.0625 C 389.339844 461.0625 401.28125 449.121094 401.28125 434.394531 "/>
<path style=" stroke:none;fill-rule:nonzero;fill:rgb(100%,100%,100%);fill-opacity:1;" d="M 447.691406 409.210938 C 447.691406 394.484375 435.753906 382.546875 421.027344 382.546875 C 406.296875 382.546875 394.359375 394.484375 394.359375 409.210938 C 394.359375 423.941406 406.296875 435.878906 421.027344 435.878906 C 435.753906 435.878906 447.691406 423.941406 447.691406 409.210938 "/>
<path style=" stroke:none;fill-rule:nonzero;fill:rgb(100%,100%,100%);fill-opacity:1;" d="M 547.53125 394.828125 C 547.53125 380.101562 535.59375 368.160156 520.863281 368.160156 C 506.136719 368.160156 494.199219 380.101562 494.199219 394.828125 C 494.199219 409.554688 506.136719 421.496094 520.863281 421.496094 C 535.59375 421.496094 547.53125 409.554688 547.53125 394.828125 "/>
<path style=" stroke:none;fill-rule:nonzero;fill:rgb(100%,100%,100%);fill-opacity:1;" d="M 466.902344 522.5625 C 466.902344 507.835938 454.964844 495.894531 440.234375 495.894531 C 425.507812 495.894531 413.570312 507.835938 413.570312 522.5625 C 413.570312 537.289062 425.507812 549.230469 440.234375 549.230469 C 454.964844 549.230469 466.902344 537.289062 466.902344 522.5625 "/>
<path style=" stroke:none;fill-rule:nonzero;fill:rgb(100%,100%,100%);fill-opacity:1;" d="M 540.949219 379.132812 C 540.949219 364.402344 529.011719 352.464844 514.28125 352.464844 C 499.554688 352.464844 487.617188 364.402344 487.617188 379.132812 C 487.617188 393.859375 499.554688 405.796875 514.28125 405.796875 C 529.011719 405.796875 540.949219 393.859375 540.949219 379.132812 "/>
<path style=" stroke:none;fill-rule:nonzero;fill:rgb(100%,100%,100%);fill-opacity:1;" d="M 382.890625 337.882812 C 382.890625 323.15625 370.949219 311.21875 356.222656 311.21875 C 341.496094 311.21875 329.558594 323.15625 329.558594 337.882812 C 329.558594 352.613281 341.496094 364.550781 356.222656 364.550781 C 370.949219 364.550781 382.890625 352.613281 382.890625 337.882812 "/>
<path style=" stroke:none;fill-rule:nonzero;fill:rgb(100%,100%,100%);fill-opacity:1;" d="M 310.320312 388.429688 C 310.320312 373.703125 298.378906 361.761719 283.652344 361.761719 C 268.925781 361.761719 256.988281 373.703125 256.988281 388.429688 C 256.988281 403.15625 268.925781 415.097656 283.652344 415.097656 C 298.378906 415.097656 310.320312 403.15625 310.320312 388.429688 "/>
<path style=" stroke:none;fill-rule:nonzero;fill:rgb(100%,100%,100%);fill-opacity:1;" d="M 441.890625 424.105469 C 441.890625 409.378906 429.949219 397.441406 415.222656 397.441406 C 400.496094 397.441406 388.554688 409.378906 388.554688 424.105469 C 388.554688 438.835938 400.496094 450.773438 415.222656 450.773438 C 429.949219 450.773438 441.890625 438.835938 441.890625 424.105469 "/>
<path style=" stroke:none;fill-rule:nonzero;fill:rgb(100%,100%,100%);fill-opacity:1;" d="M 448.054688 291.359375 C 448.054688 276.632812 436.117188 264.695312 421.390625 264.695312 C 406.660156 264.695312 394.722656 276.632812 394.722656 291.359375 C 394.722656 306.089844 406.660156 318.027344 421.390625 318.027344 C 436.117188 318.027344 448.054688 306.089844 448.054688 291.359375 "/>
<path style=" stroke:none;fill-rule:nonzero;fill:rgb(100%,100%,100%);fill-opacity:1;" d="M 296.378906 399.171875 C 296.378906 384.445312 284.441406 372.503906 269.710938 372.503906 C 254.984375 372.503906 243.046875 384.445312 243.046875 399.171875 C 243.046875 413.898438 254.984375 425.839844 269.710938 425.839844 C 284.441406 425.839844 296.378906 413.898438 296.378906 399.171875 "/>
<path style=" stroke:none;fill-rule:nonzero;fill:rgb(100%,100%,100%);fill-opacity:1;" d="M 411.296875 519.207031 C 411.296875 504.476562 399.355469 492.539062 384.628906 492.539062 C 369.902344 492.539062 357.960938 504.476562 357.960938 519.207031 C 357.960938 533.933594 369.902344 545.871094 384.628906 545.871094 C 399.355469 545.871094 411.296875 533.933594 411.296875 519.207031 "/>
<path style=" stroke:none;fill-rule:nonzero;fill:rgb(100%,100%,100%);fill-opacity:1;" d="M 408.070312 433.839844 C 408.070312 419.113281 396.132812 407.171875 381.402344 407.171875 C 366.675781 407.171875 354.738281 419.113281 354.738281 433.839844 C 354.738281 448.566406 366.675781 460.507812 381.402344 460.507812 C 396.132812 460.507812 408.070312 448.566406 408.070312 433.839844 "/>
<path style=" stroke:none;fill-rule:nonzero;fill:rgb(100%,100%,100%);fill-opacity:1;" d="M 402.824219 427.921875 C 402.824219 413.195312 390.882812 401.257812 376.15625 401.257812 C 361.429688 401.257812 349.488281 413.195312 349.488281 427.921875 C 349.488281 442.652344 361.429688 454.589844 376.15625 454.589844 C 390.882812 454.589844 402.824219 442.652344 402.824219 427.921875 "/>
<path style=" stroke:none;fill-rule:nonzero;fill:rgb(100%,100%,100%);fill-opacity:1;" d="M 453.496094 270.167969 C 453.496094 255.4375 441.558594 243.5 426.832031 243.5 C 412.101562 243.5 400.164062 255.4375 400.164062 270.167969 C 400.164062 284.894531 412.101562 296.832031 426.832031 296.832031 C 441.558594 296.832031 453.496094 284.894531 453.496094 270.167969 "/>
<path style=" stroke:none;fill-rule:nonzero;fill:rgb(100%,100%,100%);fill-opacity:1;" d="M 413.046875 305.414062 C 413.046875 290.683594 401.105469 278.746094 386.378906 278.746094 C 371.652344 278.746094 359.710938 290.683594 359.710938 305.414062 C 359.710938 320.140625 371.652344 332.078125 386.378906 332.078125 C 401.105469 332.078125 413.046875 320.140625 413.046875 305.414062 "/>
<path style=" stroke:none;fill-rule:nonzero;fill:rgb(100%,100%,100%);fill-opacity:1;" d="M 393.15625 489.3125 C 393.15625 474.585938 381.214844 462.648438 366.488281 462.648438 C 351.761719 462.648438 339.820312 474.585938 339.820312 489.3125 C 339.820312 504.042969 351.761719 515.980469 366.488281 515.980469 C 381.214844 515.980469 393.15625 504.042969 393.15625 489.3125 "/>
<path style=" stroke:none;fill-rule:nonzero;fill:rgb(100%,100%,100%);fill-opacity:1;" d="M 390.335938 368.964844 C 390.335938 354.238281 378.398438 342.300781 363.671875 342.300781 C 348.941406 342.300781 337.003906 354.238281 337.003906 368.964844 C 337.003906 383.695312 348.941406 395.632812 363.671875 395.632812 C 378.398438 395.632812 390.335938 383.695312 390.335938 368.964844 "/>
<path style=" stroke:none;fill-rule:nonzero;fill:rgb(100%,100%,100%);fill-opacity:1;" d="M 529.792969 341.957031 C 529.792969 327.226562 517.851562 315.289062 503.125 315.289062 C 488.398438 315.289062 476.457031 327.226562 476.457031 341.957031 C 476.457031 356.683594 488.398438 368.621094 503.125 368.621094 C 517.851562 368.621094 529.792969 356.683594 529.792969 341.957031 "/>
<path style=" stroke:none;fill-rule:nonzero;fill:rgb(100%,100%,100%);fill-opacity:1;" d="M 407.035156 357.773438 C 407.035156 343.046875 395.097656 331.109375 380.371094 331.109375 C 365.640625 331.109375 353.703125 343.046875 353.703125 357.773438 C 353.703125 372.503906 365.640625 384.441406 380.371094 384.441406 C 395.097656 384.441406 407.035156 372.503906 407.035156 357.773438 "/>
<path style=" stroke:none;fill-rule:nonzero;fill:rgb(100%,100%,100%);fill-opacity:1;" d="M 552.761719 423.636719 C 552.761719 408.910156 540.824219 396.96875 526.09375 396.96875 C 511.367188 396.96875 499.429688 408.910156 499.429688 423.636719 C 499.429688 438.363281 511.367188 450.304688 526.09375 450.304688 C 540.824219 450.304688 552.761719 438.363281 552.761719 423.636719 "/>
<path style=" stroke:none;fill-rule:nonzero;fill:rgb(100%,100%,100%);fill-opacity:1;" d="M 510.308594 462.070312 C 510.308594 447.339844 498.371094 435.402344 483.644531 435.402344 C 468.914062 435.402344 456.976562 447.339844 456.976562 462.070312 C 456.976562 476.796875 468.914062 488.734375 483.644531 488.734375 C 498.371094 488.734375 510.308594 476.796875 510.308594 462.070312 "/>
<path style=" stroke:none;fill-rule:nonzero;fill:rgb(100%,100%,100%);fill-opacity:1;" d="M 548.078125 388.027344 C 548.078125 373.296875 536.140625 361.359375 521.410156 361.359375 C 506.683594 361.359375 494.746094 373.296875 494.746094 388.027344 C 494.746094 402.753906 506.683594 414.691406 521.410156 414.691406 C 536.140625 414.691406 548.078125 402.753906 548.078125 388.027344 "/>
<path style=" stroke:none;fill-rule:nonzero;fill:rgb(100%,100%,100%);fill-opacity:1;" d="M 484.519531 448.347656 C 484.519531 433.617188 472.578125 421.679688 457.851562 421.679688 C 443.125 421.679688 431.183594 433.617188 431.183594 448.347656 C 431.183594 463.074219 443.125 475.011719 457.851562 475.011719 C 472.578125 475.011719 484.519531 463.074219 484.519531 448.347656 "/>
<path style=" stroke:none;fill-rule:nonzero;fill:rgb(100%,100%,100%);fill-opacity:1;" d="M 385.851562 378.390625 C 385.851562 363.660156 373.910156 351.722656 359.183594 351.722656 C 344.457031 351.722656 332.515625 363.660156 332.515625 378.390625 C 332.515625 393.117188 344.457031 405.054688 359.183594 405.054688 C 373.910156 405.054688 385.851562 393.117188 385.851562 378.390625 "/>
<path style=" stroke:none;fill-rule:nonzero;fill:rgb(100%,100%,100%);fill-opacity:1;" d="M 320.859375 319.347656 C 320.859375 304.617188 308.917969 292.679688 294.191406 292.679688 C 279.464844 292.679688 267.523438 304.617188 267.523438 319.347656 C 267.523438 334.074219 279.464844 346.011719 294.191406 346.011719 C 308.917969 346.011719 320.859375 334.074219 320.859375 319.347656 "/>
<path style=" stroke:none;fill-rule:nonzero;fill:rgb(100%,100%,100%);fill-opacity:1;" d="M 449.542969 284.222656 C 449.542969 269.496094 437.601562 257.558594 422.875 257.558594 C 408.148438 257.558594 396.210938 269.496094 396.210938 284.222656 C 396.210938 298.949219 408.148438 310.890625 422.875 310.890625 C 437.601562 310.890625 449.542969 298.949219 449.542969 284.222656 "/>
<path style=" stroke:none;fill-rule:nonzero;fill:rgb(100%,100%,100%);fill-opacity:1;" d="M 328.398438 396.820312 C 328.398438 382.089844 316.457031 370.152344 301.730469 370.152344 C 287.003906 370.152344 275.0625 382.089844 275.0625 396.820312 C 275.0625 411.546875 287.003906 423.484375 301.730469 423.484375 C 316.457031 423.484375 328.398438 411.546875 328.398438 396.820312 "/>
<path style=" stroke:none;fill-rule:nonzero;fill:rgb(100%,100%,100%);fill-opacity:1;" d="M 373.589844 462.9375 C 373.589844 448.210938 361.652344 436.273438 346.921875 436.273438 C 332.195312 436.273438 320.257812 448.210938 320.257812 462.9375 C 320.257812 477.667969 332.195312 489.605469 346.921875 489.605469 C 361.652344 489.605469 373.589844 477.667969 373.589844 462.9375 "/>
<path style=" stroke:none;fill-rule:nonzero;fill:rgb(100%,100%,100%);fill-opacity:1;" d="M 491.746094 478.164062 C 491.746094 463.4375 479.808594 451.5 465.078125 451.5 C 450.351562 451.5 438.414062 463.4375 438.414062 478.164062 C 438.414062 492.894531 450.351562 504.832031 465.078125 504.832031 C 479.808594 504.832031 491.746094 492.894531 491.746094 478.164062 "/>
<path style=" stroke:none;fill-rule:nonzero;fill:rgb(100%,100%,100%);fill-opacity:1;" d="M 438.023438 528.6875 C 438.023438 513.957031 426.085938 502.019531 411.355469 502.019531 C 396.628906 502.019531 384.691406 513.957031 384.691406 528.6875 C 384.691406 543.414062 396.628906 555.351562 411.355469 555.351562 C 426.085938 555.351562 438.023438 543.414062 438.023438 528.6875 "/>
<path style=" stroke:none;fill-rule:nonzero;fill:rgb(100%,100%,100%);fill-opacity:1;" d="M 451.632812 412.152344 C 451.632812 397.425781 439.691406 385.488281 424.964844 385.488281 C 410.238281 385.488281 398.296875 397.425781 398.296875 412.152344 C 398.296875 426.878906 410.238281 438.820312 424.964844 438.820312 C 439.691406 438.820312 451.632812 426.878906 451.632812 412.152344 "/>
<path style=" stroke:none;fill-rule:nonzero;fill:rgb(100%,100%,100%);fill-opacity:1;" d="M 500.78125 426.832031 C 500.78125 412.105469 488.839844 400.164062 474.113281 400.164062 C 459.386719 400.164062 447.445312 412.105469 447.445312 426.832031 C 447.445312 441.558594 459.386719 453.5 474.113281 453.5 C 488.839844 453.5 500.78125 441.558594 500.78125 426.832031 "/>
<path style=" stroke:none;fill-rule:nonzero;fill:rgb(100%,100%,100%);fill-opacity:1;" d="M 446.324219 463.132812 C 446.324219 448.40625 434.386719 436.46875 419.660156 436.46875 C 404.929688 436.46875 392.992188 448.40625 392.992188 463.132812 C 392.992188 477.863281 404.929688 489.800781 419.660156 489.800781 C 434.386719 489.800781 446.324219 477.863281 446.324219 463.132812 "/>
<path style=" stroke:none;fill-rule:nonzero;fill:rgb(100%,100%,100%);fill-opacity:1;" d="M 472.710938 416.660156 C 472.710938 401.933594 460.773438 389.996094 446.042969 389.996094 C 431.316406 389.996094 419.378906 401.933594 419.378906 416.660156 C 419.378906 431.390625 431.316406 443.328125 446.042969 443.328125 C 460.773438 443.328125 472.710938 431.390625 472.710938 416.660156 "/>
<path style=" stroke:none;fill-rule:nonzero;fill:rgb(100%,100%,100%);fill-opacity:1;" d="M 364.363281 304.644531 C 364.363281 289.914062 352.421875 277.976562 337.695312 277.976562 C 322.96875 277.976562 311.027344 289.914062 311.027344 304.644531 C 311.027344 319.371094 322.96875 331.308594 337.695312 331.308594 C 352.421875 331.308594 364.363281 319.371094 364.363281 304.644531 "/>
<path style=" stroke:none;fill-rule:nonzero;fill:rgb(100%,100%,100%);fill-opacity:1;" d="M 403.710938 443.21875 C 403.710938 428.492188 391.773438 416.554688 377.046875 416.554688 C 362.316406 416.554688 350.378906 428.492188 350.378906 443.21875 C 350.378906 457.949219 362.316406 469.886719 377.046875 469.886719 C 391.773438 469.886719 403.710938 457.949219 403.710938 443.21875 "/>
<path style=" stroke:none;fill-rule:nonzero;fill:rgb(100%,100%,100%);fill-opacity:1;" d="M 434.953125 362.3125 C 434.953125 347.585938 423.015625 335.648438 408.289062 335.648438 C 393.558594 335.648438 381.621094 347.585938 381.621094 362.3125 C 381.621094 377.042969 393.558594 388.980469 408.289062 388.980469 C 423.015625 388.980469 434.953125 377.042969 434.953125 362.3125 "/>
<path style=" stroke:none;fill-rule:nonzero;fill:rgb(100%,100%,100%);fill-opacity:1;" d="M 536.9375 472.757812 C 536.9375 458.03125 525 446.089844 510.269531 446.089844 C 495.542969 446.089844 483.605469 458.03125 483.605469 472.757812 C 483.605469 487.484375 495.542969 499.425781 510.269531 499.425781 C 525 499.425781 536.9375 487.484375 536.9375 472.757812 "/>
<path style=" stroke:none;fill-rule:nonzero;fill:rgb(100%,100%,100%);fill-opacity:1;" d="M 457.238281 297.292969 C 457.238281 282.566406 445.300781 270.625 430.570312 270.625 C 415.84375 270.625 403.90625 282.566406 403.90625 297.292969 C 403.90625 312.019531 415.84375 323.960938 430.570312 323.960938 C 445.300781 323.960938 457.238281 312.019531 457.238281 297.292969 "/>
<path style=" stroke:none;fill-rule:nonzero;fill:rgb(100%,100%,100%);fill-opacity:1;" d="M 491.183594 322.050781 C 491.183594 307.324219 479.246094 295.386719 464.515625 295.386719 C 449.789062 295.386719 437.851562 307.324219 437.851562 322.050781 C 437.851562 336.78125 449.789062 348.71875 464.515625 348.71875 C 479.246094 348.71875 491.183594 336.78125 491.183594 322.050781 "/>
<path style=" stroke:none;fill-rule:nonzero;fill:rgb(100%,100%,100%);fill-opacity:1;" d="M 416.445312 395.753906 C 416.445312 381.027344 404.507812 369.085938 389.78125 369.085938 C 375.050781 369.085938 363.113281 381.027344 363.113281 395.753906 C 363.113281 410.480469 375.050781 422.421875 389.78125 422.421875 C 404.507812 422.421875 416.445312 410.480469 416.445312 395.753906 "/>
<path style=" stroke:none;fill-rule:nonzero;fill:rgb(100%,100%,100%);fill-opacity:1;" d="M 478.246094 521.585938 C 478.246094 506.859375 466.308594 494.921875 451.578125 494.921875 C 436.851562 494.921875 424.914062 506.859375 424.914062 521.585938 C 424.914062 536.316406 436.851562 548.253906 451.578125 548.253906 C 466.308594 548.253906 478.246094 536.316406 478.246094 521.585938 "/>
<path style=" stroke:none;fill-rule:nonzero;fill:rgb(100%,100%,100%);fill-opacity:1;" d="M 443.988281 368.90625 C 443.988281 354.179688 432.050781 342.242188 417.320312 342.242188 C 402.59375 342.242188 390.65625 354.179688 390.65625 368.90625 C 390.65625 383.636719 402.59375 395.574219 417.320312 395.574219 C 432.050781 395.574219 443.988281 383.636719 443.988281 368.90625 "/>
<path style=" stroke:none;fill-rule:nonzero;fill:rgb(100%,100%,100%);fill-opacity:1;" d="M 532.746094 449.410156 C 532.746094 434.679688 520.808594 422.742188 506.082031 422.742188 C 491.351562 422.742188 479.414062 434.679688 479.414062 449.410156 C 479.414062 464.136719 491.351562 476.074219 506.082031 476.074219 C 520.808594 476.074219 532.746094 464.136719 532.746094 449.410156 "/>
<path style=" stroke:none;fill-rule:nonzero;fill:rgb(100%,100%,100%);fill-opacity:1;" d="M 418.203125 518.542969 C 418.203125 503.816406 406.265625 491.875 391.539062 491.875 C 376.808594 491.875 364.871094 503.816406 364.871094 518.542969 C 364.871094 533.269531 376.808594 545.210938 391.539062 545.210938 C 406.265625 545.210938 418.203125 533.269531 418.203125 518.542969 "/>
<path style=" stroke:none;fill-rule:nonzero;fill:rgb(100%,100%,100%);fill-opacity:1;" d="M 373.882812 518.171875 C 373.882812 503.445312 361.941406 491.507812 347.214844 491.507812 C 332.488281 491.507812 320.546875 503.445312 320.546875 518.171875 C 320.546875 532.902344 332.488281 544.839844 347.214844 544.839844 C 361.941406 544.839844 373.882812 532.902344 373.882812 518.171875 "/>
<path style=" stroke:none;fill-rule:nonzero;fill:rgb(100%,100%,100%);fill-opacity:1;" d="M 452.742188 302.34375 C 452.742188 287.617188 440.804688 275.679688 426.074219 275.679688 C 411.347656 275.679688 399.410156 287.617188 399.410156 302.34375 C 399.410156 317.074219 411.347656 329.011719 426.074219 329.011719 C 440.804688 329.011719 452.742188 317.074219 452.742188 302.34375 "/>
<path style=" stroke:none;fill-rule:nonzero;fill:rgb(100%,100%,100%);fill-opacity:1;" d="M 324.894531 472.960938 C 324.894531 458.234375 312.957031 446.296875 298.226562 446.296875 C 283.5 446.296875 271.5625 458.234375 271.5625 472.960938 C 271.5625 487.6875 283.5 499.628906 298.226562 499.628906 C 312.957031 499.628906 324.894531 487.6875 324.894531 472.960938 "/>
<path style=" stroke:none;fill-rule:nonzero;fill:rgb(100%,100%,100%);fill-opacity:1;" d="M 439.015625 359.320312 C 439.015625 344.59375 427.074219 332.65625 412.347656 332.65625 C 397.621094 332.65625 385.683594 344.59375 385.683594 359.320312 C 385.683594 374.046875 397.621094 385.988281 412.347656 385.988281 C 427.074219 385.988281 439.015625 374.046875 439.015625 359.320312 "/>
<path style=" stroke:none;fill-rule:nonzero;fill:rgb(100%,100%,100%);fill-opacity:1;" d="M 392.929688 336.492188 C 392.929688 321.765625 380.992188 309.828125 366.261719 309.828125 C 351.535156 309.828125 339.597656 321.765625 339.597656 336.492188 C 339.597656 351.222656 351.535156 363.160156 366.261719 363.160156 C 380.992188 363.160156 392.929688 351.222656 392.929688 336.492188 "/>
<path style=" stroke:none;fill-rule:nonzero;fill:rgb(100%,100%,100%);fill-opacity:1;" d="M 459.742188 277.167969 C 459.742188 262.4375 447.804688 250.5 433.078125 250.5 C 418.347656 250.5 406.410156 262.4375 406.410156 277.167969 C 406.410156 291.894531 418.347656 303.832031 433.078125 303.832031 C 447.804688 303.832031 459.742188 291.894531 459.742188 277.167969 "/>
<path style=" stroke:none;fill-rule:nonzero;fill:rgb(100%,100%,100%);fill-opacity:1;" d="M 364.222656 326.285156 C 364.222656 311.558594 352.28125 299.617188 337.554688 299.617188 C 322.828125 299.617188 310.890625 311.558594 310.890625 326.285156 C 310.890625 341.011719 322.828125 352.953125 337.554688 352.953125 C 352.28125 352.953125 364.222656 341.011719 364.222656 326.285156 "/>
<path style=" stroke:none;fill-rule:nonzero;fill:rgb(100%,100%,100%);fill-opacity:1;" d="M 507.550781 341.457031 C 507.550781 326.730469 495.609375 314.792969 480.882812 314.792969 C 466.15625 314.792969 454.214844 326.730469 454.214844 341.457031 C 454.214844 356.1875 466.15625 368.125 480.882812 368.125 C 495.609375 368.125 507.550781 356.1875 507.550781 341.457031 "/>
<path style=" stroke:none;fill-rule:nonzero;fill:rgb(100%,100%,100%);fill-opacity:1;" d="M 316.039062 439.136719 C 316.039062 424.410156 304.101562 412.46875 289.375 412.46875 C 274.644531 412.46875 262.707031 424.410156 262.707031 439.136719 C 262.707031 453.863281 274.644531 465.804688 289.375 465.804688 C 304.101562 465.804688 316.039062 453.863281 316.039062 439.136719 "/>
<path style=" stroke:none;fill-rule:nonzero;fill:rgb(100%,100%,100%);fill-opacity:1;" d="M 374.351562 286.671875 C 374.351562 271.945312 362.410156 260.007812 347.683594 260.007812 C 332.957031 260.007812 321.015625 271.945312 321.015625 286.671875 C 321.015625 301.402344 332.957031 313.339844 347.683594 313.339844 C 362.410156 313.339844 374.351562 301.402344 374.351562 286.671875 "/>
<path style=" stroke:none;fill-rule:nonzero;fill:rgb(100%,100%,100%);fill-opacity:1;" d="M 431.671875 475.765625 C 431.671875 461.039062 419.734375 449.097656 405.007812 449.097656 C 390.277344 449.097656 378.339844 461.039062 378.339844 475.765625 C 378.339844 490.492188 390.277344 502.433594 405.007812 502.433594 C 419.734375 502.433594 431.671875 490.492188 431.671875 475.765625 "/>
<path style=" stroke:none;fill-rule:nonzero;fill:rgb(100%,100%,100%);fill-opacity:1;" d="M 475.585938 509.183594 C 475.585938 494.457031 463.648438 482.519531 448.917969 482.519531 C 434.191406 482.519531 422.253906 494.457031 422.253906 509.183594 C 422.253906 523.914062 434.191406 535.851562 448.917969 535.851562 C 463.648438 535.851562 475.585938 523.914062 475.585938 509.183594 "/>
<path style=" stroke:none;fill-rule:nonzero;fill:rgb(100%,100%,100%);fill-opacity:1;" d="M 457.867188 453.660156 C 457.867188 438.933594 445.929688 426.996094 431.203125 426.996094 C 416.472656 426.996094 404.535156 438.933594 404.535156 453.660156 C 404.535156 468.390625 416.472656 480.328125 431.203125 480.328125 C 445.929688 480.328125 457.867188 468.390625 457.867188 453.660156 "/>
<path style=" stroke:none;fill-rule:nonzero;fill:rgb(100%,100%,100%);fill-opacity:1;" d="M 324.597656 422.800781 C 324.597656 408.074219 312.660156 396.136719 297.933594 396.136719 C 283.207031 396.136719 271.265625 408.074219 271.265625 422.800781 C 271.265625 437.53125 283.207031 449.46875 297.933594 449.46875 C 312.660156 449.46875 324.597656 437.53125 324.597656 422.800781 "/>
<path style=" stroke:none;fill-rule:nonzero;fill:rgb(100%,100%,100%);fill-opacity:1;" d="M 356.117188 461.3125 C 356.117188 446.585938 344.175781 434.644531 329.449219 434.644531 C 314.722656 434.644531 302.78125 446.585938 302.78125 461.3125 C 302.78125 476.039062 314.722656 487.980469 329.449219 487.980469 C 344.175781 487.980469 356.117188 476.039062 356.117188 461.3125 "/>
<path style=" stroke:none;fill-rule:nonzero;fill:rgb(100%,100%,100%);fill-opacity:1;" d="M 537.667969 378.652344 C 537.667969 363.921875 525.726562 351.984375 511 351.984375 C 496.273438 351.984375 484.335938 363.921875 484.335938 378.652344 C 484.335938 393.378906 496.273438 405.316406 511 405.316406 C 525.726562 405.316406 537.667969 393.378906 537.667969 378.652344 "/>
<path style=" stroke:none;fill-rule:nonzero;fill:rgb(100%,100%,100%);fill-opacity:1;" d="M 410.144531 429.308594 C 410.144531 414.582031 398.207031 402.644531 383.480469 402.644531 C 368.75 402.644531 356.8125 414.582031 356.8125 429.308594 C 356.8125 444.035156 368.75 455.976562 383.480469 455.976562 C 398.207031 455.976562 410.144531 444.035156 410.144531 429.308594 "/>
<path style=" stroke:none;fill-rule:nonzero;fill:rgb(100%,100%,100%);fill-opacity:1;" d="M 359.96875 511.121094 C 359.96875 496.394531 348.03125 484.453125 333.304688 484.453125 C 318.574219 484.453125 306.636719 496.394531 306.636719 511.121094 C 306.636719 525.847656 318.574219 537.785156 333.304688 537.785156 C 348.03125 537.785156 359.96875 525.847656 359.96875 511.121094 "/>
<path style=" stroke:none;fill-rule:nonzero;fill:rgb(100%,100%,100%);fill-opacity:1;" d="M 389.140625 317.515625 C 389.140625 302.785156 377.203125 290.847656 362.472656 290.847656 C 347.746094 290.847656 335.808594 302.785156 335.808594 317.515625 C 335.808594 332.242188 347.746094 344.179688 362.472656 344.179688 C 377.203125 344.179688 389.140625 332.242188 389.140625 317.515625 "/>
<path style=" stroke:none;fill-rule:nonzero;fill:rgb(100%,100%,100%);fill-opacity:1;" d="M 465.261719 294.714844 C 465.261719 279.984375 453.324219 268.046875 438.597656 268.046875 C 423.867188 268.046875 411.929688 279.984375 411.929688 294.714844 C 411.929688 309.441406 423.867188 321.378906 438.597656 321.378906 C 453.324219 321.378906 465.261719 309.441406 465.261719 294.714844 "/>
<path style=" stroke:none;fill-rule:nonzero;fill:rgb(100%,100%,100%);fill-opacity:1;" d="M 426.9375 499.148438 C 426.9375 484.421875 415 472.484375 400.269531 472.484375 C 385.542969 472.484375 373.605469 484.421875 373.605469 499.148438 C 373.605469 513.878906 385.542969 525.816406 400.269531 525.816406 C 415 525.816406 426.9375 513.878906 426.9375 499.148438 "/>
<path style=" stroke:none;fill-rule:nonzero;fill:rgb(100%,100%,100%);fill-opacity:1;" d="M 334.910156 363.777344 C 334.910156 349.050781 322.972656 337.113281 308.246094 337.113281 C 293.519531 337.113281 281.578125 349.050781 281.578125 363.777344 C 281.578125 378.503906 293.519531 390.445312 308.246094 390.445312 C 322.972656 390.445312 334.910156 378.503906 334.910156 363.777344 "/>
<path style=" stroke:none;fill-rule:nonzero;fill:rgb(100%,100%,100%);fill-opacity:1;" d="M 434.425781 514.9375 C 434.425781 500.207031 422.488281 488.269531 407.757812 488.269531 C 393.03125 488.269531 381.09375 500.207031 381.09375 514.9375 C 381.09375 529.664062 393.03125 541.601562 407.757812 541.601562 C 422.488281 541.601562 434.425781 529.664062 434.425781 514.9375 "/>
<path style=" stroke:none;fill-rule:nonzero;fill:rgb(100%,100%,100%);fill-opacity:1;" d="M 302.457031 377.230469 C 302.457031 362.503906 290.515625 350.5625 275.789062 350.5625 C 261.0625 350.5625 249.121094 362.503906 249.121094 377.230469 C 249.121094 391.957031 261.0625 403.894531 275.789062 403.894531 C 290.515625 403.894531 302.457031 391.957031 302.457031 377.230469 "/>
<path style=" stroke:none;fill-rule:nonzero;fill:rgb(100%,100%,100%);fill-opacity:1;" d="M 320.597656 431.808594 C 320.597656 417.082031 308.65625 405.144531 293.929688 405.144531 C 279.203125 405.144531 267.261719 417.082031 267.261719 431.808594 C 267.261719 446.539062 279.203125 458.476562 293.929688 458.476562 C 308.65625 458.476562 320.597656 446.539062 320.597656 431.808594 "/>
<path style=" stroke:none;fill-rule:nonzero;fill:rgb(100%,100%,100%);fill-opacity:1;" d="M 365.074219 415.1875 C 365.074219 400.460938 353.136719 388.523438 338.40625 388.523438 C 323.679688 388.523438 311.742188 400.460938 311.742188 415.1875 C 311.742188 429.917969 323.679688 441.855469 338.40625 441.855469 C 353.136719 441.855469 365.074219 429.917969 365.074219 415.1875 "/>
<path style=" stroke:none;fill-rule:nonzero;fill:rgb(100%,100%,100%);fill-opacity:1;" d="M 401.03125 508.21875 C 401.03125 493.492188 389.09375 481.550781 374.367188 481.550781 C 359.636719 481.550781 347.699219 493.492188 347.699219 508.21875 C 347.699219 522.945312 359.636719 534.886719 374.367188 534.886719 C 389.09375 534.886719 401.03125 522.945312 401.03125 508.21875 "/>
<path style=" stroke:none;fill-rule:nonzero;fill:rgb(100%,100%,100%);fill-opacity:1;" d="M 421.027344 529.378906 C 421.027344 514.652344 409.089844 502.710938 394.359375 502.710938 C 379.632812 502.710938 367.695312 514.652344 367.695312 529.378906 C 367.695312 544.105469 379.632812 556.046875 394.359375 556.046875 C 409.089844 556.046875 421.027344 544.105469 421.027344 529.378906 "/>
<path style=" stroke:none;fill-rule:nonzero;fill:rgb(100%,100%,100%);fill-opacity:1;" d="M 507.660156 420.101562 C 507.660156 405.371094 495.722656 393.433594 480.996094 393.433594 C 466.265625 393.433594 454.328125 405.371094 454.328125 420.101562 C 454.328125 434.828125 466.265625 446.765625 480.996094 446.765625 C 495.722656 446.765625 507.660156 434.828125 507.660156 420.101562 "/>
<path style=" stroke:none;fill-rule:nonzero;fill:rgb(100%,100%,100%);fill-opacity:1;" d="M 534.824219 349.769531 C 534.824219 335.039062 522.886719 323.101562 508.160156 323.101562 C 493.429688 323.101562 481.492188 335.039062 481.492188 349.769531 C 481.492188 364.496094 493.429688 376.433594 508.160156 376.433594 C 522.886719 376.433594 534.824219 364.496094 534.824219 349.769531 "/>
<path style=" stroke:none;fill-rule:nonzero;fill:rgb(100%,100%,100%);fill-opacity:1;" d="M 430.34375 385.335938 C 430.34375 370.609375 418.40625 358.667969 403.679688 358.667969 C 388.949219 358.667969 377.011719 370.609375 377.011719 385.335938 C 377.011719 400.0625 388.949219 412 403.679688 412 C 418.40625 412 430.34375 400.0625 430.34375 385.335938 "/>
<path style=" stroke:none;fill-rule:nonzero;fill:rgb(100%,100%,100%);fill-opacity:1;" d="M 423.265625 278.03125 C 423.265625 263.304688 411.328125 251.363281 396.601562 251.363281 C 381.871094 251.363281 369.933594 263.304688 369.933594 278.03125 C 369.933594 292.757812 381.871094 304.699219 396.601562 304.699219 C 411.328125 304.699219 423.265625 292.757812 423.265625 278.03125 "/>
<path style=" stroke:none;fill-rule:nonzero;fill:rgb(100%,100%,100%);fill-opacity:1;" d="M 407.515625 269.164062 C 407.515625 254.4375 395.578125 242.496094 380.847656 242.496094 C 366.121094 242.496094 354.183594 254.4375 354.183594 269.164062 C 354.183594 283.890625 366.121094 295.832031 380.847656 295.832031 C 395.578125 295.832031 407.515625 283.890625 407.515625 269.164062 "/>
<path style=" stroke:none;fill-rule:nonzero;fill:rgb(100%,100%,100%);fill-opacity:1;" d="M 495.070312 308.074219 C 495.070312 293.347656 483.132812 281.40625 468.40625 281.40625 C 453.675781 281.40625 441.738281 293.347656 441.738281 308.074219 C 441.738281 322.800781 453.675781 334.738281 468.40625 334.738281 C 483.132812 334.738281 495.070312 322.800781 495.070312 308.074219 "/>
<path style=" stroke:none;fill-rule:nonzero;fill:rgb(100%,100%,100%);fill-opacity:1;" d="M 463.3125 379.925781 C 463.3125 365.199219 451.375 353.257812 436.644531 353.257812 C 421.917969 353.257812 409.980469 365.199219 409.980469 379.925781 C 409.980469 394.652344 421.917969 406.59375 436.644531 406.59375 C 451.375 406.59375 463.3125 394.652344 463.3125 379.925781 "/>
<path style=" stroke:none;fill-rule:nonzero;fill:rgb(100%,100%,100%);fill-opacity:1;" d="M 531.070312 450.765625 C 531.070312 436.039062 519.132812 424.101562 504.40625 424.101562 C 489.675781 424.101562 477.738281 436.039062 477.738281 450.765625 C 477.738281 465.492188 489.675781 477.433594 504.40625 477.433594 C 519.132812 477.433594 531.070312 465.492188 531.070312 450.765625 "/>
<path style=" stroke:none;fill-rule:nonzero;fill:rgb(100%,100%,100%);fill-opacity:1;" d="M 462.910156 487.773438 C 462.910156 473.042969 450.972656 461.105469 436.246094 461.105469 C 421.515625 461.105469 409.578125 473.042969 409.578125 487.773438 C 409.578125 502.5 421.515625 514.4375 436.246094 514.4375 C 450.972656 514.4375 462.910156 502.5 462.910156 487.773438 "/>
<path style=" stroke:none;fill-rule:nonzero;fill:rgb(100%,100%,100%);fill-opacity:1;" d="M 315.347656 426.484375 C 315.347656 411.753906 303.40625 399.816406 288.679688 399.816406 C 273.953125 399.816406 262.011719 411.753906 262.011719 426.484375 C 262.011719 441.210938 273.953125 453.148438 288.679688 453.148438 C 303.40625 453.148438 315.347656 441.210938 315.347656 426.484375 "/>
<path style=" stroke:none;fill-rule:nonzero;fill:rgb(100%,100%,100%);fill-opacity:1;" d="M 305.769531 352.632812 C 305.769531 337.902344 293.828125 325.964844 279.101562 325.964844 C 264.375 325.964844 252.433594 337.902344 252.433594 352.632812 C 252.433594 367.359375 264.375 379.296875 279.101562 379.296875 C 293.828125 379.296875 305.769531 367.359375 305.769531 352.632812 "/>
<path style=" stroke:none;fill-rule:nonzero;fill:rgb(100%,100%,100%);fill-opacity:1;" d="M 388.496094 417.226562 C 388.496094 402.496094 376.558594 390.558594 361.832031 390.558594 C 347.101562 390.558594 335.164062 402.496094 335.164062 417.226562 C 335.164062 431.953125 347.101562 443.890625 361.832031 443.890625 C 376.558594 443.890625 388.496094 431.953125 388.496094 417.226562 "/>
<path style=" stroke:none;fill-rule:nonzero;fill:rgb(100%,100%,100%);fill-opacity:1;" d="M 422.839844 329.054688 C 422.839844 314.328125 410.898438 302.390625 396.171875 302.390625 C 381.445312 302.390625 369.503906 314.328125 369.503906 329.054688 C 369.503906 343.785156 381.445312 355.722656 396.171875 355.722656 C 410.898438 355.722656 422.839844 343.785156 422.839844 329.054688 "/>
<path style=" stroke:none;fill-rule:nonzero;fill:rgb(100%,100%,100%);fill-opacity:1;" d="M 356.425781 440.964844 C 356.425781 426.238281 344.488281 414.300781 329.757812 414.300781 C 315.03125 414.300781 303.09375 426.238281 303.09375 440.964844 C 303.09375 455.691406 315.03125 467.632812 329.757812 467.632812 C 344.488281 467.632812 356.425781 455.691406 356.425781 440.964844 "/>
<path style=" stroke:none;fill-rule:nonzero;fill:rgb(100%,100%,100%);fill-opacity:1;" d="M 305.25 422.457031 C 305.25 407.730469 293.3125 395.789062 278.585938 395.789062 C 263.855469 395.789062 251.917969 407.730469 251.917969 422.457031 C 251.917969 437.183594 263.855469 449.125 278.585938 449.125 C 293.3125 449.125 305.25 437.183594 305.25 422.457031 "/>
<path style=" stroke:none;fill-rule:nonzero;fill:rgb(100%,100%,100%);fill-opacity:1;" d="M 438.824219 406.851562 C 438.824219 392.125 426.882812 380.183594 412.15625 380.183594 C 397.429688 380.183594 385.488281 392.125 385.488281 406.851562 C 385.488281 421.578125 397.429688 433.519531 412.15625 433.519531 C 426.882812 433.519531 438.824219 421.578125 438.824219 406.851562 "/>
<path style=" stroke:none;fill-rule:nonzero;fill:rgb(100%,100%,100%);fill-opacity:1;" d="M 431.957031 277.035156 C 431.957031 262.308594 420.019531 250.367188 405.289062 250.367188 C 390.5625 250.367188 378.625 262.308594 378.625 277.035156 C 378.625 291.761719 390.5625 303.703125 405.289062 303.703125 C 420.019531 303.703125 431.957031 291.761719 431.957031 277.035156 "/>
<path style=" stroke:none;fill-rule:nonzero;fill:rgb(100%,100%,100%);fill-opacity:1;" d="M 537.402344 332.984375 C 537.402344 318.253906 525.460938 306.316406 510.734375 306.316406 C 496.007812 306.316406 484.070312 318.253906 484.070312 332.984375 C 484.070312 347.710938 496.007812 359.648438 510.734375 359.648438 C 525.460938 359.648438 537.402344 347.710938 537.402344 332.984375 "/>
<path style=" stroke:none;fill-rule:nonzero;fill:rgb(100%,100%,100%);fill-opacity:1;" d="M 408.558594 480.5625 C 408.558594 465.835938 396.617188 453.898438 381.890625 453.898438 C 367.164062 453.898438 355.222656 465.835938 355.222656 480.5625 C 355.222656 495.292969 367.164062 507.230469 381.890625 507.230469 C 396.617188 507.230469 408.558594 495.292969 408.558594 480.5625 "/>
<path style=" stroke:none;fill-rule:nonzero;fill:rgb(100%,100%,100%);fill-opacity:1;" d="M 303.683594 419.933594 C 303.683594 405.207031 291.742188 393.269531 277.015625 393.269531 C 262.289062 393.269531 250.351562 405.207031 250.351562 419.933594 C 250.351562 434.660156 262.289062 446.601562 277.015625 446.601562 C 291.742188 446.601562 303.683594 434.660156 303.683594 419.933594 "/>
<path style=" stroke:none;fill-rule:nonzero;fill:rgb(100%,100%,100%);fill-opacity:1;" d="M 457.515625 340 C 457.515625 325.269531 445.578125 313.332031 430.847656 313.332031 C 416.121094 313.332031 404.183594 325.269531 404.183594 340 C 404.183594 354.726562 416.121094 366.664062 430.847656 366.664062 C 445.578125 366.664062 457.515625 354.726562 457.515625 340 "/>
<path style=" stroke:none;fill-rule:nonzero;fill:rgb(100%,100%,100%);fill-opacity:1;" d="M 460.316406 309.097656 C 460.316406 294.367188 448.378906 282.429688 433.652344 282.429688 C 418.921875 282.429688 406.984375 294.367188 406.984375 309.097656 C 406.984375 323.824219 418.921875 335.761719 433.652344 335.761719 C 448.378906 335.761719 460.316406 323.824219 460.316406 309.097656 "/>
<path style=" stroke:none;fill-rule:nonzero;fill:rgb(100%,100%,100%);fill-opacity:1;" d="M 445.765625 430.882812 C 445.765625 416.15625 433.824219 404.214844 419.097656 404.214844 C 404.371094 404.214844 392.429688 416.15625 392.429688 430.882812 C 392.429688 445.609375 404.371094 457.546875 419.097656 457.546875 C 433.824219 457.546875 445.765625 445.609375 445.765625 430.882812 "/>
<path style=" stroke:none;fill-rule:nonzero;fill:rgb(100%,100%,100%);fill-opacity:1;" d="M 510.851562 454.472656 C 510.851562 439.746094 498.914062 427.804688 484.1875 427.804688 C 469.457031 427.804688 457.519531 439.746094 457.519531 454.472656 C 457.519531 469.199219 469.457031 481.140625 484.1875 481.140625 C 498.914062 481.140625 510.851562 469.199219 510.851562 454.472656 "/>
<path style=" stroke:none;fill-rule:nonzero;fill:rgb(100%,100%,100%);fill-opacity:1;" d="M 299.507812 413.765625 C 299.507812 399.039062 287.570312 387.101562 272.839844 387.101562 C 258.113281 387.101562 246.175781 399.039062 246.175781 413.765625 C 246.175781 428.496094 258.113281 440.433594 272.839844 440.433594 C 287.570312 440.433594 299.507812 428.496094 299.507812 413.765625 "/>
<path style=" stroke:none;fill-rule:nonzero;fill:rgb(100%,100%,100%);fill-opacity:1;" d="M 437.890625 455.089844 C 437.890625 440.363281 425.953125 428.421875 411.226562 428.421875 C 396.5 428.421875 384.558594 440.363281 384.558594 455.089844 C 384.558594 469.816406 396.5 481.753906 411.226562 481.753906 C 425.953125 481.753906 437.890625 469.816406 437.890625 455.089844 "/>
<path style=" stroke:none;fill-rule:nonzero;fill:rgb(100%,100%,100%);fill-opacity:1;" d="M 419.402344 368.085938 C 419.402344 353.359375 407.464844 341.417969 392.738281 341.417969 C 378.007812 341.417969 366.070312 353.359375 366.070312 368.085938 C 366.070312 382.8125 378.007812 394.753906 392.738281 394.753906 C 407.464844 394.753906 419.402344 382.8125 419.402344 368.085938 "/>
<path style=" stroke:none;fill-rule:nonzero;fill:rgb(100%,100%,100%);fill-opacity:1;" d="M 416.167969 512.425781 C 416.167969 497.699219 404.230469 485.757812 389.5 485.757812 C 374.773438 485.757812 362.835938 497.699219 362.835938 512.425781 C 362.835938 527.152344 374.773438 539.09375 389.5 539.09375 C 404.230469 539.09375 416.167969 527.152344 416.167969 512.425781 "/>
<path style=" stroke:none;fill-rule:nonzero;fill:rgb(100%,100%,100%);fill-opacity:1;" d="M 412.578125 307.121094 C 412.578125 292.390625 400.636719 280.453125 385.910156 280.453125 C 371.183594 280.453125 359.242188 292.390625 359.242188 307.121094 C 359.242188 321.847656 371.183594 333.785156 385.910156 333.785156 C 400.636719 333.785156 412.578125 321.847656 412.578125 307.121094 "/>
<path style=" stroke:none;fill-rule:nonzero;fill:rgb(100%,100%,100%);fill-opacity:1;" d="M 449.410156 380.851562 C 449.410156 366.125 437.46875 354.1875 422.742188 354.1875 C 408.015625 354.1875 396.078125 366.125 396.078125 380.851562 C 396.078125 395.578125 408.015625 407.519531 422.742188 407.519531 C 437.46875 407.519531 449.410156 395.578125 449.410156 380.851562 "/>
<path style=" stroke:none;fill-rule:nonzero;fill:rgb(100%,100%,100%);fill-opacity:1;" d="M 355.53125 317.28125 C 355.53125 302.554688 343.589844 290.613281 328.863281 290.613281 C 314.136719 290.613281 302.195312 302.554688 302.195312 317.28125 C 302.195312 332.007812 314.136719 343.945312 328.863281 343.945312 C 343.589844 343.945312 355.53125 332.007812 355.53125 317.28125 "/>
<path style=" stroke:none;fill-rule:nonzero;fill:rgb(100%,100%,100%);fill-opacity:1;" d="M 431.414062 482.476562 C 431.414062 467.75 419.472656 455.8125 404.746094 455.8125 C 390.019531 455.8125 378.078125 467.75 378.078125 482.476562 C 378.078125 497.203125 390.019531 509.144531 404.746094 509.144531 C 419.472656 509.144531 431.414062 497.203125 431.414062 482.476562 "/>
<path style=" stroke:none;fill-rule:nonzero;fill:rgb(100%,100%,100%);fill-opacity:1;" d="M 545.074219 370.875 C 545.074219 356.148438 533.136719 344.210938 518.40625 344.210938 C 503.679688 344.210938 491.742188 356.148438 491.742188 370.875 C 491.742188 385.605469 503.679688 397.542969 518.40625 397.542969 C 533.136719 397.542969 545.074219 385.605469 545.074219 370.875 "/>
<path style=" stroke:none;fill-rule:nonzero;fill:rgb(100%,100%,100%);fill-opacity:1;" d="M 523.289062 347.6875 C 523.289062 332.960938 511.351562 321.019531 496.625 321.019531 C 481.894531 321.019531 469.957031 332.960938 469.957031 347.6875 C 469.957031 362.414062 481.894531 374.351562 496.625 374.351562 C 511.351562 374.351562 523.289062 362.414062 523.289062 347.6875 "/>
<path style=" stroke:none;fill-rule:nonzero;fill:rgb(100%,100%,100%);fill-opacity:1;" d="M 388.574219 296.261719 C 388.574219 281.535156 376.636719 269.597656 361.910156 269.597656 C 347.179688 269.597656 335.242188 281.535156 335.242188 296.261719 C 335.242188 310.992188 347.179688 322.929688 361.910156 322.929688 C 376.636719 322.929688 388.574219 310.992188 388.574219 296.261719 "/>
<path style=" stroke:none;fill-rule:nonzero;fill:rgb(100%,100%,100%);fill-opacity:1;" d="M 513.6875 423.765625 C 513.6875 409.035156 501.75 397.097656 487.019531 397.097656 C 472.292969 397.097656 460.355469 409.035156 460.355469 423.765625 C 460.355469 438.492188 472.292969 450.429688 487.019531 450.429688 C 501.75 450.429688 513.6875 438.492188 513.6875 423.765625 "/>
<path style=" stroke:none;fill-rule:nonzero;fill:rgb(100%,100%,100%);fill-opacity:1;" d="M 532.222656 434.300781 C 532.222656 419.574219 520.28125 407.636719 505.554688 407.636719 C 490.828125 407.636719 478.886719 419.574219 478.886719 434.300781 C 478.886719 449.03125 490.828125 460.96875 505.554688 460.96875 C 520.28125 460.96875 532.222656 449.03125 532.222656 434.300781 "/>
</g>
</svg>
