<?xml version="1.0" encoding="UTF-8"?>
<svg xmlns="http://www.w3.org/2000/svg" xmlns:xlink="http://www.w3.org/1999/xlink" width="800pt" height="800pt" viewBox="0 0 800 800" version="1.1">
<g id="surface134">
<rect x="0" y="0" width="800" height="800" style="fill:rgb(100%,100%,100%);fill-opacity:1;stroke:none;"/>
<path style="fill:none;stroke-width:0.005;stroke-linecap:butt;stroke-linejoin:miter;stroke:rgb(80%,80%,80%);stroke-opacity:1;stroke-miterlimit:10;" d="M -9.999998 -9.999998 L -9.999998 9.999998 " transform="matrix(0.000000000000032657,-533.333333,-533.333333,-0.000000000000032657,400,400)"/>
<path style="fill:none;stroke-width:0.005;stroke-linecap:butt;stroke-linejoin:miter;stroke:rgb(80%,80%,80%);stroke-opacity:1;stroke-miterlimit:10;" d="M -9 -9.999998 L -9 9.999998 " transform="matrix(0.000000000000032657,-533.333333,-533.333333,-0.000000000000032657,400,400)"/>
<path style="fill:none;stroke-width:0.005;stroke-linecap:butt;stroke-linejoin:miter;stroke:rgb(80%,80%,80%);stroke-opacity:1;stroke-miterlimit:10;" d="M -8.000002 -9.999998 L -8.000002 9.999998 " transform="matrix(0.000000000000032657,-533.333333,-533.333333,-0.000000000000032657,400,400)"/>
<path style="fill:none;stroke-width:0.005;stroke-linecap:butt;stroke-linejoin:miter;stroke:rgb(80%,80%,80%);stroke-opacity:1;stroke-miterlimit:10;" d="M -6.999998 -9.999998 L -6.999998 9.999998 " transform="matrix(0.000000000000032657,-533.333333,-533.333333,-0.000000000000032657,400,400)"/>
<path style="fill:none;stroke-width:0.005;stroke-linecap:butt;stroke-linejoin:miter;stroke:rgb(80%,80%,80%);stroke-opacity:1;stroke-miterlimit:10;" d="M -6 -9.999998 L -6 9.999998 " transform="matrix(0.000000000000032657,-533.333333,-533.333333,-0.000000000000032657,400,400)"/>
<path style="fill:none;stroke-width:0.005;stroke-linecap:butt;stroke-linejoin:miter;stroke:rgb(80%,80%,80%);stroke-opacity:1;stroke-miterlimit:10;" d="M -5.000002 -9.999998 L -5.000002 9.999998 " transform="matrix(0.000000000000032657,-533.333333,-533.333333,-0.000000000000032657,400,400)"/>
<path style="fill:none;stroke-width:0.005;stroke-linecap:butt;stroke-linejoin:miter;stroke:rgb(80%,80%,80%);stroke-opacity:1;stroke-miterlimit:10;" d="M -3.999998 -9.999998 L -3.999998 9.999998 " transform="matrix(0.000000000000032657,-533.333333,-533.333333,-0.000000000000032657,400,400)"/>
<path style="fill:none;stroke-width:0.005;stroke-linecap:butt;stroke-linejoin:miter;stroke:rgb(80%,80%,80%);stroke-opacity:1;stroke-miterlimit:10;" d="M -3 -9.999998 L -3 9.999998 " transform="matrix(0.000000000000032657,-533.333333,-533.333333,-0.000000000000032657,400,400)"/>
<path style="fill:none;stroke-width:0.005;stroke-linecap:butt;stroke-linejoin:miter;stroke:rgb(80%,80%,80%);stroke-opacity:1;stroke-miterlimit:10;" d="M -2.000002 -9.999998 L -2.000002 9.999998 " transform="matrix(0.000000000000032657,-533.333333,-533.333333,-0.000000000000032657,400,400)"/>
<path style="fill:none;stroke-width:0.005;stroke-linecap:butt;stroke-linejoin:miter;stroke:rgb(80%,80%,80%);stroke-opacity:1;stroke-miterlimit:10;" d="M -0.999998 -9.999998 L -0.999998 9.999998 " transform="matrix(0.000000000000032657,-533.333333,-533.333333,-0.000000000000032657,400,400)"/>
<path style="fill:none;stroke-width:0.005;stroke-linecap:butt;stroke-linejoin:miter;stroke:rgb(80%,80%,80%);stroke-opacity:1;stroke-miterlimit:10;" d="M 0.000000000000000666 -9.999998 L -0.000000000000000555 9.999998 " transform="matrix(0.000000000000032657,-533.333333,-533.333333,-0.000000000000032657,400,400)"/>
<path style="fill:none;stroke-width:0.005;stroke-linecap:butt;stroke-linejoin:miter;stroke:rgb(80%,80%,80%);stroke-opacity:1;stroke-miterlimit:10;" d="M 0.999998 -9.999998 L 0.999998 9.999998 " transform="matrix(0.000000000000032657,-533.333333,-533.333333,-0.000000000000032657,400,400)"/>
<path style="fill:none;stroke-width:0.005;stroke-linecap:butt;stroke-linejoin:miter;stroke:rgb(80%,80%,80%);stroke-opacity:1;stroke-miterlimit:10;" d="M 2.000002 -9.999998 L 2.000002 9.999998 " transform="matrix(0.000000000000032657,-533.333333,-533.333333,-0.000000000000032657,400,400)"/>
<path style="fill:none;stroke-width:0.005;stroke-linecap:butt;stroke-linejoin:miter;stroke:rgb(80%,80%,80%);stroke-opacity:1;stroke-miterlimit:10;" d="M 3 -9.999998 L 3 9.999998 " transform="matrix(0.000000000000032657,-533.333333,-533.333333,-0.000000000000032657,400,400)"/>
<path style="fill:none;stroke-width:0.005;stroke-linecap:butt;stroke-linejoin:miter;stroke:rgb(80%,80%,80%);stroke-opacity:1;stroke-miterlimit:10;" d="M 3.999998 -9.999998 L 3.999998 9.999998 " transform="matrix(0.000000000000032657,-533.333333,-533.333333,-0.000000000000032657,400,400)"/>
<path style="fill:none;stroke-width:0.005;stroke-linecap:butt;stroke-linejoin:miter;stroke:rgb(80%,80%,80%);stroke-opacity:1;stroke-miterlimit:10;" d="M 5.000002 -9.999998 L 5.000002 9.999998 " transform="matrix(0.000000000000032657,-533.333333,-533.333333,-0.000000000000032657,400,400)"/>
<path style="fill:none;stroke-width:0.005;stroke-linecap:butt;stroke-linejoin:miter;stroke:rgb(80%,80%,80%);stroke-opacity:1;stroke-miterlimit:10;" d="M 6 -9.999998 L 6 9.999998 " transform="matrix(0.000000000000032657,-533.333333,-533.333333,-0.000000000000032657,400,400)"/>
<path style="fill:none;stroke-width:0.005;stroke-linecap:butt;stroke-linejoin:miter;stroke:rgb(80%,80%,80%);stroke-opacity:1;stroke-miterlimit:10;" d="M 6.999998 -9.999998 L 6.999998 9.999998 " transform="matrix(0.000000000000032657,-533.333333,-533.333333,-0.000000000000032657,400,400)"/>
<path style="fill:none;stroke-width:0.005;stroke-linecap:butt;stroke-linejoin:miter;stroke:rgb(80%,80%,80%);stroke-opacity:1;stroke-miterlimit:10;" d="M 8.000002 -9.999998 L 8.000002 9.999998 " transform="matrix(0.000000000000032657,-533.333333,-533.333333,-0.000000000000032657,400,400)"/>
<path style="fill:none;stroke-width:0.005;stroke-linecap:butt;stroke-linejoin:miter;stroke:rgb(80%,80%,80%);stroke-opacity:1;stroke-miterlimit:10;" d="M 9 -9.999998 L 9 9.999998 " transform="matrix(0.000000000000032657,-533.333333,-533.333333,-0.000000000000032657,400,400)"/>
<path style="fill:none;stroke-width:0.005;stroke-linecap:butt;stroke-linejoin:miter;stroke:rgb(80%,80%,80%);stroke-opacity:1;stroke-miterlimit:10;" d="M 9.999998 -9.999998 L 9.999998 9.999998 " transform="matrix(0.000000000000032657,-533.333333,-533.333333,-0.000000000000032657,400,400)"/>
<path style="fill:none;stroke-width:0.005;stroke-linecap:butt;stroke-linejoin:miter;stroke:rgb(80%,80%,80%);stroke-opacity:1;stroke-miterlimit:10;" d="M -9.999998 -9.999998 L 9.999998 -9.999998 " transform="matrix(0.000000000000032657,-533.333333,-533.333333,-0.000000000000032657,400,400)"/>
<path style="fill:none;stroke-width:0.005;stroke-linecap:butt;stroke-linejoin:miter;stroke:rgb(80%,80%,80%);stroke-opacity:1;stroke-miterlimit:10;" d="M -9.999998 -9 L 9.999998 -9 " transform="matrix(0.000000000000032657,-533.333333,-533.333333,-0.000000000000032657,400,400)"/>
<path style="fill:none;stroke-width:0.005;stroke-linecap:butt;stroke-linejoin:miter;stroke:rgb(80%,80%,80%);stroke-opacity:1;stroke-miterlimit:10;" d="M -9.999998 -8.000002 L 9.999998 -8.000002 " transform="matrix(0.000000000000032657,-533.333333,-533.333333,-0.000000000000032657,400,400)"/>
<path style="fill:none;stroke-width:0.005;stroke-linecap:butt;stroke-linejoin:miter;stroke:rgb(80%,80%,80%);stroke-opacity:1;stroke-miterlimit:10;" d="M -9.999998 -6.999998 L 9.999998 -6.999998 " transform="matrix(0.000000000000032657,-533.333333,-533.333333,-0.000000000000032657,400,400)"/>
<path style="fill:none;stroke-width:0.005;stroke-linecap:butt;stroke-linejoin:miter;stroke:rgb(80%,80%,80%);stroke-opacity:1;stroke-miterlimit:10;" d="M -9.999998 -6 L 9.999998 -6 " transform="matrix(0.000000000000032657,-533.333333,-533.333333,-0.000000000000032657,400,400)"/>
<path style="fill:none;stroke-width:0.005;stroke-linecap:butt;stroke-linejoin:miter;stroke:rgb(80%,80%,80%);stroke-opacity:1;stroke-miterlimit:10;" d="M -9.999998 -5.000002 L 9.999998 -5.000002 " transform="matrix(0.000000000000032657,-533.333333,-533.333333,-0.000000000000032657,400,400)"/>
<path style="fill:none;stroke-width:0.005;stroke-linecap:butt;stroke-linejoin:miter;stroke:rgb(80%,80%,80%);stroke-opacity:1;stroke-miterlimit:10;" d="M -9.999998 -3.999998 L 9.999998 -3.999998 " transform="matrix(0.000000000000032657,-533.333333,-533.333333,-0.000000000000032657,400,400)"/>
<path style="fill:none;stroke-width:0.005;stroke-linecap:butt;stroke-linejoin:miter;stroke:rgb(80%,80%,80%);stroke-opacity:1;stroke-miterlimit:10;" d="M -9.999998 -3 L 9.999998 -3 " transform="matrix(0.000000000000032657,-533.333333,-533.333333,-0.000000000000032657,400,400)"/>
<path style="fill:none;stroke-width:0.005;stroke-linecap:butt;stroke-linejoin:miter;stroke:rgb(80%,80%,80%);stroke-opacity:1;stroke-miterlimit:10;" d="M -9.999998 -2.000002 L 9.999998 -2.000002 " transform="matrix(0.000000000000032657,-533.333333,-533.333333,-0.000000000000032657,400,400)"/>
<path style="fill:none;stroke-width:0.005;stroke-linecap:butt;stroke-linejoin:miter;stroke:rgb(80%,80%,80%);stroke-opacity:1;stroke-miterlimit:10;" d="M -9.999998 -0.999998 L 9.999998 -0.999998 " transform="matrix(0.000000000000032657,-533.333333,-533.333333,-0.000000000000032657,400,400)"/>
<path style="fill:none;stroke-width:0.005;stroke-linecap:butt;stroke-linejoin:miter;stroke:rgb(80%,80%,80%);stroke-opacity:1;stroke-miterlimit:10;" d="M -9.999998 -0.000000000000000666 L 9.999998 0.000000000000000555 " transform="matrix(0.000000000000032657,-533.333333,-533.333333,-0.000000000000032657,400,400)"/>
<path style="fill:none;stroke-width:0.005;stroke-linecap:butt;stroke-linejoin:miter;stroke:rgb(80%,80%,80%);stroke-opacity:1;stroke-miterlimit:10;" d="M -9.999998 0.999998 L 9.999998 0.999998 " transform="matrix(0.000000000000032657,-533.333333,-533.333333,-0.000000000000032657,400,400)"/>
<path style="fill:none;stroke-width:0.005;stroke-linecap:butt;stroke-linejoin:miter;stroke:rgb(80%,80%,80%);stroke-opacity:1;stroke-miterlimit:10;" d="M -9.999998 2.000002 L 9.999998 2.000002 " transform="matrix(0.000000000000032657,-533.333333,-533.333333,-0.000000000000032657,400,400)"/>
<path style="fill:none;stroke-width:0.005;stroke-linecap:butt;stroke-linejoin:miter;stroke:rgb(80%,80%,80%);stroke-opacity:1;stroke-miterlimit:10;" d="M -9.999998 3 L 9.999998 3 " transform="matrix(0.000000000000032657,-533.333333,-533.333333,-0.000000000000032657,400,400)"/>
<path style="fill:none;stroke-width:0.005;stroke-linecap:butt;stroke-linejoin:miter;stroke:rgb(80%,80%,80%);stroke-opacity:1;stroke-miterlimit:10;" d="M -9.999998 3.999998 L 9.999998 3.999998 " transform="matrix(0.000000000000032657,-533.333333,-533.333333,-0.000000000000032657,400,400)"/>
<path style="fill:none;stroke-width:0.005;stroke-linecap:butt;stroke-linejoin:miter;stroke:rgb(80%,80%,80%);stroke-opacity:1;stroke-miterlimit:10;" d="M -9.999998 5.000002 L 9.999998 5.000002 " transform="matrix(0.000000000000032657,-533.333333,-533.333333,-0.000000000000032657,400,400)"/>
<path style="fill:none;stroke-width:0.005;stroke-linecap:butt;stroke-linejoin:miter;stroke:rgb(80%,80%,80%);stroke-opacity:1;stroke-miterlimit:10;" d="M -9.999998 6 L 9.999998 6 " transform="matrix(0.000000000000032657,-533.333333,-533.333333,-0.000000000000032657,400,400)"/>
<path style="fill:none;stroke-width:0.005;stroke-linecap:butt;stroke-linejoin:miter;stroke:rgb(80%,80%,80%);stroke-opacity:1;stroke-miterlimit:10;" d="M -9.999998 6.999998 L 9.999998 6.999998 " transform="matrix(0.000000000000032657,-533.333333,-533.333333,-0.000000000000032657,400,400)"/>
<path style="fill:none;stroke-width:0.005;stroke-linecap:butt;stroke-linejoin:miter;stroke:rgb(80%,80%,80%);stroke-opacity:1;stroke-miterlimit:10;" d="M -9.999998 8.000002 L 9.999998 8.000002 " transform="matrix(0.000000000000032657,-533.333333,-533.333333,-0.000000000000032657,400,400)"/>
<path style="fill:none;stroke-width:0.005;stroke-linecap:butt;stroke-linejoin:miter;stroke:rgb(80%,80%,80%);stroke-opacity:1;stroke-miterlimit:10;" d="M -9.999998 9 L 9.999998 9 " transform="matrix(0.000000000000032657,-533.333333,-533.333333,-0.000000000000032657,400,400)"/>
<path style="fill:none;stroke-width:0.005;stroke-linecap:butt;stroke-linejoin:miter;stroke:rgb(80%,80%,80%);stroke-opacity:1;stroke-miterlimit:10;" d="M -9.999998 9.999998 L 9.999998 9.999998 " transform="matrix(0.000000000000032657,-533.333333,-533.333333,-0.000000000000032657,400,400)"/>
<path style=" stroke:none;fill-rule:nonzero;fill:rgb(100%,70%,70%);fill-opacity:1;" d="M 400 133.332031 C 252.722656 133.332031 133.332031 252.722656 133.332031 400 C 133.332031 547.277344 252.722656 666.667969 400 666.667969 C 547.277344 666.667969 666.667969 547.277344 666.667969 400 C 666.667969 252.722656 547.277344 133.332031 400 133.332031 "/>
<path style=" stroke:none;fill-rule:nonzero;fill:rgb(100%,70%,70%);fill-opacity:1;" d="M 400 133.332031 C 252.722656 133.332031 133.332031 252.722656 133.332031 400 C 133.332031 547.277344 252.722656 666.667969 400 666.667969 C 547.277344 666.667969 666.667969 547.277344 666.667969 400 C 666.667969 252.722656 547.277344 133.332031 400 133.332031 "/>
<path style="fill-rule:nonzero;fill:rgb(30%,30%,100%);fill-opacity:1;stroke-width:0.01;stroke-linecap:butt;stroke-linejoin:miter;stroke:rgb(0%,0%,0%);stroke-opacity:1;stroke-miterlimit:10;" d="M 0.149995 0 C 0.149995 0.0828369 0.0828467 0.15 -0.00000488281 0.15 C -0.0828418 0.15 -0.150005 0.0828369 -0.150005 0 C -0.150005 -0.0828369 -0.0828418 -0.15 -0.00000488281 -0.15 C 0.0828467 -0.15 0.149995 -0.0828369 0.149995 0 " transform="matrix(0.000000000000016329,-266.666667,-266.666667,-0.000000000000016329,400,186.666667)"/>
<path style="fill-rule:nonzero;fill:rgb(30%,30%,100%);fill-opacity:1;stroke-width:0.01;stroke-linecap:butt;stroke-linejoin:miter;stroke:rgb(0%,0%,0%);stroke-opacity:1;stroke-miterlimit:10;" d="M 0.150007 0.00000154934 C 0.149998 0.0828374 0.0828361 0.149996 0.00000761898 0.15 C -0.0828409 0.149998 -0.149999 0.0828359 -0.150003 0.00000740674 C -0.150001 -0.0828411 -0.0828394 -0.15 0.00000908579 -0.149998 C 0.0828376 -0.150002 0.149996 -0.0828396 0.150007 0.00000154934 " transform="matrix(-230.940108,133.333333,133.333333,230.940108,215.247914,506.666667)"/>
<path style="fill-rule:nonzero;fill:rgb(30%,30%,100%);fill-opacity:1;stroke-width:0.01;stroke-linecap:butt;stroke-linejoin:miter;stroke:rgb(0%,0%,0%);stroke-opacity:1;stroke-miterlimit:10;" d="M 0.150007 -0.00000154934 C 0.149996 0.0828396 0.0828376 0.150002 0.00000908579 0.149998 C -0.0828394 0.15 -0.150001 0.0828411 -0.150003 -0.00000740674 C -0.149999 -0.0828359 -0.0828409 -0.149998 0.00000761898 -0.15 C 0.0828361 -0.149996 0.149998 -0.0828374 0.150007 -0.00000154934 " transform="matrix(230.940108,133.333333,133.333333,-230.940108,584.752086,506.666667)"/>
<path style="fill-rule:nonzero;fill:rgb(80%,80%,80%);fill-opacity:1;stroke-width:0.01;stroke-linecap:butt;stroke-linejoin:miter;stroke:rgb(0%,0%,0%);stroke-opacity:1;stroke-miterlimit:10;" d="M 1.000007 0 C 1.000007 0.552288 0.552288 1.000007 0 1.000007 C -0.552288 1.000007 -1.000007 0.552288 -1.000007 0 C -1.000007 -0.552288 -0.552288 -1.000007 0 -1.000007 C 0.552288 -1.000007 1.000007 -0.552288 1.000007 0 " transform="matrix(0.00000000000001143,-186.666667,-186.666667,-0.00000000000001143,400,400)"/>
<path style="fill:none;stroke-width:0.01;stroke-linecap:butt;stroke-linejoin:miter;stroke:rgb(0%,0%,0%);stroke-opacity:1;stroke-miterlimit:10;" d="M 0.199993 0 L 1.000007 0 " transform="matrix(0.00000000000001143,-186.666667,-186.666667,-0.00000000000001143,400,400)"/>
<path style="fill:none;stroke-width:0.005;stroke-linecap:butt;stroke-linejoin:miter;stroke:rgb(0%,0%,0%);stroke-opacity:0.3;stroke-miterlimit:10;" d="M -0.0998877 -0.124995 C -0.0998877 -0.111665 -0.11989 -0.111665 -0.11989 -0.124995 C -0.11989 -0.138333 -0.0998877 -0.138333 -0.0998877 -0.124995 " transform="matrix(0.000000000000032657,-533.333333,-533.333333,-0.000000000000032657,400,400)"/>
<path style="fill:none;stroke-width:0.005;stroke-linecap:butt;stroke-linejoin:miter;stroke:rgb(0%,0%,0%);stroke-opacity:0.3;stroke-miterlimit:10;" d="M -0.0575977 -0.124417 C -0.0575977 -0.111079 -0.0776001 -0.111079 -0.0776001 -0.124417 C -0.0776001 -0.137747 -0.0575977 -0.137747 -0.0575977 -0.124417 " transform="matrix(0.000000000000032657,-533.333333,-533.333333,-0.000000000000032657,400,400)"/>
<path style="fill:none;stroke-width:0.005;stroke-linecap:butt;stroke-linejoin:miter;stroke:rgb(0%,0%,0%);stroke-opacity:0.3;stroke-miterlimit:10;" d="M 0.0999976 -0.2195 C 0.0999976 -0.206162 0.0799951 -0.206162 0.0799951 -0.2195 C 0.0799951 -0.23283 0.0999976 -0.23283 0.0999976 -0.2195 " transform="matrix(0.000000000000032657,-533.333333,-533.333333,-0.000000000000032657,400,400)"/>
<path style="fill:none;stroke-width:0.005;stroke-linecap:butt;stroke-linejoin:miter;stroke:rgb(0%,0%,0%);stroke-opacity:0.3;stroke-miterlimit:10;" d="M 0.0676465 -0.195842 C 0.0676465 -0.182512 0.047644 -0.182512 0.047644 -0.195842 C 0.047644 -0.209172 0.0676465 -0.209172 0.0676465 -0.195842 " transform="matrix(0.000000000000032657,-533.333333,-533.333333,-0.000000000000032657,400,400)"/>
<path style="fill:none;stroke-width:0.005;stroke-linecap:butt;stroke-linejoin:miter;stroke:rgb(0%,0%,0%);stroke-opacity:0.3;stroke-miterlimit:10;" d="M -0.0602197 0.0266821 C -0.0602197 0.0400195 -0.0802148 0.0400195 -0.0802148 0.0266821 C -0.0802148 0.0133521 -0.0602197 0.0133521 -0.0602197 0.0266821 " transform="matrix(0.000000000000032657,-533.333333,-533.333333,-0.000000000000032657,400,400)"/>
<path style="fill:none;stroke-width:0.005;stroke-linecap:butt;stroke-linejoin:miter;stroke:rgb(0%,0%,0%);stroke-opacity:0.3;stroke-miterlimit:10;" d="M -0.0294507 -0.0512476 C -0.0294507 -0.0379175 -0.0494531 -0.0379175 -0.0494531 -0.0512476 C -0.0494531 -0.064585 -0.0294507 -0.064585 -0.0294507 -0.0512476 " transform="matrix(0.000000000000032657,-533.333333,-533.333333,-0.000000000000032657,400,400)"/>
<path style="fill:none;stroke-width:0.005;stroke-linecap:butt;stroke-linejoin:miter;stroke:rgb(0%,0%,0%);stroke-opacity:0.3;stroke-miterlimit:10;" d="M -0.00577881 0.0760034 C -0.00577881 0.0893408 -0.0257812 0.0893408 -0.0257812 0.0760034 C -0.0257812 0.0626733 -0.00577881 0.0626733 -0.00577881 0.0760034 " transform="matrix(0.000000000000032657,-533.333333,-533.333333,-0.000000000000032657,400,400)"/>
<path style="fill:none;stroke-width:0.005;stroke-linecap:butt;stroke-linejoin:miter;stroke:rgb(0%,0%,0%);stroke-opacity:0.3;stroke-miterlimit:10;" d="M 0.057583 0.215413 C 0.057583 0.228743 0.0375879 0.228743 0.0375879 0.215413 C 0.0375879 0.202075 0.057583 0.202075 0.057583 0.215413 " transform="matrix(0.000000000000032657,-533.333333,-533.333333,-0.000000000000032657,400,400)"/>
<path style="fill:none;stroke-width:0.005;stroke-linecap:butt;stroke-linejoin:miter;stroke:rgb(0%,0%,0%);stroke-opacity:0.3;stroke-miterlimit:10;" d="M 0.0451904 -0.237041 C 0.0451904 -0.223704 0.025188 -0.223704 0.025188 -0.237041 C 0.025188 -0.250371 0.0451904 -0.250371 0.0451904 -0.237041 " transform="matrix(0.000000000000032657,-533.333333,-533.333333,-0.000000000000032657,400,400)"/>
<path style="fill:none;stroke-width:0.005;stroke-linecap:butt;stroke-linejoin:miter;stroke:rgb(0%,0%,0%);stroke-opacity:0.3;stroke-miterlimit:10;" d="M -0.118594 0.131462 C -0.118594 0.1448 -0.138596 0.1448 -0.138596 0.131462 C -0.138596 0.118132 -0.118594 0.118132 -0.118594 0.131462 " transform="matrix(0.000000000000032657,-533.333333,-533.333333,-0.000000000000032657,400,400)"/>
<path style="fill:none;stroke-width:0.005;stroke-linecap:butt;stroke-linejoin:miter;stroke:rgb(0%,0%,0%);stroke-opacity:0.3;stroke-miterlimit:10;" d="M -0.0657715 0.228809 C -0.0657715 0.242139 -0.0857666 0.242139 -0.0857666 0.228809 C -0.0857666 0.215479 -0.0657715 0.215479 -0.0657715 0.228809 " transform="matrix(0.000000000000032657,-533.333333,-533.333333,-0.000000000000032657,400,400)"/>
<path style="fill:none;stroke-width:0.005;stroke-linecap:butt;stroke-linejoin:miter;stroke:rgb(0%,0%,0%);stroke-opacity:0.3;stroke-miterlimit:10;" d="M 0.0334351 -0.136677 C 0.0334351 -0.123347 0.0134326 -0.123347 0.0134326 -0.136677 C 0.0134326 -0.150015 0.0334351 -0.150015 0.0334351 -0.136677 " transform="matrix(0.000000000000032657,-533.333333,-533.333333,-0.000000000000032657,400,400)"/>
<path style="fill:none;stroke-width:0.005;stroke-linecap:butt;stroke-linejoin:miter;stroke:rgb(0%,0%,0%);stroke-opacity:0.3;stroke-miterlimit:10;" d="M -0.0950684 -0.200962 C -0.0950684 -0.187632 -0.115063 -0.187632 -0.115063 -0.200962 C -0.115063 -0.214299 -0.0950684 -0.214299 -0.0950684 -0.200962 " transform="matrix(0.000000000000032657,-533.333333,-533.333333,-0.000000000000032657,400,400)"/>
<path style="fill:none;stroke-width:0.005;stroke-linecap:butt;stroke-linejoin:miter;stroke:rgb(0%,0%,0%);stroke-opacity:0.3;stroke-miterlimit:10;" d="M 0.0852686 0.210081 C 0.0852686 0.223411 0.0652661 0.223411 0.0652661 0.210081 C 0.0652661 0.19675 0.0852686 0.19675 0.0852686 0.210081 " transform="matrix(0.000000000000032657,-533.333333,-533.333333,-0.000000000000032657,400,400)"/>
<path style="fill:none;stroke-width:0.005;stroke-linecap:butt;stroke-linejoin:miter;stroke:rgb(0%,0%,0%);stroke-opacity:0.3;stroke-miterlimit:10;" d="M 0.203416 -0.0193359 C 0.203416 -0.00600586 0.183413 -0.00600586 0.183413 -0.0193359 C 0.183413 -0.032666 0.203416 -0.032666 0.203416 -0.0193359 " transform="matrix(0.000000000000032657,-533.333333,-533.333333,-0.000000000000032657,400,400)"/>
<path style="fill:none;stroke-width:0.005;stroke-linecap:butt;stroke-linejoin:miter;stroke:rgb(0%,0%,0%);stroke-opacity:0.3;stroke-miterlimit:10;" d="M -0.176814 -0.162393 C -0.176814 -0.149055 -0.196816 -0.149055 -0.196816 -0.162393 C -0.196816 -0.175723 -0.176814 -0.175723 -0.176814 -0.162393 " transform="matrix(0.000000000000032657,-533.333333,-533.333333,-0.000000000000032657,400,400)"/>
<path style="fill:none;stroke-width:0.005;stroke-linecap:butt;stroke-linejoin:miter;stroke:rgb(0%,0%,0%);stroke-opacity:0.3;stroke-miterlimit:10;" d="M -0.116257 0.0443848 C -0.116257 0.0577222 -0.136252 0.0577222 -0.136252 0.0443848 C -0.136252 0.0310547 -0.116257 0.0310547 -0.116257 0.0443848 " transform="matrix(0.000000000000032657,-533.333333,-533.333333,-0.000000000000032657,400,400)"/>
<path style="fill:none;stroke-width:0.005;stroke-linecap:butt;stroke-linejoin:miter;stroke:rgb(0%,0%,0%);stroke-opacity:0.3;stroke-miterlimit:10;" d="M -0.0492261 -0.234573 C -0.0492261 -0.221243 -0.0692285 -0.221243 -0.0692285 -0.234573 C -0.0692285 -0.24791 -0.0492261 -0.24791 -0.0492261 -0.234573 " transform="matrix(0.000000000000032657,-533.333333,-533.333333,-0.000000000000032657,400,400)"/>
<path style="fill:none;stroke-width:0.005;stroke-linecap:butt;stroke-linejoin:miter;stroke:rgb(0%,0%,0%);stroke-opacity:0.3;stroke-miterlimit:10;" d="M 0.224685 -0.00359619 C 0.224685 0.00974121 0.20469 0.00974121 0.20469 -0.00359619 C 0.20469 -0.0169263 0.224685 -0.0169263 0.224685 -0.00359619 " transform="matrix(0.000000000000032657,-533.333333,-533.333333,-0.000000000000032657,400,400)"/>
<path style="fill:none;stroke-width:0.005;stroke-linecap:butt;stroke-linejoin:miter;stroke:rgb(0%,0%,0%);stroke-opacity:0.3;stroke-miterlimit:10;" d="M -0.0784717 0.226765 C -0.0784717 0.240103 -0.0984741 0.240103 -0.0984741 0.226765 C -0.0984741 0.213435 -0.0784717 0.213435 -0.0784717 0.226765 " transform="matrix(0.000000000000032657,-533.333333,-533.333333,-0.000000000000032657,400,400)"/>
<path style="fill:none;stroke-width:0.005;stroke-linecap:butt;stroke-linejoin:miter;stroke:rgb(0%,0%,0%);stroke-opacity:0.3;stroke-miterlimit:10;" d="M 0.017439 0.111694 C 0.017439 0.125024 -0.00256348 0.125024 -0.00256348 0.111694 C -0.00256348 0.0983569 0.017439 0.0983569 0.017439 0.111694 " transform="matrix(0.000000000000032657,-533.333333,-533.333333,-0.000000000000032657,400,400)"/>
<path style="fill:none;stroke-width:0.005;stroke-linecap:butt;stroke-linejoin:miter;stroke:rgb(0%,0%,0%);stroke-opacity:0.3;stroke-miterlimit:10;" d="M 0.0404517 -0.169504 C 0.0404517 -0.156174 0.0204492 -0.156174 0.0204492 -0.169504 C 0.0204492 -0.182834 0.0404517 -0.182834 0.0404517 -0.169504 " transform="matrix(0.000000000000032657,-533.333333,-533.333333,-0.000000000000032657,400,400)"/>
<path style="fill:none;stroke-width:0.005;stroke-linecap:butt;stroke-linejoin:miter;stroke:rgb(0%,0%,0%);stroke-opacity:0.3;stroke-miterlimit:10;" d="M 0.138245 -0.0533569 C 0.138245 -0.0400269 0.11825 -0.0400269 0.11825 -0.0533569 C 0.11825 -0.0666943 0.138245 -0.0666943 0.138245 -0.0533569 " transform="matrix(0.000000000000032657,-533.333333,-533.333333,-0.000000000000032657,400,400)"/>
<path style="fill:none;stroke-width:0.005;stroke-linecap:butt;stroke-linejoin:miter;stroke:rgb(0%,0%,0%);stroke-opacity:0.3;stroke-miterlimit:10;" d="M -0.0658447 0.133909 C -0.0658447 0.147246 -0.0858472 0.147246 -0.0858472 0.133909 C -0.0858472 0.120579 -0.0658447 0.120579 -0.0658447 0.133909 " transform="matrix(0.000000000000032657,-533.333333,-533.333333,-0.000000000000032657,400,400)"/>
<path style="fill:none;stroke-width:0.005;stroke-linecap:butt;stroke-linejoin:miter;stroke:rgb(0%,0%,0%);stroke-opacity:0.3;stroke-miterlimit:10;" d="M -0.114836 0.196494 C -0.114836 0.209832 -0.134832 0.209832 -0.134832 0.196494 C -0.134832 0.183164 -0.114836 0.183164 -0.114836 0.196494 " transform="matrix(0.000000000000032657,-533.333333,-533.333333,-0.000000000000032657,400,400)"/>
<path style="fill:none;stroke-width:0.005;stroke-linecap:butt;stroke-linejoin:miter;stroke:rgb(0%,0%,0%);stroke-opacity:0.3;stroke-miterlimit:10;" d="M 0.0867773 -0.184504 C 0.0867773 -0.171174 0.0667749 -0.171174 0.0667749 -0.184504 C 0.0667749 -0.197842 0.0867773 -0.197842 0.0867773 -0.184504 " transform="matrix(0.000000000000032657,-533.333333,-533.333333,-0.000000000000032657,400,400)"/>
<path style="fill:none;stroke-width:0.005;stroke-linecap:butt;stroke-linejoin:miter;stroke:rgb(0%,0%,0%);stroke-opacity:0.3;stroke-miterlimit:10;" d="M -0.0410669 0.0667456 C -0.0410669 0.0800757 -0.0610693 0.0800757 -0.0610693 0.0667456 C -0.0610693 0.0534082 -0.0410669 0.0534082 -0.0410669 0.0667456 " transform="matrix(0.000000000000032657,-533.333333,-533.333333,-0.000000000000032657,400,400)"/>
<path style="fill:none;stroke-width:0.005;stroke-linecap:butt;stroke-linejoin:miter;stroke:rgb(0%,0%,0%);stroke-opacity:0.3;stroke-miterlimit:10;" d="M 0.0117847 -0.0539282 C 0.0117847 -0.0405908 -0.00821777 -0.0405908 -0.00821777 -0.0539282 C -0.00821777 -0.0672583 0.0117847 -0.0672583 0.0117847 -0.0539282 " transform="matrix(0.000000000000032657,-533.333333,-533.333333,-0.000000000000032657,400,400)"/>
<path style="fill:none;stroke-width:0.005;stroke-linecap:butt;stroke-linejoin:miter;stroke:rgb(0%,0%,0%);stroke-opacity:0.3;stroke-miterlimit:10;" d="M 0.0906152 0.0990015 C 0.0906152 0.112332 0.0706201 0.112332 0.0706201 0.0990015 C 0.0706201 0.0856641 0.0906152 0.0856641 0.0906152 0.0990015 " transform="matrix(0.000000000000032657,-533.333333,-533.333333,-0.000000000000032657,400,400)"/>
<path style="fill:none;stroke-width:0.005;stroke-linecap:butt;stroke-linejoin:miter;stroke:rgb(0%,0%,0%);stroke-opacity:0.3;stroke-miterlimit:10;" d="M 0.114382 0.0793726 C 0.114382 0.0927026 0.0943872 0.0927026 0.0943872 0.0793726 C 0.0943872 0.0660352 0.114382 0.0660352 0.114382 0.0793726 " transform="matrix(0.000000000000032657,-533.333333,-533.333333,-0.000000000000032657,400,400)"/>
<path style="fill:none;stroke-width:0.005;stroke-linecap:butt;stroke-linejoin:miter;stroke:rgb(0%,0%,0%);stroke-opacity:0.3;stroke-miterlimit:10;" d="M -0.0750439 0.0816431 C -0.0750439 0.0949805 -0.0950391 0.0949805 -0.0950391 0.0816431 C -0.0950391 0.068313 -0.0750439 0.068313 -0.0750439 0.0816431 " transform="matrix(0.000000000000032657,-533.333333,-533.333333,-0.000000000000032657,400,400)"/>
<path style="fill:none;stroke-width:0.005;stroke-linecap:butt;stroke-linejoin:miter;stroke:rgb(0%,0%,0%);stroke-opacity:0.3;stroke-miterlimit:10;" d="M -0.0655811 0.0461792 C -0.0655811 0.0595166 -0.0855835 0.0595166 -0.0855835 0.0461792 C -0.0855835 0.0328491 -0.0655811 0.0328491 -0.0655811 0.0461792 " transform="matrix(0.000000000000032657,-533.333333,-533.333333,-0.000000000000032657,400,400)"/>
<path style="fill:none;stroke-width:0.005;stroke-linecap:butt;stroke-linejoin:miter;stroke:rgb(0%,0%,0%);stroke-opacity:0.3;stroke-miterlimit:10;" d="M 0.117063 0.00947021 C 0.117063 0.0228003 0.0970605 0.0228003 0.0970605 0.00947021 C 0.0970605 -0.00386719 0.117063 -0.00386719 0.117063 0.00947021 " transform="matrix(0.000000000000032657,-533.333333,-533.333333,-0.000000000000032657,400,400)"/>
<path style="fill:none;stroke-width:0.005;stroke-linecap:butt;stroke-linejoin:miter;stroke:rgb(0%,0%,0%);stroke-opacity:0.3;stroke-miterlimit:10;" d="M -0.142148 0.147026 C -0.142148 0.160364 -0.162144 0.160364 -0.162144 0.147026 C -0.162144 0.133696 -0.142148 0.133696 -0.142148 0.147026 " transform="matrix(0.000000000000032657,-533.333333,-533.333333,-0.000000000000032657,400,400)"/>
<path style="fill:none;stroke-width:0.005;stroke-linecap:butt;stroke-linejoin:miter;stroke:rgb(0%,0%,0%);stroke-opacity:0.3;stroke-miterlimit:10;" d="M 0.114141 0.202405 C 0.114141 0.215742 0.0941382 0.215742 0.0941382 0.202405 C 0.0941382 0.189075 0.114141 0.189075 0.114141 0.202405 " transform="matrix(0.000000000000032657,-533.333333,-533.333333,-0.000000000000032657,400,400)"/>
<path style="fill:none;stroke-width:0.005;stroke-linecap:butt;stroke-linejoin:miter;stroke:rgb(0%,0%,0%);stroke-opacity:0.3;stroke-miterlimit:10;" d="M 0.189807 -0.0217822 C 0.189807 -0.00845215 0.169805 -0.00845215 0.169805 -0.0217822 C 0.169805 -0.0351123 0.189807 -0.0351123 0.189807 -0.0217822 " transform="matrix(0.000000000000032657,-533.333333,-533.333333,-0.000000000000032657,400,400)"/>
<path style="fill:none;stroke-width:0.005;stroke-linecap:butt;stroke-linejoin:miter;stroke:rgb(0%,0%,0%);stroke-opacity:0.3;stroke-miterlimit:10;" d="M 0.175723 -0.180974 C 0.175723 -0.167644 0.15572 -0.167644 0.15572 -0.180974 C 0.15572 -0.194304 0.175723 -0.194304 0.175723 -0.180974 " transform="matrix(0.000000000000032657,-533.333333,-533.333333,-0.000000000000032657,400,400)"/>
<path style="fill:none;stroke-width:0.005;stroke-linecap:butt;stroke-linejoin:miter;stroke:rgb(0%,0%,0%);stroke-opacity:0.3;stroke-miterlimit:10;" d="M -0.161169 -0.0898315 C -0.161169 -0.0765015 -0.181172 -0.0765015 -0.181172 -0.0898315 C -0.181172 -0.103169 -0.161169 -0.103169 -0.161169 -0.0898315 " transform="matrix(0.000000000000032657,-533.333333,-533.333333,-0.000000000000032657,400,400)"/>
<path style="fill:none;stroke-width:0.005;stroke-linecap:butt;stroke-linejoin:miter;stroke:rgb(0%,0%,0%);stroke-opacity:0.3;stroke-miterlimit:10;" d="M -0.121274 0.158328 C -0.121274 0.171658 -0.14127 0.171658 -0.14127 0.158328 C -0.14127 0.14499 -0.121274 0.14499 -0.121274 0.158328 " transform="matrix(0.000000000000032657,-533.333333,-533.333333,-0.000000000000032657,400,400)"/>
<path style="fill:none;stroke-width:0.005;stroke-linecap:butt;stroke-linejoin:miter;stroke:rgb(0%,0%,0%);stroke-opacity:0.3;stroke-miterlimit:10;" d="M 0.0712866 0.0350537 C 0.0712866 0.0483911 0.0512915 0.0483911 0.0512915 0.0350537 C 0.0512915 0.0217236 0.0712866 0.0217236 0.0712866 0.0350537 " transform="matrix(0.000000000000032657,-533.333333,-533.333333,-0.000000000000032657,400,400)"/>
<path style="fill:none;stroke-width:0.005;stroke-linecap:butt;stroke-linejoin:miter;stroke:rgb(0%,0%,0%);stroke-opacity:0.3;stroke-miterlimit:10;" d="M 0.148132 0.0328271 C 0.148132 0.0461646 0.128137 0.0461646 0.128137 0.0328271 C 0.128137 0.0194971 0.148132 0.0194971 0.148132 0.0328271 " transform="matrix(0.000000000000032657,-533.333333,-533.333333,-0.000000000000032657,400,400)"/>
<path style="fill:none;stroke-width:0.005;stroke-linecap:butt;stroke-linejoin:miter;stroke:rgb(0%,0%,0%);stroke-opacity:0.3;stroke-miterlimit:10;" d="M -0.188899 0.0418066 C -0.188899 0.0551367 -0.208894 0.0551367 -0.208894 0.0418066 C -0.208894 0.0284692 -0.188899 0.0284692 -0.188899 0.0418066 " transform="matrix(0.000000000000032657,-533.333333,-533.333333,-0.000000000000032657,400,400)"/>
<path style="fill:none;stroke-width:0.005;stroke-linecap:butt;stroke-linejoin:miter;stroke:rgb(0%,0%,0%);stroke-opacity:0.3;stroke-miterlimit:10;" d="M 0.0303735 -0.137139 C 0.0303735 -0.123801 0.0103711 -0.123801 0.0103711 -0.137139 C 0.0103711 -0.150469 0.0303735 -0.150469 0.0303735 -0.137139 " transform="matrix(0.000000000000032657,-533.333333,-533.333333,-0.000000000000032657,400,400)"/>
<path style="fill:none;stroke-width:0.005;stroke-linecap:butt;stroke-linejoin:miter;stroke:rgb(0%,0%,0%);stroke-opacity:0.3;stroke-miterlimit:10;" d="M 0.0903003 -0.217676 C 0.0903003 -0.204338 0.0702979 -0.204338 0.0702979 -0.217676 C 0.0702979 -0.231006 0.0903003 -0.231006 0.0903003 -0.217676 " transform="matrix(0.000000000000032657,-533.333333,-533.333333,-0.000000000000032657,400,400)"/>
<path style="fill:none;stroke-width:0.005;stroke-linecap:butt;stroke-linejoin:miter;stroke:rgb(0%,0%,0%);stroke-opacity:0.3;stroke-miterlimit:10;" d="M 0.114463 -0.165278 C 0.114463 -0.151941 0.0944604 -0.151941 0.0944604 -0.165278 C 0.0944604 -0.178608 0.114463 -0.178608 0.114463 -0.165278 " transform="matrix(0.000000000000032657,-533.333333,-533.333333,-0.000000000000032657,400,400)"/>
<path style="fill:none;stroke-width:0.005;stroke-linecap:butt;stroke-linejoin:miter;stroke:rgb(0%,0%,0%);stroke-opacity:0.3;stroke-miterlimit:10;" d="M 0.211758 -0.120227 C 0.211758 -0.106897 0.191755 -0.106897 0.191755 -0.120227 C 0.191755 -0.133564 0.211758 -0.133564 0.211758 -0.120227 " transform="matrix(0.000000000000032657,-533.333333,-533.333333,-0.000000000000032657,400,400)"/>
<path style="fill:none;stroke-width:0.005;stroke-linecap:butt;stroke-linejoin:miter;stroke:rgb(0%,0%,0%);stroke-opacity:0.3;stroke-miterlimit:10;" d="M 0.00960938 0.00200684 C 0.00960938 0.0153369 -0.0103931 0.0153369 -0.0103931 0.00200684 C -0.0103931 -0.0113306 0.00960938 -0.0113306 0.00960938 0.00200684 " transform="matrix(0.000000000000032657,-533.333333,-533.333333,-0.000000000000032657,400,400)"/>
<path style="fill:none;stroke-width:0.005;stroke-linecap:butt;stroke-linejoin:miter;stroke:rgb(0%,0%,0%);stroke-opacity:0.3;stroke-miterlimit:10;" d="M -0.0902197 -0.0435645 C -0.0902197 -0.0302344 -0.110222 -0.0302344 -0.110222 -0.0435645 C -0.110222 -0.0569019 -0.0902197 -0.0569019 -0.0902197 -0.0435645 " transform="matrix(0.000000000000032657,-533.333333,-533.333333,-0.000000000000032657,400,400)"/>
<path style="fill:none;stroke-width:0.005;stroke-linecap:butt;stroke-linejoin:miter;stroke:rgb(0%,0%,0%);stroke-opacity:0.3;stroke-miterlimit:10;" d="M -0.0583447 -0.20918 C -0.0583447 -0.195842 -0.0783472 -0.195842 -0.0783472 -0.20918 C -0.0783472 -0.22251 -0.0583447 -0.22251 -0.0583447 -0.20918 " transform="matrix(0.000000000000032657,-533.333333,-533.333333,-0.000000000000032657,400,400)"/>
<path style="fill:none;stroke-width:0.005;stroke-linecap:butt;stroke-linejoin:miter;stroke:rgb(0%,0%,0%);stroke-opacity:0.3;stroke-miterlimit:10;" d="M -0.0103711 0.124307 C -0.0103711 0.137637 -0.0303662 0.137637 -0.0303662 0.124307 C -0.0303662 0.110969 -0.0103711 0.110969 -0.0103711 0.124307 " transform="matrix(0.000000000000032657,-533.333333,-533.333333,-0.000000000000032657,400,400)"/>
<path style="fill:none;stroke-width:0.005;stroke-linecap:butt;stroke-linejoin:miter;stroke:rgb(0%,0%,0%);stroke-opacity:0.3;stroke-miterlimit:10;" d="M 0.104055 0.107556 C 0.104055 0.120894 0.0840527 0.120894 0.0840527 0.107556 C 0.0840527 0.0942261 0.104055 0.0942261 0.104055 0.107556 " transform="matrix(0.000000000000032657,-533.333333,-533.333333,-0.000000000000032657,400,400)"/>
<path style="fill:none;stroke-width:0.005;stroke-linecap:butt;stroke-linejoin:miter;stroke:rgb(0%,0%,0%);stroke-opacity:0.3;stroke-miterlimit:10;" d="M 0.128145 -0.161096 C 0.128145 -0.147759 0.108142 -0.147759 0.108142 -0.161096 C 0.108142 -0.174426 0.128145 -0.174426 0.128145 -0.161096 " transform="matrix(0.000000000000032657,-533.333333,-533.333333,-0.000000000000032657,400,400)"/>
<path style="fill:none;stroke-width:0.005;stroke-linecap:butt;stroke-linejoin:miter;stroke:rgb(0%,0%,0%);stroke-opacity:0.3;stroke-miterlimit:10;" d="M 0.18824 0.136501 C 0.18824 0.149839 0.168237 0.149839 0.168237 0.136501 C 0.168237 0.123171 0.18824 0.123171 0.18824 0.136501 " transform="matrix(0.000000000000032657,-533.333333,-533.333333,-0.000000000000032657,400,400)"/>
<path style="fill:none;stroke-width:0.005;stroke-linecap:butt;stroke-linejoin:miter;stroke:rgb(0%,0%,0%);stroke-opacity:0.3;stroke-miterlimit:10;" d="M 0.203357 0.0743774 C 0.203357 0.0877148 0.183362 0.0877148 0.183362 0.0743774 C 0.183362 0.0610474 0.203357 0.0610474 0.203357 0.0743774 " transform="matrix(0.000000000000032657,-533.333333,-533.333333,-0.000000000000032657,400,400)"/>
<path style="fill:none;stroke-width:0.005;stroke-linecap:butt;stroke-linejoin:miter;stroke:rgb(0%,0%,0%);stroke-opacity:0.3;stroke-miterlimit:10;" d="M -0.0162891 -0.186086 C -0.0162891 -0.172756 -0.0362842 -0.172756 -0.0362842 -0.186086 C -0.0362842 -0.199424 -0.0162891 -0.199424 -0.0162891 -0.186086 " transform="matrix(0.000000000000032657,-533.333333,-533.333333,-0.000000000000032657,400,400)"/>
<path style="fill:none;stroke-width:0.005;stroke-linecap:butt;stroke-linejoin:miter;stroke:rgb(0%,0%,0%);stroke-opacity:0.3;stroke-miterlimit:10;" d="M -0.0486548 -0.173013 C -0.0486548 -0.159675 -0.0686572 -0.159675 -0.0686572 -0.173013 C -0.0686572 -0.186343 -0.0486548 -0.186343 -0.0486548 -0.173013 " transform="matrix(0.000000000000032657,-533.333333,-533.333333,-0.000000000000032657,400,400)"/>
<path style="fill:none;stroke-width:0.005;stroke-linecap:butt;stroke-linejoin:miter;stroke:rgb(0%,0%,0%);stroke-opacity:0.3;stroke-miterlimit:10;" d="M -0.174785 0.0537085 C -0.174785 0.0670386 -0.19478 0.0670386 -0.19478 0.0537085 C -0.19478 0.0403711 -0.174785 0.0403711 -0.174785 0.0537085 " transform="matrix(0.000000000000032657,-533.333333,-533.333333,-0.000000000000032657,400,400)"/>
<path style="fill:none;stroke-width:0.005;stroke-linecap:butt;stroke-linejoin:miter;stroke:rgb(0%,0%,0%);stroke-opacity:0.3;stroke-miterlimit:10;" d="M -0.0485962 -0.0964233 C -0.0485962 -0.0830933 -0.0685913 -0.0830933 -0.0685913 -0.0964233 C -0.0685913 -0.109753 -0.0485962 -0.109753 -0.0485962 -0.0964233 " transform="matrix(0.000000000000032657,-533.333333,-533.333333,-0.000000000000032657,400,400)"/>
<path style="fill:none;stroke-width:0.005;stroke-linecap:butt;stroke-linejoin:miter;stroke:rgb(0%,0%,0%);stroke-opacity:0.3;stroke-miterlimit:10;" d="M 0.191851 0.0709863 C 0.191851 0.0843164 0.171848 0.0843164 0.171848 0.0709863 C 0.171848 0.0576489 0.191851 0.0576489 0.191851 0.0709863 " transform="matrix(0.000000000000032657,-533.333333,-533.333333,-0.000000000000032657,400,400)"/>
<path style="fill:none;stroke-width:0.005;stroke-linecap:butt;stroke-linejoin:miter;stroke:rgb(0%,0%,0%);stroke-opacity:0.3;stroke-miterlimit:10;" d="M -0.095061 -0.0481567 C -0.095061 -0.0348193 -0.115063 -0.0348193 -0.115063 -0.0481567 C -0.115063 -0.0614868 -0.095061 -0.0614868 -0.095061 -0.0481567 " transform="matrix(0.000000000000032657,-533.333333,-533.333333,-0.000000000000032657,400,400)"/>
<path style="fill:none;stroke-width:0.005;stroke-linecap:butt;stroke-linejoin:miter;stroke:rgb(0%,0%,0%);stroke-opacity:0.3;stroke-miterlimit:10;" d="M 0.0176221 -0.0607983 C 0.0176221 -0.0474609 -0.00237305 -0.0474609 -0.00237305 -0.0607983 C -0.00237305 -0.0741284 0.0176221 -0.0741284 0.0176221 -0.0607983 " transform="matrix(0.000000000000032657,-533.333333,-533.333333,-0.000000000000032657,400,400)"/>
<path style="fill:none;stroke-width:0.005;stroke-linecap:butt;stroke-linejoin:miter;stroke:rgb(0%,0%,0%);stroke-opacity:0.3;stroke-miterlimit:10;" d="M -0.0928784 0.0972876 C -0.0928784 0.110625 -0.112881 0.110625 -0.112881 0.0972876 C -0.112881 0.0839575 -0.0928784 0.0839575 -0.0928784 0.0972876 " transform="matrix(0.000000000000032657,-533.333333,-533.333333,-0.000000000000032657,400,400)"/>
<path style="fill:none;stroke-width:0.005;stroke-linecap:butt;stroke-linejoin:miter;stroke:rgb(0%,0%,0%);stroke-opacity:0.3;stroke-miterlimit:10;" d="M 0.16949 0.0402173 C 0.16949 0.0535474 0.149495 0.0535474 0.149495 0.0402173 C 0.149495 0.0268799 0.16949 0.0268799 0.16949 0.0402173 " transform="matrix(0.000000000000032657,-533.333333,-533.333333,-0.000000000000032657,400,400)"/>
<path style="fill:none;stroke-width:0.005;stroke-linecap:butt;stroke-linejoin:miter;stroke:rgb(0%,0%,0%);stroke-opacity:0.3;stroke-miterlimit:10;" d="M 0.0093457 0.0975879 C 0.0093457 0.110918 -0.0106567 0.110918 -0.0106567 0.0975879 C -0.0106567 0.0842505 0.0093457 0.0842505 0.0093457 0.0975879 " transform="matrix(0.000000000000032657,-533.333333,-533.333333,-0.000000000000032657,400,400)"/>
<path style="fill:none;stroke-width:0.005;stroke-linecap:butt;stroke-linejoin:miter;stroke:rgb(0%,0%,0%);stroke-opacity:0.3;stroke-miterlimit:10;" d="M 0.14532 0.020105 C 0.14532 0.0334351 0.125325 0.0334351 0.125325 0.020105 C 0.125325 0.0067749 0.14532 0.0067749 0.14532 0.020105 " transform="matrix(0.000000000000032657,-533.333333,-533.333333,-0.000000000000032657,400,400)"/>
<path style="fill:none;stroke-width:0.005;stroke-linecap:butt;stroke-linejoin:miter;stroke:rgb(0%,0%,0%);stroke-opacity:0.3;stroke-miterlimit:10;" d="M 0.0841553 -0.218533 C 0.0841553 -0.205203 0.0641602 -0.205203 0.0641602 -0.218533 C 0.0641602 -0.23187 0.0841553 -0.23187 0.0841553 -0.218533 " transform="matrix(0.000000000000032657,-533.333333,-533.333333,-0.000000000000032657,400,400)"/>
<path style="fill:none;stroke-width:0.005;stroke-linecap:butt;stroke-linejoin:miter;stroke:rgb(0%,0%,0%);stroke-opacity:0.3;stroke-miterlimit:10;" d="M 0.00996094 -0.174858 C 0.00996094 -0.161528 -0.0100342 -0.161528 -0.0100342 -0.174858 C -0.0100342 -0.188196 0.00996094 -0.188196 0.00996094 -0.174858 " transform="matrix(0.000000000000032657,-533.333333,-533.333333,-0.000000000000032657,400,400)"/>
<path style="fill:none;stroke-width:0.005;stroke-linecap:butt;stroke-linejoin:miter;stroke:rgb(0%,0%,0%);stroke-opacity:0.3;stroke-miterlimit:10;" d="M -0.100415 0.173708 C -0.100415 0.187046 -0.120417 0.187046 -0.120417 0.173708 C -0.120417 0.160378 -0.100415 0.160378 -0.100415 0.173708 " transform="matrix(0.000000000000032657,-533.333333,-533.333333,-0.000000000000032657,400,400)"/>
<path style="fill:none;stroke-width:0.005;stroke-linecap:butt;stroke-linejoin:miter;stroke:rgb(0%,0%,0%);stroke-opacity:0.3;stroke-miterlimit:10;" d="M -0.0862646 -0.171218 C -0.0862646 -0.157888 -0.106267 -0.157888 -0.106267 -0.171218 C -0.106267 -0.184556 -0.0862646 -0.184556 -0.0862646 -0.171218 " transform="matrix(0.000000000000032657,-533.333333,-533.333333,-0.000000000000032657,400,400)"/>
<path style="fill:none;stroke-width:0.005;stroke-linecap:butt;stroke-linejoin:miter;stroke:rgb(0%,0%,0%);stroke-opacity:0.3;stroke-miterlimit:10;" d="M -0.0821045 -0.203401 C -0.0821045 -0.190071 -0.102107 -0.190071 -0.102107 -0.203401 C -0.102107 -0.216738 -0.0821045 -0.216738 -0.0821045 -0.203401 " transform="matrix(0.000000000000032657,-533.333333,-533.333333,-0.000000000000032657,400,400)"/>
<path style="fill:none;stroke-width:0.005;stroke-linecap:butt;stroke-linejoin:miter;stroke:rgb(0%,0%,0%);stroke-opacity:0.3;stroke-miterlimit:10;" d="M 0.180857 0.00804932 C 0.180857 0.0213794 0.160854 0.0213794 0.160854 0.00804932 C 0.160854 -0.00528076 0.180857 -0.00528076 0.180857 0.00804932 " transform="matrix(0.000000000000032657,-533.333333,-533.333333,-0.000000000000032657,400,400)"/>
<path style="fill:none;stroke-width:0.005;stroke-linecap:butt;stroke-linejoin:miter;stroke:rgb(0%,0%,0%);stroke-opacity:0.3;stroke-miterlimit:10;" d="M -0.0390747 -0.235034 C -0.0390747 -0.221704 -0.0590771 -0.221704 -0.0590771 -0.235034 C -0.0590771 -0.248372 -0.0390747 -0.248372 -0.0390747 -0.235034 " transform="matrix(0.000000000000032657,-533.333333,-533.333333,-0.000000000000032657,400,400)"/>
<path style="fill:none;stroke-width:0.005;stroke-linecap:butt;stroke-linejoin:miter;stroke:rgb(0%,0%,0%);stroke-opacity:0.3;stroke-miterlimit:10;" d="M -0.196611 0.00206543 C -0.196611 0.0154028 -0.216606 0.0154028 -0.216606 0.00206543 C -0.216606 -0.0112646 -0.196611 -0.0112646 -0.196611 0.00206543 " transform="matrix(0.000000000000032657,-533.333333,-533.333333,-0.000000000000032657,400,400)"/>
<path style="fill:none;stroke-width:0.005;stroke-linecap:butt;stroke-linejoin:miter;stroke:rgb(0%,0%,0%);stroke-opacity:0.3;stroke-miterlimit:10;" d="M 0.191968 -0.0104956 C 0.191968 0.00283447 0.171965 0.00283447 0.171965 -0.0104956 C 0.171965 -0.023833 0.191968 -0.023833 0.191968 -0.0104956 " transform="matrix(0.000000000000032657,-533.333333,-533.333333,-0.000000000000032657,400,400)"/>
<path style="fill:none;stroke-width:0.005;stroke-linecap:butt;stroke-linejoin:miter;stroke:rgb(0%,0%,0%);stroke-opacity:0.3;stroke-miterlimit:10;" d="M -0.137227 0.151802 C -0.137227 0.165139 -0.157229 0.165139 -0.157229 0.151802 C -0.157229 0.138472 -0.137227 0.138472 -0.137227 0.151802 " transform="matrix(0.000000000000032657,-533.333333,-533.333333,-0.000000000000032657,400,400)"/>
<path style="fill:none;stroke-width:0.005;stroke-linecap:butt;stroke-linejoin:miter;stroke:rgb(0%,0%,0%);stroke-opacity:0.3;stroke-miterlimit:10;" d="M -0.0857007 -0.212966 C -0.0857007 -0.199629 -0.105703 -0.199629 -0.105703 -0.212966 C -0.105703 -0.226296 -0.0857007 -0.226296 -0.0857007 -0.212966 " transform="matrix(0.000000000000032657,-533.333333,-533.333333,-0.000000000000032657,400,400)"/>
<path style="fill:none;stroke-width:0.005;stroke-linecap:butt;stroke-linejoin:miter;stroke:rgb(0%,0%,0%);stroke-opacity:0.3;stroke-miterlimit:10;" d="M -0.0485083 -0.0339331 C -0.0485083 -0.020603 -0.0685107 -0.020603 -0.0685107 -0.0339331 C -0.0685107 -0.0472705 -0.0485083 -0.0472705 -0.0485083 -0.0339331 " transform="matrix(0.000000000000032657,-533.333333,-533.333333,-0.000000000000032657,400,400)"/>
<path style="fill:none;stroke-width:0.005;stroke-linecap:butt;stroke-linejoin:miter;stroke:rgb(0%,0%,0%);stroke-opacity:0.3;stroke-miterlimit:10;" d="M 0.0880664 0.176499 C 0.0880664 0.189836 0.068064 0.189836 0.068064 0.176499 C 0.068064 0.163169 0.0880664 0.163169 0.0880664 0.176499 " transform="matrix(0.000000000000032657,-533.333333,-533.333333,-0.000000000000032657,400,400)"/>
<path style="fill:none;stroke-width:0.005;stroke-linecap:butt;stroke-linejoin:miter;stroke:rgb(0%,0%,0%);stroke-opacity:0.3;stroke-miterlimit:10;" d="M 0.21676 -0.0952881 C 0.21676 -0.081958 0.196765 -0.081958 0.196765 -0.0952881 C 0.196765 -0.108625 0.21676 -0.108625 0.21676 -0.0952881 " transform="matrix(0.000000000000032657,-533.333333,-533.333333,-0.000000000000032657,400,400)"/>
<path style="fill:none;stroke-width:0.005;stroke-linecap:butt;stroke-linejoin:miter;stroke:rgb(0%,0%,0%);stroke-opacity:0.3;stroke-miterlimit:10;" d="M -0.165784 0.16262 C -0.165784 0.17595 -0.185786 0.17595 -0.185786 0.16262 C -0.185786 0.149282 -0.165784 0.149282 -0.165784 0.16262 " transform="matrix(0.000000000000032657,-533.333333,-533.333333,-0.000000000000032657,400,400)"/>
<path style="fill:none;stroke-width:0.005;stroke-linecap:butt;stroke-linejoin:miter;stroke:rgb(0%,0%,0%);stroke-opacity:0.3;stroke-miterlimit:10;" d="M -0.0675366 -0.0952881 C -0.0675366 -0.081958 -0.0875317 -0.081958 -0.0875317 -0.0952881 C -0.0875317 -0.108625 -0.0675366 -0.108625 -0.0675366 -0.0952881 " transform="matrix(0.000000000000032657,-533.333333,-533.333333,-0.000000000000032657,400,400)"/>
<path style="fill:none;stroke-width:0.005;stroke-linecap:butt;stroke-linejoin:miter;stroke:rgb(0%,0%,0%);stroke-opacity:0.3;stroke-miterlimit:10;" d="M 0.0515552 0.0616113 C 0.0515552 0.0749414 0.0315601 0.0749414 0.0315601 0.0616113 C 0.0315601 0.0482739 0.0515552 0.0482739 0.0515552 0.0616113 " transform="matrix(0.000000000000032657,-533.333333,-533.333333,-0.000000000000032657,400,400)"/>
<path style="fill:none;stroke-width:0.005;stroke-linecap:butt;stroke-linejoin:miter;stroke:rgb(0%,0%,0%);stroke-opacity:0.3;stroke-miterlimit:10;" d="M 0.0286597 -0.218145 C 0.0286597 -0.204814 0.00865723 -0.204814 0.00865723 -0.218145 C 0.00865723 -0.231482 0.0286597 -0.231482 0.0286597 -0.218145 " transform="matrix(0.000000000000032657,-533.333333,-533.333333,-0.000000000000032657,400,400)"/>
<path style="fill:none;stroke-width:0.005;stroke-linecap:butt;stroke-linejoin:miter;stroke:rgb(0%,0%,0%);stroke-opacity:0.3;stroke-miterlimit:10;" d="M 0.0497974 -0.102136 C 0.0497974 -0.0888062 0.0297949 -0.0888062 0.0297949 -0.102136 C 0.0297949 -0.115474 0.0497974 -0.115474 0.0497974 -0.102136 " transform="matrix(0.000000000000032657,-533.333333,-533.333333,-0.000000000000032657,400,400)"/>
<path style="fill:none;stroke-width:0.005;stroke-linecap:butt;stroke-linejoin:miter;stroke:rgb(0%,0%,0%);stroke-opacity:0.3;stroke-miterlimit:10;" d="M 0.174207 -0.0437988 C 0.174207 -0.0304614 0.154204 -0.0304614 0.154204 -0.0437988 C 0.154204 -0.0571289 0.174207 -0.0571289 0.174207 -0.0437988 " transform="matrix(0.000000000000032657,-533.333333,-533.333333,-0.000000000000032657,400,400)"/>
<path style="fill:none;stroke-width:0.005;stroke-linecap:butt;stroke-linejoin:miter;stroke:rgb(0%,0%,0%);stroke-opacity:0.3;stroke-miterlimit:10;" d="M 0.124944 0.107102 C 0.124944 0.120432 0.104941 0.120432 0.104941 0.107102 C 0.104941 0.0937646 0.124944 0.0937646 0.124944 0.107102 " transform="matrix(0.000000000000032657,-533.333333,-533.333333,-0.000000000000032657,400,400)"/>
<path style="fill:none;stroke-width:0.005;stroke-linecap:butt;stroke-linejoin:miter;stroke:rgb(0%,0%,0%);stroke-opacity:0.3;stroke-miterlimit:10;" d="M -0.0246021 -0.00233643 C -0.0246021 0.0109937 -0.0445972 0.0109937 -0.0445972 -0.00233643 C -0.0445972 -0.0156665 -0.0246021 -0.0156665 -0.0246021 -0.00233643 " transform="matrix(0.000000000000032657,-533.333333,-533.333333,-0.000000000000032657,400,400)"/>
<path style="fill:none;stroke-width:0.005;stroke-linecap:butt;stroke-linejoin:miter;stroke:rgb(0%,0%,0%);stroke-opacity:0.3;stroke-miterlimit:10;" d="M -0.0337793 0.0287769 C -0.0337793 0.0421143 -0.0537817 0.0421143 -0.0537817 0.0287769 C -0.0537817 0.0154468 -0.0337793 0.0154468 -0.0337793 0.0287769 " transform="matrix(0.000000000000032657,-533.333333,-533.333333,-0.000000000000032657,400,400)"/>
<path style="fill:none;stroke-width:0.005;stroke-linecap:butt;stroke-linejoin:miter;stroke:rgb(0%,0%,0%);stroke-opacity:0.3;stroke-miterlimit:10;" d="M 0.147144 0.182388 C 0.147144 0.195725 0.127141 0.195725 0.127141 0.182388 C 0.127141 0.169058 0.147144 0.169058 0.147144 0.182388 " transform="matrix(0.000000000000032657,-533.333333,-533.333333,-0.000000000000032657,400,400)"/>
<path style="fill:none;stroke-width:0.005;stroke-linecap:butt;stroke-linejoin:miter;stroke:rgb(0%,0%,0%);stroke-opacity:0.3;stroke-miterlimit:10;" d="M -0.00615234 0.014502 C -0.00615234 0.027832 -0.0261475 0.027832 -0.0261475 0.014502 C -0.0261475 0.00117188 -0.00615234 0.00117188 -0.00615234 0.014502 " transform="matrix(0.000000000000032657,-533.333333,-533.333333,-0.000000000000032657,400,400)"/>
<path style="fill:none;stroke-width:0.005;stroke-linecap:butt;stroke-linejoin:miter;stroke:rgb(0%,0%,0%);stroke-opacity:0.3;stroke-miterlimit:10;" d="M -0.175986 0.113928 C -0.175986 0.127266 -0.195989 0.127266 -0.195989 0.113928 C -0.195989 0.100598 -0.175986 0.100598 -0.175986 0.113928 " transform="matrix(0.000000000000032657,-533.333333,-533.333333,-0.000000000000032657,400,400)"/>
<path style="fill:none;stroke-width:0.005;stroke-linecap:butt;stroke-linejoin:miter;stroke:rgb(0%,0%,0%);stroke-opacity:0.3;stroke-miterlimit:10;" d="M 0.0859131 -0.203013 C 0.0859131 -0.189675 0.0659106 -0.189675 0.0659106 -0.203013 C 0.0659106 -0.216343 0.0859131 -0.216343 0.0859131 -0.203013 " transform="matrix(0.000000000000032657,-533.333333,-533.333333,-0.000000000000032657,400,400)"/>
<path style="fill:none;stroke-width:0.005;stroke-linecap:butt;stroke-linejoin:miter;stroke:rgb(0%,0%,0%);stroke-opacity:0.3;stroke-miterlimit:10;" d="M 0.206177 -0.0371924 C 0.206177 -0.0238623 0.186182 -0.0238623 0.186182 -0.0371924 C 0.186182 -0.0505298 0.206177 -0.0505298 0.206177 -0.0371924 " transform="matrix(0.000000000000032657,-533.333333,-533.333333,-0.000000000000032657,400,400)"/>
<path style="fill:none;stroke-width:0.005;stroke-linecap:butt;stroke-linejoin:miter;stroke:rgb(0%,0%,0%);stroke-opacity:0.3;stroke-miterlimit:10;" d="M 0.107483 -0.0392944 C 0.107483 -0.025957 0.0874805 -0.025957 0.0874805 -0.0392944 C 0.0874805 -0.0526245 0.107483 -0.0526245 0.107483 -0.0392944 " transform="matrix(0.000000000000032657,-533.333333,-533.333333,-0.000000000000032657,400,400)"/>
<path style="fill:none;stroke-width:0.005;stroke-linecap:butt;stroke-linejoin:miter;stroke:rgb(0%,0%,0%);stroke-opacity:0.3;stroke-miterlimit:10;" d="M -0.0890259 -0.0869019 C -0.0890259 -0.0735718 -0.109028 -0.0735718 -0.109028 -0.0869019 C -0.109028 -0.100232 -0.0890259 -0.100232 -0.0890259 -0.0869019 " transform="matrix(0.000000000000032657,-533.333333,-533.333333,-0.000000000000032657,400,400)"/>
<path style="fill:none;stroke-width:0.005;stroke-linecap:butt;stroke-linejoin:miter;stroke:rgb(0%,0%,0%);stroke-opacity:0.3;stroke-miterlimit:10;" d="M -0.0587915 0.00512695 C -0.0587915 0.0184644 -0.0787939 0.0184644 -0.0787939 0.00512695 C -0.0787939 -0.00820312 -0.0587915 -0.00820312 -0.0587915 0.00512695 " transform="matrix(0.000000000000032657,-533.333333,-533.333333,-0.000000000000032657,400,400)"/>
<path style="fill:none;stroke-width:0.005;stroke-linecap:butt;stroke-linejoin:miter;stroke:rgb(0%,0%,0%);stroke-opacity:0.3;stroke-miterlimit:10;" d="M 0.224385 0.0517603 C 0.224385 0.0650903 0.204382 0.0650903 0.204382 0.0517603 C 0.204382 0.0384229 0.224385 0.0384229 0.224385 0.0517603 " transform="matrix(0.000000000000032657,-533.333333,-533.333333,-0.000000000000032657,400,400)"/>
<path style="fill:none;stroke-width:0.005;stroke-linecap:butt;stroke-linejoin:miter;stroke:rgb(0%,0%,0%);stroke-opacity:0.3;stroke-miterlimit:10;" d="M 0.202903 0.157566 C 0.202903 0.170896 0.1829 0.170896 0.1829 0.157566 C 0.1829 0.144229 0.202903 0.144229 0.202903 0.157566 " transform="matrix(0.000000000000032657,-533.333333,-533.333333,-0.000000000000032657,400,400)"/>
<path style="fill:none;stroke-width:0.005;stroke-linecap:butt;stroke-linejoin:miter;stroke:rgb(0%,0%,0%);stroke-opacity:0.3;stroke-miterlimit:10;" d="M 0.0357349 0.0213428 C 0.0357349 0.0346802 0.0157324 0.0346802 0.0157324 0.0213428 C 0.0157324 0.0080127 0.0357349 0.0080127 0.0357349 0.0213428 " transform="matrix(0.000000000000032657,-533.333333,-533.333333,-0.000000000000032657,400,400)"/>
<path style="fill:none;stroke-width:0.005;stroke-linecap:butt;stroke-linejoin:miter;stroke:rgb(0%,0%,0%);stroke-opacity:0.3;stroke-miterlimit:10;" d="M -0.0900146 -0.0598242 C -0.0900146 -0.0464941 -0.110017 -0.0464941 -0.110017 -0.0598242 C -0.110017 -0.0731616 -0.0900146 -0.0731616 -0.0900146 -0.0598242 " transform="matrix(0.000000000000032657,-533.333333,-533.333333,-0.000000000000032657,400,400)"/>
<path style="fill:none;stroke-width:0.005;stroke-linecap:butt;stroke-linejoin:miter;stroke:rgb(0%,0%,0%);stroke-opacity:0.3;stroke-miterlimit:10;" d="M 0.0839209 0.183867 C 0.0839209 0.197197 0.0639258 0.197197 0.0639258 0.183867 C 0.0639258 0.17053 0.0839209 0.17053 0.0839209 0.183867 " transform="matrix(0.000000000000032657,-533.333333,-533.333333,-0.000000000000032657,400,400)"/>
<path style="fill:none;stroke-width:0.005;stroke-linecap:butt;stroke-linejoin:miter;stroke:rgb(0%,0%,0%);stroke-opacity:0.3;stroke-miterlimit:10;" d="M -0.103711 0.129851 C -0.103711 0.143188 -0.123713 0.143188 -0.123713 0.129851 C -0.123713 0.116521 -0.103711 0.116521 -0.103711 0.129851 " transform="matrix(0.000000000000032657,-533.333333,-533.333333,-0.000000000000032657,400,400)"/>
<path style="fill:none;stroke-width:0.005;stroke-linecap:butt;stroke-linejoin:miter;stroke:rgb(0%,0%,0%);stroke-opacity:0.3;stroke-miterlimit:10;" d="M -0.129507 0.140098 C -0.129507 0.153435 -0.149502 0.153435 -0.149502 0.140098 C -0.149502 0.126768 -0.129507 0.126768 -0.129507 0.140098 " transform="matrix(0.000000000000032657,-533.333333,-533.333333,-0.000000000000032657,400,400)"/>
<path style="fill:none;stroke-width:0.005;stroke-linecap:butt;stroke-linejoin:miter;stroke:rgb(0%,0%,0%);stroke-opacity:0.3;stroke-miterlimit:10;" d="M 0.139709 0.211677 C 0.139709 0.225015 0.119707 0.225015 0.119707 0.211677 C 0.119707 0.198347 0.139709 0.198347 0.139709 0.211677 " transform="matrix(0.000000000000032657,-533.333333,-533.333333,-0.000000000000032657,400,400)"/>
<path style="fill:none;stroke-width:0.005;stroke-linecap:butt;stroke-linejoin:miter;stroke:rgb(0%,0%,0%);stroke-opacity:0.3;stroke-miterlimit:10;" d="M -0.0565649 0.224253 C -0.0565649 0.237583 -0.0765601 0.237583 -0.0765601 0.224253 C -0.0765601 0.210923 -0.0565649 0.210923 -0.0565649 0.224253 " transform="matrix(0.000000000000032657,-533.333333,-533.333333,-0.000000000000032657,400,400)"/>
<path style="fill:none;stroke-width:0.005;stroke-linecap:butt;stroke-linejoin:miter;stroke:rgb(0%,0%,0%);stroke-opacity:0.3;stroke-miterlimit:10;" d="M -0.0340283 -0.226707 C -0.0340283 -0.213376 -0.0540308 -0.213376 -0.0540308 -0.226707 C -0.0540308 -0.240044 -0.0340283 -0.240044 -0.0340283 -0.226707 " transform="matrix(0.000000000000032657,-533.333333,-533.333333,-0.000000000000032657,400,400)"/>
<path style="fill:none;stroke-width:0.005;stroke-linecap:butt;stroke-linejoin:miter;stroke:rgb(0%,0%,0%);stroke-opacity:0.3;stroke-miterlimit:10;" d="M 0.114705 -0.16804 C 0.114705 -0.154709 0.0947021 -0.154709 0.0947021 -0.16804 C 0.0947021 -0.181377 0.114705 -0.181377 0.114705 -0.16804 " transform="matrix(0.000000000000032657,-533.333333,-533.333333,-0.000000000000032657,400,400)"/>
<path style="fill:none;stroke-width:0.005;stroke-linecap:butt;stroke-linejoin:miter;stroke:rgb(0%,0%,0%);stroke-opacity:0.3;stroke-miterlimit:10;" d="M 0.0506104 0.232097 C 0.0506104 0.245427 0.0306079 0.245427 0.0306079 0.232097 C 0.0306079 0.21876 0.0506104 0.21876 0.0506104 0.232097 " transform="matrix(0.000000000000032657,-533.333333,-533.333333,-0.000000000000032657,400,400)"/>
<path style="fill:none;stroke-width:0.005;stroke-linecap:butt;stroke-linejoin:miter;stroke:rgb(0%,0%,0%);stroke-opacity:0.3;stroke-miterlimit:10;" d="M 0.0168384 -0.0428467 C 0.0168384 -0.0295093 -0.00315674 -0.0295093 -0.00315674 -0.0428467 C -0.00315674 -0.0561768 0.0168384 -0.0561768 0.0168384 -0.0428467 " transform="matrix(0.000000000000032657,-533.333333,-533.333333,-0.000000000000032657,400,400)"/>
<path style="fill:none;stroke-width:0.005;stroke-linecap:butt;stroke-linejoin:miter;stroke:rgb(0%,0%,0%);stroke-opacity:0.3;stroke-miterlimit:10;" d="M 0.223132 0.106641 C 0.223132 0.119978 0.20313 0.119978 0.20313 0.106641 C 0.20313 0.0933105 0.223132 0.0933105 0.223132 0.106641 " transform="matrix(0.000000000000032657,-533.333333,-533.333333,-0.000000000000032657,400,400)"/>
<path style="fill:none;stroke-width:0.005;stroke-linecap:butt;stroke-linejoin:miter;stroke:rgb(0%,0%,0%);stroke-opacity:0.3;stroke-miterlimit:10;" d="M -0.0255176 -0.202749 C -0.0255176 -0.189419 -0.0455127 -0.189419 -0.0455127 -0.202749 C -0.0455127 -0.216086 -0.0255176 -0.216086 -0.0255176 -0.202749 " transform="matrix(0.000000000000032657,-533.333333,-533.333333,-0.000000000000032657,400,400)"/>
<path style="fill:none;stroke-width:0.005;stroke-linecap:butt;stroke-linejoin:miter;stroke:rgb(0%,0%,0%);stroke-opacity:0.3;stroke-miterlimit:10;" d="M -0.100906 0.0304907 C -0.100906 0.0438208 -0.120908 0.0438208 -0.120908 0.0304907 C -0.120908 0.0171533 -0.100906 0.0171533 -0.100906 0.0304907 " transform="matrix(0.000000000000032657,-533.333333,-533.333333,-0.000000000000032657,400,400)"/>
<path style="fill:none;stroke-width:0.005;stroke-linecap:butt;stroke-linejoin:miter;stroke:rgb(0%,0%,0%);stroke-opacity:0.3;stroke-miterlimit:10;" d="M 0.0780615 -0.137944 C 0.0780615 -0.124607 0.0580664 -0.124607 0.0580664 -0.137944 C 0.0580664 -0.151274 0.0780615 -0.151274 0.0780615 -0.137944 " transform="matrix(0.000000000000032657,-533.333333,-533.333333,-0.000000000000032657,400,400)"/>
<path style="fill:none;stroke-width:0.005;stroke-linecap:butt;stroke-linejoin:miter;stroke:rgb(0%,0%,0%);stroke-opacity:0.3;stroke-miterlimit:10;" d="M -0.075022 0.00745605 C -0.075022 0.0207935 -0.0950171 0.0207935 -0.0950171 0.00745605 C -0.0950171 -0.00587402 -0.075022 -0.00587402 -0.075022 0.00745605 " transform="matrix(0.000000000000032657,-533.333333,-533.333333,-0.000000000000032657,400,400)"/>
<path style="fill:none;stroke-width:0.005;stroke-linecap:butt;stroke-linejoin:miter;stroke:rgb(0%,0%,0%);stroke-opacity:0.3;stroke-miterlimit:10;" d="M -0.0968628 -0.0400269 C -0.0968628 -0.0266895 -0.116865 -0.0266895 -0.116865 -0.0400269 C -0.116865 -0.0533569 -0.0968628 -0.0533569 -0.0968628 -0.0400269 " transform="matrix(0.000000000000032657,-533.333333,-533.333333,-0.000000000000032657,400,400)"/>
<path style="fill:none;stroke-width:0.005;stroke-linecap:butt;stroke-linejoin:miter;stroke:rgb(0%,0%,0%);stroke-opacity:0.3;stroke-miterlimit:10;" d="M 0.213582 0.0495264 C 0.213582 0.0628564 0.193579 0.0628564 0.193579 0.0495264 C 0.193579 0.036189 0.213582 0.036189 0.213582 0.0495264 " transform="matrix(0.000000000000032657,-533.333333,-533.333333,-0.000000000000032657,400,400)"/>
<path style="fill:none;stroke-width:0.005;stroke-linecap:butt;stroke-linejoin:miter;stroke:rgb(0%,0%,0%);stroke-opacity:0.3;stroke-miterlimit:10;" d="M 0.00060791 0.083606 C 0.00060791 0.096936 -0.0193872 0.096936 -0.0193872 0.083606 C -0.0193872 0.0702759 0.00060791 0.0702759 0.00060791 0.083606 " transform="matrix(0.000000000000032657,-533.333333,-533.333333,-0.000000000000032657,400,400)"/>
<path style="fill:none;stroke-width:0.005;stroke-linecap:butt;stroke-linejoin:miter;stroke:rgb(0%,0%,0%);stroke-opacity:0.3;stroke-miterlimit:10;" d="M 0.254114 0.0326367 C 0.254114 0.0459741 0.234111 0.0459741 0.234111 0.0326367 C 0.234111 0.0193066 0.254114 0.0193066 0.254114 0.0326367 " transform="matrix(0.000000000000032657,-533.333333,-533.333333,-0.000000000000032657,400,400)"/>
<path style="fill:none;stroke-width:0.005;stroke-linecap:butt;stroke-linejoin:miter;stroke:rgb(0%,0%,0%);stroke-opacity:0.3;stroke-miterlimit:10;" d="M -0.0189624 0.0740625 C -0.0189624 0.0873926 -0.0389575 0.0873926 -0.0389575 0.0740625 C -0.0389575 0.0607251 -0.0189624 0.0607251 -0.0189624 0.0740625 " transform="matrix(0.000000000000032657,-533.333333,-533.333333,-0.000000000000032657,400,400)"/>
<path style="fill:none;stroke-width:0.005;stroke-linecap:butt;stroke-linejoin:miter;stroke:rgb(0%,0%,0%);stroke-opacity:0.3;stroke-miterlimit:10;" d="M -0.137161 0.11198 C -0.137161 0.125317 -0.157163 0.125317 -0.157163 0.11198 C -0.157163 0.0986499 -0.137161 0.0986499 -0.137161 0.11198 " transform="matrix(0.000000000000032657,-533.333333,-533.333333,-0.000000000000032657,400,400)"/>
<path style="fill:none;stroke-width:0.005;stroke-linecap:butt;stroke-linejoin:miter;stroke:rgb(0%,0%,0%);stroke-opacity:0.3;stroke-miterlimit:10;" d="M -0.0924243 0.175723 C -0.0924243 0.18906 -0.112419 0.18906 -0.112419 0.175723 C -0.112419 0.162393 -0.0924243 0.162393 -0.0924243 0.175723 " transform="matrix(0.000000000000032657,-533.333333,-533.333333,-0.000000000000032657,400,400)"/>
<path style="fill:none;stroke-width:0.005;stroke-linecap:butt;stroke-linejoin:miter;stroke:rgb(0%,0%,0%);stroke-opacity:0.3;stroke-miterlimit:10;" d="M -0.196824 -0.0674854 C -0.196824 -0.0541553 -0.216826 -0.0541553 -0.216826 -0.0674854 C -0.216826 -0.0808228 -0.196824 -0.0808228 -0.196824 -0.0674854 " transform="matrix(0.000000000000032657,-533.333333,-533.333333,-0.000000000000032657,400,400)"/>
<path style="fill:none;stroke-width:0.005;stroke-linecap:butt;stroke-linejoin:miter;stroke:rgb(0%,0%,0%);stroke-opacity:0.3;stroke-miterlimit:10;" d="M -0.000593262 0.175723 C -0.000593262 0.189053 -0.0205957 0.189053 -0.0205957 0.175723 C -0.0205957 0.162385 -0.000593262 0.162385 -0.000593262 0.175723 " transform="matrix(0.000000000000032657,-533.333333,-533.333333,-0.000000000000032657,400,400)"/>
<path style="fill:none;stroke-width:0.005;stroke-linecap:butt;stroke-linejoin:miter;stroke:rgb(0%,0%,0%);stroke-opacity:0.3;stroke-miterlimit:10;" d="M -0.0725391 -0.0905273 C -0.0725391 -0.0771899 -0.0925342 -0.0771899 -0.0925342 -0.0905273 C -0.0925342 -0.103857 -0.0725391 -0.103857 -0.0725391 -0.0905273 " transform="matrix(0.000000000000032657,-533.333333,-533.333333,-0.000000000000032657,400,400)"/>
<path style="fill:none;stroke-width:0.005;stroke-linecap:butt;stroke-linejoin:miter;stroke:rgb(0%,0%,0%);stroke-opacity:0.3;stroke-miterlimit:10;" d="M 0.173042 0.161125 C 0.173042 0.174456 0.153047 0.174456 0.153047 0.161125 C 0.153047 0.147788 0.173042 0.147788 0.173042 0.161125 " transform="matrix(0.000000000000032657,-533.333333,-533.333333,-0.000000000000032657,400,400)"/>
<path style="fill:none;stroke-width:0.005;stroke-linecap:butt;stroke-linejoin:miter;stroke:rgb(0%,0%,0%);stroke-opacity:0.3;stroke-miterlimit:10;" d="M 0.125588 -0.163938 C 0.125588 -0.150601 0.105586 -0.150601 0.105586 -0.163938 C 0.105586 -0.177268 0.125588 -0.177268 0.125588 -0.163938 " transform="matrix(0.000000000000032657,-533.333333,-533.333333,-0.000000000000032657,400,400)"/>
<path style="fill:none;stroke-width:0.005;stroke-linecap:butt;stroke-linejoin:miter;stroke:rgb(0%,0%,0%);stroke-opacity:0.3;stroke-miterlimit:10;" d="M -0.22207 -0.0581396 C -0.22207 -0.0448096 -0.242073 -0.0448096 -0.242073 -0.0581396 C -0.242073 -0.0714771 -0.22207 -0.0714771 -0.22207 -0.0581396 " transform="matrix(0.000000000000032657,-533.333333,-533.333333,-0.000000000000032657,400,400)"/>
<path style="fill:none;stroke-width:0.005;stroke-linecap:butt;stroke-linejoin:miter;stroke:rgb(0%,0%,0%);stroke-opacity:0.3;stroke-miterlimit:10;" d="M 0.201687 -0.000541992 C 0.201687 0.0127881 0.181692 0.0127881 0.181692 -0.000541992 C 0.181692 -0.0138794 0.201687 -0.0138794 0.201687 -0.000541992 " transform="matrix(0.000000000000032657,-533.333333,-533.333333,-0.000000000000032657,400,400)"/>
<path style="fill:none;stroke-width:0.005;stroke-linecap:butt;stroke-linejoin:miter;stroke:rgb(0%,0%,0%);stroke-opacity:0.3;stroke-miterlimit:10;" d="M 0.0230786 0.157983 C 0.0230786 0.171313 0.00307617 0.171313 0.00307617 0.157983 C 0.00307617 0.144646 0.0230786 0.144646 0.0230786 0.157983 " transform="matrix(0.000000000000032657,-533.333333,-533.333333,-0.000000000000032657,400,400)"/>
<path style="fill:none;stroke-width:0.005;stroke-linecap:butt;stroke-linejoin:miter;stroke:rgb(0%,0%,0%);stroke-opacity:0.3;stroke-miterlimit:10;" d="M -0.025686 -0.0591577 C -0.025686 -0.0458203 -0.0456885 -0.0458203 -0.0456885 -0.0591577 C -0.0456885 -0.0724878 -0.025686 -0.0724878 -0.025686 -0.0591577 " transform="matrix(0.000000000000032657,-533.333333,-533.333333,-0.000000000000032657,400,400)"/>
<path style="fill:none;stroke-width:0.005;stroke-linecap:butt;stroke-linejoin:miter;stroke:rgb(0%,0%,0%);stroke-opacity:0.3;stroke-miterlimit:10;" d="M -0.0554883 -0.106245 C -0.0554883 -0.0929077 -0.0754907 -0.0929077 -0.0754907 -0.106245 C -0.0754907 -0.119575 -0.0554883 -0.119575 -0.0554883 -0.106245 " transform="matrix(0.000000000000032657,-533.333333,-533.333333,-0.000000000000032657,400,400)"/>
<path style="fill:none;stroke-width:0.005;stroke-linecap:butt;stroke-linejoin:miter;stroke:rgb(0%,0%,0%);stroke-opacity:0.3;stroke-miterlimit:10;" d="M -0.118989 0.179802 C -0.118989 0.193132 -0.138992 0.193132 -0.138992 0.179802 C -0.138992 0.166465 -0.118989 0.166465 -0.118989 0.179802 " transform="matrix(0.000000000000032657,-533.333333,-533.333333,-0.000000000000032657,400,400)"/>
<path style="fill:none;stroke-width:0.005;stroke-linecap:butt;stroke-linejoin:miter;stroke:rgb(0%,0%,0%);stroke-opacity:0.3;stroke-miterlimit:10;" d="M -0.16396 -0.105798 C -0.16396 -0.0924683 -0.183962 -0.0924683 -0.183962 -0.105798 C -0.183962 -0.119128 -0.16396 -0.119128 -0.16396 -0.105798 " transform="matrix(0.000000000000032657,-533.333333,-533.333333,-0.000000000000032657,400,400)"/>
<path style="fill:none;stroke-width:0.005;stroke-linecap:butt;stroke-linejoin:miter;stroke:rgb(0%,0%,0%);stroke-opacity:0.3;stroke-miterlimit:10;" d="M 0.0385767 -0.233796 C 0.0385767 -0.220466 0.0185742 -0.220466 0.0185742 -0.233796 C 0.0185742 -0.247126 0.0385767 -0.247126 0.0385767 -0.233796 " transform="matrix(0.000000000000032657,-533.333333,-533.333333,-0.000000000000032657,400,400)"/>
<path style="fill:none;stroke-width:0.005;stroke-linecap:butt;stroke-linejoin:miter;stroke:rgb(0%,0%,0%);stroke-opacity:0.3;stroke-miterlimit:10;" d="M 0.15345 -0.0349878 C 0.15345 -0.0216577 0.133447 -0.0216577 0.133447 -0.0349878 C 0.133447 -0.0483252 0.15345 -0.0483252 0.15345 -0.0349878 " transform="matrix(0.000000000000032657,-533.333333,-533.333333,-0.000000000000032657,400,400)"/>
<path style="fill:none;stroke-width:0.005;stroke-linecap:butt;stroke-linejoin:miter;stroke:rgb(0%,0%,0%);stroke-opacity:0.3;stroke-miterlimit:10;" d="M 0.146887 -0.0949878 C 0.146887 -0.0816577 0.126892 -0.0816577 0.126892 -0.0949878 C 0.126892 -0.108318 0.146887 -0.108318 0.146887 -0.0949878 " transform="matrix(0.000000000000032657,-533.333333,-533.333333,-0.000000000000032657,400,400)"/>
<path style="fill:none;stroke-width:0.005;stroke-linecap:butt;stroke-linejoin:miter;stroke:rgb(0%,0%,0%);stroke-opacity:0.3;stroke-miterlimit:10;" d="M 0.0609741 -0.0252979 C 0.0609741 -0.0119604 0.040979 -0.0119604 0.040979 -0.0252979 C 0.040979 -0.0386279 0.0609741 -0.0386279 0.0609741 -0.0252979 " transform="matrix(0.000000000000032657,-533.333333,-533.333333,-0.000000000000032657,400,400)"/>
<path style="fill:none;stroke-width:0.005;stroke-linecap:butt;stroke-linejoin:miter;stroke:rgb(0%,0%,0%);stroke-opacity:0.3;stroke-miterlimit:10;" d="M 0.209165 0.0675879 C 0.209165 0.0809253 0.189163 0.0809253 0.189163 0.0675879 C 0.189163 0.0542578 0.209165 0.0542578 0.209165 0.0675879 " transform="matrix(0.000000000000032657,-533.333333,-533.333333,-0.000000000000032657,400,400)"/>
<path style="fill:none;stroke-width:0.005;stroke-linecap:butt;stroke-linejoin:miter;stroke:rgb(0%,0%,0%);stroke-opacity:0.3;stroke-miterlimit:10;" d="M 0.145481 -0.158767 C 0.145481 -0.145437 0.125479 -0.145437 0.125479 -0.158767 C 0.125479 -0.172097 0.145481 -0.172097 0.145481 -0.158767 " transform="matrix(0.000000000000032657,-533.333333,-533.333333,-0.000000000000032657,400,400)"/>
<path style="fill:none;stroke-width:0.005;stroke-linecap:butt;stroke-linejoin:miter;stroke:rgb(0%,0%,0%);stroke-opacity:0.3;stroke-miterlimit:10;" d="M -0.157551 0.171189 C -0.157551 0.184526 -0.177546 0.184526 -0.177546 0.171189 C -0.177546 0.157859 -0.157551 0.157859 -0.157551 0.171189 " transform="matrix(0.000000000000032657,-533.333333,-533.333333,-0.000000000000032657,400,400)"/>
<path style="fill:none;stroke-width:0.005;stroke-linecap:butt;stroke-linejoin:miter;stroke:rgb(0%,0%,0%);stroke-opacity:0.3;stroke-miterlimit:10;" d="M 0.0464209 0.1223 C 0.0464209 0.13563 0.0264185 0.13563 0.0264185 0.1223 C 0.0264185 0.108962 0.0464209 0.108962 0.0464209 0.1223 " transform="matrix(0.000000000000032657,-533.333333,-533.333333,-0.000000000000032657,400,400)"/>
<path style="fill:none;stroke-width:0.005;stroke-linecap:butt;stroke-linejoin:miter;stroke:rgb(0%,0%,0%);stroke-opacity:0.3;stroke-miterlimit:10;" d="M 0.123325 0.168647 C 0.123325 0.181985 0.103323 0.181985 0.103323 0.168647 C 0.103323 0.155317 0.123325 0.155317 0.123325 0.168647 " transform="matrix(0.000000000000032657,-533.333333,-533.333333,-0.000000000000032657,400,400)"/>
<path style="fill:none;stroke-width:0.005;stroke-linecap:butt;stroke-linejoin:miter;stroke:rgb(0%,0%,0%);stroke-opacity:0.3;stroke-miterlimit:10;" d="M -0.0950244 0.195227 C -0.0950244 0.208557 -0.115027 0.208557 -0.115027 0.195227 C -0.115027 0.18189 -0.0950244 0.18189 -0.0950244 0.195227 " transform="matrix(0.000000000000032657,-533.333333,-533.333333,-0.000000000000032657,400,400)"/>
<path style="fill:none;stroke-width:0.005;stroke-linecap:butt;stroke-linejoin:miter;stroke:rgb(0%,0%,0%);stroke-opacity:0.3;stroke-miterlimit:10;" d="M 0.152776 0.131521 C 0.152776 0.144851 0.132773 0.144851 0.132773 0.131521 C 0.132773 0.118191 0.152776 0.118191 0.152776 0.131521 " transform="matrix(0.000000000000032657,-533.333333,-533.333333,-0.000000000000032657,400,400)"/>
</g>
</svg>
