<?xml version="1.0" encoding="UTF-8"?>
<svg xmlns="http://www.w3.org/2000/svg" xmlns:xlink="http://www.w3.org/1999/xlink" width="500pt" height="500pt" viewBox="0 0 500 500" version="1.1">
<g id="surface0">
<path style="fill:none;stroke-width:0.005;stroke-linecap:butt;stroke-linejoin:miter;stroke:rgb(80%,80%,80%);stroke-opacity:1;stroke-miterlimit:10;" d="M -9.999997 -10.000005 L -10.000001 9.999995 " transform="matrix(333.2543,7.258272,7.258272,-333.2543,-2336.820564,1862.31143)"/>
<path style="fill:none;stroke-width:0.005;stroke-linecap:butt;stroke-linejoin:miter;stroke:rgb(80%,80%,80%);stroke-opacity:1;stroke-miterlimit:10;" d="M -8.999998 -10.000004 L -9.000002 9.999996 " transform="matrix(333.2543,7.258272,7.258272,-333.2543,-2336.820564,1862.31143)"/>
<path style="fill:none;stroke-width:0.005;stroke-linecap:butt;stroke-linejoin:miter;stroke:rgb(80%,80%,80%);stroke-opacity:1;stroke-miterlimit:10;" d="M -7.999999 -10.000002 L -8.000004 9.999997 " transform="matrix(333.2543,7.258272,7.258272,-333.2543,-2336.820564,1862.31143)"/>
<path style="fill:none;stroke-width:0.005;stroke-linecap:butt;stroke-linejoin:miter;stroke:rgb(80%,80%,80%);stroke-opacity:1;stroke-miterlimit:10;" d="M -7.000001 -10.000001 L -7.000005 9.999999 " transform="matrix(333.2543,7.258272,7.258272,-333.2543,-2336.820564,1862.31143)"/>
<path style="fill:none;stroke-width:0.005;stroke-linecap:butt;stroke-linejoin:miter;stroke:rgb(80%,80%,80%);stroke-opacity:1;stroke-miterlimit:10;" d="M -6.000002 -10 L -5.999994 10 " transform="matrix(333.2543,7.258272,7.258272,-333.2543,-2336.820564,1862.31143)"/>
<path style="fill:none;stroke-width:0.005;stroke-linecap:butt;stroke-linejoin:miter;stroke:rgb(80%,80%,80%);stroke-opacity:1;stroke-miterlimit:10;" d="M -5.000003 -9.999998 L -4.999995 10.000002 " transform="matrix(333.2543,7.258272,7.258272,-333.2543,-2336.820564,1862.31143)"/>
<path style="fill:none;stroke-width:0.005;stroke-linecap:butt;stroke-linejoin:miter;stroke:rgb(80%,80%,80%);stroke-opacity:1;stroke-miterlimit:10;" d="M -4.000004 -9.999997 L -3.999997 10.000003 " transform="matrix(333.2543,7.258272,7.258272,-333.2543,-2336.820564,1862.31143)"/>
<path style="fill:none;stroke-width:0.005;stroke-linecap:butt;stroke-linejoin:miter;stroke:rgb(80%,80%,80%);stroke-opacity:1;stroke-miterlimit:10;" d="M -3.000005 -9.999996 L -2.999998 10.000004 " transform="matrix(333.2543,7.258272,7.258272,-333.2543,-2336.820564,1862.31143)"/>
<path style="fill:none;stroke-width:0.005;stroke-linecap:butt;stroke-linejoin:miter;stroke:rgb(80%,80%,80%);stroke-opacity:1;stroke-miterlimit:10;" d="M -1.999995 -9.999994 L -1.999999 10.000006 " transform="matrix(333.2543,7.258272,7.258272,-333.2543,-2336.820564,1862.31143)"/>
<path style="fill:none;stroke-width:0.005;stroke-linecap:butt;stroke-linejoin:miter;stroke:rgb(80%,80%,80%);stroke-opacity:1;stroke-miterlimit:10;" d="M -0.999996 -10.000004 L -1 9.999995 " transform="matrix(333.2543,7.258272,7.258272,-333.2543,-2336.820564,1862.31143)"/>
<path style="fill:none;stroke-width:0.005;stroke-linecap:butt;stroke-linejoin:miter;stroke:rgb(80%,80%,80%);stroke-opacity:1;stroke-miterlimit:10;" d="M 0.00000289634 -10.000003 L -0.00000124589 9.999997 " transform="matrix(333.2543,7.258272,7.258272,-333.2543,-2336.820564,1862.31143)"/>
<path style="fill:none;stroke-width:0.005;stroke-linecap:butt;stroke-linejoin:miter;stroke:rgb(80%,80%,80%);stroke-opacity:1;stroke-miterlimit:10;" d="M 1.000002 -10.000002 L 0.999998 9.999998 " transform="matrix(333.2543,7.258272,7.258272,-333.2543,-2336.820564,1862.31143)"/>
<path style="fill:none;stroke-width:0.005;stroke-linecap:butt;stroke-linejoin:miter;stroke:rgb(80%,80%,80%);stroke-opacity:1;stroke-miterlimit:10;" d="M 2 -10 L 1.999996 9.999999 " transform="matrix(333.2543,7.258272,7.258272,-333.2543,-2336.820564,1862.31143)"/>
<path style="fill:none;stroke-width:0.005;stroke-linecap:butt;stroke-linejoin:miter;stroke:rgb(80%,80%,80%);stroke-opacity:1;stroke-miterlimit:10;" d="M 2.999999 -9.999999 L 2.999995 10.000001 " transform="matrix(333.2543,7.258272,7.258272,-333.2543,-2336.820564,1862.31143)"/>
<path style="fill:none;stroke-width:0.005;stroke-linecap:butt;stroke-linejoin:miter;stroke:rgb(80%,80%,80%);stroke-opacity:1;stroke-miterlimit:10;" d="M 3.999998 -9.999998 L 4.000006 10.000002 " transform="matrix(333.2543,7.258272,7.258272,-333.2543,-2336.820564,1862.31143)"/>
<path style="fill:none;stroke-width:0.005;stroke-linecap:butt;stroke-linejoin:miter;stroke:rgb(80%,80%,80%);stroke-opacity:1;stroke-miterlimit:10;" d="M 4.999997 -9.999996 L 5.000004 10.000004 " transform="matrix(333.2543,7.258272,7.258272,-333.2543,-2336.820564,1862.31143)"/>
<path style="fill:none;stroke-width:0.005;stroke-linecap:butt;stroke-linejoin:miter;stroke:rgb(80%,80%,80%);stroke-opacity:1;stroke-miterlimit:10;" d="M 5.999996 -9.999995 L 6.000003 10.000005 " transform="matrix(333.2543,7.258272,7.258272,-333.2543,-2336.820564,1862.31143)"/>
<path style="fill:none;stroke-width:0.005;stroke-linecap:butt;stroke-linejoin:miter;stroke:rgb(80%,80%,80%);stroke-opacity:1;stroke-miterlimit:10;" d="M 6.999995 -10.000005 L 7.000002 9.999995 " transform="matrix(333.2543,7.258272,7.258272,-333.2543,-2336.820564,1862.31143)"/>
<path style="fill:none;stroke-width:0.005;stroke-linecap:butt;stroke-linejoin:miter;stroke:rgb(80%,80%,80%);stroke-opacity:1;stroke-miterlimit:10;" d="M 8.000005 -10.000004 L 8.000001 9.999996 " transform="matrix(333.2543,7.258272,7.258272,-333.2543,-2336.820564,1862.31143)"/>
<path style="fill:none;stroke-width:0.005;stroke-linecap:butt;stroke-linejoin:miter;stroke:rgb(80%,80%,80%);stroke-opacity:1;stroke-miterlimit:10;" d="M 9.000004 -10.000002 L 9 9.999997 " transform="matrix(333.2543,7.258272,7.258272,-333.2543,-2336.820564,1862.31143)"/>
<path style="fill:none;stroke-width:0.005;stroke-linecap:butt;stroke-linejoin:miter;stroke:rgb(80%,80%,80%);stroke-opacity:1;stroke-miterlimit:10;" d="M 10.000003 -10.000001 L 9.999999 9.999999 " transform="matrix(333.2543,7.258272,7.258272,-333.2543,-2336.820564,1862.31143)"/>
<path style="fill:none;stroke-width:0.005;stroke-linecap:butt;stroke-linejoin:miter;stroke:rgb(80%,80%,80%);stroke-opacity:1;stroke-miterlimit:10;" d="M -9.999997 -10.000005 L 10.000003 -10.000001 " transform="matrix(333.2543,7.258272,7.258272,-333.2543,-2336.820564,1862.31143)"/>
<path style="fill:none;stroke-width:0.005;stroke-linecap:butt;stroke-linejoin:miter;stroke:rgb(80%,80%,80%);stroke-opacity:1;stroke-miterlimit:10;" d="M -9.999999 -8.999995 L 10.000001 -9.000002 " transform="matrix(333.2543,7.258272,7.258272,-333.2543,-2336.820564,1862.31143)"/>
<path style="fill:none;stroke-width:0.005;stroke-linecap:butt;stroke-linejoin:miter;stroke:rgb(80%,80%,80%);stroke-opacity:1;stroke-miterlimit:10;" d="M -10 -7.999996 L 10 -8.000003 " transform="matrix(333.2543,7.258272,7.258272,-333.2543,-2336.820564,1862.31143)"/>
<path style="fill:none;stroke-width:0.005;stroke-linecap:butt;stroke-linejoin:miter;stroke:rgb(80%,80%,80%);stroke-opacity:1;stroke-miterlimit:10;" d="M -10.000001 -6.999997 L 9.999999 -7.000005 " transform="matrix(333.2543,7.258272,7.258272,-333.2543,-2336.820564,1862.31143)"/>
<path style="fill:none;stroke-width:0.005;stroke-linecap:butt;stroke-linejoin:miter;stroke:rgb(80%,80%,80%);stroke-opacity:1;stroke-miterlimit:10;" d="M -10.000003 -5.999998 L 9.999997 -6.000006 " transform="matrix(333.2543,7.258272,7.258272,-333.2543,-2336.820564,1862.31143)"/>
<path style="fill:none;stroke-width:0.005;stroke-linecap:butt;stroke-linejoin:miter;stroke:rgb(80%,80%,80%);stroke-opacity:1;stroke-miterlimit:10;" d="M -10.000004 -4.999999 L 9.999996 -4.999995 " transform="matrix(333.2543,7.258272,7.258272,-333.2543,-2336.820564,1862.31143)"/>
<path style="fill:none;stroke-width:0.005;stroke-linecap:butt;stroke-linejoin:miter;stroke:rgb(80%,80%,80%);stroke-opacity:1;stroke-miterlimit:10;" d="M -10.000005 -4.000001 L 9.999994 -3.999997 " transform="matrix(333.2543,7.258272,7.258272,-333.2543,-2336.820564,1862.31143)"/>
<path style="fill:none;stroke-width:0.005;stroke-linecap:butt;stroke-linejoin:miter;stroke:rgb(80%,80%,80%);stroke-opacity:1;stroke-miterlimit:10;" d="M -9.999995 -3.000002 L 10.000005 -2.999997 " transform="matrix(333.2543,7.258272,7.258272,-333.2543,-2336.820564,1862.31143)"/>
<path style="fill:none;stroke-width:0.005;stroke-linecap:butt;stroke-linejoin:miter;stroke:rgb(80%,80%,80%);stroke-opacity:1;stroke-miterlimit:10;" d="M -9.999996 -2.000003 L 10.000003 -1.999999 " transform="matrix(333.2543,7.258272,7.258272,-333.2543,-2336.820564,1862.31143)"/>
<path style="fill:none;stroke-width:0.005;stroke-linecap:butt;stroke-linejoin:miter;stroke:rgb(80%,80%,80%);stroke-opacity:1;stroke-miterlimit:10;" d="M -9.999998 -1.000004 L 10.000002 -1 " transform="matrix(333.2543,7.258272,7.258272,-333.2543,-2336.820564,1862.31143)"/>
<path style="fill:none;stroke-width:0.005;stroke-linecap:butt;stroke-linejoin:miter;stroke:rgb(80%,80%,80%);stroke-opacity:1;stroke-miterlimit:10;" d="M -9.999999 -0.00000526513 L 10.000001 -0.0000011229 " transform="matrix(333.2543,7.258272,7.258272,-333.2543,-2336.820564,1862.31143)"/>
<path style="fill:none;stroke-width:0.005;stroke-linecap:butt;stroke-linejoin:miter;stroke:rgb(80%,80%,80%);stroke-opacity:1;stroke-miterlimit:10;" d="M -10.000001 1.000005 L 9.999999 0.999998 " transform="matrix(333.2543,7.258272,7.258272,-333.2543,-2336.820564,1862.31143)"/>
<path style="fill:none;stroke-width:0.005;stroke-linecap:butt;stroke-linejoin:miter;stroke:rgb(80%,80%,80%);stroke-opacity:1;stroke-miterlimit:10;" d="M -10.000002 2.000004 L 9.999998 1.999996 " transform="matrix(333.2543,7.258272,7.258272,-333.2543,-2336.820564,1862.31143)"/>
<path style="fill:none;stroke-width:0.005;stroke-linecap:butt;stroke-linejoin:miter;stroke:rgb(80%,80%,80%);stroke-opacity:1;stroke-miterlimit:10;" d="M -10.000003 3.000003 L 9.999997 2.999995 " transform="matrix(333.2543,7.258272,7.258272,-333.2543,-2336.820564,1862.31143)"/>
<path style="fill:none;stroke-width:0.005;stroke-linecap:butt;stroke-linejoin:miter;stroke:rgb(80%,80%,80%);stroke-opacity:1;stroke-miterlimit:10;" d="M -10.000005 4.000002 L 9.999995 4.000006 " transform="matrix(333.2543,7.258272,7.258272,-333.2543,-2336.820564,1862.31143)"/>
<path style="fill:none;stroke-width:0.005;stroke-linecap:butt;stroke-linejoin:miter;stroke:rgb(80%,80%,80%);stroke-opacity:1;stroke-miterlimit:10;" d="M -9.999994 5.000001 L 10.000005 5.000005 " transform="matrix(333.2543,7.258272,7.258272,-333.2543,-2336.820564,1862.31143)"/>
<path style="fill:none;stroke-width:0.005;stroke-linecap:butt;stroke-linejoin:miter;stroke:rgb(80%,80%,80%);stroke-opacity:1;stroke-miterlimit:10;" d="M -9.999996 5.999999 L 10.000004 6.000004 " transform="matrix(333.2543,7.258272,7.258272,-333.2543,-2336.820564,1862.31143)"/>
<path style="fill:none;stroke-width:0.005;stroke-linecap:butt;stroke-linejoin:miter;stroke:rgb(80%,80%,80%);stroke-opacity:1;stroke-miterlimit:10;" d="M -9.999997 6.999998 L 10.000003 7.000002 " transform="matrix(333.2543,7.258272,7.258272,-333.2543,-2336.820564,1862.31143)"/>
<path style="fill:none;stroke-width:0.005;stroke-linecap:butt;stroke-linejoin:miter;stroke:rgb(80%,80%,80%);stroke-opacity:1;stroke-miterlimit:10;" d="M -9.999998 7.999997 L 10.000001 8.000001 " transform="matrix(333.2543,7.258272,7.258272,-333.2543,-2336.820564,1862.31143)"/>
<path style="fill:none;stroke-width:0.005;stroke-linecap:butt;stroke-linejoin:miter;stroke:rgb(80%,80%,80%);stroke-opacity:1;stroke-miterlimit:10;" d="M -10 8.999996 L 10 9 " transform="matrix(333.2543,7.258272,7.258272,-333.2543,-2336.820564,1862.31143)"/>
<path style="fill:none;stroke-width:0.005;stroke-linecap:butt;stroke-linejoin:miter;stroke:rgb(80%,80%,80%);stroke-opacity:1;stroke-miterlimit:10;" d="M -10.000001 9.999995 L 9.999999 9.999999 " transform="matrix(333.2543,7.258272,7.258272,-333.2543,-2336.820564,1862.31143)"/>
<path style="fill-rule:nonzero;fill:rgb(30%,30%,30%);fill-opacity:1;stroke-width:0.01;stroke-linecap:butt;stroke-linejoin:miter;stroke:rgb(0%,0%,0%);stroke-opacity:1;stroke-miterlimit:10;" d="M 0.149992 -0.000000000000000666 C 0.149992 0.0828516 0.0828438 0.15 -0.0000078125 0.15 C -0.0828359 0.15 -0.150008 0.0828516 -0.150008 -0.000000000000000666 C -0.150008 -0.0828516 -0.0828359 -0.15 -0.0000078125 -0.15 C 0.0828438 -0.15 0.149992 -0.0828516 0.149992 -0.000000000000000666 " transform="matrix(0.000000000000010214,-166.666667,-166.666667,-0.000000000000010214,250,116.666667)"/>
<path style="fill-rule:nonzero;fill:rgb(30%,30%,30%);fill-opacity:1;stroke-width:0.01;stroke-linecap:butt;stroke-linejoin:miter;stroke:rgb(0%,0%,0%);stroke-opacity:1;stroke-miterlimit:10;" d="M 0.150006 0.00000555137 C 0.150011 0.0828431 0.0828398 0.150014 -0.00000946147 0.149999 C -0.082847 0.150005 -0.150006 0.0828534 -0.149991 0.00000408455 C -0.149997 -0.0828335 -0.0828456 -0.149993 -0.00000799466 -0.149998 C 0.0828296 -0.150004 0.150001 -0.082832 0.150006 0.00000555137 " transform="matrix(-144.337567,83.333333,83.333333,144.337567,134.529946,316.666667)"/>
<path style="fill-rule:nonzero;fill:rgb(30%,30%,30%);fill-opacity:1;stroke-width:0.01;stroke-linecap:butt;stroke-linejoin:miter;stroke:rgb(0%,0%,0%);stroke-opacity:1;stroke-miterlimit:10;" d="M 0.150006 -0.00000555137 C 0.150001 0.082832 0.0828296 0.150004 -0.00000799466 0.149998 C -0.0828456 0.149993 -0.149997 0.0828335 -0.149991 -0.00000408455 C -0.150006 -0.0828534 -0.082847 -0.150005 -0.00000946147 -0.149999 C 0.0828398 -0.150014 0.150011 -0.0828431 0.150006 -0.00000555137 " transform="matrix(144.337567,83.333333,83.333333,-144.337567,365.470054,316.666667)"/>
<path style="fill-rule:nonzero;fill:rgb(80%,80%,80%);fill-opacity:1;stroke-width:0.01;stroke-linecap:butt;stroke-linejoin:miter;stroke:rgb(0%,0%,0%);stroke-opacity:1;stroke-miterlimit:10;" d="M 1.000011 -0.000000000000000888 C 1.000011 0.552288 0.552288 1.000011 0.000000000000000444 1.000011 C -0.552288 1.000011 -1.000011 0.552288 -1.000011 -0.000000000000000888 C -1.000011 -0.552288 -0.552288 -1.000011 0.000000000000000444 -1.000011 C 0.552288 -1.000011 1.000011 -0.552288 1.000011 -0.000000000000000888 " transform="matrix(0.00000000000000715,-116.666667,-116.666667,-0.00000000000000715,250,250)"/>
<path style="fill:none;stroke-width:0.01;stroke-linecap:butt;stroke-linejoin:miter;stroke:rgb(0%,0%,0%);stroke-opacity:1;stroke-miterlimit:10;" d="M 0.199989 -0.000000000000000888 L 1.000011 -0.000000000000000888 " transform="matrix(0.00000000000000715,-116.666667,-116.666667,-0.00000000000000715,250,250)"/>
<path style="fill-rule:nonzero;fill:rgb(100%,100%,100%);fill-opacity:1;stroke-width:0.05;stroke-linecap:butt;stroke-linejoin:miter;stroke:rgb(0%,0%,0%);stroke-opacity:1;stroke-miterlimit:10;" d="M 0.999961 0.0000390625 C 0.999961 0.552227 0.552305 1 -0.000000000000003553 1 C -0.552305 1 -0.999961 0.552227 -0.999961 0.0000390625 C -0.999961 -0.552266 -0.552305 -1.000039 -0.000000000000003553 -1.000039 C 0.552305 -1.000039 0.999961 -0.552266 0.999961 0.0000390625 " transform="matrix(0.000000000000002043,-33.333333,-33.333333,-0.000000000000002043,183.333333,250)"/>
<path style=" stroke:none;fill-rule:nonzero;fill:rgb(60%,30%,0%);fill-opacity:1;" d="M 183.332031 216.667969 C 174.128906 216.667969 166.667969 224.128906 166.667969 233.332031 C 166.667969 242.539062 174.128906 250 183.332031 250 C 192.539062 250 200 242.539062 200 233.332031 C 200 224.128906 192.539062 216.667969 183.332031 216.667969 "/>
<path style=" stroke:none;fill-rule:nonzero;fill:rgb(0%,0%,0%);fill-opacity:1;" d="M 183.332031 222.667969 C 179.285156 222.667969 176 225.949219 176 230 C 176 234.050781 179.285156 237.332031 183.332031 237.332031 C 187.382812 237.332031 190.667969 234.050781 190.667969 230 C 190.667969 225.949219 187.382812 222.667969 183.332031 222.667969 "/>
<path style="fill-rule:nonzero;fill:rgb(100%,100%,100%);fill-opacity:1;stroke-width:0.05;stroke-linecap:butt;stroke-linejoin:miter;stroke:rgb(0%,0%,0%);stroke-opacity:1;stroke-miterlimit:10;" d="M 0.999961 -0.0000390625 C 0.999961 0.552266 0.552305 1.000039 0.000000000000005329 1.000039 C -0.552305 1.000039 -0.999961 0.552266 -0.999961 -0.0000390625 C -0.999961 -0.552227 -0.552305 -1 0.000000000000005329 -1 C 0.552305 -1 0.999961 -0.552227 0.999961 -0.0000390625 " transform="matrix(0.000000000000002043,-33.333333,-33.333333,-0.000000000000002043,316.666667,250)"/>
<path style=" stroke:none;fill-rule:nonzero;fill:rgb(60%,30%,0%);fill-opacity:1;" d="M 316.667969 216.667969 C 307.460938 216.667969 300 224.128906 300 233.332031 C 300 242.539062 307.460938 250 316.667969 250 C 325.871094 250 333.332031 242.539062 333.332031 233.332031 C 333.332031 224.128906 325.871094 216.667969 316.667969 216.667969 "/>
<path style=" stroke:none;fill-rule:nonzero;fill:rgb(0%,0%,0%);fill-opacity:1;" d="M 316.667969 222.667969 C 312.617188 222.667969 309.332031 225.949219 309.332031 230 C 309.332031 234.050781 312.617188 237.332031 316.667969 237.332031 C 320.714844 237.332031 324 234.050781 324 230 C 324 225.949219 320.714844 222.667969 316.667969 222.667969 "/>
</g>
</svg>
