<?xml version="1.0" encoding="UTF-8"?>
<svg xmlns="http://www.w3.org/2000/svg" xmlns:xlink="http://www.w3.org/1999/xlink" width="500pt" height="500pt" viewBox="0 0 500 500" version="1.1">
<g id="surface0">
<path style="fill:none;stroke-width:0.005;stroke-linecap:butt;stroke-linejoin:miter;stroke:rgb(80%,80%,80%);stroke-opacity:1;stroke-miterlimit:10;" d="M -10 -10 L -10 10 " transform="matrix(-12672.521083,30830.477137,30830.477137,12672.521083,268485.970805,-99013.70108)"/>
<path style="fill:none;stroke-width:0.005;stroke-linecap:butt;stroke-linejoin:miter;stroke:rgb(80%,80%,80%);stroke-opacity:1;stroke-miterlimit:10;" d="M -9 -10 L -9 10 " transform="matrix(-12672.521083,30830.477137,30830.477137,12672.521083,268485.970805,-99013.70108)"/>
<path style="fill:none;stroke-width:0.005;stroke-linecap:butt;stroke-linejoin:miter;stroke:rgb(80%,80%,80%);stroke-opacity:1;stroke-miterlimit:10;" d="M -8 -10 L -8 10 " transform="matrix(-12672.521083,30830.477137,30830.477137,12672.521083,268485.970805,-99013.70108)"/>
<path style="fill:none;stroke-width:0.005;stroke-linecap:butt;stroke-linejoin:miter;stroke:rgb(80%,80%,80%);stroke-opacity:1;stroke-miterlimit:10;" d="M -7 -10 L -7 10 " transform="matrix(-12672.521083,30830.477137,30830.477137,12672.521083,268485.970805,-99013.70108)"/>
<path style="fill:none;stroke-width:0.005;stroke-linecap:butt;stroke-linejoin:miter;stroke:rgb(80%,80%,80%);stroke-opacity:1;stroke-miterlimit:10;" d="M -6 -10 L -6 10 " transform="matrix(-12672.521083,30830.477137,30830.477137,12672.521083,268485.970805,-99013.70108)"/>
<path style="fill:none;stroke-width:0.005;stroke-linecap:butt;stroke-linejoin:miter;stroke:rgb(80%,80%,80%);stroke-opacity:1;stroke-miterlimit:10;" d="M -5 -10 L -5 10 " transform="matrix(-12672.521083,30830.477137,30830.477137,12672.521083,268485.970805,-99013.70108)"/>
<path style="fill:none;stroke-width:0.005;stroke-linecap:butt;stroke-linejoin:miter;stroke:rgb(80%,80%,80%);stroke-opacity:1;stroke-miterlimit:10;" d="M -4 -10 L -4 10 " transform="matrix(-12672.521083,30830.477137,30830.477137,12672.521083,268485.970805,-99013.70108)"/>
<path style="fill:none;stroke-width:0.005;stroke-linecap:butt;stroke-linejoin:miter;stroke:rgb(80%,80%,80%);stroke-opacity:1;stroke-miterlimit:10;" d="M -3 -10 L -3 10 " transform="matrix(-12672.521083,30830.477137,30830.477137,12672.521083,268485.970805,-99013.70108)"/>
<path style="fill:none;stroke-width:0.005;stroke-linecap:butt;stroke-linejoin:miter;stroke:rgb(80%,80%,80%);stroke-opacity:1;stroke-miterlimit:10;" d="M -2 -10 L -2 10 " transform="matrix(-12672.521083,30830.477137,30830.477137,12672.521083,268485.970805,-99013.70108)"/>
<path style="fill:none;stroke-width:0.005;stroke-linecap:butt;stroke-linejoin:miter;stroke:rgb(80%,80%,80%);stroke-opacity:1;stroke-miterlimit:10;" d="M -1 -10 L -1 10 " transform="matrix(-12672.521083,30830.477137,30830.477137,12672.521083,268485.970805,-99013.70108)"/>
<path style="fill:none;stroke-width:0.005;stroke-linecap:butt;stroke-linejoin:miter;stroke:rgb(80%,80%,80%);stroke-opacity:1;stroke-miterlimit:10;" d="M 0.0000000510115 -10 L -0.0000000538048 10 " transform="matrix(-12672.521083,30830.477137,30830.477137,12672.521083,268485.970805,-99013.70108)"/>
<path style="fill:none;stroke-width:0.005;stroke-linecap:butt;stroke-linejoin:miter;stroke:rgb(80%,80%,80%);stroke-opacity:1;stroke-miterlimit:10;" d="M 1 -10 L 1 10 " transform="matrix(-12672.521083,30830.477137,30830.477137,12672.521083,268485.970805,-99013.70108)"/>
<path style="fill:none;stroke-width:0.005;stroke-linecap:butt;stroke-linejoin:miter;stroke:rgb(80%,80%,80%);stroke-opacity:1;stroke-miterlimit:10;" d="M 2 -10 L 2 10 " transform="matrix(-12672.521083,30830.477137,30830.477137,12672.521083,268485.970805,-99013.70108)"/>
<path style="fill:none;stroke-width:0.005;stroke-linecap:butt;stroke-linejoin:miter;stroke:rgb(80%,80%,80%);stroke-opacity:1;stroke-miterlimit:10;" d="M 3 -10 L 3 10 " transform="matrix(-12672.521083,30830.477137,30830.477137,12672.521083,268485.970805,-99013.70108)"/>
<path style="fill:none;stroke-width:0.005;stroke-linecap:butt;stroke-linejoin:miter;stroke:rgb(80%,80%,80%);stroke-opacity:1;stroke-miterlimit:10;" d="M 4 -10 L 4 10 " transform="matrix(-12672.521083,30830.477137,30830.477137,12672.521083,268485.970805,-99013.70108)"/>
<path style="fill:none;stroke-width:0.005;stroke-linecap:butt;stroke-linejoin:miter;stroke:rgb(80%,80%,80%);stroke-opacity:1;stroke-miterlimit:10;" d="M 5 -10 L 5 10 " transform="matrix(-12672.521083,30830.477137,30830.477137,12672.521083,268485.970805,-99013.70108)"/>
<path style="fill:none;stroke-width:0.005;stroke-linecap:butt;stroke-linejoin:miter;stroke:rgb(80%,80%,80%);stroke-opacity:1;stroke-miterlimit:10;" d="M 6 -10 L 6 10 " transform="matrix(-12672.521083,30830.477137,30830.477137,12672.521083,268485.970805,-99013.70108)"/>
<path style="fill:none;stroke-width:0.005;stroke-linecap:butt;stroke-linejoin:miter;stroke:rgb(80%,80%,80%);stroke-opacity:1;stroke-miterlimit:10;" d="M 7 -10 L 7 10 " transform="matrix(-12672.521083,30830.477137,30830.477137,12672.521083,268485.970805,-99013.70108)"/>
<path style="fill:none;stroke-width:0.005;stroke-linecap:butt;stroke-linejoin:miter;stroke:rgb(80%,80%,80%);stroke-opacity:1;stroke-miterlimit:10;" d="M 8 -10 L 8 10 " transform="matrix(-12672.521083,30830.477137,30830.477137,12672.521083,268485.970805,-99013.70108)"/>
<path style="fill:none;stroke-width:0.005;stroke-linecap:butt;stroke-linejoin:miter;stroke:rgb(80%,80%,80%);stroke-opacity:1;stroke-miterlimit:10;" d="M 9 -10 L 9 10 " transform="matrix(-12672.521083,30830.477137,30830.477137,12672.521083,268485.970805,-99013.70108)"/>
<path style="fill:none;stroke-width:0.005;stroke-linecap:butt;stroke-linejoin:miter;stroke:rgb(80%,80%,80%);stroke-opacity:1;stroke-miterlimit:10;" d="M 10 -10 L 10 10 " transform="matrix(-12672.521083,30830.477137,30830.477137,12672.521083,268485.970805,-99013.70108)"/>
<path style="fill:none;stroke-width:0.005;stroke-linecap:butt;stroke-linejoin:miter;stroke:rgb(80%,80%,80%);stroke-opacity:1;stroke-miterlimit:10;" d="M -10 -10 L 10 -10 " transform="matrix(-12672.521083,30830.477137,30830.477137,12672.521083,268485.970805,-99013.70108)"/>
<path style="fill:none;stroke-width:0.005;stroke-linecap:butt;stroke-linejoin:miter;stroke:rgb(80%,80%,80%);stroke-opacity:1;stroke-miterlimit:10;" d="M -10 -9 L 10 -9 " transform="matrix(-12672.521083,30830.477137,30830.477137,12672.521083,268485.970805,-99013.70108)"/>
<path style="fill:none;stroke-width:0.005;stroke-linecap:butt;stroke-linejoin:miter;stroke:rgb(80%,80%,80%);stroke-opacity:1;stroke-miterlimit:10;" d="M -10 -8 L 10 -8 " transform="matrix(-12672.521083,30830.477137,30830.477137,12672.521083,268485.970805,-99013.70108)"/>
<path style="fill:none;stroke-width:0.005;stroke-linecap:butt;stroke-linejoin:miter;stroke:rgb(80%,80%,80%);stroke-opacity:1;stroke-miterlimit:10;" d="M -10 -7 L 10 -7 " transform="matrix(-12672.521083,30830.477137,30830.477137,12672.521083,268485.970805,-99013.70108)"/>
<path style="fill:none;stroke-width:0.005;stroke-linecap:butt;stroke-linejoin:miter;stroke:rgb(80%,80%,80%);stroke-opacity:1;stroke-miterlimit:10;" d="M -10 -6 L 10 -6 " transform="matrix(-12672.521083,30830.477137,30830.477137,12672.521083,268485.970805,-99013.70108)"/>
<path style="fill:none;stroke-width:0.005;stroke-linecap:butt;stroke-linejoin:miter;stroke:rgb(80%,80%,80%);stroke-opacity:1;stroke-miterlimit:10;" d="M -10 -5 L 10 -5 " transform="matrix(-12672.521083,30830.477137,30830.477137,12672.521083,268485.970805,-99013.70108)"/>
<path style="fill:none;stroke-width:0.005;stroke-linecap:butt;stroke-linejoin:miter;stroke:rgb(80%,80%,80%);stroke-opacity:1;stroke-miterlimit:10;" d="M -10 -4 L 10 -4 " transform="matrix(-12672.521083,30830.477137,30830.477137,12672.521083,268485.970805,-99013.70108)"/>
<path style="fill:none;stroke-width:0.005;stroke-linecap:butt;stroke-linejoin:miter;stroke:rgb(80%,80%,80%);stroke-opacity:1;stroke-miterlimit:10;" d="M -10 -3 L 10 -3 " transform="matrix(-12672.521083,30830.477137,30830.477137,12672.521083,268485.970805,-99013.70108)"/>
<path style="fill:none;stroke-width:0.005;stroke-linecap:butt;stroke-linejoin:miter;stroke:rgb(80%,80%,80%);stroke-opacity:1;stroke-miterlimit:10;" d="M -10 -2 L 10 -2 " transform="matrix(-12672.521083,30830.477137,30830.477137,12672.521083,268485.970805,-99013.70108)"/>
<path style="fill:none;stroke-width:0.005;stroke-linecap:butt;stroke-linejoin:miter;stroke:rgb(80%,80%,80%);stroke-opacity:1;stroke-miterlimit:10;" d="M -10 -1 L 10 -1 " transform="matrix(-12672.521083,30830.477137,30830.477137,12672.521083,268485.970805,-99013.70108)"/>
<path style="fill:none;stroke-width:0.005;stroke-linecap:butt;stroke-linejoin:miter;stroke:rgb(80%,80%,80%);stroke-opacity:1;stroke-miterlimit:10;" d="M -10 -0.0000000562867 L 10 0.0000000485296 " transform="matrix(-12672.521083,30830.477137,30830.477137,12672.521083,268485.970805,-99013.70108)"/>
<path style="fill:none;stroke-width:0.005;stroke-linecap:butt;stroke-linejoin:miter;stroke:rgb(80%,80%,80%);stroke-opacity:1;stroke-miterlimit:10;" d="M -10 1 L 10 1 " transform="matrix(-12672.521083,30830.477137,30830.477137,12672.521083,268485.970805,-99013.70108)"/>
<path style="fill:none;stroke-width:0.005;stroke-linecap:butt;stroke-linejoin:miter;stroke:rgb(80%,80%,80%);stroke-opacity:1;stroke-miterlimit:10;" d="M -10 2 L 10 2 " transform="matrix(-12672.521083,30830.477137,30830.477137,12672.521083,268485.970805,-99013.70108)"/>
<path style="fill:none;stroke-width:0.005;stroke-linecap:butt;stroke-linejoin:miter;stroke:rgb(80%,80%,80%);stroke-opacity:1;stroke-miterlimit:10;" d="M -10 3 L 10 3 " transform="matrix(-12672.521083,30830.477137,30830.477137,12672.521083,268485.970805,-99013.70108)"/>
<path style="fill:none;stroke-width:0.005;stroke-linecap:butt;stroke-linejoin:miter;stroke:rgb(80%,80%,80%);stroke-opacity:1;stroke-miterlimit:10;" d="M -10 4 L 10 4 " transform="matrix(-12672.521083,30830.477137,30830.477137,12672.521083,268485.970805,-99013.70108)"/>
<path style="fill:none;stroke-width:0.005;stroke-linecap:butt;stroke-linejoin:miter;stroke:rgb(80%,80%,80%);stroke-opacity:1;stroke-miterlimit:10;" d="M -10 5 L 10 5 " transform="matrix(-12672.521083,30830.477137,30830.477137,12672.521083,268485.970805,-99013.70108)"/>
<path style="fill:none;stroke-width:0.005;stroke-linecap:butt;stroke-linejoin:miter;stroke:rgb(80%,80%,80%);stroke-opacity:1;stroke-miterlimit:10;" d="M -10 6 L 10 6 " transform="matrix(-12672.521083,30830.477137,30830.477137,12672.521083,268485.970805,-99013.70108)"/>
<path style="fill:none;stroke-width:0.005;stroke-linecap:butt;stroke-linejoin:miter;stroke:rgb(80%,80%,80%);stroke-opacity:1;stroke-miterlimit:10;" d="M -10 7 L 10 7 " transform="matrix(-12672.521083,30830.477137,30830.477137,12672.521083,268485.970805,-99013.70108)"/>
<path style="fill:none;stroke-width:0.005;stroke-linecap:butt;stroke-linejoin:miter;stroke:rgb(80%,80%,80%);stroke-opacity:1;stroke-miterlimit:10;" d="M -10 8 L 10 8 " transform="matrix(-12672.521083,30830.477137,30830.477137,12672.521083,268485.970805,-99013.70108)"/>
<path style="fill:none;stroke-width:0.005;stroke-linecap:butt;stroke-linejoin:miter;stroke:rgb(80%,80%,80%);stroke-opacity:1;stroke-miterlimit:10;" d="M -10 9 L 10 9 " transform="matrix(-12672.521083,30830.477137,30830.477137,12672.521083,268485.970805,-99013.70108)"/>
<path style="fill:none;stroke-width:0.005;stroke-linecap:butt;stroke-linejoin:miter;stroke:rgb(80%,80%,80%);stroke-opacity:1;stroke-miterlimit:10;" d="M -10 10 L 10 10 " transform="matrix(-12672.521083,30830.477137,30830.477137,12672.521083,268485.970805,-99013.70108)"/>
<path style=" stroke:none;fill-rule:nonzero;fill:rgb(50%,50%,50%);fill-opacity:1;" d="M 76.667969 250 C 76.667969 279.457031 112.484375 303.332031 156.667969 303.332031 C 200.847656 303.332031 236.667969 279.457031 236.667969 250 C 236.667969 220.542969 200.847656 196.667969 156.667969 196.667969 C 112.484375 196.667969 76.667969 220.542969 76.667969 250 "/>
<path style=" stroke:none;fill-rule:nonzero;fill:rgb(50%,50%,50%);fill-opacity:1;" d="M 423.332031 250 C 423.332031 220.542969 387.515625 196.667969 343.332031 196.667969 C 299.152344 196.667969 263.332031 220.542969 263.332031 250 C 263.332031 279.457031 299.152344 303.332031 343.332031 303.332031 C 387.515625 303.332031 423.332031 279.457031 423.332031 250 "/>
<path style="fill-rule:nonzero;fill:rgb(100%,100%,100%);fill-opacity:1;stroke-width:0.005;stroke-linecap:butt;stroke-linejoin:miter;stroke:rgb(0%,0%,0%);stroke-opacity:1;stroke-miterlimit:10;" d="M 1 -0.000000000000110134 C 1 0.552246 0.552295 1 -0.000000000000194067 1 C -0.552295 1 -1 0.552246 -1 -0.000000000000111022 C -1 -0.552246 -0.552295 -1 -0.000000000000194067 -1 C 0.552295 -1 1 -0.552246 1 -0.000000000000110134 " transform="matrix(0.000000000000004366,-80,-40,-0.000000000000002183,250,250)"/>
<path style="fill-rule:nonzero;fill:rgb(100%,100%,100%);fill-opacity:1;stroke-width:0.005;stroke-linecap:butt;stroke-linejoin:miter;stroke:rgb(0%,0%,0%);stroke-opacity:1;stroke-miterlimit:10;" d="M 2.16665 -0.000000000000082601 C 2.16665 0.368188 1.868188 0.66665 1.5 0.66665 C 1.131812 0.66665 0.83335 0.368188 0.83335 -0.000000000000082601 C 0.83335 -0.368188 1.131812 -0.66665 1.5 -0.66665 C 1.868188 -0.66665 2.16665 -0.368188 2.16665 -0.000000000000082601 " transform="matrix(0.00000000000000291,-53.333333,-53.333333,-0.00000000000000291,250,250)"/>
</g>
</svg>
