<?xml version="1.0" encoding="UTF-8"?>
<svg xmlns="http://www.w3.org/2000/svg" xmlns:xlink="http://www.w3.org/1999/xlink" width="500pt" height="500pt" viewBox="0 0 500 500" version="1.1">
<g id="surface0">
<path style="fill:none;stroke-width:0.005;stroke-linecap:butt;stroke-linejoin:miter;stroke:rgb(80%,80%,80%);stroke-opacity:1;stroke-miterlimit:10;" d="M -9.999998 -9.999993 L -10.000007 10.000003 " transform="matrix(-107.795094,315.422461,315.422461,107.795094,-229.505562,106.802954)"/>
<path style="fill:none;stroke-width:0.005;stroke-linecap:butt;stroke-linejoin:miter;stroke:rgb(80%,80%,80%);stroke-opacity:1;stroke-miterlimit:10;" d="M -8.999998 -9.999999 L -8.999996 10.000002 " transform="matrix(-107.795094,315.422461,315.422461,107.795094,-229.505562,106.802954)"/>
<path style="fill:none;stroke-width:0.005;stroke-linecap:butt;stroke-linejoin:miter;stroke:rgb(80%,80%,80%);stroke-opacity:1;stroke-miterlimit:10;" d="M -7.999997 -10.000004 L -7.999996 9.999996 " transform="matrix(-107.795094,315.422461,315.422461,107.795094,-229.505562,106.802954)"/>
<path style="fill:none;stroke-width:0.005;stroke-linecap:butt;stroke-linejoin:miter;stroke:rgb(80%,80%,80%);stroke-opacity:1;stroke-miterlimit:10;" d="M -7.000001 -9.999999 L -7 10.000001 " transform="matrix(-107.795094,315.422461,315.422461,107.795094,-229.505562,106.802954)"/>
<path style="fill:none;stroke-width:0.005;stroke-linecap:butt;stroke-linejoin:miter;stroke:rgb(80%,80%,80%);stroke-opacity:1;stroke-miterlimit:10;" d="M -6.000001 -10.000005 L -6 9.999996 " transform="matrix(-107.795094,315.422461,315.422461,107.795094,-229.505562,106.802954)"/>
<path style="fill:none;stroke-width:0.005;stroke-linecap:butt;stroke-linejoin:miter;stroke:rgb(80%,80%,80%);stroke-opacity:1;stroke-miterlimit:10;" d="M -5.000005 -9.999999 L -5.000003 10.000001 " transform="matrix(-107.795094,315.422461,315.422461,107.795094,-229.505562,106.802954)"/>
<path style="fill:none;stroke-width:0.005;stroke-linecap:butt;stroke-linejoin:miter;stroke:rgb(80%,80%,80%);stroke-opacity:1;stroke-miterlimit:10;" d="M -3.999994 -10.000001 L -4.000003 9.999996 " transform="matrix(-107.795094,315.422461,315.422461,107.795094,-229.505562,106.802954)"/>
<path style="fill:none;stroke-width:0.005;stroke-linecap:butt;stroke-linejoin:miter;stroke:rgb(80%,80%,80%);stroke-opacity:1;stroke-miterlimit:10;" d="M -2.999997 -9.999995 L -2.999996 10.000005 " transform="matrix(-107.795094,315.422461,315.422461,107.795094,-229.505562,106.802954)"/>
<path style="fill:none;stroke-width:0.005;stroke-linecap:butt;stroke-linejoin:miter;stroke:rgb(80%,80%,80%);stroke-opacity:1;stroke-miterlimit:10;" d="M -1.999997 -10.000001 L -1.999996 9.999999 " transform="matrix(-107.795094,315.422461,315.422461,107.795094,-229.505562,106.802954)"/>
<path style="fill:none;stroke-width:0.005;stroke-linecap:butt;stroke-linejoin:miter;stroke:rgb(80%,80%,80%);stroke-opacity:1;stroke-miterlimit:10;" d="M -1.000001 -9.999996 L -1 10.000005 " transform="matrix(-107.795094,315.422461,315.422461,107.795094,-229.505562,106.802954)"/>
<path style="fill:none;stroke-width:0.005;stroke-linecap:butt;stroke-linejoin:miter;stroke:rgb(80%,80%,80%);stroke-opacity:1;stroke-miterlimit:10;" d="M -0.00000100335 -10.000001 L 0.000000333702 9.999999 " transform="matrix(-107.795094,315.422461,315.422461,107.795094,-229.505562,106.802954)"/>
<path style="fill:none;stroke-width:0.005;stroke-linecap:butt;stroke-linejoin:miter;stroke:rgb(80%,80%,80%);stroke-opacity:1;stroke-miterlimit:10;" d="M 0.999995 -9.999996 L 0.999997 10.000005 " transform="matrix(-107.795094,315.422461,315.422461,107.795094,-229.505562,106.802954)"/>
<path style="fill:none;stroke-width:0.005;stroke-linecap:butt;stroke-linejoin:miter;stroke:rgb(80%,80%,80%);stroke-opacity:1;stroke-miterlimit:10;" d="M 1.999995 -10.000001 L 1.999997 9.999999 " transform="matrix(-107.795094,315.422461,315.422461,107.795094,-229.505562,106.802954)"/>
<path style="fill:none;stroke-width:0.005;stroke-linecap:butt;stroke-linejoin:miter;stroke:rgb(80%,80%,80%);stroke-opacity:1;stroke-miterlimit:10;" d="M 3.000006 -10.000003 L 2.999997 9.999993 " transform="matrix(-107.795094,315.422461,315.422461,107.795094,-229.505562,106.802954)"/>
<path style="fill:none;stroke-width:0.005;stroke-linecap:butt;stroke-linejoin:miter;stroke:rgb(80%,80%,80%);stroke-opacity:1;stroke-miterlimit:10;" d="M 4.000003 -9.999998 L 4.000004 10.000003 " transform="matrix(-107.795094,315.422461,315.422461,107.795094,-229.505562,106.802954)"/>
<path style="fill:none;stroke-width:0.005;stroke-linecap:butt;stroke-linejoin:miter;stroke:rgb(80%,80%,80%);stroke-opacity:1;stroke-miterlimit:10;" d="M 5.000003 -10.000003 L 5.000004 9.999997 " transform="matrix(-107.795094,315.422461,315.422461,107.795094,-229.505562,106.802954)"/>
<path style="fill:none;stroke-width:0.005;stroke-linecap:butt;stroke-linejoin:miter;stroke:rgb(80%,80%,80%);stroke-opacity:1;stroke-miterlimit:10;" d="M 5.999999 -9.999998 L 6 10.000002 " transform="matrix(-107.795094,315.422461,315.422461,107.795094,-229.505562,106.802954)"/>
<path style="fill:none;stroke-width:0.005;stroke-linecap:butt;stroke-linejoin:miter;stroke:rgb(80%,80%,80%);stroke-opacity:1;stroke-miterlimit:10;" d="M 6.999999 -10.000004 L 7.000001 9.999997 " transform="matrix(-107.795094,315.422461,315.422461,107.795094,-229.505562,106.802954)"/>
<path style="fill:none;stroke-width:0.005;stroke-linecap:butt;stroke-linejoin:miter;stroke:rgb(80%,80%,80%);stroke-opacity:1;stroke-miterlimit:10;" d="M 7.999995 -9.999998 L 7.999997 10.000002 " transform="matrix(-107.795094,315.422461,315.422461,107.795094,-229.505562,106.802954)"/>
<path style="fill:none;stroke-width:0.005;stroke-linecap:butt;stroke-linejoin:miter;stroke:rgb(80%,80%,80%);stroke-opacity:1;stroke-miterlimit:10;" d="M 8.999996 -10.000004 L 8.999997 9.999997 " transform="matrix(-107.795094,315.422461,315.422461,107.795094,-229.505562,106.802954)"/>
<path style="fill:none;stroke-width:0.005;stroke-linecap:butt;stroke-linejoin:miter;stroke:rgb(80%,80%,80%);stroke-opacity:1;stroke-miterlimit:10;" d="M 10.000003 -9.999995 L 9.999993 10.000002 " transform="matrix(-107.795094,315.422461,315.422461,107.795094,-229.505562,106.802954)"/>
<path style="fill:none;stroke-width:0.005;stroke-linecap:butt;stroke-linejoin:miter;stroke:rgb(80%,80%,80%);stroke-opacity:1;stroke-miterlimit:10;" d="M -9.999998 -9.999993 L 10.000003 -9.999995 " transform="matrix(-107.795094,315.422461,315.422461,107.795094,-229.505562,106.802954)"/>
<path style="fill:none;stroke-width:0.005;stroke-linecap:butt;stroke-linejoin:miter;stroke:rgb(80%,80%,80%);stroke-opacity:1;stroke-miterlimit:10;" d="M -10.000003 -8.999997 L 9.999997 -8.999998 " transform="matrix(-107.795094,315.422461,315.422461,107.795094,-229.505562,106.802954)"/>
<path style="fill:none;stroke-width:0.005;stroke-linecap:butt;stroke-linejoin:miter;stroke:rgb(80%,80%,80%);stroke-opacity:1;stroke-miterlimit:10;" d="M -9.999997 -7.999997 L 10.000003 -7.999998 " transform="matrix(-107.795094,315.422461,315.422461,107.795094,-229.505562,106.802954)"/>
<path style="fill:none;stroke-width:0.005;stroke-linecap:butt;stroke-linejoin:miter;stroke:rgb(80%,80%,80%);stroke-opacity:1;stroke-miterlimit:10;" d="M -10.000003 -7.000001 L 9.999998 -7.000002 " transform="matrix(-107.795094,315.422461,315.422461,107.795094,-229.505562,106.802954)"/>
<path style="fill:none;stroke-width:0.005;stroke-linecap:butt;stroke-linejoin:miter;stroke:rgb(80%,80%,80%);stroke-opacity:1;stroke-miterlimit:10;" d="M -9.999997 -6 L 10.000003 -6.000002 " transform="matrix(-107.795094,315.422461,315.422461,107.795094,-229.505562,106.802954)"/>
<path style="fill:none;stroke-width:0.005;stroke-linecap:butt;stroke-linejoin:miter;stroke:rgb(80%,80%,80%);stroke-opacity:1;stroke-miterlimit:10;" d="M -10.000003 -5.000004 L 9.999998 -5.000006 " transform="matrix(-107.795094,315.422461,315.422461,107.795094,-229.505562,106.802954)"/>
<path style="fill:none;stroke-width:0.005;stroke-linecap:butt;stroke-linejoin:miter;stroke:rgb(80%,80%,80%);stroke-opacity:1;stroke-miterlimit:10;" d="M -9.999997 -4.000004 L 10 -3.999994 " transform="matrix(-107.795094,315.422461,315.422461,107.795094,-229.505562,106.802954)"/>
<path style="fill:none;stroke-width:0.005;stroke-linecap:butt;stroke-linejoin:miter;stroke:rgb(80%,80%,80%);stroke-opacity:1;stroke-miterlimit:10;" d="M -10.000006 -2.999997 L 9.999994 -2.999998 " transform="matrix(-107.795094,315.422461,315.422461,107.795094,-229.505562,106.802954)"/>
<path style="fill:none;stroke-width:0.005;stroke-linecap:butt;stroke-linejoin:miter;stroke:rgb(80%,80%,80%);stroke-opacity:1;stroke-miterlimit:10;" d="M -10.000001 -1.999997 L 10 -1.999998 " transform="matrix(-107.795094,315.422461,315.422461,107.795094,-229.505562,106.802954)"/>
<path style="fill:none;stroke-width:0.005;stroke-linecap:butt;stroke-linejoin:miter;stroke:rgb(80%,80%,80%);stroke-opacity:1;stroke-miterlimit:10;" d="M -9.999995 -0.999997 L 10.000005 -0.999998 " transform="matrix(-107.795094,315.422461,315.422461,107.795094,-229.505562,106.802954)"/>
<path style="fill:none;stroke-width:0.005;stroke-linecap:butt;stroke-linejoin:miter;stroke:rgb(80%,80%,80%);stroke-opacity:1;stroke-miterlimit:10;" d="M -10.000001 -0.000000387503 L 10 -0.00000172456 " transform="matrix(-107.795094,315.422461,315.422461,107.795094,-229.505562,106.802954)"/>
<path style="fill:none;stroke-width:0.005;stroke-linecap:butt;stroke-linejoin:miter;stroke:rgb(80%,80%,80%);stroke-opacity:1;stroke-miterlimit:10;" d="M -9.999995 1 L 10.000006 0.999998 " transform="matrix(-107.795094,315.422461,315.422461,107.795094,-229.505562,106.802954)"/>
<path style="fill:none;stroke-width:0.005;stroke-linecap:butt;stroke-linejoin:miter;stroke:rgb(80%,80%,80%);stroke-opacity:1;stroke-miterlimit:10;" d="M -10 1.999996 L 10 1.999995 " transform="matrix(-107.795094,315.422461,315.422461,107.795094,-229.505562,106.802954)"/>
<path style="fill:none;stroke-width:0.005;stroke-linecap:butt;stroke-linejoin:miter;stroke:rgb(80%,80%,80%);stroke-opacity:1;stroke-miterlimit:10;" d="M -9.999995 2.999996 L 10.000002 3.000006 " transform="matrix(-107.795094,315.422461,315.422461,107.795094,-229.505562,106.802954)"/>
<path style="fill:none;stroke-width:0.005;stroke-linecap:butt;stroke-linejoin:miter;stroke:rgb(80%,80%,80%);stroke-opacity:1;stroke-miterlimit:10;" d="M -10.000004 4.000003 L 9.999996 4.000002 " transform="matrix(-107.795094,315.422461,315.422461,107.795094,-229.505562,106.802954)"/>
<path style="fill:none;stroke-width:0.005;stroke-linecap:butt;stroke-linejoin:miter;stroke:rgb(80%,80%,80%);stroke-opacity:1;stroke-miterlimit:10;" d="M -9.999998 5.000003 L 10.000002 5.000002 " transform="matrix(-107.795094,315.422461,315.422461,107.795094,-229.505562,106.802954)"/>
<path style="fill:none;stroke-width:0.005;stroke-linecap:butt;stroke-linejoin:miter;stroke:rgb(80%,80%,80%);stroke-opacity:1;stroke-miterlimit:10;" d="M -10.000004 6 L 9.999997 5.999998 " transform="matrix(-107.795094,315.422461,315.422461,107.795094,-229.505562,106.802954)"/>
<path style="fill:none;stroke-width:0.005;stroke-linecap:butt;stroke-linejoin:miter;stroke:rgb(80%,80%,80%);stroke-opacity:1;stroke-miterlimit:10;" d="M -9.999998 7 L 10.000002 6.999998 " transform="matrix(-107.795094,315.422461,315.422461,107.795094,-229.505562,106.802954)"/>
<path style="fill:none;stroke-width:0.005;stroke-linecap:butt;stroke-linejoin:miter;stroke:rgb(80%,80%,80%);stroke-opacity:1;stroke-miterlimit:10;" d="M -10.000004 7.999996 L 9.999997 7.999995 " transform="matrix(-107.795094,315.422461,315.422461,107.795094,-229.505562,106.802954)"/>
<path style="fill:none;stroke-width:0.005;stroke-linecap:butt;stroke-linejoin:miter;stroke:rgb(80%,80%,80%);stroke-opacity:1;stroke-miterlimit:10;" d="M -9.999998 8.999996 L 10.000002 8.999995 " transform="matrix(-107.795094,315.422461,315.422461,107.795094,-229.505562,106.802954)"/>
<path style="fill:none;stroke-width:0.005;stroke-linecap:butt;stroke-linejoin:miter;stroke:rgb(80%,80%,80%);stroke-opacity:1;stroke-miterlimit:10;" d="M -10.000007 10.000003 L 9.999993 10.000002 " transform="matrix(-107.795094,315.422461,315.422461,107.795094,-229.505562,106.802954)"/>
<path style="fill-rule:nonzero;fill:rgb(30%,30%,30%);fill-opacity:1;stroke-width:0.01;stroke-linecap:butt;stroke-linejoin:miter;stroke:rgb(0%,0%,0%);stroke-opacity:1;stroke-miterlimit:10;" d="M 0.149992 0.000000000000000222 C 0.149992 0.0828516 0.0828437 0.15 -0.0000078125 0.15 C -0.0828359 0.15 -0.150008 0.0828516 -0.150008 0.000000000000000222 C -0.150008 -0.0828516 -0.0828359 -0.15 -0.0000078125 -0.15 C 0.0828437 -0.15 0.149992 -0.0828516 0.149992 0.000000000000000222 " transform="matrix(0,-166.666667,-166.666667,0,250,116.666667)"/>
<path style="fill-rule:nonzero;fill:rgb(30%,30%,30%);fill-opacity:1;stroke-width:0.01;stroke-linecap:butt;stroke-linejoin:miter;stroke:rgb(0%,0%,0%);stroke-opacity:1;stroke-miterlimit:10;" d="M 0.150006 0.00000555137 C 0.150011 0.0828431 0.0828398 0.150014 -0.00000946147 0.149999 C -0.082847 0.150005 -0.150006 0.0828534 -0.149991 0.00000408455 C -0.149997 -0.0828335 -0.0828456 -0.149993 -0.00000799466 -0.149998 C 0.0828296 -0.150004 0.150001 -0.082832 0.150006 0.00000555137 " transform="matrix(-144.337567,83.333333,83.333333,144.337567,134.529946,316.666667)"/>
<path style="fill-rule:nonzero;fill:rgb(30%,30%,30%);fill-opacity:1;stroke-width:0.01;stroke-linecap:butt;stroke-linejoin:miter;stroke:rgb(0%,0%,0%);stroke-opacity:1;stroke-miterlimit:10;" d="M 0.150006 -0.00000555137 C 0.150001 0.082832 0.0828296 0.150004 -0.00000799466 0.149998 C -0.0828456 0.149993 -0.149997 0.0828335 -0.149991 -0.00000408455 C -0.150006 -0.0828534 -0.082847 -0.150005 -0.00000946147 -0.149999 C 0.0828398 -0.150014 0.150011 -0.0828431 0.150006 -0.00000555137 " transform="matrix(144.337567,83.333333,83.333333,-144.337567,365.470054,316.666667)"/>
<path style="fill-rule:nonzero;fill:rgb(80%,80%,80%);fill-opacity:1;stroke-width:0.01;stroke-linecap:butt;stroke-linejoin:miter;stroke:rgb(0%,0%,0%);stroke-opacity:1;stroke-miterlimit:10;" d="M 1.000011 0.000000000000000444 C 1.000011 0.552288 0.552288 1.000011 0 1.000011 C -0.552288 1.000011 -1.000011 0.552288 -1.000011 0 C -1.000011 -0.552288 -0.552288 -1.000011 0.000000000000000444 -1.000011 C 0.552288 -1.000011 1.000011 -0.552288 1.000011 0.000000000000000444 " transform="matrix(0,-116.666667,-116.666667,0,250,250)"/>
<path style="fill:none;stroke-width:0.01;stroke-linecap:butt;stroke-linejoin:miter;stroke:rgb(0%,0%,0%);stroke-opacity:1;stroke-miterlimit:10;" d="M 0.199989 0.000000000000000444 L 1.000011 0.000000000000000444 " transform="matrix(0,-116.666667,-116.666667,0,250,250)"/>
<path style="fill-rule:nonzero;fill:rgb(100%,100%,100%);fill-opacity:1;stroke-width:0.05;stroke-linecap:butt;stroke-linejoin:miter;stroke:rgb(0%,0%,0%);stroke-opacity:1;stroke-miterlimit:10;" d="M 0.999961 0.0000390625 C 0.999961 0.552227 0.552305 1 -0.000000000000000888 1 C -0.552305 1 -0.999961 0.552227 -0.999961 0.0000390625 C -0.999961 -0.552266 -0.552305 -1.000039 0 -1.000039 C 0.552305 -1.000039 0.999961 -0.552266 0.999961 0.0000390625 " transform="matrix(0,-33.333333,-33.333333,0,183.333333,250)"/>
<path style=" stroke:none;fill-rule:nonzero;fill:rgb(60%,30%,0%);fill-opacity:1;" d="M 183.332031 216.667969 C 174.128906 216.667969 166.667969 224.128906 166.667969 233.332031 C 166.667969 242.539062 174.128906 250 183.332031 250 C 192.539062 250 200 242.539062 200 233.332031 C 200 224.128906 192.539062 216.667969 183.332031 216.667969 "/>
<path style=" stroke:none;fill-rule:nonzero;fill:rgb(0%,0%,0%);fill-opacity:1;" d="M 183.332031 222.667969 C 179.285156 222.667969 176 225.949219 176 230 C 176 234.050781 179.285156 237.332031 183.332031 237.332031 C 187.382812 237.332031 190.667969 234.050781 190.667969 230 C 190.667969 225.949219 187.382812 222.667969 183.332031 222.667969 "/>
<path style="fill-rule:nonzero;fill:rgb(100%,100%,100%);fill-opacity:1;stroke-width:0.05;stroke-linecap:butt;stroke-linejoin:miter;stroke:rgb(0%,0%,0%);stroke-opacity:1;stroke-miterlimit:10;" d="M 0.999961 -0.0000390625 C 0.999961 0.552266 0.552305 1.000039 0.000000000000000888 1.000039 C -0.552305 1.000039 -0.999961 0.552266 -0.999961 -0.0000390625 C -0.999961 -0.552227 -0.552305 -1 0.000000000000000888 -1 C 0.552305 -1 0.999961 -0.552227 0.999961 -0.0000390625 " transform="matrix(0,-33.333333,-33.333333,0,316.666667,250)"/>
<path style=" stroke:none;fill-rule:nonzero;fill:rgb(60%,30%,0%);fill-opacity:1;" d="M 316.667969 216.667969 C 307.460938 216.667969 300 224.128906 300 233.332031 C 300 242.539062 307.460938 250 316.667969 250 C 325.871094 250 333.332031 242.539062 333.332031 233.332031 C 333.332031 224.128906 325.871094 216.667969 316.667969 216.667969 "/>
<path style=" stroke:none;fill-rule:nonzero;fill:rgb(0%,0%,0%);fill-opacity:1;" d="M 316.667969 222.667969 C 312.617188 222.667969 309.332031 225.949219 309.332031 230 C 309.332031 234.050781 312.617188 237.332031 316.667969 237.332031 C 320.714844 237.332031 324 234.050781 324 230 C 324 225.949219 320.714844 222.667969 316.667969 222.667969 "/>
</g>
</svg>
