<?xml version="1.0" encoding="UTF-8"?>
<svg xmlns="http://www.w3.org/2000/svg" xmlns:xlink="http://www.w3.org/1999/xlink" width="500pt" height="500pt" viewBox="0 0 500 500" version="1.1">
<g id="surface0">
<path style="fill:none;stroke-width:0.005;stroke-linecap:butt;stroke-linejoin:miter;stroke:rgb(80%,80%,80%);stroke-opacity:1;stroke-miterlimit:10;" d="M -9.999996 -10 L -10.000002 9.999993 " transform="matrix(-183.950337,277.980907,277.980907,183.950337,1095.911707,-1447.786306)"/>
<path style="fill:none;stroke-width:0.005;stroke-linecap:butt;stroke-linejoin:miter;stroke:rgb(80%,80%,80%);stroke-opacity:1;stroke-miterlimit:10;" d="M -8.999999 -9.999997 L -8.999995 10.000002 " transform="matrix(-183.950337,277.980907,277.980907,183.950337,1095.911707,-1447.786306)"/>
<path style="fill:none;stroke-width:0.005;stroke-linecap:butt;stroke-linejoin:miter;stroke:rgb(80%,80%,80%);stroke-opacity:1;stroke-miterlimit:10;" d="M -8.000002 -9.999995 L -7.999998 10.000004 " transform="matrix(-183.950337,277.980907,277.980907,183.950337,1095.911707,-1447.786306)"/>
<path style="fill:none;stroke-width:0.005;stroke-linecap:butt;stroke-linejoin:miter;stroke:rgb(80%,80%,80%);stroke-opacity:1;stroke-miterlimit:10;" d="M -6.999999 -10.000003 L -7.000001 10.000006 " transform="matrix(-183.950337,277.980907,277.980907,183.950337,1095.911707,-1447.786306)"/>
<path style="fill:none;stroke-width:0.005;stroke-linecap:butt;stroke-linejoin:miter;stroke:rgb(80%,80%,80%);stroke-opacity:1;stroke-miterlimit:10;" d="M -6.000002 -10.000001 L -5.999997 9.999998 " transform="matrix(-183.950337,277.980907,277.980907,183.950337,1095.911707,-1447.786306)"/>
<path style="fill:none;stroke-width:0.005;stroke-linecap:butt;stroke-linejoin:miter;stroke:rgb(80%,80%,80%);stroke-opacity:1;stroke-miterlimit:10;" d="M -5.000005 -9.999999 L -5 10 " transform="matrix(-183.950337,277.980907,277.980907,183.950337,1095.911707,-1447.786306)"/>
<path style="fill:none;stroke-width:0.005;stroke-linecap:butt;stroke-linejoin:miter;stroke:rgb(80%,80%,80%);stroke-opacity:1;stroke-miterlimit:10;" d="M -4.000001 -10.000007 L -4.000003 10.000003 " transform="matrix(-183.950337,277.980907,277.980907,183.950337,1095.911707,-1447.786306)"/>
<path style="fill:none;stroke-width:0.005;stroke-linecap:butt;stroke-linejoin:miter;stroke:rgb(80%,80%,80%);stroke-opacity:1;stroke-miterlimit:10;" d="M -2.999994 -9.999998 L -3 9.999995 " transform="matrix(-183.950337,277.980907,277.980907,183.950337,1095.911707,-1447.786306)"/>
<path style="fill:none;stroke-width:0.005;stroke-linecap:butt;stroke-linejoin:miter;stroke:rgb(80%,80%,80%);stroke-opacity:1;stroke-miterlimit:10;" d="M -1.999997 -9.999996 L -2.000003 9.999997 " transform="matrix(-183.950337,277.980907,277.980907,183.950337,1095.911707,-1447.786306)"/>
<path style="fill:none;stroke-width:0.005;stroke-linecap:butt;stroke-linejoin:miter;stroke:rgb(80%,80%,80%);stroke-opacity:1;stroke-miterlimit:10;" d="M -1 -9.999994 L -1.000006 9.999999 " transform="matrix(-183.950337,277.980907,277.980907,183.950337,1095.911707,-1447.786306)"/>
<path style="fill:none;stroke-width:0.005;stroke-linecap:butt;stroke-linejoin:miter;stroke:rgb(80%,80%,80%);stroke-opacity:1;stroke-miterlimit:10;" d="M 0.00000331718 -10.000002 L 0.00000110455 10.000007 " transform="matrix(-183.950337,277.980907,277.980907,183.950337,1095.911707,-1447.786306)"/>
<path style="fill:none;stroke-width:0.005;stroke-linecap:butt;stroke-linejoin:miter;stroke:rgb(80%,80%,80%);stroke-opacity:1;stroke-miterlimit:10;" d="M 1 -10 L 1.000005 10 " transform="matrix(-183.950337,277.980907,277.980907,183.950337,1095.911707,-1447.786306)"/>
<path style="fill:none;stroke-width:0.005;stroke-linecap:butt;stroke-linejoin:miter;stroke:rgb(80%,80%,80%);stroke-opacity:1;stroke-miterlimit:10;" d="M 1.999997 -9.999998 L 2.000002 10.000002 " transform="matrix(-183.950337,277.980907,277.980907,183.950337,1095.911707,-1447.786306)"/>
<path style="fill:none;stroke-width:0.005;stroke-linecap:butt;stroke-linejoin:miter;stroke:rgb(80%,80%,80%);stroke-opacity:1;stroke-miterlimit:10;" d="M 3.000001 -10.000005 L 2.999999 10.000004 " transform="matrix(-183.950337,277.980907,277.980907,183.950337,1095.911707,-1447.786306)"/>
<path style="fill:none;stroke-width:0.005;stroke-linecap:butt;stroke-linejoin:miter;stroke:rgb(80%,80%,80%);stroke-opacity:1;stroke-miterlimit:10;" d="M 3.999998 -10.000003 L 4.000002 9.999996 " transform="matrix(-183.950337,277.980907,277.980907,183.950337,1095.911707,-1447.786306)"/>
<path style="fill:none;stroke-width:0.005;stroke-linecap:butt;stroke-linejoin:miter;stroke:rgb(80%,80%,80%);stroke-opacity:1;stroke-miterlimit:10;" d="M 4.999995 -10.000001 L 4.999999 9.999998 " transform="matrix(-183.950337,277.980907,277.980907,183.950337,1095.911707,-1447.786306)"/>
<path style="fill:none;stroke-width:0.005;stroke-linecap:butt;stroke-linejoin:miter;stroke:rgb(80%,80%,80%);stroke-opacity:1;stroke-miterlimit:10;" d="M 6.000002 -9.999993 L 5.999996 10 " transform="matrix(-183.950337,277.980907,277.980907,183.950337,1095.911707,-1447.786306)"/>
<path style="fill:none;stroke-width:0.005;stroke-linecap:butt;stroke-linejoin:miter;stroke:rgb(80%,80%,80%);stroke-opacity:1;stroke-miterlimit:10;" d="M 7.000005 -10 L 6.999993 10.000002 " transform="matrix(-183.950337,277.980907,277.980907,183.950337,1095.911707,-1447.786306)"/>
<path style="fill:none;stroke-width:0.005;stroke-linecap:butt;stroke-linejoin:miter;stroke:rgb(80%,80%,80%);stroke-opacity:1;stroke-miterlimit:10;" d="M 8.000002 -9.999998 L 7.999997 9.999995 " transform="matrix(-183.950337,277.980907,277.980907,183.950337,1095.911707,-1447.786306)"/>
<path style="fill:none;stroke-width:0.005;stroke-linecap:butt;stroke-linejoin:miter;stroke:rgb(80%,80%,80%);stroke-opacity:1;stroke-miterlimit:10;" d="M 8.999999 -9.999996 L 9.000004 10.000003 " transform="matrix(-183.950337,277.980907,277.980907,183.950337,1095.911707,-1447.786306)"/>
<path style="fill:none;stroke-width:0.005;stroke-linecap:butt;stroke-linejoin:miter;stroke:rgb(80%,80%,80%);stroke-opacity:1;stroke-miterlimit:10;" d="M 10.000003 -10.000004 L 10.000001 10.000005 " transform="matrix(-183.950337,277.980907,277.980907,183.950337,1095.911707,-1447.786306)"/>
<path style="fill:none;stroke-width:0.005;stroke-linecap:butt;stroke-linejoin:miter;stroke:rgb(80%,80%,80%);stroke-opacity:1;stroke-miterlimit:10;" d="M -9.999996 -10 L 10.000003 -10.000004 " transform="matrix(-183.950337,277.980907,277.980907,183.950337,1095.911707,-1447.786306)"/>
<path style="fill:none;stroke-width:0.005;stroke-linecap:butt;stroke-linejoin:miter;stroke:rgb(80%,80%,80%);stroke-opacity:1;stroke-miterlimit:10;" d="M -9.999998 -9.000002 L 9.999994 -8.999997 " transform="matrix(-183.950337,277.980907,277.980907,183.950337,1095.911707,-1447.786306)"/>
<path style="fill:none;stroke-width:0.005;stroke-linecap:butt;stroke-linejoin:miter;stroke:rgb(80%,80%,80%);stroke-opacity:1;stroke-miterlimit:10;" d="M -10.000001 -8.000005 L 10.000002 -7.999993 " transform="matrix(-183.950337,277.980907,277.980907,183.950337,1095.911707,-1447.786306)"/>
<path style="fill:none;stroke-width:0.005;stroke-linecap:butt;stroke-linejoin:miter;stroke:rgb(80%,80%,80%);stroke-opacity:1;stroke-miterlimit:10;" d="M -9.999993 -7.000002 L 10 -6.999996 " transform="matrix(-183.950337,277.980907,277.980907,183.950337,1095.911707,-1447.786306)"/>
<path style="fill:none;stroke-width:0.005;stroke-linecap:butt;stroke-linejoin:miter;stroke:rgb(80%,80%,80%);stroke-opacity:1;stroke-miterlimit:10;" d="M -10.000001 -5.999995 L 9.999998 -5.999999 " transform="matrix(-183.950337,277.980907,277.980907,183.950337,1095.911707,-1447.786306)"/>
<path style="fill:none;stroke-width:0.005;stroke-linecap:butt;stroke-linejoin:miter;stroke:rgb(80%,80%,80%);stroke-opacity:1;stroke-miterlimit:10;" d="M -10.000003 -4.999998 L 9.999996 -5.000002 " transform="matrix(-183.950337,277.980907,277.980907,183.950337,1095.911707,-1447.786306)"/>
<path style="fill:none;stroke-width:0.005;stroke-linecap:butt;stroke-linejoin:miter;stroke:rgb(80%,80%,80%);stroke-opacity:1;stroke-miterlimit:10;" d="M -10.000006 -4.000001 L 10.000004 -3.999999 " transform="matrix(-183.950337,277.980907,277.980907,183.950337,1095.911707,-1447.786306)"/>
<path style="fill:none;stroke-width:0.005;stroke-linecap:butt;stroke-linejoin:miter;stroke:rgb(80%,80%,80%);stroke-opacity:1;stroke-miterlimit:10;" d="M -9.999998 -2.999997 L 10.000002 -3.000002 " transform="matrix(-183.950337,277.980907,277.980907,183.950337,1095.911707,-1447.786306)"/>
<path style="fill:none;stroke-width:0.005;stroke-linecap:butt;stroke-linejoin:miter;stroke:rgb(80%,80%,80%);stroke-opacity:1;stroke-miterlimit:10;" d="M -10 -2 L 10 -2.000005 " transform="matrix(-183.950337,277.980907,277.980907,183.950337,1095.911707,-1447.786306)"/>
<path style="fill:none;stroke-width:0.005;stroke-linecap:butt;stroke-linejoin:miter;stroke:rgb(80%,80%,80%);stroke-opacity:1;stroke-miterlimit:10;" d="M -10.000002 -1.000003 L 10.000007 -1.000001 " transform="matrix(-183.950337,277.980907,277.980907,183.950337,1095.911707,-1447.786306)"/>
<path style="fill:none;stroke-width:0.005;stroke-linecap:butt;stroke-linejoin:miter;stroke:rgb(80%,80%,80%);stroke-opacity:1;stroke-miterlimit:10;" d="M -9.999994 0.000000149823 L 9.999999 0.00000566822 " transform="matrix(-183.950337,277.980907,277.980907,183.950337,1095.911707,-1447.786306)"/>
<path style="fill:none;stroke-width:0.005;stroke-linecap:butt;stroke-linejoin:miter;stroke:rgb(80%,80%,80%);stroke-opacity:1;stroke-miterlimit:10;" d="M -9.999996 0.999997 L 9.999997 1.000003 " transform="matrix(-183.950337,277.980907,277.980907,183.950337,1095.911707,-1447.786306)"/>
<path style="fill:none;stroke-width:0.005;stroke-linecap:butt;stroke-linejoin:miter;stroke:rgb(80%,80%,80%);stroke-opacity:1;stroke-miterlimit:10;" d="M -9.999998 1.999994 L 9.999995 2 " transform="matrix(-183.950337,277.980907,277.980907,183.950337,1095.911707,-1447.786306)"/>
<path style="fill:none;stroke-width:0.005;stroke-linecap:butt;stroke-linejoin:miter;stroke:rgb(80%,80%,80%);stroke-opacity:1;stroke-miterlimit:10;" d="M -10.000007 3.000001 L 10.000002 3.000003 " transform="matrix(-183.950337,277.980907,277.980907,183.950337,1095.911707,-1447.786306)"/>
<path style="fill:none;stroke-width:0.005;stroke-linecap:butt;stroke-linejoin:miter;stroke:rgb(80%,80%,80%);stroke-opacity:1;stroke-miterlimit:10;" d="M -9.999999 4.000005 L 10 4 " transform="matrix(-183.950337,277.980907,277.980907,183.950337,1095.911707,-1447.786306)"/>
<path style="fill:none;stroke-width:0.005;stroke-linecap:butt;stroke-linejoin:miter;stroke:rgb(80%,80%,80%);stroke-opacity:1;stroke-miterlimit:10;" d="M -10.000001 5.000002 L 9.999998 4.999997 " transform="matrix(-183.950337,277.980907,277.980907,183.950337,1095.911707,-1447.786306)"/>
<path style="fill:none;stroke-width:0.005;stroke-linecap:butt;stroke-linejoin:miter;stroke:rgb(80%,80%,80%);stroke-opacity:1;stroke-miterlimit:10;" d="M -10.000003 5.999999 L 10.000006 6.000001 " transform="matrix(-183.950337,277.980907,277.980907,183.950337,1095.911707,-1447.786306)"/>
<path style="fill:none;stroke-width:0.005;stroke-linecap:butt;stroke-linejoin:miter;stroke:rgb(80%,80%,80%);stroke-opacity:1;stroke-miterlimit:10;" d="M -9.999996 7.000002 L 10.000004 6.999998 " transform="matrix(-183.950337,277.980907,277.980907,183.950337,1095.911707,-1447.786306)"/>
<path style="fill:none;stroke-width:0.005;stroke-linecap:butt;stroke-linejoin:miter;stroke:rgb(80%,80%,80%);stroke-opacity:1;stroke-miterlimit:10;" d="M -9.999998 7.999999 L 10.000002 7.999995 " transform="matrix(-183.950337,277.980907,277.980907,183.950337,1095.911707,-1447.786306)"/>
<path style="fill:none;stroke-width:0.005;stroke-linecap:butt;stroke-linejoin:miter;stroke:rgb(80%,80%,80%);stroke-opacity:1;stroke-miterlimit:10;" d="M -10 8.999996 L 9.999993 9.000002 " transform="matrix(-183.950337,277.980907,277.980907,183.950337,1095.911707,-1447.786306)"/>
<path style="fill:none;stroke-width:0.005;stroke-linecap:butt;stroke-linejoin:miter;stroke:rgb(80%,80%,80%);stroke-opacity:1;stroke-miterlimit:10;" d="M -10.000002 9.999993 L 10.000001 10.000005 " transform="matrix(-183.950337,277.980907,277.980907,183.950337,1095.911707,-1447.786306)"/>
<path style="fill:none;stroke-width:0.05;stroke-linecap:butt;stroke-linejoin:miter;stroke:rgb(0%,0%,0%);stroke-opacity:1;stroke-miterlimit:10;" d="M -0.000000000000000444 0.520008 L -0.000000000000000222 -0.520008 " transform="matrix(0,-166.666667,-166.666667,0,250,250)"/>
<path style="fill-rule:nonzero;fill:rgb(80%,80%,80%);fill-opacity:1;stroke-width:0.01;stroke-linecap:butt;stroke-linejoin:miter;stroke:rgb(0%,0%,0%);stroke-opacity:1;stroke-miterlimit:10;" d="M -0.199992 -0.400008 L 0.9 -0.400008 C 1.000008 -0.400008 1.000008 -0.400008 1.000008 -0.3 L 1.000008 0.3 C 1.000008 0.400008 1.000008 0.400008 0.9 0.400008 L -0.199992 0.400008 C -0.3 0.400008 -0.3 0.400008 -0.3 0.3 L -0.3 -0.3 C -0.3 -0.400008 -0.3 -0.400008 -0.199992 -0.400008 " transform="matrix(0,-166.666667,-166.666667,0,250,250)"/>
<path style="fill-rule:nonzero;fill:rgb(30%,30%,30%);fill-opacity:1;stroke-width:0.04;stroke-linecap:butt;stroke-linejoin:miter;stroke:rgb(0%,0%,0%);stroke-opacity:1;stroke-miterlimit:10;" d="M -0.15 -0.0750078 L 0.15 -0.0750078 C 0.199992 -0.0750078 0.199992 -0.0750078 0.199992 -0.0249922 L 0.199992 0.025 C 0.199992 0.0749922 0.199992 0.0749922 0.15 0.0749922 L -0.15 0.0749922 C -0.199992 0.0749922 -0.199992 0.0749922 -0.199992 0.025 L -0.199992 -0.0249922 C -0.199992 -0.0750078 -0.199992 -0.0750078 -0.15 -0.0750078 " transform="matrix(0,-166.666667,-166.666667,0,336.666667,250)"/>
<path style="fill-rule:nonzero;fill:rgb(30%,30%,30%);fill-opacity:1;stroke-width:0.04;stroke-linecap:butt;stroke-linejoin:miter;stroke:rgb(0%,0%,0%);stroke-opacity:1;stroke-miterlimit:10;" d="M -0.15 -0.0749922 L 0.15 -0.0749922 C 0.199992 -0.0749922 0.199992 -0.0749922 0.199992 -0.025 L 0.199992 0.0249922 C 0.199992 0.0750078 0.199992 0.0750078 0.15 0.0750078 L -0.15 0.0750078 C -0.199992 0.0750078 -0.199992 0.0750078 -0.199992 0.0249922 L -0.199992 -0.025 C -0.199992 -0.0749922 -0.199992 -0.0749922 -0.15 -0.0749922 " transform="matrix(0,-166.666667,-166.666667,0,163.333333,250)"/>
<path style="fill:none;stroke-width:0.01;stroke-linecap:butt;stroke-linejoin:miter;stroke:rgb(0%,0%,0%);stroke-opacity:1;stroke-miterlimit:10;" d="M -0.000000000000000444 0.000000000000000222 L 1.099992 0.000000000000000222 " transform="matrix(0,-166.666667,-166.666667,0,210,250)"/>
<path style="fill:none;stroke-width:0.01;stroke-linecap:butt;stroke-linejoin:miter;stroke:rgb(0%,0%,0%);stroke-opacity:1;stroke-miterlimit:10;" d="M -0.0000000000000005 0.100008 C -0.0552188 0.100008 -0.100008 0.0552188 -0.100008 0.000000000000000222 C -0.100008 -0.0552187 -0.0552188 -0.100008 -0.0000000000000005 -0.100008 " transform="matrix(0,-166.666667,-166.666667,0,210,50)"/>
<path style="fill:none;stroke-width:0.01;stroke-linecap:butt;stroke-linejoin:miter;stroke:rgb(0%,0%,0%);stroke-opacity:1;stroke-miterlimit:10;" d="M -0.000000000000000222 0.000000000000000222 L 1.099992 0.000000000000000222 " transform="matrix(0,-166.666667,-166.666667,0,290,250)"/>
<path style="fill:none;stroke-width:0.01;stroke-linecap:butt;stroke-linejoin:miter;stroke:rgb(0%,0%,0%);stroke-opacity:1;stroke-miterlimit:10;" d="M -0.0000000000000005 0.100008 C -0.0552188 0.100008 -0.100008 0.0552188 -0.100008 0.000000000000000222 C -0.100008 -0.0552187 -0.0552188 -0.100008 -0.0000000000000005 -0.100008 " transform="matrix(0,-166.666667,-166.666667,0,290,50)"/>
<path style="fill-rule:nonzero;fill:rgb(100%,100%,100%);fill-opacity:1;stroke-width:0.05;stroke-linecap:butt;stroke-linejoin:miter;stroke:rgb(0%,0%,0%);stroke-opacity:1;stroke-miterlimit:10;" d="M 0.999961 0 C 0.999961 0.552305 0.552305 0.999961 -0.000000000000000888 0.999961 C -0.552305 0.999961 -0.999961 0.552305 -0.999961 0 C -0.999961 -0.552305 -0.552305 -0.999961 -0.000000000000000888 -0.999961 C 0.552305 -0.999961 0.999961 -0.552305 0.999961 0 " transform="matrix(0,-33.333333,-33.333333,0,250,250)"/>
<path style=" stroke:none;fill-rule:nonzero;fill:rgb(60%,30%,0%);fill-opacity:1;" d="M 250 216.667969 C 240.796875 216.667969 233.332031 224.128906 233.332031 233.332031 C 233.332031 242.539062 240.796875 250 250 250 C 259.203125 250 266.667969 242.539062 266.667969 233.332031 C 266.667969 224.128906 259.203125 216.667969 250 216.667969 "/>
<path style=" stroke:none;fill-rule:nonzero;fill:rgb(0%,0%,0%);fill-opacity:1;" d="M 250 222.667969 C 245.949219 222.667969 242.667969 225.949219 242.667969 230 C 242.667969 234.050781 245.949219 237.332031 250 237.332031 C 254.050781 237.332031 257.332031 234.050781 257.332031 230 C 257.332031 225.949219 254.050781 222.667969 250 222.667969 "/>
</g>
</svg>
