<?xml version="1.0" encoding="UTF-8"?>
<svg xmlns="http://www.w3.org/2000/svg" xmlns:xlink="http://www.w3.org/1999/xlink" width="500pt" height="500pt" viewBox="0 0 500 500" version="1.1">
<g id="surface0">
<path style="fill:none;stroke-width:0.005;stroke-linecap:butt;stroke-linejoin:miter;stroke:rgb(80%,80%,80%);stroke-opacity:1;stroke-miterlimit:10;" d="M -10.000001 -10.000001 L -10 10 " transform="matrix(-767.591364,324.419392,324.419392,767.591364,9137.041098,1641.034277)"/>
<path style="fill:none;stroke-width:0.005;stroke-linecap:butt;stroke-linejoin:miter;stroke:rgb(80%,80%,80%);stroke-opacity:1;stroke-miterlimit:10;" d="M -8.999998 -9.999999 L -9.000002 9.999999 " transform="matrix(-767.591364,324.419392,324.419392,767.591364,9137.041098,1641.034277)"/>
<path style="fill:none;stroke-width:0.005;stroke-linecap:butt;stroke-linejoin:miter;stroke:rgb(80%,80%,80%);stroke-opacity:1;stroke-miterlimit:10;" d="M -8 -10 L -7.999998 10.000001 " transform="matrix(-767.591364,324.419392,324.419392,767.591364,9137.041098,1641.034277)"/>
<path style="fill:none;stroke-width:0.005;stroke-linecap:butt;stroke-linejoin:miter;stroke:rgb(80%,80%,80%);stroke-opacity:1;stroke-miterlimit:10;" d="M -7.000002 -10.000001 L -7.000001 10 " transform="matrix(-767.591364,324.419392,324.419392,767.591364,9137.041098,1641.034277)"/>
<path style="fill:none;stroke-width:0.005;stroke-linecap:butt;stroke-linejoin:miter;stroke:rgb(80%,80%,80%);stroke-opacity:1;stroke-miterlimit:10;" d="M -5.999999 -9.999999 L -6.000003 9.999999 " transform="matrix(-767.591364,324.419392,324.419392,767.591364,9137.041098,1641.034277)"/>
<path style="fill:none;stroke-width:0.005;stroke-linecap:butt;stroke-linejoin:miter;stroke:rgb(80%,80%,80%);stroke-opacity:1;stroke-miterlimit:10;" d="M -5.000001 -10 L -4.999999 10 " transform="matrix(-767.591364,324.419392,324.419392,767.591364,9137.041098,1641.034277)"/>
<path style="fill:none;stroke-width:0.005;stroke-linecap:butt;stroke-linejoin:miter;stroke:rgb(80%,80%,80%);stroke-opacity:1;stroke-miterlimit:10;" d="M -3.999999 -10.000003 L -4.000002 10 " transform="matrix(-767.591364,324.419392,324.419392,767.591364,9137.041098,1641.034277)"/>
<path style="fill:none;stroke-width:0.005;stroke-linecap:butt;stroke-linejoin:miter;stroke:rgb(80%,80%,80%);stroke-opacity:1;stroke-miterlimit:10;" d="M -2.999999 -9.999999 L -2.999998 10.000001 " transform="matrix(-767.591364,324.419392,324.419392,767.591364,9137.041098,1641.034277)"/>
<path style="fill:none;stroke-width:0.005;stroke-linecap:butt;stroke-linejoin:miter;stroke:rgb(80%,80%,80%);stroke-opacity:1;stroke-miterlimit:10;" d="M -2.000002 -10 L -2 10 " transform="matrix(-767.591364,324.419392,324.419392,767.591364,9137.041098,1641.034277)"/>
<path style="fill:none;stroke-width:0.005;stroke-linecap:butt;stroke-linejoin:miter;stroke:rgb(80%,80%,80%);stroke-opacity:1;stroke-miterlimit:10;" d="M -0.999998 -9.999998 L -1.000002 10 " transform="matrix(-767.591364,324.419392,324.419392,767.591364,9137.041098,1641.034277)"/>
<path style="fill:none;stroke-width:0.005;stroke-linecap:butt;stroke-linejoin:miter;stroke:rgb(80%,80%,80%);stroke-opacity:1;stroke-miterlimit:10;" d="M -0.000000317642 -9.999999 L 0.00000132211 10.000001 " transform="matrix(-767.591364,324.419392,324.419392,767.591364,9137.041098,1641.034277)"/>
<path style="fill:none;stroke-width:0.005;stroke-linecap:butt;stroke-linejoin:miter;stroke:rgb(80%,80%,80%);stroke-opacity:1;stroke-miterlimit:10;" d="M 1.000002 -10.000002 L 0.999999 10 " transform="matrix(-767.591364,324.419392,324.419392,767.591364,9137.041098,1641.034277)"/>
<path style="fill:none;stroke-width:0.005;stroke-linecap:butt;stroke-linejoin:miter;stroke:rgb(80%,80%,80%);stroke-opacity:1;stroke-miterlimit:10;" d="M 2.000001 -9.999999 L 2.000001 9.999998 " transform="matrix(-767.591364,324.419392,324.419392,767.591364,9137.041098,1641.034277)"/>
<path style="fill:none;stroke-width:0.005;stroke-linecap:butt;stroke-linejoin:miter;stroke:rgb(80%,80%,80%);stroke-opacity:1;stroke-miterlimit:10;" d="M 2.999999 -9.999999 L 3 10.000001 " transform="matrix(-767.591364,324.419392,324.419392,767.591364,9137.041098,1641.034277)"/>
<path style="fill:none;stroke-width:0.005;stroke-linecap:butt;stroke-linejoin:miter;stroke:rgb(80%,80%,80%);stroke-opacity:1;stroke-miterlimit:10;" d="M 4.000001 -10.000002 L 3.999998 10 " transform="matrix(-767.591364,324.419392,324.419392,767.591364,9137.041098,1641.034277)"/>
<path style="fill:none;stroke-width:0.005;stroke-linecap:butt;stroke-linejoin:miter;stroke:rgb(80%,80%,80%);stroke-opacity:1;stroke-miterlimit:10;" d="M 5 -9.999999 L 5 9.999997 " transform="matrix(-767.591364,324.419392,324.419392,767.591364,9137.041098,1641.034277)"/>
<path style="fill:none;stroke-width:0.005;stroke-linecap:butt;stroke-linejoin:miter;stroke:rgb(80%,80%,80%);stroke-opacity:1;stroke-miterlimit:10;" d="M 5.999998 -9.999999 L 6 10.000001 " transform="matrix(-767.591364,324.419392,324.419392,767.591364,9137.041098,1641.034277)"/>
<path style="fill:none;stroke-width:0.005;stroke-linecap:butt;stroke-linejoin:miter;stroke:rgb(80%,80%,80%);stroke-opacity:1;stroke-miterlimit:10;" d="M 7 -10.000002 L 7.000002 9.999998 " transform="matrix(-767.591364,324.419392,324.419392,767.591364,9137.041098,1641.034277)"/>
<path style="fill:none;stroke-width:0.005;stroke-linecap:butt;stroke-linejoin:miter;stroke:rgb(80%,80%,80%);stroke-opacity:1;stroke-miterlimit:10;" d="M 7.999999 -9.999999 L 8.000001 10.000002 " transform="matrix(-767.591364,324.419392,324.419392,767.591364,9137.041098,1641.034277)"/>
<path style="fill:none;stroke-width:0.005;stroke-linecap:butt;stroke-linejoin:miter;stroke:rgb(80%,80%,80%);stroke-opacity:1;stroke-miterlimit:10;" d="M 9.000001 -10.000001 L 8.999999 10.000001 " transform="matrix(-767.591364,324.419392,324.419392,767.591364,9137.041098,1641.034277)"/>
<path style="fill:none;stroke-width:0.005;stroke-linecap:butt;stroke-linejoin:miter;stroke:rgb(80%,80%,80%);stroke-opacity:1;stroke-miterlimit:10;" d="M 10.000001 -9.999998 L 10.000001 9.999998 " transform="matrix(-767.591364,324.419392,324.419392,767.591364,9137.041098,1641.034277)"/>
<path style="fill:none;stroke-width:0.005;stroke-linecap:butt;stroke-linejoin:miter;stroke:rgb(80%,80%,80%);stroke-opacity:1;stroke-miterlimit:10;" d="M -10.000001 -10.000001 L 10.000001 -9.999998 " transform="matrix(-767.591364,324.419392,324.419392,767.591364,9137.041098,1641.034277)"/>
<path style="fill:none;stroke-width:0.005;stroke-linecap:butt;stroke-linejoin:miter;stroke:rgb(80%,80%,80%);stroke-opacity:1;stroke-miterlimit:10;" d="M -9.999999 -8.999999 L 10.000002 -9 " transform="matrix(-767.591364,324.419392,324.419392,767.591364,9137.041098,1641.034277)"/>
<path style="fill:none;stroke-width:0.005;stroke-linecap:butt;stroke-linejoin:miter;stroke:rgb(80%,80%,80%);stroke-opacity:1;stroke-miterlimit:10;" d="M -9.999998 -8.000001 L 9.999998 -8.000001 " transform="matrix(-767.591364,324.419392,324.419392,767.591364,9137.041098,1641.034277)"/>
<path style="fill:none;stroke-width:0.005;stroke-linecap:butt;stroke-linejoin:miter;stroke:rgb(80%,80%,80%);stroke-opacity:1;stroke-miterlimit:10;" d="M -10.000001 -7.000002 L 10.000001 -6.999999 " transform="matrix(-767.591364,324.419392,324.419392,767.591364,9137.041098,1641.034277)"/>
<path style="fill:none;stroke-width:0.005;stroke-linecap:butt;stroke-linejoin:miter;stroke:rgb(80%,80%,80%);stroke-opacity:1;stroke-miterlimit:10;" d="M -9.999999 -6 L 10.000002 -6.000001 " transform="matrix(-767.591364,324.419392,324.419392,767.591364,9137.041098,1641.034277)"/>
<path style="fill:none;stroke-width:0.005;stroke-linecap:butt;stroke-linejoin:miter;stroke:rgb(80%,80%,80%);stroke-opacity:1;stroke-miterlimit:10;" d="M -10.000002 -5 L 9.999998 -5.000002 " transform="matrix(-767.591364,324.419392,324.419392,767.591364,9137.041098,1641.034277)"/>
<path style="fill:none;stroke-width:0.005;stroke-linecap:butt;stroke-linejoin:miter;stroke:rgb(80%,80%,80%);stroke-opacity:1;stroke-miterlimit:10;" d="M -9.999999 -3.999998 L 10.000001 -4 " transform="matrix(-767.591364,324.419392,324.419392,767.591364,9137.041098,1641.034277)"/>
<path style="fill:none;stroke-width:0.005;stroke-linecap:butt;stroke-linejoin:miter;stroke:rgb(80%,80%,80%);stroke-opacity:1;stroke-miterlimit:10;" d="M -9.999999 -3 L 9.999998 -3 " transform="matrix(-767.591364,324.419392,324.419392,767.591364,9137.041098,1641.034277)"/>
<path style="fill:none;stroke-width:0.005;stroke-linecap:butt;stroke-linejoin:miter;stroke:rgb(80%,80%,80%);stroke-opacity:1;stroke-miterlimit:10;" d="M -10.000002 -2.000001 L 10 -1.999998 " transform="matrix(-767.591364,324.419392,324.419392,767.591364,9137.041098,1641.034277)"/>
<path style="fill:none;stroke-width:0.005;stroke-linecap:butt;stroke-linejoin:miter;stroke:rgb(80%,80%,80%);stroke-opacity:1;stroke-miterlimit:10;" d="M -9.999999 -0.999999 L 10.000001 -1.000001 " transform="matrix(-767.591364,324.419392,324.419392,767.591364,9137.041098,1641.034277)"/>
<path style="fill:none;stroke-width:0.005;stroke-linecap:butt;stroke-linejoin:miter;stroke:rgb(80%,80%,80%);stroke-opacity:1;stroke-miterlimit:10;" d="M -9.999998 -0.00000131761 L 9.999998 -0.00000113251 " transform="matrix(-767.591364,324.419392,324.419392,767.591364,9137.041098,1641.034277)"/>
<path style="fill:none;stroke-width:0.005;stroke-linecap:butt;stroke-linejoin:miter;stroke:rgb(80%,80%,80%);stroke-opacity:1;stroke-miterlimit:10;" d="M -10 1.000002 L 10 1.000001 " transform="matrix(-767.591364,324.419392,324.419392,767.591364,9137.041098,1641.034277)"/>
<path style="fill:none;stroke-width:0.005;stroke-linecap:butt;stroke-linejoin:miter;stroke:rgb(80%,80%,80%);stroke-opacity:1;stroke-miterlimit:10;" d="M -9.999999 2 L 10.000001 1.999998 " transform="matrix(-767.591364,324.419392,324.419392,767.591364,9137.041098,1641.034277)"/>
<path style="fill:none;stroke-width:0.005;stroke-linecap:butt;stroke-linejoin:miter;stroke:rgb(80%,80%,80%);stroke-opacity:1;stroke-miterlimit:10;" d="M -10.000003 3 L 10 3.000002 " transform="matrix(-767.591364,324.419392,324.419392,767.591364,9137.041098,1641.034277)"/>
<path style="fill:none;stroke-width:0.005;stroke-linecap:butt;stroke-linejoin:miter;stroke:rgb(80%,80%,80%);stroke-opacity:1;stroke-miterlimit:10;" d="M -10 4.000002 L 10 4 " transform="matrix(-767.591364,324.419392,324.419392,767.591364,9137.041098,1641.034277)"/>
<path style="fill:none;stroke-width:0.005;stroke-linecap:butt;stroke-linejoin:miter;stroke:rgb(80%,80%,80%);stroke-opacity:1;stroke-miterlimit:10;" d="M -9.999999 4.999999 L 10.000001 4.999998 " transform="matrix(-767.591364,324.419392,324.419392,767.591364,9137.041098,1641.034277)"/>
<path style="fill:none;stroke-width:0.005;stroke-linecap:butt;stroke-linejoin:miter;stroke:rgb(80%,80%,80%);stroke-opacity:1;stroke-miterlimit:10;" d="M -10.000003 5.999999 L 10 6.000001 " transform="matrix(-767.591364,324.419392,324.419392,767.591364,9137.041098,1641.034277)"/>
<path style="fill:none;stroke-width:0.005;stroke-linecap:butt;stroke-linejoin:miter;stroke:rgb(80%,80%,80%);stroke-opacity:1;stroke-miterlimit:10;" d="M -10 7.000001 L 10.000001 6.999999 " transform="matrix(-767.591364,324.419392,324.419392,767.591364,9137.041098,1641.034277)"/>
<path style="fill:none;stroke-width:0.005;stroke-linecap:butt;stroke-linejoin:miter;stroke:rgb(80%,80%,80%);stroke-opacity:1;stroke-miterlimit:10;" d="M -9.999999 7.999998 L 9.999999 8.000003 " transform="matrix(-767.591364,324.419392,324.419392,767.591364,9137.041098,1641.034277)"/>
<path style="fill:none;stroke-width:0.005;stroke-linecap:butt;stroke-linejoin:miter;stroke:rgb(80%,80%,80%);stroke-opacity:1;stroke-miterlimit:10;" d="M -10.000001 9.000002 L 10 9.000001 " transform="matrix(-767.591364,324.419392,324.419392,767.591364,9137.041098,1641.034277)"/>
<path style="fill:none;stroke-width:0.005;stroke-linecap:butt;stroke-linejoin:miter;stroke:rgb(80%,80%,80%);stroke-opacity:1;stroke-miterlimit:10;" d="M -10 10 L 10.000001 9.999998 " transform="matrix(-767.591364,324.419392,324.419392,767.591364,9137.041098,1641.034277)"/>
<path style="fill-rule:nonzero;fill:rgb(30%,30%,30%);fill-opacity:1;stroke-width:0.04;stroke-linecap:butt;stroke-linejoin:miter;stroke:rgb(0%,0%,0%);stroke-opacity:1;stroke-miterlimit:10;" d="M -0.441656 -0.124992 L 0.441656 -0.124992 C 0.525 -0.124992 0.525 -0.124992 0.525 -0.0416719 L 0.525 0.0416719 C 0.525 0.124992 0.525 0.124992 0.441656 0.124992 L -0.441656 0.124992 C -0.525 0.124992 -0.525 0.124992 -0.525 0.0416719 L -0.525 -0.0416719 C -0.525 -0.124992 -0.525 -0.124992 -0.441656 -0.124992 " transform="matrix(0,-166.666667,-166.666667,0,312.5,250)"/>
<path style="fill-rule:nonzero;fill:rgb(30%,30%,30%);fill-opacity:1;stroke-width:0.04;stroke-linecap:butt;stroke-linejoin:miter;stroke:rgb(0%,0%,0%);stroke-opacity:1;stroke-miterlimit:10;" d="M -0.441656 -0.124992 L 0.441656 -0.124992 C 0.525 -0.124992 0.525 -0.124992 0.525 -0.0416719 L 0.525 0.0416719 C 0.525 0.124992 0.525 0.124992 0.441656 0.124992 L -0.441656 0.124992 C -0.525 0.124992 -0.525 0.124992 -0.525 0.0416719 L -0.525 -0.0416719 C -0.525 -0.124992 -0.525 -0.124992 -0.441656 -0.124992 " transform="matrix(0,-166.666667,-166.666667,0,187.5,250)"/>
<path style="fill-rule:nonzero;fill:rgb(80%,80%,80%);fill-opacity:1;stroke-width:0.01;stroke-linecap:butt;stroke-linejoin:miter;stroke:rgb(0%,0%,0%);stroke-opacity:1;stroke-miterlimit:10;" d="M -0.75 -0.375 L 0.75 -0.375 L 0.75 0.375 L -0.75 0.375 Z M -0.75 -0.375 " transform="matrix(0,-166.666667,-166.666667,0,250,250)"/>
<path style="fill-rule:nonzero;fill:rgb(100%,100%,0%);fill-opacity:1;stroke-width:0.005;stroke-linecap:butt;stroke-linejoin:miter;stroke:rgb(0%,0%,0%);stroke-opacity:1;stroke-miterlimit:10;" d="M -0.5 -0.5 L 0.5 -0.5 L 0.5 0.5 L -0.5 0.5 Z M -0.5 -0.5 " transform="matrix(0,-75,-75,0,250,225)"/>
<path style=" stroke:none;fill-rule:nonzero;fill:rgb(0%,0%,0%);fill-opacity:1;" d="M 273.4375 212.5 L 273.4375 187.5 L 226.5625 187.5 L 226.5625 212.5 Z M 273.4375 212.5 "/>
</g>
</svg>
