<?xml version="1.0" encoding="UTF-8"?>
<svg xmlns="http://www.w3.org/2000/svg" xmlns:xlink="http://www.w3.org/1999/xlink" width="500pt" height="500pt" viewBox="0 0 500 500" version="1.1">
<g id="surface0">
<path style="fill:none;stroke-width:0.005;stroke-linecap:butt;stroke-linejoin:miter;stroke:rgb(80%,80%,80%);stroke-opacity:1;stroke-miterlimit:10;" d="M -10.000001 -10.000002 L -10 10 " transform="matrix(-812.530183,-185.038229,-185.038229,812.530183,7872.849718,-2859.496625)"/>
<path style="fill:none;stroke-width:0.005;stroke-linecap:butt;stroke-linejoin:miter;stroke:rgb(80%,80%,80%);stroke-opacity:1;stroke-miterlimit:10;" d="M -9.000001 -9.999999 L -8.999999 9.999999 " transform="matrix(-812.530183,-185.038229,-185.038229,812.530183,7872.849718,-2859.496625)"/>
<path style="fill:none;stroke-width:0.005;stroke-linecap:butt;stroke-linejoin:miter;stroke:rgb(80%,80%,80%);stroke-opacity:1;stroke-miterlimit:10;" d="M -7.999999 -9.999999 L -7.999997 9.999999 " transform="matrix(-812.530183,-185.038229,-185.038229,812.530183,7872.849718,-2859.496625)"/>
<path style="fill:none;stroke-width:0.005;stroke-linecap:butt;stroke-linejoin:miter;stroke:rgb(80%,80%,80%);stroke-opacity:1;stroke-miterlimit:10;" d="M -6.999998 -10 L -7.000002 10.000001 " transform="matrix(-812.530183,-185.038229,-185.038229,812.530183,7872.849718,-2859.496625)"/>
<path style="fill:none;stroke-width:0.005;stroke-linecap:butt;stroke-linejoin:miter;stroke:rgb(80%,80%,80%);stroke-opacity:1;stroke-miterlimit:10;" d="M -6.000001 -10.000002 L -6 10.000001 " transform="matrix(-812.530183,-185.038229,-185.038229,812.530183,7872.849718,-2859.496625)"/>
<path style="fill:none;stroke-width:0.005;stroke-linecap:butt;stroke-linejoin:miter;stroke:rgb(80%,80%,80%);stroke-opacity:1;stroke-miterlimit:10;" d="M -5 -9.999998 L -4.999999 10 " transform="matrix(-812.530183,-185.038229,-185.038229,812.530183,7872.849718,-2859.496625)"/>
<path style="fill:none;stroke-width:0.005;stroke-linecap:butt;stroke-linejoin:miter;stroke:rgb(80%,80%,80%);stroke-opacity:1;stroke-miterlimit:10;" d="M -3.999999 -9.999999 L -4.000002 9.999998 " transform="matrix(-812.530183,-185.038229,-185.038229,812.530183,7872.849718,-2859.496625)"/>
<path style="fill:none;stroke-width:0.005;stroke-linecap:butt;stroke-linejoin:miter;stroke:rgb(80%,80%,80%);stroke-opacity:1;stroke-miterlimit:10;" d="M -3.000002 -10 L -3 9.999998 " transform="matrix(-812.530183,-185.038229,-185.038229,812.530183,7872.849718,-2859.496625)"/>
<path style="fill:none;stroke-width:0.005;stroke-linecap:butt;stroke-linejoin:miter;stroke:rgb(80%,80%,80%);stroke-opacity:1;stroke-miterlimit:10;" d="M -2.000001 -10.000001 L -2 10.000001 " transform="matrix(-812.530183,-185.038229,-185.038229,812.530183,7872.849718,-2859.496625)"/>
<path style="fill:none;stroke-width:0.005;stroke-linecap:butt;stroke-linejoin:miter;stroke:rgb(80%,80%,80%);stroke-opacity:1;stroke-miterlimit:10;" d="M -0.999999 -10.000002 L -0.999998 10.000001 " transform="matrix(-812.530183,-185.038229,-185.038229,812.530183,7872.849718,-2859.496625)"/>
<path style="fill:none;stroke-width:0.005;stroke-linecap:butt;stroke-linejoin:miter;stroke:rgb(80%,80%,80%);stroke-opacity:1;stroke-miterlimit:10;" d="M 0.00000138091 -9.999998 L -0.00000141055 9.999999 " transform="matrix(-812.530183,-185.038229,-185.038229,812.530183,7872.849718,-2859.496625)"/>
<path style="fill:none;stroke-width:0.005;stroke-linecap:butt;stroke-linejoin:miter;stroke:rgb(80%,80%,80%);stroke-opacity:1;stroke-miterlimit:10;" d="M 0.999998 -9.999999 L 1 9.999998 " transform="matrix(-812.530183,-185.038229,-185.038229,812.530183,7872.849718,-2859.496625)"/>
<path style="fill:none;stroke-width:0.005;stroke-linecap:butt;stroke-linejoin:miter;stroke:rgb(80%,80%,80%);stroke-opacity:1;stroke-miterlimit:10;" d="M 2 -10 L 2 10.000002 " transform="matrix(-812.530183,-185.038229,-185.038229,812.530183,7872.849718,-2859.496625)"/>
<path style="fill:none;stroke-width:0.005;stroke-linecap:butt;stroke-linejoin:miter;stroke:rgb(80%,80%,80%);stroke-opacity:1;stroke-miterlimit:10;" d="M 3.000001 -10.000001 L 3.000002 10.000002 " transform="matrix(-812.530183,-185.038229,-185.038229,812.530183,7872.849718,-2859.496625)"/>
<path style="fill:none;stroke-width:0.005;stroke-linecap:butt;stroke-linejoin:miter;stroke:rgb(80%,80%,80%);stroke-opacity:1;stroke-miterlimit:10;" d="M 4.000003 -10.000002 L 3.999999 10 " transform="matrix(-812.530183,-185.038229,-185.038229,812.530183,7872.849718,-2859.496625)"/>
<path style="fill:none;stroke-width:0.005;stroke-linecap:butt;stroke-linejoin:miter;stroke:rgb(80%,80%,80%);stroke-opacity:1;stroke-miterlimit:10;" d="M 4.999999 -9.999999 L 5 9.999999 " transform="matrix(-812.530183,-185.038229,-185.038229,812.530183,7872.849718,-2859.496625)"/>
<path style="fill:none;stroke-width:0.005;stroke-linecap:butt;stroke-linejoin:miter;stroke:rgb(80%,80%,80%);stroke-opacity:1;stroke-miterlimit:10;" d="M 6 -9.999999 L 6.000002 9.999998 " transform="matrix(-812.530183,-185.038229,-185.038229,812.530183,7872.849718,-2859.496625)"/>
<path style="fill:none;stroke-width:0.005;stroke-linecap:butt;stroke-linejoin:miter;stroke:rgb(80%,80%,80%);stroke-opacity:1;stroke-miterlimit:10;" d="M 7.000001 -10 L 6.999998 10.000001 " transform="matrix(-812.530183,-185.038229,-185.038229,812.530183,7872.849718,-2859.496625)"/>
<path style="fill:none;stroke-width:0.005;stroke-linecap:butt;stroke-linejoin:miter;stroke:rgb(80%,80%,80%);stroke-opacity:1;stroke-miterlimit:10;" d="M 7.999998 -10.000002 L 7.999999 10.000001 " transform="matrix(-812.530183,-185.038229,-185.038229,812.530183,7872.849718,-2859.496625)"/>
<path style="fill:none;stroke-width:0.005;stroke-linecap:butt;stroke-linejoin:miter;stroke:rgb(80%,80%,80%);stroke-opacity:1;stroke-miterlimit:10;" d="M 8.999999 -9.999998 L 9.000001 10 " transform="matrix(-812.530183,-185.038229,-185.038229,812.530183,7872.849718,-2859.496625)"/>
<path style="fill:none;stroke-width:0.005;stroke-linecap:butt;stroke-linejoin:miter;stroke:rgb(80%,80%,80%);stroke-opacity:1;stroke-miterlimit:10;" d="M 10 -9.999999 L 10.000002 9.999999 " transform="matrix(-812.530183,-185.038229,-185.038229,812.530183,7872.849718,-2859.496625)"/>
<path style="fill:none;stroke-width:0.005;stroke-linecap:butt;stroke-linejoin:miter;stroke:rgb(80%,80%,80%);stroke-opacity:1;stroke-miterlimit:10;" d="M -10.000001 -10.000002 L 10 -9.999999 " transform="matrix(-812.530183,-185.038229,-185.038229,812.530183,7872.849718,-2859.496625)"/>
<path style="fill:none;stroke-width:0.005;stroke-linecap:butt;stroke-linejoin:miter;stroke:rgb(80%,80%,80%);stroke-opacity:1;stroke-miterlimit:10;" d="M -10 -9.000001 L 10.000002 -9.000002 " transform="matrix(-812.530183,-185.038229,-185.038229,812.530183,7872.849718,-2859.496625)"/>
<path style="fill:none;stroke-width:0.005;stroke-linecap:butt;stroke-linejoin:miter;stroke:rgb(80%,80%,80%);stroke-opacity:1;stroke-miterlimit:10;" d="M -10 -8 L 9.999998 -8.000001 " transform="matrix(-812.530183,-185.038229,-185.038229,812.530183,7872.849718,-2859.496625)"/>
<path style="fill:none;stroke-width:0.005;stroke-linecap:butt;stroke-linejoin:miter;stroke:rgb(80%,80%,80%);stroke-opacity:1;stroke-miterlimit:10;" d="M -9.999999 -6.999998 L 9.999999 -7 " transform="matrix(-812.530183,-185.038229,-185.038229,812.530183,7872.849718,-2859.496625)"/>
<path style="fill:none;stroke-width:0.005;stroke-linecap:butt;stroke-linejoin:miter;stroke:rgb(80%,80%,80%);stroke-opacity:1;stroke-miterlimit:10;" d="M -10.000002 -6.000002 L 10 -5.999998 " transform="matrix(-812.530183,-185.038229,-185.038229,812.530183,7872.849718,-2859.496625)"/>
<path style="fill:none;stroke-width:0.005;stroke-linecap:butt;stroke-linejoin:miter;stroke:rgb(80%,80%,80%);stroke-opacity:1;stroke-miterlimit:10;" d="M -10.000001 -5.000001 L 10.000001 -5.000001 " transform="matrix(-812.530183,-185.038229,-185.038229,812.530183,7872.849718,-2859.496625)"/>
<path style="fill:none;stroke-width:0.005;stroke-linecap:butt;stroke-linejoin:miter;stroke:rgb(80%,80%,80%);stroke-opacity:1;stroke-miterlimit:10;" d="M -10 -3.999999 L 10.000002 -4 " transform="matrix(-812.530183,-185.038229,-185.038229,812.530183,7872.849718,-2859.496625)"/>
<path style="fill:none;stroke-width:0.005;stroke-linecap:butt;stroke-linejoin:miter;stroke:rgb(80%,80%,80%);stroke-opacity:1;stroke-miterlimit:10;" d="M -10 -2.999998 L 9.999998 -3 " transform="matrix(-812.530183,-185.038229,-185.038229,812.530183,7872.849718,-2859.496625)"/>
<path style="fill:none;stroke-width:0.005;stroke-linecap:butt;stroke-linejoin:miter;stroke:rgb(80%,80%,80%);stroke-opacity:1;stroke-miterlimit:10;" d="M -9.999998 -2.000001 L 9.999999 -1.999998 " transform="matrix(-812.530183,-185.038229,-185.038229,812.530183,7872.849718,-2859.496625)"/>
<path style="fill:none;stroke-width:0.005;stroke-linecap:butt;stroke-linejoin:miter;stroke:rgb(80%,80%,80%);stroke-opacity:1;stroke-miterlimit:10;" d="M -10.000002 -1 L 10 -1.000001 " transform="matrix(-812.530183,-185.038229,-185.038229,812.530183,7872.849718,-2859.496625)"/>
<path style="fill:none;stroke-width:0.005;stroke-linecap:butt;stroke-linejoin:miter;stroke:rgb(80%,80%,80%);stroke-opacity:1;stroke-miterlimit:10;" d="M -10.000001 0.00000101963 L 10.000001 0.000000281444 " transform="matrix(-812.530183,-185.038229,-185.038229,812.530183,7872.849718,-2859.496625)"/>
<path style="fill:none;stroke-width:0.005;stroke-linecap:butt;stroke-linejoin:miter;stroke:rgb(80%,80%,80%);stroke-opacity:1;stroke-miterlimit:10;" d="M -9.999999 0.999998 L 10.000002 1.000002 " transform="matrix(-812.530183,-185.038229,-185.038229,812.530183,7872.849718,-2859.496625)"/>
<path style="fill:none;stroke-width:0.005;stroke-linecap:butt;stroke-linejoin:miter;stroke:rgb(80%,80%,80%);stroke-opacity:1;stroke-miterlimit:10;" d="M -9.999999 1.999999 L 9.999999 1.999998 " transform="matrix(-812.530183,-185.038229,-185.038229,812.530183,7872.849718,-2859.496625)"/>
<path style="fill:none;stroke-width:0.005;stroke-linecap:butt;stroke-linejoin:miter;stroke:rgb(80%,80%,80%);stroke-opacity:1;stroke-miterlimit:10;" d="M -9.999998 3.000001 L 10 2.999999 " transform="matrix(-812.530183,-185.038229,-185.038229,812.530183,7872.849718,-2859.496625)"/>
<path style="fill:none;stroke-width:0.005;stroke-linecap:butt;stroke-linejoin:miter;stroke:rgb(80%,80%,80%);stroke-opacity:1;stroke-miterlimit:10;" d="M -10.000002 4.000001 L 10 4.000001 " transform="matrix(-812.530183,-185.038229,-185.038229,812.530183,7872.849718,-2859.496625)"/>
<path style="fill:none;stroke-width:0.005;stroke-linecap:butt;stroke-linejoin:miter;stroke:rgb(80%,80%,80%);stroke-opacity:1;stroke-miterlimit:10;" d="M -10 4.999998 L 10.000001 5.000002 " transform="matrix(-812.530183,-185.038229,-185.038229,812.530183,7872.849718,-2859.496625)"/>
<path style="fill:none;stroke-width:0.005;stroke-linecap:butt;stroke-linejoin:miter;stroke:rgb(80%,80%,80%);stroke-opacity:1;stroke-miterlimit:10;" d="M -10 6 L 9.999998 5.999998 " transform="matrix(-812.530183,-185.038229,-185.038229,812.530183,7872.849718,-2859.496625)"/>
<path style="fill:none;stroke-width:0.005;stroke-linecap:butt;stroke-linejoin:miter;stroke:rgb(80%,80%,80%);stroke-opacity:1;stroke-miterlimit:10;" d="M -9.999999 7.000001 L 9.999999 6.999999 " transform="matrix(-812.530183,-185.038229,-185.038229,812.530183,7872.849718,-2859.496625)"/>
<path style="fill:none;stroke-width:0.005;stroke-linecap:butt;stroke-linejoin:miter;stroke:rgb(80%,80%,80%);stroke-opacity:1;stroke-miterlimit:10;" d="M -10.000003 8.000002 L 10 8.000001 " transform="matrix(-812.530183,-185.038229,-185.038229,812.530183,7872.849718,-2859.496625)"/>
<path style="fill:none;stroke-width:0.005;stroke-linecap:butt;stroke-linejoin:miter;stroke:rgb(80%,80%,80%);stroke-opacity:1;stroke-miterlimit:10;" d="M -10.000001 8.999998 L 10 9.000002 " transform="matrix(-812.530183,-185.038229,-185.038229,812.530183,7872.849718,-2859.496625)"/>
<path style="fill:none;stroke-width:0.005;stroke-linecap:butt;stroke-linejoin:miter;stroke:rgb(80%,80%,80%);stroke-opacity:1;stroke-miterlimit:10;" d="M -10 10 L 10.000002 9.999999 " transform="matrix(-812.530183,-185.038229,-185.038229,812.530183,7872.849718,-2859.496625)"/>
<path style="fill-rule:nonzero;fill:rgb(30%,30%,30%);fill-opacity:1;stroke-width:0.04;stroke-linecap:butt;stroke-linejoin:miter;stroke:rgb(0%,0%,0%);stroke-opacity:1;stroke-miterlimit:10;" d="M -0.441656 -0.124992 L 0.441656 -0.124992 C 0.525 -0.124992 0.525 -0.124992 0.525 -0.0416719 L 0.525 0.0416719 C 0.525 0.124992 0.525 0.124992 0.441656 0.124992 L -0.441656 0.124992 C -0.525 0.124992 -0.525 0.124992 -0.525 0.0416719 L -0.525 -0.0416719 C -0.525 -0.124992 -0.525 -0.124992 -0.441656 -0.124992 " transform="matrix(0.000000000000011369,-166.666667,-166.666667,-0.000000000000011369,312.5,250)"/>
<path style="fill-rule:nonzero;fill:rgb(30%,30%,30%);fill-opacity:1;stroke-width:0.04;stroke-linecap:butt;stroke-linejoin:miter;stroke:rgb(0%,0%,0%);stroke-opacity:1;stroke-miterlimit:10;" d="M -0.441656 -0.124992 L 0.441656 -0.124992 C 0.525 -0.124992 0.525 -0.124992 0.525 -0.0416719 L 0.525 0.0416719 C 0.525 0.124992 0.525 0.124992 0.441656 0.124992 L -0.441656 0.124992 C -0.525 0.124992 -0.525 0.124992 -0.525 0.0416719 L -0.525 -0.0416719 C -0.525 -0.124992 -0.525 -0.124992 -0.441656 -0.124992 " transform="matrix(0.000000000000011369,-166.666667,-166.666667,-0.000000000000011369,187.5,250)"/>
<path style="fill-rule:nonzero;fill:rgb(80%,80%,80%);fill-opacity:1;stroke-width:0.01;stroke-linecap:butt;stroke-linejoin:miter;stroke:rgb(0%,0%,0%);stroke-opacity:1;stroke-miterlimit:10;" d="M -0.75 -0.375 L 0.75 -0.375 L 0.75 0.375 L -0.75 0.375 Z M -0.75 -0.375 " transform="matrix(0.000000000000011369,-166.666667,-166.666667,-0.000000000000011369,250,250)"/>
<path style="fill-rule:nonzero;fill:rgb(100%,100%,100%);fill-opacity:1;stroke-width:0.05;stroke-linecap:butt;stroke-linejoin:miter;stroke:rgb(0%,0%,0%);stroke-opacity:1;stroke-miterlimit:10;" d="M 0.999961 0.000000000000000888 C 0.999961 0.552305 0.552305 0.999961 0.00000000000002176 0.999961 C -0.552305 0.999961 -0.999961 0.552305 -0.999961 0.000000000000000888 C -0.999961 -0.552305 -0.552305 -0.999961 0.00000000000002176 -0.999961 C 0.552305 -0.999961 0.999961 -0.552305 0.999961 0.000000000000000888 " transform="matrix(0.000000000000002274,-33.333333,-33.333333,-0.000000000000002274,250,125)"/>
<path style=" stroke:none;fill-rule:nonzero;fill:rgb(60%,30%,0%);fill-opacity:1;" d="M 250 91.667969 C 240.796875 91.667969 233.332031 99.128906 233.332031 108.332031 C 233.332031 117.539062 240.796875 125 250 125 C 259.203125 125 266.667969 117.539062 266.667969 108.332031 C 266.667969 99.128906 259.203125 91.667969 250 91.667969 "/>
<path style=" stroke:none;fill-rule:nonzero;fill:rgb(0%,0%,0%);fill-opacity:1;" d="M 250 97.667969 C 245.949219 97.667969 242.667969 100.949219 242.667969 105 C 242.667969 109.050781 245.949219 112.332031 250 112.332031 C 254.050781 112.332031 257.332031 109.050781 257.332031 105 C 257.332031 100.949219 254.050781 97.667969 250 97.667969 "/>
<path style="fill-rule:nonzero;fill:rgb(100%,100%,100%);fill-opacity:1;stroke-width:0.05;stroke-linecap:butt;stroke-linejoin:miter;stroke:rgb(0%,0%,0%);stroke-opacity:1;stroke-miterlimit:10;" d="M 0.999961 0.0000390625 C 0.999961 0.552227 0.552305 1 0.000000000000004441 1 C -0.552305 1 -0.999961 0.552227 -0.999961 0.0000390625 C -0.999961 -0.552266 -0.552305 -1.000039 0.000000000000005329 -1.000039 C 0.552305 -1.000039 0.999961 -0.552266 0.999961 0.0000390625 " transform="matrix(-33.333333,-0.000000000000022737,-0.000000000000022737,33.333333,187.5,291.666667)"/>
<path style=" stroke:none;fill-rule:nonzero;fill:rgb(60%,30%,0%);fill-opacity:1;" d="M 154.167969 291.667969 C 154.167969 300.871094 161.628906 308.332031 170.832031 308.332031 C 180.039062 308.332031 187.5 300.871094 187.5 291.667969 C 187.5 282.460938 180.039062 275 170.832031 275 C 161.628906 275 154.167969 282.460938 154.167969 291.667969 "/>
<path style=" stroke:none;fill-rule:nonzero;fill:rgb(0%,0%,0%);fill-opacity:1;" d="M 160.167969 291.667969 C 160.167969 295.714844 163.449219 299 167.5 299 C 171.550781 299 174.832031 295.714844 174.832031 291.667969 C 174.832031 287.617188 171.550781 284.332031 167.5 284.332031 C 163.449219 284.332031 160.167969 287.617188 160.167969 291.667969 "/>
<path style="fill-rule:nonzero;fill:rgb(100%,100%,100%);fill-opacity:1;stroke-width:0.05;stroke-linecap:butt;stroke-linejoin:miter;stroke:rgb(0%,0%,0%);stroke-opacity:1;stroke-miterlimit:10;" d="M 0.999961 -0.0000390625 C 0.999961 0.552266 0.552305 1.000039 -0.000000000000044409 1.000039 C -0.552305 1.000039 -0.999961 0.552266 -0.999961 -0.0000390625 C -0.999961 -0.552227 -0.552305 -1 -0.000000000000044409 -1 C 0.552305 -1 0.999961 -0.552227 0.999961 -0.0000390625 " transform="matrix(33.333333,0.000000000000007958,0.000000000000007958,-33.333333,312.5,291.666667)"/>
<path style=" stroke:none;fill-rule:nonzero;fill:rgb(60%,30%,0%);fill-opacity:1;" d="M 345.832031 291.667969 C 345.832031 282.460938 338.371094 275 329.167969 275 C 319.960938 275 312.5 282.460938 312.5 291.667969 C 312.5 300.871094 319.960938 308.332031 329.167969 308.332031 C 338.371094 308.332031 345.832031 300.871094 345.832031 291.667969 "/>
<path style=" stroke:none;fill-rule:nonzero;fill:rgb(0%,0%,0%);fill-opacity:1;" d="M 339.832031 291.667969 C 339.832031 287.617188 336.550781 284.332031 332.5 284.332031 C 328.449219 284.332031 325.167969 287.617188 325.167969 291.667969 C 325.167969 295.714844 328.449219 299 332.5 299 C 336.550781 299 339.832031 295.714844 339.832031 291.667969 "/>
<path style="fill-rule:nonzero;fill:rgb(100%,100%,100%);fill-opacity:1;stroke-width:0.05;stroke-linecap:butt;stroke-linejoin:miter;stroke:rgb(0%,0%,0%);stroke-opacity:1;stroke-miterlimit:10;" d="M 0.999961 -0.000000000000042633 C 0.999961 0.552305 0.552305 0.999961 -0.000000000000017764 0.999961 C -0.552305 0.999961 -0.999961 0.552305 -0.999961 -0.000000000000042633 C -0.999961 -0.552305 -0.552305 -0.999961 -0.000000000000017764 -0.999961 C 0.552305 -0.999961 0.999961 -0.552305 0.999961 -0.000000000000042633 " transform="matrix(0.000000000000001137,33.333333,33.333333,-0.000000000000001137,250,375)"/>
<path style=" stroke:none;fill-rule:nonzero;fill:rgb(60%,30%,0%);fill-opacity:1;" d="M 250 408.332031 C 259.203125 408.332031 266.667969 400.871094 266.667969 391.667969 C 266.667969 382.460938 259.203125 375 250 375 C 240.796875 375 233.332031 382.460938 233.332031 391.667969 C 233.332031 400.871094 240.796875 408.332031 250 408.332031 "/>
<path style=" stroke:none;fill-rule:nonzero;fill:rgb(0%,0%,0%);fill-opacity:1;" d="M 250 402.332031 C 254.050781 402.332031 257.332031 399.050781 257.332031 395 C 257.332031 390.949219 254.050781 387.667969 250 387.667969 C 245.949219 387.667969 242.667969 390.949219 242.667969 395 C 242.667969 399.050781 245.949219 402.332031 250 402.332031 "/>
</g>
</svg>
