<?xml version="1.0" encoding="UTF-8"?>
<svg xmlns="http://www.w3.org/2000/svg" xmlns:xlink="http://www.w3.org/1999/xlink" width="500pt" height="500pt" viewBox="0 0 500 500" version="1.1">
<g id="surface0">
<path style="fill:none;stroke-width:0.005;stroke-linecap:butt;stroke-linejoin:miter;stroke:rgb(80%,80%,80%);stroke-opacity:1;stroke-miterlimit:10;" d="M -9.999998 -10.000003 L -10.000003 9.999998 " transform="matrix(-173.435282,-284.659997,-284.659997,173.435282,250,250)"/>
<path style="fill:none;stroke-width:0.005;stroke-linecap:butt;stroke-linejoin:miter;stroke:rgb(80%,80%,80%);stroke-opacity:1;stroke-miterlimit:10;" d="M -8.999994 -9.999997 L -8.999999 10.000003 " transform="matrix(-173.435282,-284.659997,-284.659997,173.435282,250,250)"/>
<path style="fill:none;stroke-width:0.005;stroke-linecap:butt;stroke-linejoin:miter;stroke:rgb(80%,80%,80%);stroke-opacity:1;stroke-miterlimit:10;" d="M -7.999996 -10.000002 L -8.000001 9.999999 " transform="matrix(-173.435282,-284.659997,-284.659997,173.435282,250,250)"/>
<path style="fill:none;stroke-width:0.005;stroke-linecap:butt;stroke-linejoin:miter;stroke:rgb(80%,80%,80%);stroke-opacity:1;stroke-miterlimit:10;" d="M -6.999998 -10.000006 L -6.999997 10.000004 " transform="matrix(-173.435282,-284.659997,-284.659997,173.435282,250,250)"/>
<path style="fill:none;stroke-width:0.005;stroke-linecap:butt;stroke-linejoin:miter;stroke:rgb(80%,80%,80%);stroke-opacity:1;stroke-miterlimit:10;" d="M -5.999995 -10.000001 L -5.999999 10 " transform="matrix(-173.435282,-284.659997,-284.659997,173.435282,250,250)"/>
<path style="fill:none;stroke-width:0.005;stroke-linecap:butt;stroke-linejoin:miter;stroke:rgb(80%,80%,80%);stroke-opacity:1;stroke-miterlimit:10;" d="M -4.999997 -10.000005 L -5.000001 9.999995 " transform="matrix(-173.435282,-284.659997,-284.659997,173.435282,250,250)"/>
<path style="fill:none;stroke-width:0.005;stroke-linecap:butt;stroke-linejoin:miter;stroke:rgb(80%,80%,80%);stroke-opacity:1;stroke-miterlimit:10;" d="M -4.000003 -9.999994 L -3.999998 10 " transform="matrix(-173.435282,-284.659997,-284.659997,173.435282,250,250)"/>
<path style="fill:none;stroke-width:0.005;stroke-linecap:butt;stroke-linejoin:miter;stroke:rgb(80%,80%,80%);stroke-opacity:1;stroke-miterlimit:10;" d="M -3.000005 -9.999998 L -3 9.999996 " transform="matrix(-173.435282,-284.659997,-284.659997,173.435282,250,250)"/>
<path style="fill:none;stroke-width:0.005;stroke-linecap:butt;stroke-linejoin:miter;stroke:rgb(80%,80%,80%);stroke-opacity:1;stroke-miterlimit:10;" d="M -2.000001 -9.999993 L -1.999996 10.000001 " transform="matrix(-173.435282,-284.659997,-284.659997,173.435282,250,250)"/>
<path style="fill:none;stroke-width:0.005;stroke-linecap:butt;stroke-linejoin:miter;stroke:rgb(80%,80%,80%);stroke-opacity:1;stroke-miterlimit:10;" d="M -1.000003 -9.999998 L -0.999998 9.999997 " transform="matrix(-173.435282,-284.659997,-284.659997,173.435282,250,250)"/>
<path style="fill:none;stroke-width:0.005;stroke-linecap:butt;stroke-linejoin:miter;stroke:rgb(80%,80%,80%);stroke-opacity:1;stroke-miterlimit:10;" d="M -0.00000570139 -10.000002 L 0.00000570139 10.000002 " transform="matrix(-173.435282,-284.659997,-284.659997,173.435282,250,250)"/>
<path style="fill:none;stroke-width:0.005;stroke-linecap:butt;stroke-linejoin:miter;stroke:rgb(80%,80%,80%);stroke-opacity:1;stroke-miterlimit:10;" d="M 0.999998 -9.999997 L 1.000003 9.999998 " transform="matrix(-173.435282,-284.659997,-284.659997,173.435282,250,250)"/>
<path style="fill:none;stroke-width:0.005;stroke-linecap:butt;stroke-linejoin:miter;stroke:rgb(80%,80%,80%);stroke-opacity:1;stroke-miterlimit:10;" d="M 1.999996 -10.000001 L 2.000001 9.999993 " transform="matrix(-173.435282,-284.659997,-284.659997,173.435282,250,250)"/>
<path style="fill:none;stroke-width:0.005;stroke-linecap:butt;stroke-linejoin:miter;stroke:rgb(80%,80%,80%);stroke-opacity:1;stroke-miterlimit:10;" d="M 3 -9.999996 L 3.000005 9.999998 " transform="matrix(-173.435282,-284.659997,-284.659997,173.435282,250,250)"/>
<path style="fill:none;stroke-width:0.005;stroke-linecap:butt;stroke-linejoin:miter;stroke:rgb(80%,80%,80%);stroke-opacity:1;stroke-miterlimit:10;" d="M 3.999998 -10 L 4.000003 9.999994 " transform="matrix(-173.435282,-284.659997,-284.659997,173.435282,250,250)"/>
<path style="fill:none;stroke-width:0.005;stroke-linecap:butt;stroke-linejoin:miter;stroke:rgb(80%,80%,80%);stroke-opacity:1;stroke-miterlimit:10;" d="M 5.000001 -9.999995 L 4.999997 10.000005 " transform="matrix(-173.435282,-284.659997,-284.659997,173.435282,250,250)"/>
<path style="fill:none;stroke-width:0.005;stroke-linecap:butt;stroke-linejoin:miter;stroke:rgb(80%,80%,80%);stroke-opacity:1;stroke-miterlimit:10;" d="M 5.999999 -10 L 5.999995 10.000001 " transform="matrix(-173.435282,-284.659997,-284.659997,173.435282,250,250)"/>
<path style="fill:none;stroke-width:0.005;stroke-linecap:butt;stroke-linejoin:miter;stroke:rgb(80%,80%,80%);stroke-opacity:1;stroke-miterlimit:10;" d="M 6.999997 -10.000004 L 6.999998 10.000006 " transform="matrix(-173.435282,-284.659997,-284.659997,173.435282,250,250)"/>
<path style="fill:none;stroke-width:0.005;stroke-linecap:butt;stroke-linejoin:miter;stroke:rgb(80%,80%,80%);stroke-opacity:1;stroke-miterlimit:10;" d="M 8.000001 -9.999999 L 7.999996 10.000002 " transform="matrix(-173.435282,-284.659997,-284.659997,173.435282,250,250)"/>
<path style="fill:none;stroke-width:0.005;stroke-linecap:butt;stroke-linejoin:miter;stroke:rgb(80%,80%,80%);stroke-opacity:1;stroke-miterlimit:10;" d="M 8.999999 -10.000003 L 8.999994 9.999997 " transform="matrix(-173.435282,-284.659997,-284.659997,173.435282,250,250)"/>
<path style="fill:none;stroke-width:0.005;stroke-linecap:butt;stroke-linejoin:miter;stroke:rgb(80%,80%,80%);stroke-opacity:1;stroke-miterlimit:10;" d="M 10.000003 -9.999998 L 9.999998 10.000003 " transform="matrix(-173.435282,-284.659997,-284.659997,173.435282,250,250)"/>
<path style="fill:none;stroke-width:0.005;stroke-linecap:butt;stroke-linejoin:miter;stroke:rgb(80%,80%,80%);stroke-opacity:1;stroke-miterlimit:10;" d="M -9.999998 -10.000003 L 10.000003 -9.999998 " transform="matrix(-173.435282,-284.659997,-284.659997,173.435282,250,250)"/>
<path style="fill:none;stroke-width:0.005;stroke-linecap:butt;stroke-linejoin:miter;stroke:rgb(80%,80%,80%);stroke-opacity:1;stroke-miterlimit:10;" d="M -10.000003 -8.999999 L 9.999997 -8.999994 " transform="matrix(-173.435282,-284.659997,-284.659997,173.435282,250,250)"/>
<path style="fill:none;stroke-width:0.005;stroke-linecap:butt;stroke-linejoin:miter;stroke:rgb(80%,80%,80%);stroke-opacity:1;stroke-miterlimit:10;" d="M -9.999999 -8.000001 L 10.000002 -7.999996 " transform="matrix(-173.435282,-284.659997,-284.659997,173.435282,250,250)"/>
<path style="fill:none;stroke-width:0.005;stroke-linecap:butt;stroke-linejoin:miter;stroke:rgb(80%,80%,80%);stroke-opacity:1;stroke-miterlimit:10;" d="M -10.000004 -6.999997 L 10.000006 -6.999998 " transform="matrix(-173.435282,-284.659997,-284.659997,173.435282,250,250)"/>
<path style="fill:none;stroke-width:0.005;stroke-linecap:butt;stroke-linejoin:miter;stroke:rgb(80%,80%,80%);stroke-opacity:1;stroke-miterlimit:10;" d="M -10 -5.999999 L 10.000001 -5.999995 " transform="matrix(-173.435282,-284.659997,-284.659997,173.435282,250,250)"/>
<path style="fill:none;stroke-width:0.005;stroke-linecap:butt;stroke-linejoin:miter;stroke:rgb(80%,80%,80%);stroke-opacity:1;stroke-miterlimit:10;" d="M -9.999995 -5.000001 L 10.000005 -4.999997 " transform="matrix(-173.435282,-284.659997,-284.659997,173.435282,250,250)"/>
<path style="fill:none;stroke-width:0.005;stroke-linecap:butt;stroke-linejoin:miter;stroke:rgb(80%,80%,80%);stroke-opacity:1;stroke-miterlimit:10;" d="M -10 -3.999998 L 9.999994 -4.000003 " transform="matrix(-173.435282,-284.659997,-284.659997,173.435282,250,250)"/>
<path style="fill:none;stroke-width:0.005;stroke-linecap:butt;stroke-linejoin:miter;stroke:rgb(80%,80%,80%);stroke-opacity:1;stroke-miterlimit:10;" d="M -9.999996 -3 L 9.999998 -3.000005 " transform="matrix(-173.435282,-284.659997,-284.659997,173.435282,250,250)"/>
<path style="fill:none;stroke-width:0.005;stroke-linecap:butt;stroke-linejoin:miter;stroke:rgb(80%,80%,80%);stroke-opacity:1;stroke-miterlimit:10;" d="M -10.000001 -1.999996 L 9.999993 -2.000001 " transform="matrix(-173.435282,-284.659997,-284.659997,173.435282,250,250)"/>
<path style="fill:none;stroke-width:0.005;stroke-linecap:butt;stroke-linejoin:miter;stroke:rgb(80%,80%,80%);stroke-opacity:1;stroke-miterlimit:10;" d="M -9.999997 -0.999998 L 9.999998 -1.000003 " transform="matrix(-173.435282,-284.659997,-284.659997,173.435282,250,250)"/>
<path style="fill:none;stroke-width:0.005;stroke-linecap:butt;stroke-linejoin:miter;stroke:rgb(80%,80%,80%);stroke-opacity:1;stroke-miterlimit:10;" d="M -10.000002 0.00000570139 L 10.000002 -0.00000570139 " transform="matrix(-173.435282,-284.659997,-284.659997,173.435282,250,250)"/>
<path style="fill:none;stroke-width:0.005;stroke-linecap:butt;stroke-linejoin:miter;stroke:rgb(80%,80%,80%);stroke-opacity:1;stroke-miterlimit:10;" d="M -9.999998 1.000003 L 9.999997 0.999998 " transform="matrix(-173.435282,-284.659997,-284.659997,173.435282,250,250)"/>
<path style="fill:none;stroke-width:0.005;stroke-linecap:butt;stroke-linejoin:miter;stroke:rgb(80%,80%,80%);stroke-opacity:1;stroke-miterlimit:10;" d="M -9.999993 2.000001 L 10.000001 1.999996 " transform="matrix(-173.435282,-284.659997,-284.659997,173.435282,250,250)"/>
<path style="fill:none;stroke-width:0.005;stroke-linecap:butt;stroke-linejoin:miter;stroke:rgb(80%,80%,80%);stroke-opacity:1;stroke-miterlimit:10;" d="M -9.999998 3.000005 L 9.999996 3 " transform="matrix(-173.435282,-284.659997,-284.659997,173.435282,250,250)"/>
<path style="fill:none;stroke-width:0.005;stroke-linecap:butt;stroke-linejoin:miter;stroke:rgb(80%,80%,80%);stroke-opacity:1;stroke-miterlimit:10;" d="M -9.999994 4.000003 L 10 3.999998 " transform="matrix(-173.435282,-284.659997,-284.659997,173.435282,250,250)"/>
<path style="fill:none;stroke-width:0.005;stroke-linecap:butt;stroke-linejoin:miter;stroke:rgb(80%,80%,80%);stroke-opacity:1;stroke-miterlimit:10;" d="M -10.000005 4.999997 L 9.999995 5.000001 " transform="matrix(-173.435282,-284.659997,-284.659997,173.435282,250,250)"/>
<path style="fill:none;stroke-width:0.005;stroke-linecap:butt;stroke-linejoin:miter;stroke:rgb(80%,80%,80%);stroke-opacity:1;stroke-miterlimit:10;" d="M -10.000001 5.999995 L 10 5.999999 " transform="matrix(-173.435282,-284.659997,-284.659997,173.435282,250,250)"/>
<path style="fill:none;stroke-width:0.005;stroke-linecap:butt;stroke-linejoin:miter;stroke:rgb(80%,80%,80%);stroke-opacity:1;stroke-miterlimit:10;" d="M -10.000006 6.999998 L 10.000004 6.999997 " transform="matrix(-173.435282,-284.659997,-284.659997,173.435282,250,250)"/>
<path style="fill:none;stroke-width:0.005;stroke-linecap:butt;stroke-linejoin:miter;stroke:rgb(80%,80%,80%);stroke-opacity:1;stroke-miterlimit:10;" d="M -10.000002 7.999996 L 9.999999 8.000001 " transform="matrix(-173.435282,-284.659997,-284.659997,173.435282,250,250)"/>
<path style="fill:none;stroke-width:0.005;stroke-linecap:butt;stroke-linejoin:miter;stroke:rgb(80%,80%,80%);stroke-opacity:1;stroke-miterlimit:10;" d="M -9.999997 8.999994 L 10.000003 8.999999 " transform="matrix(-173.435282,-284.659997,-284.659997,173.435282,250,250)"/>
<path style="fill:none;stroke-width:0.005;stroke-linecap:butt;stroke-linejoin:miter;stroke:rgb(80%,80%,80%);stroke-opacity:1;stroke-miterlimit:10;" d="M -10.000003 9.999998 L 9.999998 10.000003 " transform="matrix(-173.435282,-284.659997,-284.659997,173.435282,250,250)"/>
<path style="fill-rule:nonzero;fill:rgb(80%,80%,80%);fill-opacity:1;stroke-width:0.01;stroke-linecap:butt;stroke-linejoin:miter;stroke:rgb(0%,0%,0%);stroke-opacity:1;stroke-miterlimit:10;" d="M 1.000008 0.000000000000000222 C 1.000008 0.552281 0.552281 1.000008 0 1.000008 C -0.552281 1.000008 -1.000008 0.552281 -1.000008 0 C -1.000008 -0.552281 -0.552281 -1.000008 0.000000000000000222 -1.000008 C 0.552281 -1.000008 1.000008 -0.552281 1.000008 0.000000000000000222 " transform="matrix(0,-166.666667,-166.666667,0,250,250)"/>
<path style="fill:none;stroke-width:0.01;stroke-linecap:butt;stroke-linejoin:miter;stroke:rgb(0%,0%,0%);stroke-opacity:1;stroke-miterlimit:10;" d="M 0.199992 0.000000000000000222 L 1.000008 0.000000000000000222 " transform="matrix(0,-166.666667,-166.666667,0,250,250)"/>
<path style="fill-rule:nonzero;fill:rgb(100%,100%,100%);fill-opacity:1;stroke-width:0.05;stroke-linecap:butt;stroke-linejoin:miter;stroke:rgb(0%,0%,0%);stroke-opacity:1;stroke-miterlimit:10;" d="M 0.999961 0 C 0.999961 0.552305 0.552305 0.999961 0.000000000000000888 0.999961 C -0.552305 0.999961 -0.999961 0.552305 -0.999961 0 C -0.999961 -0.552305 -0.552305 -0.999961 0.000000000000000888 -0.999961 C 0.552305 -0.999961 0.999961 -0.552305 0.999961 0 " transform="matrix(0,-33.333333,-33.333333,0,250,250)"/>
<path style=" stroke:none;fill-rule:nonzero;fill:rgb(60%,30%,0%);fill-opacity:1;" d="M 250 216.667969 C 240.796875 216.667969 233.332031 224.128906 233.332031 233.332031 C 233.332031 242.539062 240.796875 250 250 250 C 259.203125 250 266.667969 242.539062 266.667969 233.332031 C 266.667969 224.128906 259.203125 216.667969 250 216.667969 "/>
<path style=" stroke:none;fill-rule:nonzero;fill:rgb(0%,0%,0%);fill-opacity:1;" d="M 250 222.667969 C 245.949219 222.667969 242.667969 225.949219 242.667969 230 C 242.667969 234.050781 245.949219 237.332031 250 237.332031 C 254.050781 237.332031 257.332031 234.050781 257.332031 230 C 257.332031 225.949219 254.050781 222.667969 250 222.667969 "/>
</g>
</svg>
